<?xml version="1.0" encoding="UTF-8"?>
<svg id="Layer_1" xmlns="http://www.w3.org/2000/svg" xmlns:xlink="http://www.w3.org/1999/xlink" version="1.1" viewBox="0 0 96 96">
  <!-- Generator: Adobe Illustrator 29.4.0, SVG Export Plug-In . SVG Version: 2.1.0 Build 152)  -->
  <defs>
    <style>
      .st0 {
        fill: none;
      }

      .st1 {
        fill: #858485;
      }

      .st2 {
        fill: #e2e2e2;
      }

      .st3 {
        fill: #d9d9d9;
      }

      .st4 {
        fill: #0d2f49;
      }

      .st5 {
        clip-path: url(#clippath-1);
      }

      .st6 {
        fill: #909295;
      }

      .st7 {
        fill: #fff;
      }

      .st8 {
        fill: #42b0d5;
      }

      .st9 {
        fill: #b5e0f5;
      }

      .st10 {
        fill: #ababab;
      }

      .st11 {
        clip-path: url(#clippath);
      }
    </style>
    <clipPath id="clippath">
      <rect class="st0" width="96" height="96" rx="5" ry="5"/>
    </clipPath>
    <clipPath id="clippath-1">
      <rect class="st0" x="9" y="23" width="79" height="57"/>
    </clipPath>
  </defs>
  <g class="st11">
    <g>
      <rect class="st9" width="96" height="96" rx="5" ry="5"/>
      <rect class="st3" y="67" width="96" height="29"/>
      <g class="st5">
        <g>
          <path class="st10" d="M72.84,25.2v51.37h13.21V25.2c0-1.22-.98-2.2-2.2-2.2h-8.81c-1.22,0-2.2.98-2.2,2.2Z"/>
          <path class="st7" d="M72.84,25.2v3.18h13.21v-3.18c0-1.22-.98-2.2-2.2-2.2h-8.81c-1.22,0-2.2.98-2.2,2.2Z"/>
          <path class="st4" d="M76.75,53.46h5.5c.98,0,1.71-.73,1.71-1.71v-12.97c0-.98-.73-1.71-1.71-1.71h-5.5c-.98,0-1.71.73-1.71,1.71v12.97c-.12.98.73,1.71,1.71,1.71Z"/>
          <path class="st2" d="M77.73,51.01c-.61,0-1.22-.49-1.22-1.22v-8.07c0-.61.49-1.22,1.22-1.22h3.42c.61,0,1.22.49,1.22,1.22v8.07c0,.61-.49,1.22-1.22,1.22h-3.42ZM77.73,41.23c-.37,0-.61.24-.61.61v8.07c0,.37.24.61.61.61h3.42c.37,0,.61-.24.61-.61v-8.07c0-.37-.24-.61-.61-.61h-3.42Z"/>
          <path class="st2" d="M78.09,40.12c0-.24.24-.49.49-.49h1.83c.24,0,.49.24.49.49v1.1h-2.81v-1.1ZM80.3,40.12h-1.59v.49h1.59v-.49Z"/>
          <path class="st2" d="M81.27,41.84h-3.67v1.71h3.67v-1.71Z"/>
          <path class="st2" d="M81.27,43.92h-3.67v1.71h3.67v-1.71Z"/>
          <path class="st2" d="M81.27,46.12h-3.67v1.71h3.67v-1.71Z"/>
          <path class="st2" d="M81.27,48.2h-3.67v1.71h3.67v-1.71Z"/>
          <path class="st4" d="M78.71,59.7l5.26,5.26h-3.06l1.59,4.53-5.87-5.99h3.06l-.98-3.79Z"/>
          <path class="st1" d="M88,76.58h-17v2.08h17v-2.08Z"/>
          <path class="st6" d="M72.84,33.76h-1.47v2.45h1.47v-2.45Z"/>
          <path class="st4" d="M62.56,54.24h-4.28v-.83h4.28c2.71,0,4.84-2.13,4.84-4.84v-13.87h3.96v.82h-3.13v13.04c0,3.18-2.49,5.68-5.67,5.68h0Z"/>
          <path class="st4" d="M17.8,80h-4.77c-.98,0-1.83-.86-1.83-1.83v-3.67c0-.98.86-1.83,1.83-1.83h4.77c.98,0,1.83.86,1.83,1.83v3.67c-.12,1.1-.86,1.83-1.83,1.83Z"/>
          <path class="st8" d="M38.11,36.7v37.8H12.91c-1.83,0-3.3-1.47-3.18-3.3l.24-8.32c0-1.22.24-2.45.49-3.55l1.35-5.26c.49-2.08,1.47-4.04,2.81-5.75l7.83-9.91c.86-1.1,2.2-1.71,3.67-1.71h11.98Z"/>
          <path class="st7" d="M14.99,61.9l7.34.86c1.1.12,2.08-.61,2.32-1.71.24-1.1-.37-2.08-1.47-2.45l-7.09-2.08c-1.22-.37-2.57.49-2.69,1.71l-.24,1.22c-.12,1.22.73,2.32,1.83,2.45Z"/>
          <path class="st4" d="M14.14,49.05l-4.16-.61c-.49-.12-.98-.61-.98-1.1v-1.35c0-.73.61-1.22,1.22-1.22h3.91c.61,0,1.1.49,1.1,1.1l.12,1.59-1.22,1.59Z"/>
          <path class="st7" d="M38.11,48.32h-18.59c-.73,0-1.1-.86-.73-1.47l5.14-6.73c.49-.73,1.47-1.22,2.32-1.22h11.86v9.42Z"/>
          <path class="st4" d="M57.92,80h4.77c.98,0,1.83-.86,1.83-1.83v-3.67c0-.98-.86-1.83-1.83-1.83h-4.77c-.98,0-1.83.86-1.83,1.83v3.67c.12,1.1.86,1.83,1.83,1.83Z"/>
          <path class="st8" d="M37.62,36.7v37.8h25.19c1.83,0,3.3-1.47,3.18-3.3l-.24-8.32c0-1.22-.24-2.45-.49-3.55l-1.35-5.26c-.49-2.08-1.47-4.04-2.81-5.75l-7.83-9.91c-.86-1.1-2.2-1.71-3.67-1.71h-11.98Z"/>
          <path class="st7" d="M60.73,61.9l-7.34.86c-1.1.12-2.08-.61-2.32-1.71-.24-1.1.37-2.08,1.47-2.45l7.09-2.08c1.22-.37,2.57.49,2.69,1.71l.24,1.22c.12,1.22-.73,2.32-1.83,2.45Z"/>
          <path class="st4" d="M61.59,49.05l4.16-.61c.61-.12.98-.61.98-1.1v-1.35c0-.61-.49-1.1-1.1-1.1h-4.04c-.61,0-1.1.49-1.1,1.1l-.12,1.47,1.22,1.59Z"/>
          <path class="st7" d="M37.62,48.32h18.59c.73,0,1.1-.86.73-1.47l-5.14-6.73c-.49-.73-1.47-1.22-2.32-1.22h-11.86v9.42Z"/>
          <path class="st4" d="M29.06,61.16c0,1.35,1.1,2.32,2.32,2.32h14.06c1.35,0,2.32-1.1,2.32-2.32,0-1.35-1.1-2.32-2.32-2.32h-13.94c-1.35,0-2.45.98-2.45,2.32Z"/>
          <path class="st7" d="M39.21,75.11h-8.07c-.73,0-1.35-.61-1.35-1.35v-.73c0-.73.61-1.35,1.35-1.35h8.07c.73,0,1.35.61,1.35,1.35v.73c0,.73-.61,1.35-1.35,1.35Z"/>
          <path class="st7" d="M36.52,75.11h8.07c.73,0,1.35-.61,1.35-1.35v-.73c0-.73-.61-1.35-1.35-1.35h-8.07c-.73,0-1.35.61-1.35,1.35v.73c0,.73.61,1.35,1.35,1.35Z"/>
        </g>
      </g>
    </g>
  </g>
</svg>