<?xml version="1.0" encoding="UTF-8"?>
<svg id="Layer_1" xmlns="http://www.w3.org/2000/svg" xmlns:xlink="http://www.w3.org/1999/xlink" version="1.1" viewBox="0 0 96 96">
  <!-- Generator: Adobe Illustrator 29.4.0, SVG Export Plug-In . SVG Version: 2.1.0 Build 152)  -->
  <defs>
    <style>
      .st0 {
        fill: none;
      }

      .st1 {
        fill: #a9a9a9;
      }

      .st2 {
        fill: #43aed3;
      }

      .st3 {
        fill: #d9d9d9;
      }

      .st4 {
        fill: #003e62;
      }

      .st5 {
        fill: #99c5dd;
      }

      .st6 {
        clip-path: url(#clippath-1);
      }

      .st7 {
        clip-path: url(#clippath-2);
      }

      .st8 {
        fill: #43b0d5;
      }

      .st9 {
        fill: #fff;
      }

      .st10 {
        fill: #c1e2f1;
      }

      .st11 {
        fill: #b5e0f5;
      }

      .st12 {
        clip-path: url(#clippath);
      }
    </style>
    <clipPath id="clippath">
      <rect class="st0" width="96" height="96" rx="5" ry="5"/>
    </clipPath>
    <clipPath id="clippath-1">
      <rect class="st0" x="20" y="10" width="57" height="77"/>
    </clipPath>
    <clipPath id="clippath-2">
      <rect class="st0" x="28" y="39" width="45" height="37"/>
    </clipPath>
  </defs>
  <g class="st12">
    <g>
      <rect class="st11" width="96" height="96" rx="5" ry="5"/>
      <rect class="st3" y="67" width="96" height="29"/>
      <g class="st6">
        <g>
          <path class="st4" d="M48.73,36.14l-4.14-18.82c-.08-.38-.12-.77-.12-1.15v-1.88h-5.4v1.88c0,.38-.04.77-.12,1.15l-4.14,18.82c-.14.63-.21,1.26-.21,1.91v11.41c0,1.18.97,2.14,2.15,2.14h10.04c1.19,0,2.15-.96,2.15-2.14v-11.41c0-.65-.07-1.28-.21-1.91Z"/>
          <path class="st1" d="M39.32,10h4.83c.43,0,.77.34.77.77v4.54c0,.08-.07.15-.15.15h-6.07c-.08,0-.15-.07-.15-.15v-4.54c0-.43.34-.77.77-.77Z"/>
          <path class="st9" d="M40.3,11.26h-.44v3.06h.44v-3.06Z"/>
          <path class="st9" d="M41.91,11.26h-.44v3.06h.44v-3.06Z"/>
          <path class="st9" d="M43.56,11.26h-.44v3.06h.44v-3.06Z"/>
          <path class="st4" d="M65.4,17.61h-10.6c-.1,0-.17-.07-.17-.16v-5.59c0-.43.36-.77.79-.77h9.4c.43,0,.77.34.77.77v5.59c0,.08-.04.16-.12.16h-.07Z"/>
          <path class="st9" d="M57.26,12.62h-.59v3.13h.59v-3.13Z"/>
          <path class="st9" d="M59.27,12.62h-.59v3.13h.59v-3.13Z"/>
          <path class="st9" d="M61.31,12.62h-.59v3.13h.59v-3.13Z"/>
          <path class="st9" d="M63.34,12.62h-.59v3.13h.59v-3.13Z"/>
          <path class="st1" d="M65.6,21.31l-.55-.16c-.61-.19-1.02-.74-1.02-1.37v-2.17h-7.79v2.22c0,.63-.41,1.18-1.02,1.37l-.57.16c-2.45.71-4.14,2.95-4.14,5.49v36.44c0,1.58,1.28,2.86,2.87,2.86h13.39c1.59,0,2.87-1.28,2.87-2.86V26.81c0-2.51-1.63-4.75-4.04-5.49Z"/>
          <path class="st1" d="M37.5,27.47h-3.68v-3.54h-6.11v3.54h-3.7c-.94,0-1.71.77-1.71,1.7v24.43c0,.93.77,1.7,1.71,1.7h13.48c.94,0,1.7-.74,1.71-1.68v-24.45c0-.93-.74-1.69-1.68-1.7h-.03Z"/>
          <path class="st1" d="M38.01,55.3h-14.55c-.66,0-1.2-.52-1.21-1.18h0v-23.05h16.96v23.04c0,.66-.54,1.19-1.2,1.19Z"/>
          <path class="st5" d="M35,18.71h-8.49c-.08,0-.15.07-.15.15v4.93c0,.08.07.15.15.15h8.49c.08,0,.15-.07.15-.15v-4.93c0-.08-.07-.15-.15-.15Z"/>
          <path class="st8" d="M32.04,16.96h-2.56v1.74h2.56v-1.74Z"/>
          <path class="st5" d="M34.17,16.08h-8.62c-1.12,0-2.14.62-2.66,1.59l-.4.74h1.13l.36-.59c.33-.54.91-.86,1.54-.86h8.65v-.88Z"/>
          <path class="st2" d="M20,38.35v42.39c0,3.46,2.81,6.26,6.29,6.26h44.44c3.46,0,6.27-2.81,6.27-6.26v-42.39H20Z"/>
          <g class="st7">
            <g>
              <path class="st10" d="M72.93,65.97l-4.01-12.8v-14.17h-17.45v35.3c0,.94.76,1.7,1.7,1.7s1.7-.77,1.7-1.7v-13.98h.73v13.98c0,.94.76,1.7,1.7,1.7s1.7-.77,1.7-1.7v-13.98h.73v13.98c0,.94.76,1.7,1.7,1.7s1.7-.77,1.7-1.7v-13.98h.73v13.98c0,.94.76,1.7,1.7,1.7s1.7-.77,1.7-1.7v-13.98h.12l2.26,6.69c.29.9,1.26,1.41,2.16,1.12.9-.29,1.41-1.26,1.12-2.16h.02Z"/>
              <path class="st10" d="M28,65.97l4.01-12.8v-14.17h17.45v35.3c0,.94-.76,1.7-1.7,1.7s-1.7-.77-1.7-1.7v-13.98h-.73v13.98c0,.94-.76,1.7-1.7,1.7s-1.7-.77-1.7-1.7v-13.98h-.73v13.98c0,.94-.76,1.7-1.7,1.7s-1.7-.77-1.7-1.7v-13.98h-.73v13.98c0,.94-.76,1.7-1.7,1.7s-1.7-.77-1.7-1.7v-13.98h-.1l-2.09,6.69c-.29.92-1.26,1.41-2.16,1.12-.92-.29-1.41-1.26-1.14-2.16h-.19Z"/>
            </g>
          </g>
        </g>
      </g>
    </g>
  </g>
</svg>