<?xml version="1.0" encoding="UTF-8"?>
<svg id="Layer_1" xmlns="http://www.w3.org/2000/svg" xmlns:xlink="http://www.w3.org/1999/xlink" version="1.1" viewBox="0 0 96 96">
  <!-- Generator: Adobe Illustrator 29.4.0, SVG Export Plug-In . SVG Version: 2.1.0 Build 152)  -->
  <defs>
    <style>
      .st0 {
        fill: none;
      }

      .st1 {
        fill: #a9a9a9;
      }

      .st2 {
        fill: #43aed3;
      }

      .st3 {
        fill: #d9d9d9;
      }

      .st4 {
        fill: #f9c674;
      }

      .st5 {
        fill: #003e62;
      }

      .st6 {
        fill: #99c5dd;
      }

      .st7 {
        clip-path: url(#clippath-1);
      }

      .st8 {
        clip-path: url(#clippath-3);
      }

      .st9 {
        clip-path: url(#clippath-2);
      }

      .st10 {
        fill: #43b0d5;
      }

      .st11 {
        fill: #b5e0f5;
      }

      .st12 {
        fill: #e7f5fc;
      }

      .st13 {
        fill: #f8f7f7;
      }

      .st14 {
        clip-path: url(#clippath);
      }
    </style>
    <clipPath id="clippath">
      <rect class="st0" width="96" height="96" rx="5" ry="5"/>
    </clipPath>
    <clipPath id="clippath-1">
      <rect class="st0" x="28" y="10" width="48" height="66"/>
    </clipPath>
    <clipPath id="clippath-2">
      <rect class="st0" x="33" y="59" width="53" height="25"/>
    </clipPath>
    <clipPath id="clippath-3">
      <rect class="st0" x="9" y="50" width="41" height="36"/>
    </clipPath>
  </defs>
  <g class="st14">
    <g>
      <rect class="st11" width="96" height="96" rx="5" ry="5"/>
      <g class="st7">
        <g>
          <path class="st5" d="M67.43,38.13V13.13c0-.6.5-1.08,1.1-1.06.11,0,.22.01.32.05l4.85,1.5c.45.13.76.55.76,1.02v23.5h-7.04Z"/>
          <path class="st1" d="M68,11.87l5.24,1.63c.47.14.74.65.59,1.12l-4.22,13.18-6.93-2.15,4.22-13.18c.15-.45.62-.72,1.09-.6Z"/>
          <path class="st5" d="M36.62,38.13V13.13c0-.59-.49-1.06-1.08-1.06-.11,0-.22.01-.33.05l-4.85,1.5c-.45.13-.76.55-.76,1.02v23.5h7.03Z"/>
          <path class="st1" d="M41.1,25.77l-7.01,2.17-4.21-13.23c-.15-.48.12-.98.59-1.12l5.28-1.63c.49-.14,1,.12,1.14.59l4.21,13.24h0Z"/>
          <path class="st1" d="M60.65,17.9h-2.17v-3.13c0-.71-.27-1.36-.78-1.85-.5-.49-1.17-.77-1.87-.78h-6.34c-1.47,0-2.66,1.17-2.66,2.61v3.15h-2.17v-3.13c0-2.63,2.16-4.76,4.83-4.76h6.32c1.3,0,2.51.5,3.42,1.4.91.9,1.41,2.09,1.4,3.36v3.13h.01Z"/>
          <path class="st10" d="M51.96,14.75h.15c13.2.04,23.88,10.59,23.9,23.6v33.09c.02,2.49-2,4.53-4.53,4.56h-38.9c-2.52,0-4.58-2.01-4.58-4.51v-33.14c0-13.03,10.73-23.6,23.96-23.6Z"/>
          <path class="st4" d="M28,68.98v2.45c-.02,2.5,2,4.55,4.54,4.57h38.89c2.54,0,4.59-2.03,4.58-4.53v-2.49H28Z"/>
          <path class="st2" d="M69.17,44.85h-34.07c-1.01,0-1.83.81-1.83,1.81v17.48c0,1,.82,1.81,1.83,1.81h34.07c1.01,0,1.83-.81,1.83-1.81v-17.48c0-1-.82-1.81-1.83-1.81Z"/>
          <path class="st5" d="M71,49.33h-37.73v1.08h37.73v-1.08Z"/>
          <path class="st13" d="M67.86,49.86c-.67,0-1.21.54-1.21,1.2v4.95c0,.68.56,1.23,1.25,1.23s1.25-.55,1.25-1.23v-4.92c.02-.66-.51-1.21-1.18-1.23h-.11ZM67.86,56.78c-.42,0-.76-.33-.76-.75s.34-.75.76-.75.76.33.76.75-.35.74-.76.74h0Z"/>
          <path class="st6" d="M74.6,50.88c-.3,0-.55-.24-.55-.54v-8.74c0-11.97-9.88-21.72-22.03-21.72s-22.04,9.74-22.04,21.72v8.74c0,.3-.24.54-.55.54s-.55-.24-.55-.54v-8.74c0-12.57,10.38-22.81,23.13-22.81s23.12,10.24,23.12,22.8v8.74c0,.3-.24.54-.55.54h0Z"/>
          <path class="st13" d="M74.43,49.29c-.67,0-1.21.54-1.21,1.2v4.94c0,.68.56,1.23,1.25,1.23s1.25-.55,1.25-1.23v-4.9c.02-.66-.51-1.21-1.18-1.23h-.11ZM74.43,56.2c-.42,0-.76-.33-.76-.75s.34-.75.76-.75.76.33.76.75-.34.75-.76.75Z"/>
        </g>
      </g>
      <rect class="st3" y="67" width="96" height="29"/>
      <rect class="st3" y="67" width="96" height="29"/>
      <g class="st9">
        <g>
          <path class="st1" d="M38.46,64.11s2.69-.43,5.39-.67c2.69-.24,5.9-.18,5.9-.18l.32,2.31s-6.74,2.13-6.93,2.13-4.17-1.77-4.17-1.77l-.51-1.83h0Z"/>
          <path class="st12" d="M33.94,76.59c-.1-.27.1-5.57.1-5.57,0,0-.58-1.32-.14-2.51.43-1.19.77-1.46.77-2.65s0-2.92,1.73-3.15c1.73-.23,1.88,1.96,3.18,2.88,1.3.91,3.22,2.24,6.93.64,3.71-1.6,3.47-1.78,3.47-1.78,0,0-.82-1.1.34-3.1,1.16-2.01,1.92-2.42,2.41-2.33.48.09,3.27,2.28,4.09,3.01.82.73,1.3,1.19,1.3,1.19,0,0,3.95,2.24,6.21,3.52,2.26,1.28,9.1,5.21,9.1,5.21,0,0,7.73,2.34,9.34,3.01,1.6.67,1.99,1.52,2.25,2.43.26.91.32,1.46.32,1.46,0,0-25.02.73-28.68.55-3.66-.18-22.68-2.8-22.68-2.8h0Z"/>
          <path class="st5" d="M57.91,64.96c-.44-.5.19-2.31,1.03-2.13.83.18,1.6.67,1.41,1.16-.19.49-2.12,1.34-2.44.97Z"/>
          <path class="st5" d="M60.15,66.48c-.28-.41.45-1.83,1.03-1.89.58-.06,1.67.61,1.54,1.22-.13.61-1.99,1.52-2.57.67Z"/>
          <path class="st5" d="M62.85,67.76c-.54-.46.26-2.01.77-2.01s1.8.73,1.54,1.28c-.26.55-1.73,1.22-2.31.73Z"/>
          <path class="st5" d="M65.28,69.16c-.59-.4-.13-1.95.39-2.01.51-.06,1.73.3,1.6,1.03-.13.73-1.54,1.28-1.99.97Z"/>
          <path class="st5" d="M67.53,70.01c-.62-.5-.13-1.7.51-1.7s1.6.67,1.35,1.16c-.26.49-1.41.91-1.86.55Z"/>
          <path class="st5" d="M69.84,71.11c-.51-.37.19-1.34.64-1.34s1.54.12,1.22.85c-.32.73-1.35.85-1.86.49h0Z"/>
          <path class="st5" d="M33.87,76.45s-1.11,2.07-.83,4.21c.25,1.96.65,2.47,1.27,3.34,0,0,46.77-.27,48.79-.55,2.02-.27,2.89-.55,2.89-1.92s-.85-3.4-.85-3.4c0,0-10.98-.16-17.33.11-6.35.27-33.94-1.8-33.94-1.8Z"/>
        </g>
      </g>
      <g class="st8">
        <g>
          <path class="st2" d="M15.44,50.02c-.85-.26-5.05,2.74-5.92,6.57-.87,3.83-.36,4.4-.36,4.4,0,0,7,5.04,8.82,7.41,1.82,2.37,4.27,8.88,4.95,12.26.67,3.38,2.76,5.01,7.96,5.31,5.2.29,18.25-1.45,18.81-1.85.57-.4.74-1.47-2.86-3.18-3.6-1.71-9.02-3.97-10.21-4.03-1.19-.07-4.51.93-7.18-1.81-2.67-2.74-5.91-12.53-8.21-16.01-2.3-3.48-5.79-9.07-5.79-9.07Z"/>
          <path class="st1" d="M28.37,76.54c2.61,1.87,9.45,2.05,9.71,1.41.1-.25-.55-.65-1.37-1.05-.03,0-.06,0-.09,0-1.19-.07-4.51.93-7.18-1.81-2.67-2.74-5.91-12.53-8.21-16.01-2.3-3.48-5.79-9.07-5.79-9.07,0,0,4.05,7.03,5.69,10.68,1.64,3.65,4.63,13.97,7.24,15.84h0Z"/>
          <path class="st2" d="M9.1,60.84s1.14,5.83,1.26,11.34c.12,5.51-.35,11.74-.35,11.74,0,0,1.39.4,1.41.08.02-.32-.45-14.81-.05-16.19.41-1.38,2.5-2.98,5.01-1.11,0,0-3.95-5.03-7.27-5.86h0Z"/>
          <path class="st5" d="M10,83.92l-.06,1.08,1.46.07v-1.07s-1.4-.08-1.4-.08Z"/>
        </g>
      </g>
    </g>
  </g>
</svg>