<?xml version="1.0" encoding="UTF-8"?>
<svg id="Layer_1" xmlns="http://www.w3.org/2000/svg" xmlns:xlink="http://www.w3.org/1999/xlink" version="1.1" viewBox="0 0 96 96">
  <!-- Generator: Adobe Illustrator 29.4.0, SVG Export Plug-In . SVG Version: 2.1.0 Build 152)  -->
  <defs>
    <style>
      .st0 {
        fill: none;
      }

      .st1, .st2, .st3, .st4 {
        fill-rule: evenodd;
      }

      .st1, .st5 {
        fill: #fff;
      }

      .st6, .st4 {
        fill: #a9a9a9;
      }

      .st2, .st7 {
        fill: #e7f5fc;
      }

      .st8, .st3 {
        fill: #43aed3;
      }

      .st9 {
        fill: #d9d9d9;
      }

      .st10 {
        clip-path: url(#clippath-1);
      }

      .st11 {
        clip-path: url(#clippath-3);
      }

      .st12 {
        clip-path: url(#clippath-4);
      }

      .st13 {
        clip-path: url(#clippath-2);
      }

      .st14 {
        clip-path: url(#clippath-5);
      }

      .st15 {
        fill: #005b88;
      }

      .st16 {
        fill: #42b0d5;
      }

      .st17 {
        fill: #b5e0f5;
      }

      .st18 {
        fill: #1686bd;
      }

      .st19 {
        clip-path: url(#clippath);
      }

      .st20 {
        fill: #f5fbfd;
      }
    </style>
    <clipPath id="clippath">
      <rect class="st0" width="96" height="96" rx="5" ry="5"/>
    </clipPath>
    <clipPath id="clippath-1">
      <rect class="st0" x="12" y="29" width="43" height="53"/>
    </clipPath>
    <clipPath id="clippath-2">
      <rect class="st0" x="44" y="42" width="25" height="44"/>
    </clipPath>
    <clipPath id="clippath-3">
      <rect class="st0" x="35" y="69" width="7" height="21"/>
    </clipPath>
    <clipPath id="clippath-4">
      <rect class="st0" x="68" y="58" width="19" height="25"/>
    </clipPath>
    <clipPath id="clippath-5">
      <rect class="st0" x="33" y="85" width="3" height="5"/>
    </clipPath>
  </defs>
  <g class="st19">
    <g>
      <rect class="st17" width="96" height="96" rx="5" ry="5"/>
      <rect class="st9" y="67" width="96" height="29"/>
      <g class="st10">
        <g>
          <path class="st16" d="M38.14,34.11h11.87c.29,0,.54-.29.54-.54v-4.04c0-.29-.29-.54-.54-.54h-11.87c-.29,0-.54.29-.54.54v4.04c0,.29.29.54.54.54Z"/>
          <path class="st18" d="M39.62,37.25h9.03s.41-.12.41-.41v-2.56s-.12-.41-.41-.41h-9.03s-.41.12-.41.41v2.56c0,.29.12.41.41.41Z"/>
          <path class="st16" d="M16.99,29.41h13.23c.66,0,1.36.41,1.61.95l3.5,5.53c.54.82,1.48,1.36,2.56,1.36h11.58c.95,0,1.9.54,2.43,1.36l2.68,4.17c.29.41.41.82.41,1.36v31.72c0,.54-.12.95-.41,1.36l-2.31,3.38c-.66.95-1.77,1.48-2.84,1.48H17.19c-.95,0-1.77-.41-2.31-1.2l-2.43-3.63c-.41-.54-.54-1.2-.54-1.77v-38.23c0-.66.12-1.36.54-2.02l2.97-4.87c.29-.66.82-.95,1.48-.95M30.3,36.55l-1.36-2.31c-.29-.41-.82-.66-1.2-.66h-7.13c-.82,0-1.61.41-1.9,1.2l-1.07,2.14c-.41.95.12,1.9,1.2,1.9h10.39c.95,0,1.77-1.2,1.07-2.31"/>
        </g>
      </g>
      <g class="st13">
        <g>
          <path class="st5" d="M69,73.01c0,7.18-5.59,12.99-12.5,12.99s-12.5-5.81-12.5-12.99c0-5.6,3.44-10.58,8.54-12.33v-13.3c-1.16-.33-1.97-1.39-1.97-2.64v-1.37c0-.76.57-1.37,1.32-1.37h9.21c.73,0,1.32.61,1.32,1.37v1.37c0,1.23-.81,2.33-1.97,2.64v13.3c5.08,1.78,8.52,6.75,8.52,12.33h.02Z"/>
          <path class="st16" d="M56.52,53.72h-3.39v1.37h3.39v-1.37Z"/>
          <path class="st16" d="M56.5,50.33h-3.39v1.37h3.39v-1.37Z"/>
          <path class="st16" d="M56.52,57.12h-3.39v1.37h3.39v-1.37Z"/>
          <path class="st20" d="M51.89,44.84v-1.37h9.19v1.37c0,.76-.59,1.37-1.32,1.37h-6.57c-.73,0-1.3-.59-1.3-1.37Z"/>
          <path class="st16" d="M67.5,73.13c-.18,5.85-4.7,10.7-10.31,11.05-6.08.39-11.3-4.4-11.69-10.7v-.74c0-1.04.12-2.09.41-3.09l1.08.47c2.99,1.33,6.4,1.1,9.21-.57l.22-.12c3.23-1.94,7.22-1.9,10.43.08l.28.16c.28,1.15.41,2.31.37,3.46Z"/>
        </g>
      </g>
      <g class="st11">
        <g>
          <path class="st2" d="M38.8,69.71l.39,5.02h-1.38l.37-5.11c.11-.84.51-.86.62.09h0Z"/>
          <path class="st1" d="M37.22,77.08l2.8.11c.4.01,1.98,3.96,1.98,4.61v7c0,.66-.54,1.2-1.2,1.2h-4.6c-.66,0-1.2-.54-1.2-1.2v-7c0-.66,1.61-4.74,2.22-4.72Z"/>
          <path class="st15" d="M42,82.84h-7v4.63h7v-4.63Z"/>
          <path class="st4" d="M37.2,77.08l2.8.11c.14,0,.43.5.75,1.18h-4.5c.37-.74.73-1.29.95-1.28h0Z"/>
          <path class="st7" d="M40.09,75.17h-3.19v1.8h3.19v-1.8Z"/>
          <path class="st7" d="M41.65,74.23h-6.29v.93h6.29v-.93Z"/>
          <path class="st6" d="M40.52,76.65h-4.04v1.21h4.04v-1.21Z"/>
        </g>
      </g>
      <g class="st12">
        <g>
          <path class="st4" d="M75.99,59.97h8.76c.34,0,.62.27.62.6v3.68c0,.33-.28.6-.62.6h-8.76c-.34,0-.62-.27-.62-.6v-3.68c0-.33.28-.6.62-.6Z"/>
          <path class="st6" d="M84.73,63.65h-8.72c-1.25,0-2.27.98-2.27,2.18v14.56c0,1.21,1.02,2.18,2.27,2.18h8.72c1.25,0,2.27-.98,2.27-2.18v-14.56c0-1.21-1.02-2.18-2.27-2.18Z"/>
          <path class="st8" d="M85.84,58h-10.94c-.34,0-.62.27-.62.6v3.68c0,.33.28.6.62.6h10.94c.34,0,.62-.27.62-.6v-3.68c0-.33-.28-.6-.62-.6Z"/>
          <path class="st8" d="M87,67.81h-13.26v9.71h13.26v-9.71Z"/>
          <path class="st1" d="M73.54,82.18l-4.69-4.51c-1.13-1.09-1.13-2.87,0-3.96,1.13-1.09,2.98-1.09,4.11,0l4.69,4.51c1.13,1.09,1.13,2.87,0,3.96-1.13,1.09-2.98,1.09-4.11,0Z"/>
          <path class="st3" d="M71.19,79.93l-2.34-2.26c-1.13-1.09-1.13-2.87,0-3.96,1.13-1.09,2.98-1.09,4.11,0l2.34,2.26-4.11,3.96Z"/>
        </g>
      </g>
      <g class="st14">
        <path class="st3" d="M36,88.36c0,.91-.67,1.64-1.5,1.64s-1.5-.73-1.5-1.64c0-.68,1.11-2.58,1.5-3.36.39.78,1.5,2.68,1.5,3.36Z"/>
      </g>
    </g>
  </g>
</svg>