<?xml version="1.0" encoding="UTF-8"?>
<svg id="Layer_1" xmlns="http://www.w3.org/2000/svg" xmlns:xlink="http://www.w3.org/1999/xlink" version="1.1" viewBox="0 0 96 96">
  <!-- Generator: Adobe Illustrator 29.4.0, SVG Export Plug-In . SVG Version: 2.1.0 Build 152)  -->
  <defs>
    <style>
      .st0 {
        fill: none;
      }

      .st1 {
        fill: #a9a9a9;
      }

      .st2 {
        fill: #707070;
      }

      .st3 {
        fill: #43aed3;
      }

      .st4 {
        fill: #d9d9d9;
      }

      .st5 {
        fill: #003e62;
      }

      .st6 {
        clip-path: url(#clippath-1);
      }

      .st7 {
        fill: #b5e0f5;
      }

      .st8 {
        fill: #ababab;
      }

      .st9 {
        clip-path: url(#clippath);
      }
    </style>
    <clipPath id="clippath">
      <rect class="st0" width="96" height="96" rx="5" ry="5"/>
    </clipPath>
    <clipPath id="clippath-1">
      <rect class="st0" x="17" y="13" width="69" height="74"/>
    </clipPath>
  </defs>
  <g class="st9">
    <g>
      <rect class="st7" width="96" height="96" rx="5" ry="5"/>
      <rect class="st4" y="67" width="96" height="29"/>
      <g class="st6">
        <g>
          <path class="st5" d="M23.87,30.09c.51.25,1.31.69,1.63.98.33.28.48.63.48,1.03s-.21.94-.6,1.58c-5.66-2.72-5.91-2.86-7.37-3.56.01,0,2.35-1.75,5.86-.03h0Z"/>
          <path class="st5" d="M23.03,35.21c.44.09.84,0,1.22-.23.36-.23.75-.66,1.15-1.32-1.46-.69-1.7-.84-7.37-3.56-.39.64.18,2.93,3.21,4.42.75.38,1.36.58,1.79.68"/>
          <path class="st2" d="M24.55,28.84l-4.08-8.58-.8.41c.74,1.55,4.11,8.51,8.8,17.47l.21-1.78c-1.81-3.22-2.76-4.96-4.13-7.52h0Z"/>
          <path class="st3" d="M18.27,16.84l5.41,3.55c1.61,1.06,2.35,3.07,1.82,4.94v.05c-.71,2.33-3.13,3.65-5.42,2.95-1.85-.57-3.1-2.32-3.07-4.28l.09-6.56c0-.43.35-.77.77-.77.14,0,.29.05.41.12h0Z"/>
          <path class="st3" d="M18.27,16.84l5.41,3.55c1.61,1.06,2.35,3.07,1.82,4.94v.05c-.42,1.38-.74,2.03-1.97,2.47-1.25-2.73-4.69-8.34-5.93-11.08.23-.09.48-.06.69.08h-.02Z"/>
          <path class="st5" d="M30.02,28.83c-.03.55-.11,1.41-.23,1.81-.12.41-.36.74-.71.95-.35.22-.87.37-1.57.41.21-5.93.24-6.2.3-7.72,0,0,2.38.84,2.2,4.56h0s0-.02,0-.02Z"/>
          <path class="st5" d="M25.32,30.98c.09.4.32.68.63.83.32.15.86.23,1.55.17.05-1.54.07-1.8.3-7.72-.71.05-2.44,1.77-2.59,4.97-.05.78,0,1.35.09,1.75"/>
          <path class="st3" d="M31.39,22.07c.36-4.07,7.91-5.17,10.98-4.9,3.84.6,4.5,7.28,4.61,10.32-.33,4.16-7.88,5.28-10.98,4.9-3.84-.6-4.47-7.18-4.61-10.32Z"/>
          <path class="st1" d="M37.47,17.63l-6.34-3.16c2.41-3.44,8.06-.21,6.34,3.16Z"/>
          <path class="st1" d="M59.98,17.5l-4.94,3.59c-1.6-3.26,3.09-6.34,4.94-3.59Z"/>
          <path class="st3" d="M55.85,29.4c2.04-2.93,1.67-6.78-.83-8.59-2.5-1.81-6.19-.91-8.23,2.03-2.04,2.93-1.67,6.78.83,8.59,2.5,1.81,6.19.9,8.23-2.03Z"/>
          <path class="st1" d="M60.92,22.03c1.66-.22,3.25.72,3.92,2.29.14.29-.15.72-.65,1.18-.51.48-3.36,2.36-3.96,3.81-.71,2.53-2.62,4.54-5.08,5.33-1.4.55-2.94.6-4.35.14-.84-.31-1.52-.95-1.87-1.8l-.3-.69c-.33-.75-.38-1.61-.12-2.41.48-1.29,1.36-2.36,2.5-3.09,2.35-1.64,6.63-4.28,9.91-4.76h0Z"/>
          <path class="st4" d="M50.3,28.6s-3.72,3.62,1.33,4.62c1.84.29,3.69-.2,5.17-1.35,1.22-1.37,2.2-2.93,2.94-4.62,0,0-1.97.78-9.42,1.35h-.01Z"/>
          <path class="st4" d="M50.61,28.2s5.57-.66,9.45-1.5l3.36-2.92c.2-.17.23-.46.06-.66-.8-.52-1.78-.71-2.71-.52-2.97.34-7.22,3.41-10.15,5.62h0v-.02Z"/>
          <path class="st5" d="M40.2,34.26c-2.19-1.5-2.76-4.51-1.3-6.74.09-.14.18-.28.29-.4,1.76-2.18,3.16-.8,4.49-2.63.9-1.58,2.91-2.12,4.47-1.2.09.05.17.11.24.17,1.39,1.2,1.55,3.29.39,4.7-.06.08-.14.15-.2.22-1.4,1.77.27,2.79-1.37,5.08-1.54,2.18-4.52,2.67-6.66,1.11-.14-.09-.26-.2-.38-.31h.02Z"/>
          <path class="st2" d="M50.01,20.94l.24.18c.11.08.12.23.05.34l-2.32,3.06-.62-.49,2.32-3.06c.07-.11.23-.12.33-.05v.02h0Z"/>
          <path class="st5" d="M65.17,27.23c.47-.29,3.19-1.81,3.19-1.81l3.69,1.06-2.23,1.46"/>
          <path class="st8" d="M67.53,32.96l3.3.95-1.39,1.01-2.98-1.49"/>
          <path class="st3" d="M78.72,28.34c2.7-1.24,4.47-2.99,7.28-3.5,0,0-1.05,3.44-3.35,3.99,1.75,1.04,3.72,2.81,3.25,4.01-2.46-.72-4.82-1.67-7.08-2.87-8.93,1.18-13.33,7.72-21.47,2.46-1.27-.83-1.85-1.27-.3-2.36,8.23-5.77,11.31-1.86,21.68-1.72h-.01,0Z"/>
          <path class="st5" d="M61.88,31.96c-.6.08-1.16-.35-1.25-.98-.07-.61.35-1.18.96-1.27.62-.09,1.16.35,1.25.98.07.61-.35,1.18-.96,1.27Z"/>
          <path class="st4" d="M37.93,27.15c.15-.12.15-1.4.15-1.4l.87.12s.06.69.12,1.61c.06.91,2.59,2.79-2.33,6.56-3.9,2.98-6.4,1.86-7.88.75l.07-.69c.84-.48,2.11.03,4.67-1.66h-.03c-4.82.68-6.48-1.55-7.23-3.24l.39-.57c.99,0,1.87,1.12,5.11.86-3.81-1.64-4.07-4.25-3.89-6.05l.57-.32c.84.49.98,2.07,4.32,3.41.42.17,1.63.64,1.99.8,1.99.8,2.67.14,3.09-.18h0Z"/>
          <path class="st4" d="M74.04,33.56c0-1.21-1.04-1.73-2.43-1.73H23.61c-1.51,0-2,.57-2,2.07v52.91h52.43v-53.24h0Z"/>
          <path class="st1" d="M74.04,75.49c0-1.2-1.04-1.72-2.43-1.72H23.61c-1.31,0-2,.57-2,2.07v11.16h52.43v-11.51Z"/>
          <path class="st4" d="M51.03,77.4c-.07.92-.86,1.61-1.76,1.54h-8.36c-.9.08-1.69-.61-1.76-1.54.07-.92.86-1.61,1.76-1.54h8.33c.9-.08,1.69.61,1.76,1.54h.03,0Z"/>
          <path class="st1" d="M74.04,61.47c0-1.2-1.04-1.72-2.43-1.72H23.61c-1.51,0-2,.55-2,2.06v11.18h52.43v-11.51Z"/>
          <path class="st4" d="M51.03,63.45c-.07.92-.86,1.61-1.76,1.54h-8.36c-.9.08-1.69-.61-1.76-1.54.07-.92.86-1.61,1.76-1.54h8.33c.9-.08,1.69.61,1.76,1.54h.03,0Z"/>
          <path class="st1" d="M74.04,47.51c0-1.2-1.04-1.73-2.43-1.73H23.61c-1.51,0-2,.57-2,2.07v11.16h52.43v-11.5Z"/>
          <path class="st4" d="M51.03,49.48c-.07.92-.86,1.6-1.76,1.54h-8.36c-.9.08-1.69-.61-1.76-1.54.07-.92.86-1.61,1.76-1.54h8.33c.9-.06,1.69.61,1.76,1.54h.03,0Z"/>
          <path class="st1" d="M74.04,33.56c0-1.21-1.04-1.73-2.43-1.73H23.61c-1.51,0-2,.57-2,2.07v11.16h52.43v-11.5Z"/>
          <path class="st4" d="M51.03,35.57c-.07.92-.86,1.61-1.76,1.54h-8.36c-.9.08-1.69-.61-1.76-1.54.07-.92.86-1.61,1.76-1.54h8.33c.9-.09,1.7.58,1.79,1.5v.03Z"/>
        </g>
      </g>
    </g>
  </g>
</svg>