<svg width="96" height="96" viewBox="0 0 96 96" fill="none" xmlns="http://www.w3.org/2000/svg">
<g clip-path="url(#clip0_16_22)">
<rect width="96" height="96" rx="5" fill="#B5E0F5"/>
<rect y="67" width="96" height="29" fill="#D9D9D9"/>
<g clip-path="url(#clip1_16_22)">
<path d="M35.7736 23.2881H18.2491C18.1115 23.2881 18 23.3994 18 23.5366V41.018C18 41.1552 18.1115 41.2665 18.2491 41.2665H35.7736C35.9112 41.2665 36.0227 41.1552 36.0227 41.018V23.5366C36.0227 23.3994 35.9112 23.2881 35.7736 23.2881Z" fill="#A9A9A9"/>
<path d="M34.0082 25.2977H20.0146V39.2569H34.0082V25.2977Z" fill="#F8F7F7"/>
<path d="M39.1745 10.9928H28.8526C28.715 10.9928 28.6035 11.1041 28.6035 11.2413V21.5378C28.6035 21.6751 28.715 21.7863 28.8526 21.7863H39.1745C39.3121 21.7863 39.4237 21.6751 39.4237 21.5378V11.2413C39.4237 11.1041 39.3121 10.9928 39.1745 10.9928Z" fill="#A9A9A9"/>
<path d="M37.5391 12.8727H30.4881V19.9064H37.5391V12.8727Z" fill="#F8F7F7"/>
<path d="M58.237 27.1993C57.9013 27.1993 57.6197 26.9292 57.6197 26.5834C57.6197 26.5726 57.6197 26.551 57.6197 26.5402C57.9988 20.6519 63.0893 16.1789 68.9922 16.557C74.3752 16.9028 78.6534 21.1705 79 26.5402C79.0217 26.8751 78.7726 27.1777 78.426 27.1993C78.4151 27.1993 78.3935 27.1993 78.3826 27.1993H58.237Z" fill="#003E62"/>
<path d="M68.6131 -1H68.1149V16.5138H68.6131V-1Z" fill="#003E62"/>
<path d="M62.5586 -1H62.0604V8.81032H62.5586V-1Z" fill="#003E62"/>
<path d="M55.2369 15.401C54.9878 15.401 54.7928 15.1957 54.8036 14.9472C54.8036 14.9472 54.8036 14.9472 54.8036 14.9364C55.0202 10.8307 58.5403 7.68667 62.6561 7.90276C66.4577 8.10804 69.5012 11.1441 69.707 14.9364C69.7179 15.1849 69.5337 15.3902 69.2846 15.401C69.2846 15.401 69.2846 15.401 69.2738 15.401H55.2369Z" fill="#003E62"/>
<path d="M47.2869 21.6783H46.7454V47.7923H47.2869V21.6783Z" fill="#003E62"/>
<path d="M44.1893 32.6879H43.6477V57.581H44.1893V32.6879Z" fill="#003E62"/>
<path d="M50.4821 26.2917H49.9405V51.1849H50.4821V26.2917Z" fill="#003E62"/>
<path d="M41.8389 32.6879C41.8389 30.6351 42.4346 30.1272 43.9293 30.1272C45.424 30.1272 45.998 30.6242 45.998 32.6879C45.998 34.7515 45.3915 35.2485 43.9293 35.2485C42.4671 35.2485 41.8389 34.7407 41.8389 32.6879Z" fill="#43AED3"/>
<path d="M48.1317 26.2917C48.1317 24.2497 48.7274 23.7311 50.2221 23.7311C51.7168 23.7311 52.3017 24.2389 52.3017 26.2917C52.3017 28.3445 51.6843 28.8523 50.2221 28.8523C48.7599 28.8523 48.1317 28.3553 48.1317 26.2917Z" fill="#43AED3"/>
<path d="M44.9366 20.2197C44.9366 18.1669 45.5323 17.6591 47.027 17.6591C48.5216 17.6591 49.0957 18.1561 49.0957 20.2197C49.0957 22.2833 48.4892 22.7695 47.027 22.7695C45.5648 22.7695 44.9366 22.2725 44.9366 20.2197Z" fill="#43AED3"/>
<path d="M48.1317 38.3061C48.1317 36.2533 48.7274 35.7455 50.2221 35.7455C51.7168 35.7455 52.3017 36.2533 52.3017 38.3061C52.3017 40.3589 51.6843 40.8667 50.2221 40.8667C48.7599 40.8667 48.1317 40.3697 48.1317 38.3061Z" fill="#43AED3"/>
<path d="M51.4568 44.3025H43.1712C39.3262 48.2569 36.6726 57.5054 36.6726 68.2989C36.6726 76.2941 38.1564 83.425 40.4959 88.2329C40.68 88.611 41.0591 88.8487 41.4815 88.8487H53.1898C53.6122 88.8487 53.9913 88.611 54.1754 88.2329C56.5041 83.4574 57.9879 76.3481 57.9879 68.2989C57.9879 57.5054 55.3018 48.2569 51.4568 44.3025Z" fill="#003E62"/>
</g>
</g>
<defs>
<clipPath id="clip0_16_22">
<rect width="96" height="96" rx="5" fill="white"/>
</clipPath>
<clipPath id="clip1_16_22">
<rect width="61" height="90" fill="white" transform="translate(18 -1)"/>
</clipPath>
</defs>
</svg>
