<?xml version="1.0" encoding="UTF-8"?>
<svg id="Layer_1" xmlns="http://www.w3.org/2000/svg" xmlns:xlink="http://www.w3.org/1999/xlink" version="1.1" viewBox="0 0 96 96">
  <!-- Generator: Adobe Illustrator 29.4.0, SVG Export Plug-In . SVG Version: 2.1.0 Build 152)  -->
  <defs>
    <style>
      .st0 {
        fill: none;
      }

      .st1 {
        fill: #e2e2e2;
      }

      .st2 {
        fill: #43aed3;
      }

      .st3 {
        fill: #d9d9d9;
      }

      .st4 {
        fill: #0d2f49;
      }

      .st5 {
        clip-path: url(#clippath-1);
      }

      .st6 {
        clip-path: url(#clippath-2);
      }

      .st7 {
        fill: #c1e2f1;
      }

      .st8 {
        fill: #b5e0f5;
      }

      .st9 {
        fill: #ededed;
      }

      .st10 {
        fill: #f8f7f7;
      }

      .st11 {
        clip-path: url(#clippath);
      }
    </style>
    <clipPath id="clippath">
      <rect class="st0" width="96" height="96" rx="5" ry="5"/>
    </clipPath>
    <clipPath id="clippath-1">
      <rect class="st0" x="6" y="18" width="84.23" height="52.8"/>
    </clipPath>
    <clipPath id="clippath-2">
      <rect class="st0" x="15" y="40" width="69" height="40"/>
    </clipPath>
  </defs>
  <g class="st11">
    <g>
      <rect class="st8" width="96" height="96" rx="5" ry="5"/>
      <rect class="st3" y="67" width="96" height="29"/>
      <g class="st5">
        <g>
          <path class="st1" d="M49.37,18H17.2v33.97h32.17V18Z"/>
          <path class="st1" d="M81.72,18h-32.17v33.97h32.17V18Z"/>
          <path class="st10" d="M48,26.46H6v44.34h42V26.46Z"/>
          <path class="st9" d="M47.08,27.37H6.96v7.29h40.12v-7.29Z"/>
          <path class="st9" d="M47.08,35.59H6.96v7.29h40.12v-7.29Z"/>
          <path class="st9" d="M47.08,43.81H6.96v7.29h40.12v-7.29Z"/>
          <path class="st9" d="M47.08,52.02H6.96v7.29h40.12v-7.29Z"/>
          <path class="st9" d="M47.08,60.24H6.96v7.29h40.12v-7.29Z"/>
          <path class="st10" d="M90.23,26.46h-42v44.34h42V26.46Z"/>
          <path class="st9" d="M89.31,27.37h-40.12v7.29h40.12v-7.29Z"/>
          <path class="st9" d="M89.31,35.59h-40.12v7.29h40.12v-7.29Z"/>
          <path class="st9" d="M89.31,43.81h-40.12v7.29h40.12v-7.29Z"/>
          <path class="st9" d="M89.31,52.02h-40.12v7.29h40.12v-7.29Z"/>
          <path class="st9" d="M89.31,60.24h-40.12v7.29h40.12v-7.29Z"/>
        </g>
      </g>
      <g class="st6">
        <g>
          <path class="st2" d="M75.36,40H23.41c-1.1,0-1.99.89-1.99,2v34.53c0,1.1.89,2,1.99,2h51.96c1.1,0,1.99-.89,1.99-2v-34.53c0-1.1-.89-2-1.99-2Z"/>
          <path class="st4" d="M84,77.62H15v1.24h69v-1.24Z"/>
          <path class="st4" d="M64.44,78.88H15s1.64,1.12,4.78,1.12h59.45c3.13,0,4.78-1.12,4.78-1.12h-19.57Z"/>
          <path class="st7" d="M75.41,42.19H23.68c-.15,0-.28.12-.28.28v32.48c0,.15.12.28.28.28h51.72c.15,0,.28-.12.28-.28v-32.48c0-.15-.12-.28-.28-.28Z"/>
          <path class="st4" d="M55.28,77.62c-.04.25-.16.47-.33.64-.22.22-.52.35-.86.35h-9.04c-.58,0-1.08-.42-1.19-.99h11.43Z"/>
          <path class="st4" d="M17.86,76.49c0,.82.58,1.47,1.28,1.47h12.52c.71,0,1.28-.66,1.28-1.47v-26.22c0-.82-.58-1.47-1.28-1.47h-12.51c-.71,0-1.28.66-1.28,1.47v26.22h-.01Z"/>
          <path class="st7" d="M32.35,50.98h-13.86v23.29h13.86v-23.29Z"/>
          <path class="st2" d="M23.87,49.99c0,.2.17.38.38.38h2.34c.22,0,.38-.17.38-.38s-.17-.38-.38-.38h-2.34c-.2,0-.38.17-.38.38Z"/>
        </g>
      </g>
    </g>
  </g>
</svg>