<?xml version="1.0" encoding="UTF-8"?>
<svg id="Layer_1" xmlns="http://www.w3.org/2000/svg" xmlns:xlink="http://www.w3.org/1999/xlink" version="1.1" viewBox="0 0 300 168">
  <!-- Generator: Adobe Illustrator 29.2.1, SVG Export Plug-In . SVG Version: 2.1.0 Build 116)  -->
  <defs>
    <style>
      .st0 {
        fill: none;
      }

      .st1 {
        fill: #545454;
      }

      .st2 {
        fill: #81655b;
      }

      .st3 {
        fill: #767676;
      }

      .st4 {
        fill: #b4816b;
      }

      .st5 {
        fill: #ffccb4;
      }

      .st6 {
        fill: #00243d;
      }

      .st7 {
        fill: #fff;
      }

      .st8 {
        fill: #878787;
      }

      .st9 {
        fill: #42b0d5;
      }

      .st10 {
        opacity: .6;
      }

      .st11 {
        fill: #f7f7f7;
      }

      .st12 {
        fill: #b5e0f5;
      }

      .st13 {
        fill: #ababab;
      }

      .st14 {
        fill: #193a50;
      }

      .st15 {
        fill: #ededed;
      }

      .st16 {
        fill: #335064;
      }

      .st17 {
        clip-path: url(#clippath);
      }

      .st18 {
        fill: #cfcfcf;
      }
    </style>
    <clipPath id="clippath">
      <rect class="st0" y="0" width="300" height="168"/>
    </clipPath>
  </defs>
  <g class="st17">
    <g>
      <rect class="st0" x="103.34" y="0" width="168" height="168"/>
      <g>
        <rect class="st15" x="63.34" y="0" width="168" height="168"/>
        <path class="st7" d="M63.34,0h168v120.96H63.34V0Z"/>
        <path class="st7" d="M0,0h300v120.96H0V0Z"/>
        <path class="st15" d="M0,120.96h300v47.04H0v-47.04Z"/>
        <g class="st10">
          <path class="st7" d="M284.18,32.27v-14.34h-14.96v34.23h-19.31v-8.9h-14.8v7.99h-14.04v-23.81h-11.23v19.19h-19.61v-14.36h-13.07v6.69h-12.64V11.66h-21.04v15.41h-26.09v13.41h-13.07v11.49h-18.97v-22.24h-12.31v10.75h-28.39v-24.06h-22.82v48.14h-11.87V29.25H-11.95v23.67h-16.68v-20.16h-9.65v6.19h-10.11V0h-16.31v120.96h364.7V32.27h-15.82Z"/>
          <path class="st12" d="M284.18,32.27v-14.34h-14.96v34.23h-19.31v-8.9h-14.8v7.99h-14.04v-23.81h-11.23v19.19h-19.61v-14.36h-13.07v6.69h-12.64V11.66h-21.04v15.41h-26.09v13.41h-13.07v11.49h-18.97v-22.24h-12.31v10.75h-28.39v-24.06h-22.82v48.14h-11.87V29.25H-11.95v23.67h-16.68v-20.16h-9.65v6.19h-10.11V0h-16.31v120.96h364.7V32.27h-15.82Z"/>
        </g>
        <path class="st18" d="M198.57,102.51h-97.39l-5.14,58.54h3.74s10.82-38.53,13.4-47.62c.54-2.03,1.5-3.32,4.07-3.32h65.04c2.57,0,3.44,1.17,4.07,3.32,2.57,9.12,13.4,47.62,13.4,47.62h3.74l-4.91-58.54h-.02Z"/>
        <path class="st3" d="M210.06,99.17c0,2.36-.54,3.65-5.26,3.65h-109.67c-4.72,0-5.47-.21-5.47-3.65h120.4Z"/>
        <path class="st1" d="M141.62,87.88l-1.13,8.98h19.06l-.71-9.11s-17.46.37-17.22.13h0Z"/>
        <path class="st8" d="M137.1,97.99l3.39-1.13h19.06l3.39,1.1-25.83.03h0Z"/>
        <path class="st18" d="M137.1,97.99h25.86v1.03h-25.86v-1.03ZM187.97,40v45.7c0,1.68-1.36,3.04-3.04,3.04h-69.82c-1.68,0-3.04-1.36-3.04-3.04v-44.67c0-2.23,1.81-4.04,4.04-4.04h68.82c1.68-.03,3.04,1.34,3.04,3.02h0Z"/>
        <path class="st1" d="M187.97,40.21v41.76h-75.91v-41.76c0-1.78,1.44-3.25,3.25-3.25h69.43c1.78,0,3.23,1.47,3.23,3.25h0Z"/>
        <path class="st15" d="M114.34,39.16h71.42v40.55h-71.42v-40.55Z"/>
        <path class="st7" d="M175.9,66.51v3.49h-51.52v-3.49c0-2.59,1.3-5,5.22-5h1.91c0-2.59,1.67-5.74,7.56-5.74h7.22c0-3.43,1.74-5.92,8.99-5.92,9.96,0,10.24,4.79,10.24,10.01,10.53,0,10.38,6.66,10.38,6.66h0Z"/>
        <path class="st7" d="M165.52,59.74c1.41-2.12.84-4.99-1.28-6.4s-4.99-.84-6.4,1.28c-1.41,2.12-.84,4.99,1.28,6.4s4.99.84,6.4-1.28ZM163.72,54.1c-1.7-1.13-4-.67-5.13,1.03-1.13,1.7-.67,4,1.03,5.13s4,.67,5.13-1.02c1.13-1.7.67-3.98-1.02-5.13h0Z"/>
        <path class="st9" d="M151.96,58.11l2.03-.77c.17-.07.29-.24.3-.42.03-.79.18-1.58.45-2.32.07-.17.02-.37-.12-.5l-1.58-1.48,1.11-1.66,1.98.89c.17.08.37.05.5-.08.57-.54,1.24-.97,1.97-1.31.08-.03.15-.1.18-.17.05-.08.08-.17.08-.27l-.07-2.17,1.95-.39.77,2.03c.07.17.24.29.42.3.79.03,1.58.18,2.32.45.17.07.37.02.5-.12l1.48-1.58,1.66,1.11-.89,1.98c-.08.17-.05.37.08.5.54.57.97,1.24,1.31,1.97.08.17.25.27.44.27l2.17-.07.39,1.95-2.03.77c-.17.07-.29.24-.3.42-.03.79-.18,1.58-.45,2.32-.07.17-.02.37.12.5l1.58,1.48-1.11,1.66-1.98-.89c-.17-.08-.37-.05-.5.08-.57.54-1.24.97-1.97,1.31-.17.08-.27.25-.27.44l.07,2.17-1.95.39-.77-2.03c-.07-.17-.24-.29-.42-.3-.79-.03-1.58-.18-2.32-.45-.17-.07-.37-.02-.5.12l-1.48,1.58-1.66-1.11.89-1.98c.08-.17.05-.37-.08-.5-.54-.57-.97-1.24-1.31-1.97-.08-.17-.25-.27-.44-.27l-2.17.07-.39-1.95h.01ZM163.72,54.1c-1.7-1.13-4-.67-5.13,1.03-1.13,1.7-.67,4,1.03,5.13s4,.67,5.13-1.03c1.13-1.7.67-3.98-1.02-5.13h0Z"/>
        <path class="st7" d="M147.44,67.69c.99-1.48.59-3.49-.89-4.49-1.48-.99-3.5-.59-4.49.89-.99,1.48-.59,3.49.89,4.49,1.48.99,3.5.59,4.49-.89ZM146.03,63.98c-1.06-.71-2.5-.42-3.21.64-.71,1.06-.42,2.5.64,3.21s2.5.42,3.21-.64c.71-1.08.42-2.5-.64-3.21Z"/>
        <path class="st7" d="M146.67,67.19c-.71,1.06-2.15,1.34-3.21.64-1.06-.71-1.34-2.15-.64-3.21.71-1.06,2.15-1.34,3.21-.64,1.06.71,1.34,2.13.64,3.21Z"/>
        <path class="st6" d="M149.64,68.09c-.13-.13-.17-.32-.12-.49.17-.47.27-.97.3-1.5.02-.18.12-.34.29-.4l1.55-.66-.22-1.08h-1.68c-.18,0-.34-.1-.42-.27-.22-.47-.5-.89-.84-1.26-.12-.13-.15-.32-.08-.49l.64-1.55-.91-.6-1.19,1.18c-.13.13-.32.17-.49.12-.47-.17-.97-.27-1.5-.3-.17,0-.34-.12-.4-.29l-.66-1.55-1.08.22v1.68c0,.08-.03.18-.08.25s-.12.12-.18.17c-.47.22-.89.5-1.26.84-.13.12-.32.15-.49.08l-1.55-.64-.61.91,1.18,1.19c.13.13.17.32.12.49-.17.47-.27.97-.3,1.5,0,.17-.12.34-.29.4l-1.55.66.22,1.08h1.68c.18,0,.34.1.42.27.22.47.5.89.84,1.26.12.13.15.32.08.49l-.64,1.55.91.6,1.19-1.18c.13-.13.32-.17.49-.1.49.17.99.27,1.5.29.18.02.34.12.4.29l.66,1.55,1.08-.22v-1.68c0-.18.1-.34.27-.42.47-.22.89-.5,1.26-.84.13-.12.32-.15.49-.08l1.55.64.61-.91-1.18-1.19h-.01ZM143.46,67.83c-1.06-.71-1.34-2.15-.64-3.21.71-1.06,2.15-1.34,3.21-.64,1.06.71,1.34,2.15.64,3.21-.71,1.06-2.15,1.34-3.21.64Z"/>
        <path class="st18" d="M150.52,38.01c0,.26-.21.47-.47.47s-.47-.21-.47-.47.21-.47.47-.47.47.21.47.47Z"/>
        <path class="st7" d="M171.05,99.41h20.97v-5.12h-20.97c-.48,0-.84.36-.84.84v3.44c0,.48.36.84.84.84Z"/>
        <path d="M171.05,99.41h20.97v-5.12h-20.97c-.48,0-.84.36-.84.84v3.44c0,.48.36.84.84.84Z"/>
        <path class="st11" d="M172.67,95.35h19.35v3.02h-19.35v-3.02Z"/>
        <path class="st7" d="M171.05,89.12h20.97v-5.12h-20.97c-.48,0-.84.36-.84.84v3.44c0,.48.36.84.84.84Z"/>
        <path d="M171.05,89.12h20.97v-5.12h-20.97c-.48,0-.84.36-.84.84v3.44c0,.48.36.84.84.84Z"/>
        <path class="st11" d="M172.67,85.23h19.35v2.63h-19.35v-2.63Z"/>
        <path class="st7" d="M166.38,94.26h20.97c.48,0,.84-.36.84-.84v-3.44c0-.48-.36-.84-.84-.84h-20.97s0,5.12,0,5.12Z"/>
        <path d="M166.38,94.26h20.97c.48,0,.84-.36.84-.84v-3.44c0-.48-.36-.84-.84-.84h-20.97s0,5.12,0,5.12Z"/>
        <path class="st11" d="M166.38,90.51h19.35v2.38h-19.35v-2.38Z"/>
        <path class="st6" d="M219.65,27.06c-1.48,2.16-2.79,2.58-5.74.54-2.95-2.02-3.05-3.4-1.59-5.55,1.5-2.2,2.84-2.58,5.77-.59,2.95,2.04,3.07,3.4,1.57,5.6h-.01Z"/>
        <path class="st4" d="M200.22,33.48c.14-2.09.84-5.09,3.26-4.94l6.09.63,2.72,6.87-.59,3.56.19.87,2.25,5.44-11.23,7.22,2.84-5.67-.91-2.41c-3.16-.19-4.99-.56-5.09-5.67l-1.9-.54c.73-1.24,2.23-3.7,2.23-3.7,0,0,.12-1.45.14-1.64v-.02Z"/>
        <path class="st6" d="M218.13,34.68c.35-5.25-1.94-9.42-7.9-9.82-6-.4-9.68.73-9.91,4.05.26,2.7,9.54-1.27,9.02,6.56l1.36.09c.47.02.82.42.8.89l-.07,1.69c-.09,1.36-.91,1.78-2.39,1.69-.16,2.3,1.57,2.86,3.33,2.98,2.62.16,5.41-3.12,5.76-8.13ZM203.01,35.92c.05-.3-.19-.59-.49-.63l-.8-.09c-.3-.05-.59.19-.63.49l1.92.23h0Z"/>
        <path class="st7" d="M199.8,40.35v.12c.02.23.05.47.07.66h.02c.66.02,1.36-.28,1.43-.66l-1.5-.12h-.02Z"/>
        <path class="st6" d="M210.34,154.67v4.73c0,.54-.42.96-.96.96h-14.76c-.98,0-1.34-1.34-.47-1.8l10.45-5.72,5.74,1.83Z"/>
        <path class="st2" d="M207.77,156.45l2.58-1.8v-6.84h-6.28l.54,5.02-4.01,2.2,5.48,1.69c.59.19,1.2.09,1.69-.26h0Z"/>
        <path class="st1" d="M218.5,94.46l-3.19,6.26-4.05,19.1-.82,28.64-8.44-.38-1.57-28.12c-.05-.91-.05-1.85.02-2.77l1.57-31.59,15.28-3.54,1.62,4.15c1.05,2.69.89,5.69-.42,8.25h0Z"/>
        <path class="st14" d="M216.39,156.26l.05,4.97c0,.56-.45,1.01-1.01,1.01l-15.49.16c-1.05,0-1.41-1.38-.49-1.9l10.9-6.12,6.05,1.87h0Z"/>
        <path class="st4" d="M213.72,158.16l2.69-1.9-.07-7.57h-6.63l.68,5.72-4.17,2.34,5.79,1.73c.56.14,1.2.05,1.71-.33h0Z"/>
        <path class="st8" d="M219.67,93.38l-2.44,6.56-1.83,18.68,2.55,30.42-10.26.09-4.1-29.18c-.12-.89-.19-1.78-.21-2.69l-1.34-31.68,14.98-4.41,2.09,3.94c1.36,2.55,1.57,5.55.56,8.27h0Z"/>
        <path class="st7" d="M200.17,69.39l10.08-10.15.56-.63c1.71-1.94,1.55-5.02-.49-6.61-.07-.05-.12-.09-.19-.14-1.64-1.12-3.89-.87-5.3.56-.49.52-.96,1.05-1.34,1.52l-6.68,8.79,3.35,6.66h0Z"/>
        <path d="M200.17,69.39l10.08-10.15.56-.63c1.71-1.94,1.55-5.02-.49-6.61-.07-.05-.12-.09-.19-.14-1.64-1.12-3.89-.87-5.3.56-.49.52-.96,1.05-1.34,1.52l-6.68,8.79,3.35,6.66h0Z"/>
        <path class="st2" d="M188.88,58.68l-2.6-1.38-1.27-2.77s-.09-.09-.16-.12l-6.35-3.44c-.28-.16-.63-.07-.82.21-.16.26-.12.61.12.82l2.51,2.09s.02.07,0,.09l-1.71,1.48c-.14.12-.21.28-.21.47l.73,2.51c.16.54.59.94,1.13,1.08l2.39.56c.07.02.12.05.19.07l3.8,2.3c.3.19.7.07.87-.26l1.45-2.98c.16-.26.14-.54-.05-.73h-.02Z"/>
        <path class="st7" d="M187.82,58.11l-2.6,5.53,10.19,6.49,1.41-7.41-9-4.62h0Z"/>
        <path d="M187.82,58.11l-2.6,5.53,10.19,6.49,1.41-7.41-9-4.62h0Z"/>
        <path class="st7" d="M197.31,70.63c2.19,0,3.96-1.77,3.96-3.96s-1.77-3.96-3.96-3.96-3.96,1.77-3.96,3.96,1.77,3.96,3.96,3.96Z"/>
        <path d="M197.31,70.63c2.19,0,3.96-1.77,3.96-3.96s-1.77-3.96-3.96-3.96-3.96,1.77-3.96,3.96,1.77,3.96,3.96,3.96Z"/>
        <path class="st7" d="M214.16,45.93l-11.23,7.22-2.04,3.3c-.77,1.31-1.08,2.86-.84,4.36l1.97,7.05.02,17.76,16.43-1.62c.4-.05.68-.4.63-.77l-.96-7.59,1.57-17.55c.26-2.86-.59-5.69-2.32-7.97l-3.23-4.19h0Z"/>
        <path d="M214.16,45.93l-11.23,7.22-2.04,3.3c-.77,1.31-1.08,2.86-.84,4.36l1.97,7.05.02,17.76,16.43-1.62c.4-.05.68-.4.63-.77l-.96-7.59,1.57-17.55c.26-2.86-.59-5.69-2.32-7.97l-3.23-4.19h0Z"/>
        <path class="st4" d="M199.71,77.61l-5.32,3.21c-.28-.14-1.2-.68-1.43-.8-.05-.02-.09-.02-.12-.05l-.63-.28-.09-.05c-1.29-.56-2.37-1.01-2.58-1.1-.75-.38-1.24.45-.98.82.02.02.05.07.07.09.19.26,1.27,1.8,1.27,1.8.14.21.09.49-.09.68-.14.12-.68.59-1.36,1.15-.54.45-1.12,1.01-1.59,1.5h-.02c-.42.35-.82.7-1.17,1.1-.33.54-.14,1.22.38,1.55.07.05.12.07.19.09.66.26,3.8.7,4.5.77,1.31,0,1.92-.52,4.52-2.02,0,0,2.98-2.48,3.23-2.6,1.76-.84,5.16-2.53,5.16-2.53l-3.91-3.35-.03.02Z"/>
        <path class="st7" d="M215.64,74.14l2.44-18.33.09-.84c.28-2.58-1.62-4.99-4.22-5.13h-.23c-1.99.02-3.68,1.52-4.01,3.52-.12.7-.19,1.41-.21,2.02l-.42,15.28,6.56,3.49h0Z"/>
        <path d="M215.64,74.14l2.44-18.33.09-.84c.28-2.58-1.62-4.99-4.22-5.13h-.23c-1.99.02-3.68,1.52-4.01,3.52-.12.7-.19,1.41-.21,2.02l-.42,15.28,6.56,3.49h0Z"/>
        <path class="st7" d="M209.31,61.68l-4.66,12.47,4.43-3.49.23-8.98h0Z"/>
        <path d="M209.31,61.68l-4.66,12.47,4.43-3.49.23-8.98h0Z"/>
        <path class="st7" d="M195.28,79.18l3.12,6.07,15.19-8.16-4.5-6.44-13.8,8.53h0Z"/>
        <path d="M195.28,79.18l3.12,6.07,15.19-8.16-4.5-6.44-13.8,8.53h0Z"/>
        <path class="st7" d="M211.73,77.56c2.19,0,3.96-1.77,3.96-3.96s-1.77-3.96-3.96-3.96-3.96,1.77-3.96,3.96,1.77,3.96,3.96,3.96Z"/>
        <path d="M211.73,77.56c2.19,0,3.96-1.77,3.96-3.96s-1.77-3.96-3.96-3.96-3.96,1.77-3.96,3.96,1.77,3.96,3.96,3.96Z"/>
        <path class="st7" d="M205.14,56.17l9.02-10.24-11.23,7.19,2.2,3.05h0Z"/>
        <path class="st5" d="M99.54,46.69c-2.38-.7-2.33.31-2.33.31l-5.67,5.17-1.8,4.66.75,3.99-.19,4.14,9.06,6.03.72-6.83,5-6.4-.12-.41,1.44-1.13-2.19-3.49c-1.35-4.26-2.28-5.34-4.66-6.06v.02Z"/>
        <path class="st6" d="M90.42,61.33c-1.37-.84-2.14-1.76-3.61-6.49-1.47-4.74,1.35-7.09,6.32-8.61,5.02-1.56,6.66-.91,7.96,1.13,0,0-2.26.67-3.61,1.11-1.15.36-1.88,1.27-1.37,2.89l1.95,6.28c.36,1.2,1.59,1.8,2.76,1.44,1.88-.58,4.23-1.3,4.23-1.3,0,0,.6,1.35.1,1.9.63.41.84.77,1.18,2.14.38,1.51-.5,2.07-3.77,3.08-3.97,1.2-4.57.26-5.53-2.96-.31-1.01-1.76-5.53-2.04-6.37-.31-.91-.55-1.68-2.24-1.13-1.3.43-1.51,1.06-1.18,2.14.02.07.46,1.49.48,1.56.22.89.17,3.37-1.63,3.2h0Z"/>
        <path class="st7" d="M105.33,59.09l-2.26.89s.67,1.01,2.67.24c0,0-.41-1.13-.41-1.13Z"/>
        <path class="st6" d="M102.28,53.68l-.43.14c-.17.05-.34-.05-.41-.22l-.14-.43c-.05-.17.05-.34.22-.41l.43-.14c.17-.05.34.05.41.22l.14.43c.05.19-.05.36-.22.41Z"/>
        <path class="st6" d="M132.57,98.14h-25.82v1.01c0,.12.1.22.22.22h25.39c.12,0,.22-.1.22-.22v-1.01h-.01ZM134.04,97.49l6.2-23.11c.14-.46-.1-.94-.53-1.08-.05-.02-.1-.02-.14-.02l-.34-.12-6.66,25.03.34.12c.53.02,1.01-.31,1.13-.82Z"/>
        <path class="st8" d="M118.84,157.93l-.63,4.04c-.1.62.38,1.2,1.01,1.2h18.18v-1.13c0-.87-.53-1.64-1.35-1.92l-11.68-4.33-5.53,2.14h0Z"/>
        <path class="st14" d="M128.27,114.39l1.42.79c2.31,1.27,3.53,3.87,3.1,6.47l-4.21,35.78-11.13,2.31,2.79-34.12-9.28-4.04s17.31-7.19,17.31-7.19Z"/>
        <path class="st13" d="M139.25,158.24v3.87c0,.58.46,1.03,1.03,1.03h18.35v-1.13c0-.87-.53-1.63-1.35-1.92l-11.68-4.33-6.35,2.48h0Z"/>
        <path class="st16" d="M83.55,111.41l3.7,12.24h31.35l19.45,35.73,10.6-2.48-20.17-42.1c-1.06-2.09-3.2-3.39-5.53-3.39h-39.41,0Z"/>
        <path class="st7" d="M102.88,111.41l1.08-12.91.05-16.85c0-2.12-.53-4.21-1.56-6.06l-2.64-4.57-.17-2.81-9.26-5.58-.31,3.05-6.25,7.57c-1.27,1.49-2,3.39-2.04,5.34l-1.08,39.36,17.84-6.23,4.35-.31h-.01Z"/>
        <path class="st7" d="M102.88,111.41l1.08-12.91.05-16.85c0-2.12-.53-4.21-1.56-6.06l-2.64-4.57-.17-2.81-9.26-5.58-.31,3.05-6.25,7.57c-1.27,1.49-2,3.39-2.04,5.34l-1.08,39.36,17.84-6.23,4.35-.31h-.01Z"/>
        <path class="st6" d="M90.3,124.82c4.81.24,10.75-2.79,10.77-7.62l.07-17.91-1.3-16.37c.1-2.96-.84-5.84-2.67-8.15l-7.12-9.09-6.2,7.24c-1.47,1.71-2.16,3.87-2.33,6.15l-2.74,43.06c-.07,1.23.87,2.26,2.09,2.31l9.42.38h.01Z"/>
        <path class="st5" d="M111.97,93.98l5.82-.14c.26,0,.55.07.79.19l4.93,2.64c.26.14.41.41.43.7v.53c0,.14-.1.24-.24.24l-11.9.02"/>
        <path class="st6" d="M93.31,92.78l18.66,1.2-.05,5.43h-18.63"/>
        <path class="st9" d="M117.28,123.89l-31.98-4.76-8.37-30.97c-.24-.91-1.08-1.54-2.02-1.54h-2.76c-1.15,0-2.09.94-2.09,2.09,0,.07,0,.17.02.24l3.46,30.75c.72,6.37,6.11,11.18,12.5,11.18h30.92c1.15,0,2.09-.94,2.09-2.09v-2.81c0-1.06-.77-1.95-1.78-2.09h.01Z"/>
        <path class="st1" d="M111.27,161.47h-30.01c-.58,0-1.03-.46-1.03-1.03,0-.12.02-.24.05-.34.12-.36.43-.6.79-.67l12.41-2.28v-23.37h-1.68c-1.11,0-2.19-.43-2.96-1.23l-1.66-1.66h18.18l-1.66,1.66c-.79.79-1.85,1.23-2.96,1.23h-1.68v23.37l12.41,2.28c.36.07.67.34.79.67.19.53-.1,1.13-.63,1.32-.12.05-.24.05-.36.05h0Z"/>
      </g>
    </g>
  </g>
</svg>