<?xml version="1.0" encoding="UTF-8"?>
<svg id="Layer_1" xmlns="http://www.w3.org/2000/svg" xmlns:xlink="http://www.w3.org/1999/xlink" version="1.1" viewBox="0 0 300 168">
  <!-- Generator: Adobe Illustrator 29.2.1, SVG Export Plug-In . SVG Version: 2.1.0 Build 116)  -->
  <defs>
    <style>
      .st0, .st1, .st2, .st3 {
        fill: none;
      }

      .st4 {
        mask: url(#mask);
      }

      .st5 {
        fill: #00b2d9;
      }

      .st6 {
        fill: #bdbdbd;
      }

      .st7 {
        fill: #545454;
      }

      .st8 {
        fill: #fb6a55;
      }

      .st1 {
        isolation: isolate;
        stroke: #878787;
        stroke-width: .47px;
      }

      .st1, .st2, .st3 {
        stroke-miterlimit: 10;
      }

      .st1, .st9 {
        opacity: .6;
      }

      .st10 {
        fill: #ff5e4b;
      }

      .st11 {
        fill: #ff7666;
      }

      .st12 {
        fill: #bc8e7b;
      }

      .st13 {
        fill: #664b40;
      }

      .st14 {
        fill: #d8d8d8;
      }

      .st15 {
        fill: #aae1f8;
      }

      .st16 {
        fill: #4da298;
      }

      .st17 {
        fill: #ff6a66;
      }

      .st18 {
        fill: #c9d1d6;
      }

      .st19 {
        fill: #ffa095;
      }

      .st20 {
        fill: #fff;
      }

      .st21 {
        fill: #476175;
      }

      .st2 {
        stroke: #cfcfcf;
        stroke-width: .52px;
      }

      .st22 {
        fill: #ff6e5d;
      }

      .st23 {
        fill: #2e4c62;
      }

      .st24 {
        fill: #878787;
      }

      .st25 {
        fill: #c4edf6;
      }

      .st3 {
        stroke: #00243f;
        stroke-width: 1.64px;
      }

      .st26 {
        fill: #b5e0f5;
      }

      .st27 {
        fill: #dca48c;
      }

      .st28 {
        fill: #ffc566;
      }

      .st29 {
        fill: #ababab;
      }

      .st30 {
        fill: #ffbbb3;
      }

      .st31 {
        fill: #fbfbfb;
      }

      .st32 {
        fill: #667c8c;
      }

      .st33 {
        fill: #ededed;
      }

      .st34 {
        fill: #d3d3d3;
      }

      .st35 {
        fill: #00243f;
      }

      .st36 {
        fill: #cfcfcf;
      }
    </style>
    <mask id="mask" x="69.45" y="8.75" width="36.69" height="56.16" maskUnits="userSpaceOnUse">
      <g id="mask0_3199_2012">
        <rect class="st20" x="69.45" y="12.04" width="36.69" height="49.88" rx="4.95" ry="4.95"/>
      </g>
    </mask>
  </defs>
  <rect class="st0" x="45.13" y="-.32" width="207.75" height="138.5"/>
  <path class="st26" d="M300-.32H0v138.5h300V-.32Z"/>
  <path class="st34" d="M300,102.66H0v65.34h300v-65.34Z"/>
  <g class="st9">
    <path class="st1" d="M208.27,95.21h-10.68"/>
    <path class="st1" d="M208.27,96.67h-10.68"/>
    <path class="st1" d="M208.27,98.13h-10.68"/>
    <path class="st1" d="M208.27,99.59h-10.68"/>
    <path class="st1" d="M208.27,101.06h-10.68"/>
  </g>
  <path class="st31" d="M217.53,18.14v26.7c0,1.54-1.25,2.79-2.79,2.79h-36.03c-1.54,0-2.79-1.25-2.79-2.79v-26.7c0-1.54,1.25-2.79,2.79-2.79h36.03c1.54,0,2.79,1.25,2.79,2.79Z"/>
  <path class="st18" d="M175.92,19.52v-1.38c0-1.54,1.24-2.79,2.78-2.79h36.04c1.54,0,2.79,1.24,2.79,2.78v1.39"/>
  <path class="st5" d="M214.65,22.31h-12.77v.54h12.77v-.54Z"/>
  <path class="st5" d="M215.05,23.68h-13.17v.54h13.17v-.54Z"/>
  <path class="st10" d="M212.28,26.43h-10.39v.54h10.39v-.54Z"/>
  <path class="st10" d="M209.47,25.06h-7.58v.54h7.58v-.54Z"/>
  <path class="st35" d="M178.9,18.25c.45,0,.82-.37.82-.82s-.37-.82-.82-.82-.82.37-.82.82.37.82.82.82Z"/>
  <path class="st35" d="M181.41,18.25c.45,0,.82-.37.82-.82s-.37-.82-.82-.82-.82.37-.82.82.37.82.82.82Z"/>
  <path class="st35" d="M183.91,18.25c.45,0,.82-.37.82-.82s-.37-.82-.82-.82-.82.37-.82.82.37.82.82.82Z"/>
  <path class="st29" d="M214.44,35.41l-2.7.5-4.05.74-.52.09c-.09,0-.18,0-.24.11-.06.11-.07.14-.1.21l-.26.53-1.8,3.73-.87,1.8c-.17.33-.32.67-.45,1.01,0,.02-.01.03-.02.05l.27-.04-3.34-3.34-.48-.48s-.11-.06-.16-.05l-3.52,1.29-5.58,2.05-1.28.46h.13l-3-1.8-4.77-2.88-1.08-.65c-.19-.12-.36.18-.18.3l3.19,1.93,4.84,2.91.63.39c.1.05.21.16.33.14.1-.03.2-.07.29-.11l.74-.27,5.31-1.95,2.56-.94c.45-.17.96-.31,1.41-.52h.06l-.16-.05,3.34,3.34.48.48c.07.07.17.07.24,0,.01-.01.02-.02.03-.04l1.19-2.48,1.88-3.94.45-.9-.1.08,2.5-.45,3.99-.73.9-.16c.21-.04.13-.37-.09-.33v-.04h0Z"/>
  <path class="st10" d="M199.63,41.64c.59,0,1.07-.48,1.07-1.07s-.48-1.07-1.07-1.07-1.07.48-1.07,1.07.48,1.07,1.07,1.07Z"/>
  <path class="st5" d="M207.22,38.1c.59,0,1.07-.48,1.07-1.07s-.48-1.07-1.07-1.07-1.07.48-1.07,1.07.48,1.07,1.07,1.07Z"/>
  <path class="st22" d="M184.48,27.73c.73-2.15,4.99-1.76,6.65-1.22,2.04.83,1.56,4.5,1.19,6.17-.74,2.18-4.99,1.8-6.67,1.23-2.01-.84-1.52-4.5-1.17-6.18"/>
  <path class="st16" d="M188.39,26.15l-3.09-2.51c1.74-1.57,4.47.87,3.09,2.51Z"/>
  <path class="st7" d="M149.21,112.56h-4.97v37.66h4.97v-37.66Z"/>
  <path class="st23" d="M159.07,116.63v-1.65h-24.7v1.65c0,.91.74,1.65,1.65,1.65h21.41c.91,0,1.65-.74,1.65-1.65"/>
  <path class="st7" d="M148.44,93.44h-3.45v17.18h3.45v-17.18Z"/>
  <path class="st17" d="M130.83,95.71c-2.14,0-3.88-1.74-3.88-3.88v-24.49c0-2.14,1.72-3.89,3.87-3.9h31.79c2.14,0,3.88,1.74,3.88,3.88v24.49c0,2.14-1.74,3.88-3.88,3.88l-31.78.02h0Z"/>
  <path class="st32" d="M121.09,112.56v3.61h51.25v-3.61c0-2-1.62-3.61-3.61-3.61h-44.03c-2,0-3.61,1.62-3.61,3.61Z"/>
  <path class="st7" d="M157.13,109.23l-22.88,3.7c-3.95,0-7.15-3.2-7.15-7.15,0-.33.02-.66.07-.99l1.73-12.42h34.86l-6.62,16.85h0Z"/>
  <path class="st7" d="M158.56,112.94h-5.62l10.81-20.55,1.27,13.45c.33,3.57-2.3,6.74-5.87,7.07-.19.02-.39.03-.59.03h0Z"/>
  <path class="st13" d="M136.35,125.08l-2.96,13.68-7.92-8.19,3.97-7.21,6.92,1.73Z"/>
  <path class="st7" d="M153.51,152.05l10.06-4.21-20.35-51.75-15.13,6.34,25.42,49.62Z"/>
  <path class="st35" d="M133.39,138.76s-7.46.16-9.98-3.97l-2.44,4.91,12.42-.93Z"/>
  <path class="st24" d="M135.69,132.89l-10.15-5.38,32.26-36.66c2.07-2.32,5.62-2.52,7.93-.45.07.07.15.14.22.21l3.11,3.09c2.25,2.23,2.26,5.87.02,8.12-.08.08-.16.16-.25.23l-33.14,30.84h0Z"/>
  <path class="st36" d="M137.84,37.54c-.13,1.87.72,3.67,2.25,4.75.38.22,1.08-5.32,1.08-5.32l11.47.7s.21,4.29.23,5.14c0,0,3.11-3.14,2.31-5.97,1.46-1.44.63-3.07-.33-3.9.83-1.85-.92-4.48-2.7-4.15-.77-1.54-3.89-2.14-5.42-1.05-1.49-1.29-5.15-.5-5.45,1.08-2.17.13-3.61,2.37-3.28,4.02-1.1.83-1.53,3.53-.18,4.69"/>
  <path class="st13" d="M139.76,33.72c0,2.05-.06,6.33-.06,6.33h-.42c-.59,0-1.06.46-1.06,1.74,0,1.77.36,1.93,1.42,1.93v1.48c-.02,1.44.61,2.81,1.71,3.73v2.13l5.15,8.03,5.14-7.79v-2.19s1.64-1.42,1.64-3.49c0-.53-.04-.77-.04-1.42,1.18,0,1.3-.59,1.3-2.25s-.59-1.89-.95-1.89h-.36v-4.05c-2.17,1.45-5.02,1.31-7.04-.33-1.21-.96-2.91-1.92-6.44-1.92"/>
  <path d="M143.77,41.45h-.51c-.2,0-.36-.16-.36-.36v-.51c0-.2.16-.36.36-.36h.5c.2,0,.36.16.36.36v.51c0,.2-.16.36-.36.36"/>
  <path d="M149.75,41.45h-.51c-.2,0-.36-.16-.36-.36v-.51c0-.2.16-.36.36-.36h.51c.2,0,.36.16.36.36v.51c0,.2-.16.36-.36.36Z"/>
  <path d="M151.67,49.09l.38,2.29s-3.28,4.08-3.29,4.21c-3.69,0-7.38-6.68-7.38-6.68,4.04,3.55,6.31,4.06,10.29.18"/>
  <path class="st20" d="M148.76,47.52h-4.02c0,.94,4.02.99,4.02,0Z"/>
  <path class="st35" d="M151.65,100.07c0,2.32,2.82,4.65,6.35,2.89l3.12-1.81,7.18,1.69,4.36-18.46c.38-1.62.31-3.31-.23-4.88l-6.5-19.24c-.76-2.25-2.39-4.1-4.53-5.14l-8.11-3.94-1.53-1.08.19,2.95-5.33,7.04-5.07-5.7-.41-4.18-1.3.85-10,4.42c-2.07.92-3.53,2.84-3.84,5.09l-1.62,11.56,3.01.57,5.12,31.54,3.85.05c2.32,0,3.45-1.04,3.45-3.45l.06-2.79h11.78v2.02ZM161.23,98.27v-24.55l3.25,8.73-3.25,15.82h0ZM127.62,103.69l7.25.75.25-10-1.75-20.16-5.96-1.56.21,30.98Z"/>
  <path class="st15" d="M143.52,77.19h5.69l4.1-26-1.44-1.24s-.57,10.73-5.1,10.73-5.36-11.15-5.36-11.15l-1.55,1.56,3.67,26.11h0Z"/>
  <path class="st35" d="M124.47,70.97l-.8,13.78c-.06.99.18,1.97.67,2.83l10.77,17.96,6.66-4.53-9.1-16.79,1.36-14.01-9.56.78h0Z"/>
  <path class="st35" d="M134.45,133.82s-7.42.89-8.34-4.48l-4.83,9.2s-2.76,4.47.33,5.78c0,0,9.9,2.27,11.1-2.55l1.74-7.95h0Z"/>
  <path class="st6" d="M213.93,167.83l-5.49-69.15h0-123.44l-5.49,69.15h134.42Z"/>
  <path class="st7" d="M214.81,95.11c0,2.59-.63,3.87-5.66,3.87h-124.66c-5.03,0-5.87-.25-5.87-3.87h136.19Z"/>
  <path class="st3" d="M137.79,39.79c0-6.07.72-10.26,8.78-10.26s8.5,4.18,8.5,10.26"/>
  <path class="st30" d="M154.43,45.09h-.81c-.2,0-.36-.16-.36-.36v-4.76c0-.2.16-.36.36-.36h.81v5.48h0Z"/>
  <path class="st11" d="M154.45,39.61h1.18c1.52,1.27,1.72,3.52.45,5.04-.14.16-.29.32-.45.45h-1.18v-5.49Z"/>
  <path class="st3" d="M143.83,49.3c-3.16,0-5.78-1.71-5.78-4.86"/>
  <path class="st19" d="M143.65,48.65h.79c.28,0,.5.22.5.5v.3c0,.28-.22.5-.5.5h-.79c-.28,0-.5-.22-.5-.5v-.3c0-.28.22-.5.5-.5Z"/>
  <path class="st30" d="M138.54,39.61h.81c.2,0,.36.16.36.36v4.76c0,.2-.16.36-.36.36h-.81v-5.48h0Z"/>
  <path class="st11" d="M138.54,45.09h-1.17c-1.52-1.26-1.72-3.52-.46-5.03.14-.16.29-.32.46-.46h1.17v5.49h0Z"/>
  <path class="st15" d="M146.11,73.05l6.5-21.85-.85-1.1-5.19,7.13-5.28-7.7-1.64,1.64,6.45,21.88Z"/>
  <path class="st8" d="M148.51,59.77l-1.96-2.04s-1.15,1.19-1.93,2.02c-.34.36-.41.9-.18,1.34l1.08,2.06-.99,7.46,2.06,6.32,1.99-6.14-1-7.65,1.08-2.02c.25-.44.18-.99-.16-1.36h0Z"/>
  <path class="st33" d="M132.8,70.61h29.02c1.34,0,2.42,1.08,2.42,2.42v20.02c0,1.34-1.08,2.42-2.42,2.42h-29.02c-1.34,0-2.42-1.08-2.42-2.42v-20.02c0-1.34,1.08-2.42,2.42-2.42h0Z"/>
  <path class="st18" d="M194.89,57.29h38.44c.92,0,1.66.74,1.66,1.66v24.27c0,.92-.74,1.66-1.66,1.66h-38.44c-.92,0-1.66-.74-1.66-1.66v-24.27c0-.92.74-1.66,1.66-1.66Z"/>
  <path class="st20" d="M231.34,59.22h-34.47v23.73h34.47v-23.73Z"/>
  <path class="st33" d="M232.72,70.37h.85c.16,0,.29.13.29.29v.85c0,.16-.13.29-.29.29h-.85c-.16,0-.29-.13-.29-.29v-.85c0-.16.13-.29.29-.29Z"/>
  <path class="st25" d="M209.18,62.21l-3.3-2.97h-8.86v9.27l5.33,6.07c.19.21.45.32.73.33h3.33l-1.09,3.01c-.11.29-.07.62.11.88l1.83,2.76-.35,1.39h3.33l3.65-3.32c.55-.59.53-1.5-.05-2.06l-3.6-3.51c-.2-.2-.47-.31-.75-.31h-5.76l-1.28-3.81h1.89c.42,0,.81-.19,1.08-.51l4.01-4.95c.55-.68.46-1.67-.22-2.22-.01,0-.02-.02-.03-.03h0Z"/>
  <path class="st25" d="M225.85,65.45l2.76,4.76-3.36,7.95c-.17.41-.49.73-.9.9l-2.07.83c-.53.21-1.13-.05-1.34-.57-.05-.12-.07-.25-.07-.38v-6.87h-3.85c-.41,0-.8-.19-1.04-.51l-1.6-2.09c-.34-.44-.34-1.06,0-1.5l2.05-2.59c.31-.38.77-.61,1.26-.61h6.94c.5,0,.97.26,1.22.69h0Z"/>
  <path class="st2" d="M231.34,59.22h-34.47v23.73h34.47v-23.73Z"/>
  <path class="st10" d="M218.56,72.79c.47,0,.85-.38.85-.85s-.38-.85-.85-.85-.85.38-.85.85.38.85.85.85Z"/>
  <path class="st10" d="M206.39,69.81c.84,0,1.53-.68,1.53-1.53s-.68-1.53-1.53-1.53-1.53.68-1.53,1.53.68,1.53,1.53,1.53Z"/>
  <path d="M142.92,84.63v-2.31h.61l.78,1.72.77-1.72h.59v2.31h-.5v-1.34l-.59,1.34h-.54l-.59-1.34v1.34h-.52Z"/>
  <path d="M146.49,84.63h-.59l1.02-2.3h.73l1.03,2.3h-.59l-.2-.46h-1.2l-.2.46ZM147.7,83.74l-.42-.98-.41.98h.84Z"/>
  <path d="M148.91,84.63v-2.31h2.2v.46h-1.67v.46h1.43v.45h-1.43v.48h1.67v.46h-2.21Z"/>
  <path d="M151.55,84.63v-2.3h1.84c.25,0,.39.14.39.39v.77c0,.18-.16.34-.46.34h-.05l.54.8h-.59l-.51-.79h-.61v.79h-.54ZM152.09,83.38h1.16v-.6h-1.16v.6Z"/>
  <path d="M154.75,84.63h-.18c-.24,0-.35-.14-.35-.34v-.3h.54v.18h1.14v-.47h-1.31c-.21,0-.36-.14-.36-.33v-.68c0-.21.16-.35.36-.35h1.49c.2,0,.34.15.34.37v.28h-.53v-.18h-1.14v.45h1.3c.19,0,.37.13.37.37v.66c0,.23-.12.36-.36.36h-1.31Z"/>
  <path d="M156.93,84.63v-2.3h.55v.92l1.04-.92h.74l-1.24,1.07,1.29,1.24h-.77l-1.06-1.05v1.05h-.55Z"/>
  <path class="st5" d="M140.72,85.5c0,.33-.27.6-.6.6h-3.77c-.33,0-.6-.27-.6-.6v-4.04c0-.33.27-.6.6-.6h3.77c.33,0,.6.27.6.6v4.04h0Z"/>
  <path class="st20" d="M139.03,83.34l.98-1.23h0s-1.42.68-1.42.68l-.35-1.53h0l-.35,1.53-1.41-.68h0s.98,1.23.98,1.23l-1.41.68h0s1.57,0,1.57,0l-.35,1.53h0l.98-1.23.98,1.23h0s-.35-1.53-.35-1.53h1.57s-1.41-.68-1.41-.68Z"/>
  <rect class="st14" x="69.45" y="12.04" width="36.69" height="49.88" rx="4.95" ry="4.95"/>
  <g class="st4">
    <g>
      <rect class="st20" x="69.45" y="8.75" width="36.69" height="54.82"/>
      <path class="st10" d="M91.84,33.8l7.08,3.53c1.91.95,3.26,2.73,3.68,4.82l2.98,15.14c.2.99-.1,2.01-.8,2.73l-4.75,4.88-1.97-1.86-18.27.49-.19.91-7.27-1.34c-1.34-.27-2.24-1.54-2.03-2.9l2.82-18.04c.29-1.86,1.47-3.46,3.16-4.28l8.31-4.07h7.25Z"/>
      <path class="st21" d="M78.41,46.37h18.77c.87,0,1.57.7,1.57,1.57v12.96c0,.87-.7,1.57-1.57,1.57h-18.77c-.87,0-1.57-.7-1.57-1.57v-12.96c0-.87.7-1.57,1.57-1.57h0Z"/>
      <path class="st28" d="M97.43,32.91c0-5.59-2.39-4.06-2.39-9.67s-1.52-7.58-6.59-7.58c-4.79,0-7.15,1.41-7.15,7.98,0,7.12,2.02,10.18,7.38,10.18l3.23-.1c0,.65-.02,3.47-.03,5.12h1.33c2.8-.02,4.21-2.96,4.21-5.92h0Z"/>
      <path class="st27" d="M93.43,20.62l-.03,4.57,1.2.04c0,1.43-.27,2.12-1.08,2.12v1.15c0,1.9-1.62,3.19-1.62,3.19v2l-3.64,11.08-3.61-10.96v-1.94s-1.57-1.5-1.57-3.09c0-.4.03-.59.03-1.08-.78,0-.99-.59-.99-1.35v-1.07l1-.03v-2.54s6.18.96,10.34-2.1"/>
      <path class="st35" d="M86.11,25.43h-.4c-.15,0-.27-.12-.27-.26v-.4c0-.15.12-.27.27-.27h.4c.15,0,.27.12.27.27v.4c0,.15-.12.27-.27.27Z"/>
      <path class="st35" d="M90.71,25.43h-.4c-.15,0-.27-.12-.27-.27v-.4c0-.15.12-.27.27-.27h.4c.15,0,.27.12.27.27v.4c0,.15-.12.27-.27.27Z"/>
      <path class="st12" d="M91.9,31.67v2.02l-.92,2.79c-4.79,0-6.34-4.61-6.34-4.61,2.34,2.08,4.26,2.46,7.25-.22"/>
      <path class="st15" d="M91.9,33.7l.54,7.86-4.18,3.22-3.87-3.22.26-7.73,3.62,10.95,3.64-11.08Z"/>
      <path class="st20" d="M89.65,29.89h-2.87c0,.8,2.88.82,2.88,0"/>
    </g>
  </g>
  <path class="st21" d="M92.94,72.64l-9.89-11.35,9.89-1.02v12.37Z"/>
</svg>