<?xml version="1.0" encoding="UTF-8"?>
<svg id="Layer_1" xmlns="http://www.w3.org/2000/svg" xmlns:xlink="http://www.w3.org/1999/xlink" version="1.1" viewBox="0 0 300 168">
  <!-- Generator: Adobe Illustrator 29.2.1, SVG Export Plug-In . SVG Version: 2.1.0 Build 116)  -->
  <defs>
    <style>
      .st0 {
        fill: none;
      }

      .st1 {
        fill: #dddcd4;
      }

      .st2 {
        fill: #00b2d9;
      }

      .st3 {
        fill: #010101;
      }

      .st4 {
        fill: #966e5a;
      }

      .st5 {
        fill: #2fbee0;
      }

      .st6 {
        fill: #ad836f;
      }

      .st7 {
        fill: #0174a8;
      }

      .st8 {
        fill: #e2ef00;
      }

      .st9 {
        fill: #c4e6f7;
      }

      .st10 {
        fill: #fff;
      }

      .st11 {
        fill: #e1f3fb;
      }

      .st12 {
        fill: #97dff0;
      }

      .st13 {
        fill: #878787;
      }

      .st14 {
        fill: #f7f7f7;
      }

      .st15 {
        fill: #eeaf30;
      }

      .st16 {
        fill: #ededed;
      }

      .st17 {
        clip-path: url(#clippath);
      }

      .st18 {
        fill: #152e54;
      }
    </style>
    <clipPath id="clippath">
      <rect class="st0" width="300" height="168.5"/>
    </clipPath>
  </defs>
  <g class="st17">
    <g>
      <rect class="st0" x="61.11" width="170.87" height="168.5"/>
      <g>
        <rect class="st11" width="300" height="168.5"/>
        <path class="st10" d="M31.63,31.15H10.42v-2.87c.04-1.71.75-3.34,1.98-4.55,1.23-1.21,2.88-1.91,4.62-1.95h4.33L127.2-16.28v-1.8c0-1.4,4.09-1.3,4.09,0v1.5l82.67,38.26h2.74v9.37h-8.09v5.67c.07.82-.2,1.63-.74,2.25-.54.63-1.31,1.01-2.14,1.08h-11.24v-9.04h-13.54v92.03c1.67.06,3.27.67,4.54,1.74,1.27,1.07,2.13,2.54,2.43,4.16h9.44v-8.47c0-.13.02-.25.06-.37.04-.12.11-.23.2-.32.09-.09.19-.17.31-.22.12-.05.24-.08.37-.09h9.95c.12,0,.24.01.35.06.11.04.22.1.3.18.09.08.16.18.21.29.05.11.08.22.08.34v8.64h2.13v-8.51c0-.13.02-.26.07-.39.05-.12.12-.24.22-.33.1-.09.21-.17.33-.22.13-.05.26-.07.39-.07h10.15c.12,0,.24.01.35.06.11.04.22.1.3.18.09.08.16.18.21.29.05.11.08.22.08.34v8.64h2.17v-8.51c0-.13.02-.25.06-.37.05-.12.11-.23.2-.32.09-.09.19-.17.31-.22.12-.05.24-.08.37-.09h9.78c.12,0,.24.01.35.06.11.04.22.1.3.18.09.08.16.18.21.29.05.11.08.22.08.34v8.61h14.82c20.95,0,22.44,17.25,22.44,17.25H45s.41-17.18,22.2-17.18v-.2c-.04-.73.17-1.45.59-2.06s1.03-1.05,1.74-1.28v-22.88c0-.86.33-1.68.93-2.3.6-.62,1.42-.99,2.28-1.03h34.18c.9,0,1.76.35,2.39.98.63.63.99,1.47.99,2.36v22.98c.74.2,1.39.63,1.84,1.24.45.61.69,1.35.66,2.1h5.82c.15-1.65.93-3.18,2.19-4.27,1.26-1.09,2.9-1.67,4.58-1.6V31.15H40.03c0,.19-.02.38-.08.55-.06.18-.16.34-.29.48-.13.14-.28.25-.46.33-.17.08-.36.13-.55.13v7.47c.54.2.99.56,1.3,1.04s.44,1.04.39,1.6h2.3c.24,0,.47.09.65.26.17.17.27.4.27.64v11.44h-15.57v-11.34c0-.26.1-.5.29-.68.18-.18.43-.28.69-.28h2.2c-.07-.57.06-1.15.38-1.63.32-.48.79-.84,1.35-1.01v-7.47c-.18,0-.37-.04-.53-.11-.17-.07-.32-.18-.45-.31-.13-.13-.22-.29-.29-.46-.06-.17-.09-.35-.08-.53l.1-.13ZM175.22,11.57h6.77c.97-.12,1.95-.04,2.89.21.94.26,1.82.69,2.58,1.29.77.59,1.41,1.33,1.89,2.16.48.84.78,1.76.9,2.71v3.87h20.91L132.04-14.88l41.59,36.29v-8.24c-.04-.4.09-.8.35-1.11.26-.31.63-.51,1.04-.55h.37l-.17.07ZM133.33,50h40.24v-15.91l-40.24,15.91ZM133.02,123.05h.3c1.72-.01,3.4.57,4.73,1.65,1.33,1.08,2.23,2.59,2.55,4.25h25.58c.3-4,3.38-5.8,7.44-5.9V53.77h-40.61v69.28ZM133.02,46.76l40.1-15.64h-40.1v15.64ZM131.36,21.68h40.61l-40.68-35.59.07,35.59ZM90.75,107.17h-2.5v6.67h2.5v-6.67ZM103.92,105.94h-10.59c-.02.33-.16.65-.41.88-.25.23-.57.36-.91.36v6.67c1.02.23,1.46,1.37,1.52,2.33h2.1c.22,0,.42.09.58.24.16.15.25.35.27.56v3.64h-13.91v-3.47c0-.12.03-.23.08-.34.05-.11.12-.2.21-.28.09-.08.19-.14.3-.18.11-.04.23-.06.35-.06h2c-.05-.5.07-1,.35-1.43.28-.42.69-.74,1.17-.91v-6.67c-.3-.04-.58-.19-.78-.42-.2-.23-.31-.52-.31-.82h-9.61v19.51c.77.16,1.46.58,1.95,1.19.49.61.75,1.37.73,2.14v.2h22.44v-.17c-.03-.75.2-1.48.65-2.09.45-.6,1.09-1.04,1.82-1.25v-19.65ZM127.27,21.68V-14.35L57.42,21.78l69.85-.1ZM34.44,39.96h2.84v-7.34h-2.84v7.34ZM55.49,21.75L124.22-13.71,24.29,21.65l31.2.1Z"/>
        <path class="st9" d="M31.63,31.15H10.42v-2.87c.04-1.71.75-3.34,1.98-4.55,1.23-1.21,2.88-1.91,4.62-1.95h4.33L127.2-16.28v-1.8c0-1.4,4.09-1.3,4.09,0v1.5l82.67,38.26h2.74v9.37h-8.09v5.67c.07.82-.2,1.63-.74,2.25-.54.63-1.31,1.01-2.14,1.08h-11.24v-9.04h-13.54v92.03c1.67.06,3.27.67,4.54,1.74,1.27,1.07,2.13,2.54,2.43,4.16h9.44v-8.47c0-.13.02-.25.06-.37.04-.12.11-.23.2-.32.09-.09.19-.17.31-.22.12-.05.24-.08.37-.09h9.95c.12,0,.24.01.35.06.11.04.22.1.3.18.09.08.16.18.21.29.05.11.08.22.08.34v8.64h2.13v-8.51c0-.13.02-.26.07-.39.05-.12.12-.24.22-.33.1-.09.21-.17.33-.22.13-.05.26-.07.39-.07h10.15c.12,0,.24.01.35.06.11.04.22.1.3.18.09.08.16.18.21.29.05.11.08.22.08.34v8.64h2.17v-8.51c0-.13.02-.25.06-.37.05-.12.11-.23.2-.32.09-.09.19-.17.31-.22.12-.05.24-.08.37-.09h9.78c.12,0,.24.01.35.06.11.04.22.1.3.18.09.08.16.18.21.29.05.11.08.22.08.34v8.61h14.82c20.95,0,22.44,17.25,22.44,17.25H45s.41-17.18,22.2-17.18v-.2c-.04-.73.17-1.45.59-2.06s1.03-1.05,1.74-1.28v-22.88c0-.86.33-1.68.93-2.3.6-.62,1.42-.99,2.28-1.03h34.18c.9,0,1.76.35,2.39.98.63.63.99,1.47.99,2.36v22.98c.74.2,1.39.63,1.84,1.24.45.61.69,1.35.66,2.1h5.82c.15-1.65.93-3.18,2.19-4.27,1.26-1.09,2.9-1.67,4.58-1.6V31.15H40.03c0,.19-.02.38-.08.55-.06.18-.16.34-.29.48-.13.14-.28.25-.46.33-.17.08-.36.13-.55.13v7.47c.54.2.99.56,1.3,1.04s.44,1.04.39,1.6h2.3c.24,0,.47.09.65.26.17.17.27.4.27.64v11.44h-15.57v-11.34c0-.26.1-.5.29-.68.18-.18.43-.28.69-.28h2.2c-.07-.57.06-1.15.38-1.63.32-.48.79-.84,1.35-1.01v-7.47c-.18,0-.37-.04-.53-.11-.17-.07-.32-.18-.45-.31-.13-.13-.22-.29-.29-.46-.06-.17-.09-.35-.08-.53l.1-.13ZM175.22,11.57h6.77c.97-.12,1.95-.04,2.89.21.94.26,1.82.69,2.58,1.29.77.59,1.41,1.33,1.89,2.16.48.84.78,1.76.9,2.71v3.87h20.91L132.04-14.88l41.59,36.29v-8.24c-.04-.4.09-.8.35-1.11.26-.31.63-.51,1.04-.55h.37l-.17.07ZM133.33,50h40.24v-15.91l-40.24,15.91ZM133.02,123.05h.3c1.72-.01,3.4.57,4.73,1.65,1.33,1.08,2.23,2.59,2.55,4.25h25.58c.3-4,3.38-5.8,7.44-5.9V53.77h-40.61v69.28ZM133.02,46.76l40.1-15.64h-40.1v15.64ZM131.36,21.68h40.61l-40.68-35.59.07,35.59ZM90.75,107.17h-2.5v6.67h2.5v-6.67ZM103.92,105.94h-10.59c-.02.33-.16.65-.41.88-.25.23-.57.36-.91.36v6.67c1.02.23,1.46,1.37,1.52,2.33h2.1c.22,0,.42.09.58.24.16.15.25.35.27.56v3.64h-13.91v-3.47c0-.12.03-.23.08-.34.05-.11.12-.2.21-.28.09-.08.19-.14.3-.18.11-.04.23-.06.35-.06h2c-.05-.5.07-1,.35-1.43.28-.42.69-.74,1.17-.91v-6.67c-.3-.04-.58-.19-.78-.42-.2-.23-.31-.52-.31-.82h-9.61v19.51c.77.16,1.46.58,1.95,1.19.49.61.75,1.37.73,2.14v.2h22.44v-.17c-.03-.75.2-1.48.65-2.09.45-.6,1.09-1.04,1.82-1.25v-19.65ZM127.27,21.68V-14.35L57.42,21.78l69.85-.1ZM34.44,39.96h2.84v-7.34h-2.84v7.34ZM55.49,21.75L124.22-13.71,24.29,21.65l31.2.1Z"/>
        <path class="st16" d="M0,146.03h300v22.47H0v-22.47Z"/>
        <path class="st10" d="M81.28-60.1h-.86V31.42h.86V-60.1Z"/>
        <path class="st10" d="M75.76-60.1h-.86V31.42h.86V-60.1Z"/>
        <path d="M81.71,46.01s-.04-.03-.07-.03c-.52.21-.96.58-1.26,1.06-.34,1.05-1.28,1.81-2.39,1.93-1.08-.07-1.91-.99-1.84-2.06,0-.13.03-.24.06-.36.36-1.75,2.6-1.36,2.91-3.42l.13-1.55h-2.31l.07.68c0,.64.17.85-.42,1.1-1.91.64-3.07,2.56-2.73,4.52.22,1.69,1.54,3.03,3.25,3.31,1.69.46,3.45-.46,3.99-2.11.32-.92.03-2.53.62-2.84.05-.03.07-.08.04-.13l-.06-.11Z"/>
        <path class="st15" d="M83.47,33.26l-.45,1.81-.5,1.98-.55,2.18-.34,1.34c-.04.19-.14.37-.3.5-.03.03-.08.07-.12.1l-.91.64c-.18.13-.39.19-.61.19h-3.38c-.22,0-.43-.07-.61-.19l-.92-.64c-.2-.14-.35-.36-.41-.6l-.4-1.56-.83-3.31-.61-2.44c-.06-.24-.03-.49.08-.71l.03-.08.82-1.66.29-.6c.18-.36.55-.59.95-.59h6.63c.41,0,.78.23.95.59l1.15,2.34c.03.08.07.16.08.24.03.15.03.31,0,.45h0Z"/>
        <path d="M83.47,33.26l-.45,1.81-5.51-5.44h2.76l3.22,3.18c.03.15.03.31,0,.45h0Z"/>
        <path d="M82.51,37.05l-.55,2.18-8.53-8.41.29-.6c.18-.36.55-.59.95-.59h.32l7.52,7.42Z"/>
        <path d="M81.32,41.08s-.08.07-.12.1l-.91.64c-.18.13-.39.19-.61.19h-.16l-6.4-6.31-.61-2.44c-.06-.24-.03-.49.08-.71l.03-.08,8.72,8.6h0Z"/>
        <path d="M76.99,42.01h-.71c-.22,0-.43-.07-.61-.19l-.92-.64c-.2-.14-.35-.36-.41-.6l-.4-1.56,3.04,3h0Z"/>
        <path class="st10" d="M207.37-60.1h-.85V31.03h.85V-60.1Z"/>
        <path class="st10" d="M212.85-60.1h-.85V31.03h.85V-60.1Z"/>
        <path d="M206.09,45.6s.04-.03.07-.03c.52.21.95.58,1.25,1.05.33,1.05,1.27,1.8,2.38,1.92,1.07-.07,1.89-.98,1.82-2.04,0-.13-.03-.24-.06-.36-.36-1.74-2.58-1.35-2.89-3.39l-.13-1.54h2.29l-.07.68c0,.63-.17.84.42,1.09,1.9.64,3.04,2.54,2.71,4.49-.22,1.68-1.53,3.02-3.23,3.29-1.68.46-3.43-.46-3.96-2.09-.31-.91-.03-2.51-.62-2.82-.05-.03-.07-.08-.04-.13l.06-.11h0Z"/>
        <path class="st15" d="M204.34,32.95l.45,1.79.5,1.97.55,2.16.34,1.34c.04.19.15.36.29.5.03.03.08.07.12.09l.91.64c.18.13.39.19.61.19h3.37c.22,0,.43-.07.6-.19l.91-.64c.2-.14.35-.35.41-.6l.39-1.55.83-3.29.61-2.42c.06-.24.03-.48-.08-.7l-.03-.08-.82-1.66-.29-.6c-.17-.36-.55-.59-.95-.59h-6.59c-.4,0-.77.23-.95.59l-1.14,2.33c-.03.08-.06.16-.08.24-.03.15-.03.3,0,.45v.02Z"/>
        <path d="M204.34,32.95l.45,1.79,5.48-5.4h-2.74l-3.2,3.16c-.03.15-.03.3,0,.45Z"/>
        <path d="M205.29,36.71l.55,2.16,8.47-8.35-.29-.6c-.17-.36-.55-.59-.95-.59h-.32l-7.47,7.37h0Z"/>
        <path d="M206.47,40.71s.08.07.12.09l.91.64c.18.13.39.19.61.19h.16l6.36-6.27.61-2.42c.06-.24.03-.48-.08-.7l-.03-.08-8.66,8.54h0Z"/>
        <path d="M210.77,41.64h.7c.22,0,.43-.07.6-.19l.91-.64c.2-.14.35-.35.41-.6l.39-1.55-3.02,2.98h0Z"/>
        <path class="st14" d="M243.94,99.83v-49.64c0-3.15-2.59-5.7-5.79-5.69H54.27c-3.2,0-5.79,2.55-5.79,5.69v49.64h195.47Z"/>
        <path class="st16" d="M59.23,91.46c-1.14,0-2.07-.92-2.07-2.04v-34.52c0-1.13.93-2.04,2.08-2.04s2.07.92,2.07,2.05v34.5c0,1.13-.93,2.05-2.07,2.05"/>
        <path class="st16" d="M68.89,91.46c-1.14,0-2.07-.91-2.07-2.03v-34.52c0-1.13.92-2.04,2.06-2.05,1.14,0,2.07.91,2.08,2.03v34.53c0,1.13-.92,2.04-2.06,2.04"/>
        <path class="st16" d="M78.55,91.46c-1.14,0-2.07-.91-2.07-2.03v-34.51c0-1.13.93-2.05,2.07-2.05s2.08.92,2.08,2.04v34.51c0,1.13-.93,2.04-2.08,2.04Z"/>
        <path class="st16" d="M88.23,91.46c-1.14,0-2.07-.91-2.07-2.03v-34.52c0-1.13.94-2.04,2.08-2.04s2.06.92,2.07,2.04v34.51c0,1.13-.93,2.04-2.07,2.04"/>
        <path class="st16" d="M97.9,91.46c-1.14,0-2.07-.91-2.07-2.03v-34.52c0-1.13.93-2.04,2.08-2.04s2.07.92,2.07,2.04v34.51c0,1.13-.92,2.04-2.06,2.04"/>
        <path class="st16" d="M107.55,91.46c-1.14,0-2.07-.91-2.07-2.03v-34.51c0-1.13.93-2.04,2.07-2.05,1.14,0,2.07.92,2.07,2.04v34.51c0,1.13-.93,2.04-2.08,2.04"/>
        <path class="st16" d="M117.22,91.46c-1.14,0-2.08-.92-2.08-2.04v-34.51c0-1.13.94-2.04,2.08-2.04s2.06.92,2.07,2.04v34.51c0,1.13-.92,2.04-2.06,2.04"/>
        <path class="st16" d="M126.88,91.46c-1.14,0-2.07-.91-2.07-2.03v-34.51c0-1.13.93-2.04,2.07-2.05,1.14,0,2.07.92,2.07,2.04v34.51c0,1.13-.93,2.04-2.08,2.04"/>
        <path class="st16" d="M136.55,91.46c-1.14,0-2.08-.92-2.08-2.04v-34.51c0-1.13.94-2.04,2.08-2.04s2.06.92,2.07,2.04v34.51c0,1.13-.93,2.04-2.07,2.04Z"/>
        <path class="st16" d="M146.21,91.46c-1.14,0-2.07-.91-2.07-2.03v-34.51c0-1.13.93-2.04,2.07-2.05,1.14,0,2.07.92,2.07,2.04v34.51c0,1.13-.93,2.04-2.07,2.04h0,0Z"/>
        <path class="st16" d="M155.88,91.46c-1.14,0-2.08-.92-2.08-2.04v-34.51c0-1.13.93-2.05,2.07-2.05s2.08.92,2.08,2.04v34.51c0,1.13-.92,2.04-2.06,2.04"/>
        <path class="st16" d="M165.53,91.46c-1.14,0-2.07-.92-2.07-2.04v-34.51c0-1.13.93-2.04,2.07-2.05h.02c1.14,0,2.06.92,2.06,2.04v34.51c0,1.13-.93,2.05-2.07,2.05"/>
        <path class="st16" d="M175.2,91.46c-1.14,0-2.07-.92-2.07-2.04v-34.51c0-1.13.93-2.05,2.07-2.05s2.08.92,2.08,2.04v34.51c0,1.13-.92,2.04-2.06,2.05h0"/>
        <path class="st16" d="M184.88,91.46c-1.14,0-2.07-.91-2.07-2.03v-34.52c0-1.13.93-2.04,2.08-2.04s2.07.92,2.07,2.04v34.51c0,1.13-.92,2.04-2.06,2.04"/>
        <path class="st16" d="M194.53,91.46c-1.14,0-2.07-.91-2.07-2.03v-34.52c0-1.13.93-2.04,2.07-2.04s2.07.92,2.07,2.04v34.51c0,1.13-.92,2.04-2.06,2.05h-.02"/>
        <path class="st16" d="M204.19,91.46c-1.14,0-2.07-.91-2.07-2.03v-34.51c0-1.13.93-2.05,2.07-2.05s2.08.92,2.08,2.04v34.51c0,1.13-.92,2.04-2.06,2.05h-.02"/>
        <path class="st16" d="M213.86,91.46c-1.14,0-2.08-.92-2.08-2.04v-34.51c0-1.13.92-2.05,2.07-2.05s2.08.91,2.08,2.04v34.52c0,1.13-.92,2.04-2.06,2.04"/>
        <path class="st16" d="M223.54,91.46c-1.14,0-2.08-.92-2.08-2.04v-34.51c0-1.13.93-2.04,2.08-2.04s2.07.92,2.07,2.04v34.51c0,1.13-.92,2.04-2.06,2.04"/>
        <path class="st16" d="M233.2,91.46c-1.14,0-2.08-.92-2.08-2.04v-34.51c0-1.13.93-2.04,2.07-2.04s2.07.92,2.07,2.04v34.51c0,1.13-.92,2.04-2.06,2.04Z"/>
        <path d="M119.34,78.03v-11.71h3.15l4.01,8.75,3.95-8.75h3.03v11.71h-2.62v-6.81l-3.01,6.81h-2.78l-3.05-6.78v6.78h-2.7Z"/>
        <path d="M137.71,78.03h-3.06l5.27-11.73h3.78l5.3,11.73h-3.03l-1.04-2.34h-6.21l-1.01,2.34ZM143.99,73.49l-2.19-4.97-2.13,4.97h4.32Z"/>
        <path d="M150.25,78.03v-11.71h11.36v2.33h-8.61v2.32h7.38v2.3h-7.38v2.42h8.62v2.34h-11.37Z"/>
        <path d="M163.83,78.02v-11.72h9.51c1-.1,1.89.61,1.99,1.6,0,.12.02.24,0,.36v3.94c0,.91-.81,1.72-2.38,1.72h-.28l2.76,4.1h-3.04l-2.63-4.01h-3.14v4.01h-2.79ZM166.62,71.68h5.96v-3.02h-5.96v3.02Z"/>
        <path d="M180.34,78.04h-.94c-.89.11-1.7-.52-1.81-1.41-.02-.11-.02-.21,0-.32v-1.53h2.76v.92h5.87v-2.41h-6.73c-.95.07-1.77-.63-1.85-1.56v-3.62c0-.98.81-1.79,1.81-1.79h7.76c.96,0,1.76.76,1.76,1.71v1.56h-2.74v-.92h-5.87v2.31h6.71c1-.05,1.85.71,1.9,1.7v3.53c.1.92-.57,1.74-1.5,1.84-.12,0-.23.02-.35,0h-6.78Z"/>
        <path d="M191.61,78.04v-11.72h2.81v4.67l5.37-4.67h3.83l-6.42,5.44,6.64,6.28h-3.95l-5.47-5.34v5.34h-2.81Z"/>
        <path class="st2" d="M85.45,58.86h19.44c1.7,0,3.08,1.36,3.08,3.04v20.54c0,1.67-1.38,3.03-3.08,3.03h-19.44c-1.7,0-3.08-1.36-3.08-3.03v-20.54c0-1.67,1.37-3.02,3.07-3.02h0Z"/>
        <path class="st10" d="M99.25,71.48l5.05-6.23-.02-.03-7.29,3.47-1.81-7.79h-.03l-1.8,7.79-7.3-3.47v.03s5.04,6.23,5.04,6.23l-7.29,3.46v.03h8.1l-1.81,7.79.03.02,5.05-6.24,5.04,6.24.02-.02-1.79-7.79h8.09v-.03s-7.29-3.46-7.29-3.46Z"/>
        <path class="st18" d="M135.7,33.66c0-5.27,2.11-7.08,8.02-7.08s7.55,2.22,7.55,8.01c0,3.8-2.06,5.25-2.06,5.25-.02-.75-.22-4.53-.22-4.53l-10.77-2.22s-.12,6.48-.45,6.28c-1.05-.61-2.08-3.2-2.08-5.73"/>
        <path class="st6" d="M137.49,31.15l-.05,6.27h-.37c-.52,0-.95.41-.95,1.53,0,1.56.32,1.7,1.26,1.7v1.3c0,2.19,1.53,3.28,1.53,3.28v1.88l4.6,6.19,4.6-5.98v-1.93s1.46-1.25,1.46-3.07c0-.47-.03-.68-.03-1.25,1.06,0,1.16-.52,1.16-1.98s-.52-1.66-.84-1.66h-.32v-3.09l-12.03-3.17h-.02Z"/>
        <path class="st18" d="M140.79,38.47h-.45c-.17,0-.31-.14-.31-.3v-.45c0-.17.14-.3.31-.3h.45c.17,0,.31.14.31.3v.45c0,.17-.14.3-.31.3Z"/>
        <path class="st18" d="M146.46,38.47h-.45c-.17,0-.31-.14-.31-.3v-.45c0-.17.14-.3.31-.3h.45c.17,0,.31.14.31.3v.45c0,.17-.14.3-.31.3Z"/>
        <path class="st4" d="M148.1,45.38v1.93s-2.81,3.52-2.82,3.64c-3.3,0-6.38-5.72-6.38-5.72,3.61,3.12,5.62,3.57,9.18.15"/>
        <path class="st6" d="M131.3,95.51l2.99,8.6-.23.08c-2.72.92-5.7-.52-6.63-3.2l-1.3-3.73,5.18-1.75h0Z"/>
        <path class="st6" d="M158.5,103.34l2.99-8.6-5.18-1.75-2.99,8.6,5.18,1.75Z"/>
        <path class="st3" d="M142.83,158.79v3.67c0,.54-.44.97-.99.97h-17.24v-1.09c0-.81.5-1.53,1.27-1.83l10.85-4.09,6.11,2.34h0Z"/>
        <path class="st3" d="M160.45,162.06v1.38h-11.93c-.55,0-.99-.44-.99-.97v-4.21l4.75-1.81,5.53,1.94c1.58.56,2.64,2.03,2.64,3.68h-.01Z"/>
        <path class="st1" d="M125.31,97.79l-.13-3,5.77-.24.02,3.02-5.66.22Z"/>
        <path class="st1" d="M155.77,94.14l.74-3.58,6.85,1.59-.99,3.71-6.6-1.72Z"/>
        <path class="st13" d="M130.93,92.73h25.68l2.48,8.88-.98,29.15c0,.15-.01.3-.03.46l-2.48,26.38-9.04,2.23.13-28.37-2.06-25.21-2.27,22.06,1.53,31.94-9.17-3.07-3.49-27.65c-.04-.3-.06-.61-.06-.91l-.26-35.91"/>
        <path class="st13" d="M157.05,94.33l-6.03,3.23c-2.26,1.22-5.09.01-5.74-2.45l-.53-2.04-.81,3.64c-.42,1.88-2.16,3.16-4.1,3.05l-8.86-.5-.03-4.73-5.77.24-.83-20.08c-.02-.54.01-1.08.1-1.6l2.82-16.75c.44-2.61,2.18-4.82,4.64-5.88l5.62-2.43,1.43-1.13,4.05,4.17.6,4.91.61-4.95,3.86-3.91,1.51,1.01,7.25,3.47c1.91.91,3.37,2.55,4.05,4.53l5.81,16.97c.47,1.39.54,2.88.21,4.3l-3.54,14.73-6.85-1.59,3.07-14.84-2.85-8.42.32,27.02h0Z"/>
        <path class="st1" d="M143.6,57.39l5.98-9.26-1.48-1.22-4.55,4.67-4.64-4.93-1.39,1.38,6.07,9.35Z"/>
        <path class="st12" d="M151.05,32.81h-15.32s.4,2.48,7.38,2.48,7.94-2.48,7.94-2.48Z"/>
        <path class="st5" d="M144.96,23.65v-.62h-3.29v.61c-5.03.53-6.79,3.7-6.79,8.11v1.05h17.01l.03-1c-.24-5.24-2.41-7.69-6.96-8.15Z"/>
        <path class="st7" d="M144.97,23.65v6.24l1.34-6s-.67-.22-1.34-.22h0Z"/>
        <path class="st8" d="M128.89,52.03l2.07,22.99-.74,17.71s10.12.48,11.12.48c1.45,0,2.58-.89,2.64-2.65.32,1.65,1.23,2.52,2.68,2.46,1.45-.06,10.71-.29,10.71-.29l-.58-17.79.58-23.35-7.39-3.7-6.19,17.43-6.86-17.43-8.05,4.14h.01Z"/>
        <path class="st10" d="M130.83,73.5l12.74.43,13.29-.07.03,2.87-13.03.21-12.95-.58-.08-2.86Z"/>
        <path class="st10" d="M130.76,79.79l13.35.49,12.87-.3.09,2.98-12.54.4-13.89-.54.12-3.02Z"/>
      </g>
    </g>
  </g>
</svg>