<?xml version="1.0" encoding="UTF-8"?>
<svg id="Layer_1" xmlns="http://www.w3.org/2000/svg" xmlns:xlink="http://www.w3.org/1999/xlink" version="1.1" viewBox="0 0 300 168">
  <!-- Generator: Adobe Illustrator 29.2.1, SVG Export Plug-In . SVG Version: 2.1.0 Build 116)  -->
  <defs>
    <style>
      .st0 {
        fill: none;
      }

      .st1 {
        mask: url(#mask);
      }

      .st2 {
        fill: #00b2d9;
      }

      .st3 {
        fill: #545454;
      }

      .st4 {
        fill: #e2e2e2;
      }

      .st5 {
        fill: #ffd48f;
      }

      .st6 {
        fill: #b4816b;
      }

      .st7 {
        fill: #bc8e7b;
      }

      .st8 {
        fill: #0074b0;
      }

      .st9 {
        fill: #aae1f8;
      }

      .st10 {
        fill: #fff;
      }

      .st11 {
        fill: #878787;
      }

      .st12 {
        fill: #ffa201;
        fill-opacity: .6;
      }

      .st13 {
        fill-opacity: .4;
      }

      .st13, .st14 {
        fill: #b5e0f5;
      }

      .st14 {
        fill-opacity: .8;
      }

      .st15 {
        fill: #ededed;
      }

      .st16 {
        clip-path: url(#clippath);
      }

      .st17 {
        fill: #00243f;
      }

      .st18 {
        fill: #cfcfcf;
      }
    </style>
    <clipPath id="clippath">
      <rect class="st0" y="-.31" width="300" height="168.84"/>
    </clipPath>
    <mask id="mask" x="121.72" y="116.84" width="59.48" height="37.41" maskUnits="userSpaceOnUse">
      <g id="mask0_17167_9746">
        <path class="st5" d="M180.57,123.5h-12.82c-1.42,0-2.69.31-3.96.78l-41.79,17.2c-.47.16-.32,1.09.16,1.09h58.25c.32,0,.48-.31.48-.47l.32-17.98c-.16-.31-.32-.63-.63-.63Z"/>
      </g>
    </mask>
  </defs>
  <g class="st16">
    <g>
      <rect class="st0" x="73.87" y="-.31" width="170.89" height="168.84"/>
      <g>
        <rect class="st10" x="73.87" y="-.31" width="170.89" height="168.84"/>
        <rect class="st13" y="-.31" width="301.61" height="168.84"/>
        <path class="st10" d="M58.64,28.09h-21.22v-2.87c.04-1.72.75-3.35,1.98-4.56,1.23-1.21,2.88-1.91,4.62-1.96h4.33l105.87-38.14v-1.8c0-1.4,4.1-1.3,4.1,0v1.5l82.68,38.34h2.74v9.39h-8.09v5.68c.07.82-.2,1.63-.74,2.26-.54.63-1.31,1.02-2.14,1.08h-11.24v-9.06h-13.54v92.22c1.67.06,3.27.67,4.54,1.75,1.27,1.08,2.13,2.55,2.43,4.17h9.44v-8.49c0-.13.02-.25.06-.37.05-.12.11-.23.2-.32.09-.09.19-.17.31-.22.12-.05.24-.08.37-.09h9.95c.12,0,.24.01.35.06.11.04.22.1.3.18.09.08.16.18.21.29.05.11.08.22.08.34v8.66h2.13v-8.52c0-.13.02-.27.07-.39.05-.12.12-.24.22-.33.1-.09.21-.17.33-.22.13-.05.26-.07.39-.07h10.15c.12,0,.24.01.35.06.11.04.22.1.3.18.09.08.16.18.21.29.05.11.08.22.08.34v8.66h2.17v-8.52c0-.13.02-.25.06-.37.05-.12.11-.23.2-.32.09-.09.19-.17.31-.22.12-.05.24-.08.37-.09h9.78c.12,0,.24.01.35.06.11.04.22.1.3.18.09.08.16.18.21.29.05.11.08.22.08.34v8.62h14.82c20.95,0,22.44,17.28,22.44,17.28H72.01s.41-17.21,22.2-17.21v-.2c-.04-.73.17-1.46.59-2.06.42-.6,1.03-1.05,1.74-1.28v-22.93c0-.86.33-1.68.93-2.31.6-.62,1.42-.99,2.28-1.04h34.18c.9,0,1.76.35,2.39.98.63.63.99,1.48.99,2.36v23.03c.74.2,1.39.63,1.84,1.24.45.61.69,1.35.66,2.1h5.82c.15-1.65.93-3.18,2.19-4.28,1.26-1.1,2.9-1.67,4.58-1.6V28.09h-85.39c0,.19-.02.38-.08.56-.06.18-.16.34-.29.48-.13.14-.28.25-.46.33-.17.08-.36.13-.55.13v7.49c.54.2.99.56,1.3,1.04.31.48.44,1.04.39,1.6h2.3c.24,0,.47.1.65.26.17.17.27.4.27.64v11.46h-15.57v-11.36c0-.26.1-.5.29-.69.18-.18.43-.28.69-.28h2.2c-.07-.57.06-1.15.38-1.63.32-.48.79-.84,1.35-1.01v-7.49c-.18,0-.37-.04-.53-.11-.17-.07-.32-.18-.45-.31-.13-.13-.22-.29-.29-.46-.06-.17-.09-.35-.08-.53l.1-.13ZM202.24,8.47h6.77c.97-.12,1.95-.04,2.89.21.94.26,1.82.7,2.58,1.29.77.59,1.41,1.33,1.89,2.17.48.84.78,1.76.9,2.72v3.88h20.92l-79.13-36.77,41.59,36.37v-8.26c-.04-.4.09-.8.35-1.12.26-.31.63-.51,1.04-.55h.37l-.17.07ZM160.34,46.97h40.24v-15.94l-40.24,15.94ZM160.03,120.17h.3c1.72-.01,3.4.57,4.73,1.65,1.33,1.08,2.23,2.59,2.55,4.26h25.59c.3-4.01,3.38-5.82,7.45-5.92V50.75h-40.61v69.42ZM160.03,43.73l40.11-15.68h-40.11v15.68ZM158.38,18.59h40.61l-40.68-35.66.07,35.66ZM117.76,104.26h-2.5v6.68h2.5v-6.68ZM130.93,103.03h-10.59c-.02.33-.16.65-.41.88-.25.23-.57.36-.91.36v6.68c1.02.23,1.46,1.37,1.52,2.34h2.1c.22,0,.42.09.58.24.16.15.25.35.27.56v3.64h-13.91v-3.48c0-.12.03-.23.08-.34.05-.11.12-.2.21-.29.09-.08.19-.14.3-.19.11-.04.23-.06.35-.06h2c-.05-.5.07-1.01.35-1.43.28-.42.69-.74,1.17-.91v-6.68c-.3-.04-.58-.19-.78-.42-.2-.23-.31-.52-.31-.82h-9.61v19.55c.77.16,1.46.59,1.95,1.2.49.61.75,1.37.73,2.15v.2h22.44v-.17c-.03-.75.2-1.49.65-2.09.45-.61,1.09-1.05,1.82-1.25v-19.69ZM154.28,18.59V-17.5L84.43,18.69l69.85-.1ZM61.45,36.91h2.84v-7.35h-2.84v7.35ZM82.5,18.66l68.74-35.53L51.29,18.56l31.2.1Z"/>
        <path class="st14" d="M58.64,28.09h-21.22v-2.87c.04-1.72.75-3.35,1.98-4.56,1.23-1.21,2.88-1.91,4.62-1.96h4.33l105.87-38.14v-1.8c0-1.4,4.1-1.3,4.1,0v1.5l82.68,38.34h2.74v9.39h-8.09v5.68c.07.82-.2,1.63-.74,2.26-.54.63-1.31,1.02-2.14,1.08h-11.24v-9.06h-13.54v92.22c1.67.06,3.27.67,4.54,1.75,1.27,1.08,2.13,2.55,2.43,4.17h9.44v-8.49c0-.13.02-.25.06-.37.05-.12.11-.23.2-.32.09-.09.19-.17.31-.22.12-.05.24-.08.37-.09h9.95c.12,0,.24.01.35.06.11.04.22.1.3.18.09.08.16.18.21.29.05.11.08.22.08.34v8.66h2.13v-8.52c0-.13.02-.27.07-.39.05-.12.12-.24.22-.33.1-.09.21-.17.33-.22.13-.05.26-.07.39-.07h10.15c.12,0,.24.01.35.06.11.04.22.1.3.18.09.08.16.18.21.29.05.11.08.22.08.34v8.66h2.17v-8.52c0-.13.02-.25.06-.37.05-.12.11-.23.2-.32.09-.09.19-.17.31-.22.12-.05.24-.08.37-.09h9.78c.12,0,.24.01.35.06.11.04.22.1.3.18.09.08.16.18.21.29.05.11.08.22.08.34v8.62h14.82c20.95,0,22.44,17.28,22.44,17.28H72.01s.41-17.21,22.2-17.21v-.2c-.04-.73.17-1.46.59-2.06.42-.6,1.03-1.05,1.74-1.28v-22.93c0-.86.33-1.68.93-2.31.6-.62,1.42-.99,2.28-1.04h34.18c.9,0,1.76.35,2.39.98.63.63.99,1.48.99,2.36v23.03c.74.2,1.39.63,1.84,1.24.45.61.69,1.35.66,2.1h5.82c.15-1.65.93-3.18,2.19-4.28,1.26-1.1,2.9-1.67,4.58-1.6V28.09h-85.39c0,.19-.02.38-.08.56-.06.18-.16.34-.29.48-.13.14-.28.25-.46.33-.17.08-.36.13-.55.13v7.49c.54.2.99.56,1.3,1.04.31.48.44,1.04.39,1.6h2.3c.24,0,.47.1.65.26.17.17.27.4.27.64v11.46h-15.57v-11.36c0-.26.1-.5.29-.69.18-.18.43-.28.69-.28h2.2c-.07-.57.06-1.15.38-1.63.32-.48.79-.84,1.35-1.01v-7.49c-.18,0-.37-.04-.53-.11-.17-.07-.32-.18-.45-.31-.13-.13-.22-.29-.29-.46-.06-.17-.09-.35-.08-.53l.1-.13ZM202.24,8.47h6.77c.97-.12,1.95-.04,2.89.21.94.26,1.82.7,2.58,1.29.77.59,1.41,1.33,1.89,2.17.48.84.78,1.76.9,2.72v3.88h20.92l-79.13-36.77,41.59,36.37v-8.26c-.04-.4.09-.8.35-1.12.26-.31.63-.51,1.04-.55h.37l-.17.07ZM160.34,46.97h40.24v-15.94l-40.24,15.94ZM160.03,120.17h.3c1.72-.01,3.4.57,4.73,1.65,1.33,1.08,2.23,2.59,2.55,4.26h25.59c.3-4.01,3.38-5.82,7.45-5.92V50.75h-40.61v69.42ZM160.03,43.73l40.11-15.68h-40.11v15.68ZM158.38,18.59h40.61l-40.68-35.66.07,35.66ZM117.76,104.26h-2.5v6.68h2.5v-6.68ZM130.93,103.03h-10.59c-.02.33-.16.65-.41.88-.25.23-.57.36-.91.36v6.68c1.02.23,1.46,1.37,1.52,2.34h2.1c.22,0,.42.09.58.24.16.15.25.35.27.56v3.64h-13.91v-3.48c0-.12.03-.23.08-.34.05-.11.12-.2.21-.29.09-.08.19-.14.3-.19.11-.04.23-.06.35-.06h2c-.05-.5.07-1.01.35-1.43.28-.42.69-.74,1.17-.91v-6.68c-.3-.04-.58-.19-.78-.42-.2-.23-.31-.52-.31-.82h-9.61v19.55c.77.16,1.46.59,1.95,1.2.49.61.75,1.37.73,2.15v.2h22.44v-.17c-.03-.75.2-1.49.65-2.09.45-.61,1.09-1.05,1.82-1.25v-19.69ZM154.28,18.59V-17.5L84.43,18.69l69.85-.1ZM61.45,36.91h2.84v-7.35h-2.84v7.35ZM82.5,18.66l68.74-35.53L51.29,18.56l31.2.1Z"/>
        <path class="st11" d="M0,142.63h301.61v25.89H0v-25.89Z"/>
        <path class="st10" d="M85.27,51.46h56.96c0-2.71-1.38-5.24-5.54-5.24h-2.03c0-2.71-2.91-6.01-10.3-6.01h-7.67c0-3.59-1.84-6.2-9.54-6.2-10.57,0-10.87,5.02-10.87,10.47-11.17,0-11.02,6.97-11.02,6.97Z"/>
        <path class="st10" d="M180.57,123.5h-12.82c-1.42,0-2.69.31-3.96.78l-41.79,17.2c-.47.16-.32,1.09.16,1.09h58.25c.32,0,.48-.31.48-.47l.32-17.98c-.16-.31-.32-.63-.63-.63Z"/>
        <path class="st12" d="M180.57,123.5h-12.82c-1.42,0-2.69.31-3.96.78l-41.79,17.2c-.47.16-.32,1.09.16,1.09h58.25c.32,0,.48-.31.48-.47l.32-17.98c-.16-.31-.32-.63-.63-.63Z"/>
        <g class="st1">
          <g>
            <path class="st3" d="M122.42,129.49l5.01-2.68,13.55,24.76-5.01,2.68-13.55-24.76Z"/>
            <path class="st3" d="M144.2,119.51l5.01-2.68,17.77,32.46-5.01,2.68-17.77-32.46Z"/>
            <path class="st3" d="M158.15,119.55l5.01-2.68,17.76,32.46-5.01,2.68-17.76-32.46Z"/>
            <path class="st3" d="M135.44,128.43l5.01-2.68,12.5,22.84-5.01,2.68-12.5-22.84Z"/>
          </g>
        </g>
        <path class="st10" d="M187.55,110.83l-98.52,26.99c-3.06.84-6.54-.89-7.48-4.22l-2.96-10.53,1.97-4.72.69-15.7c.1-3.91,2.82-7.04,6.36-8.31l33.84-10.77c6.05-1.96,12.56-2.25,18.7-.65l22.24,5.54,19.13-.17c3.02.07,5.87,1.68,6.92,4.37l3.72,7.93c1.65,3.73.23,8.29-3.51,9.91l-1.11.31Z"/>
        <path class="st11" d="M98.65,119.22c-8.62,2.36-11.43,6.2-8.35,18.26l24.75-6.78c-3.64-11.9-8.06-13.76-16.4-11.48ZM168.71,100.02c-8.62,2.36-11.43,6.2-8.35,18.26l24.75-6.78c-3.64-11.9-8.06-13.76-16.4-11.48Z"/>
        <path class="st3" d="M111.86,129.67c1.49,5.3-1.78,10.99-7.14,12.46-5.36,1.47-11.13-1.75-12.62-7.05-1.49-5.3,1.78-10.99,7.14-12.46,5.72-1.27,11.13,1.75,12.62,7.05Z"/>
        <path class="st18" d="M107.54,130.87c.84,3.01-.96,6.15-4,6.98-3.04.83-6.22-.94-7.06-3.95-.84-3.01.96-6.15,4-6.98,3.4-.64,6.22.94,7.06,3.95Z"/>
        <path class="st3" d="M182.19,110.2c1.49,5.3-1.78,10.99-7.14,12.46-5.36,1.47-11.13-1.75-12.62-7.05-1.49-5.3,1.78-10.99,7.14-12.46,5.72-1.27,11.13,1.75,12.62,7.05Z"/>
        <path class="st18" d="M178.7,110.88c.84,3.01-1.13,6.2-4.39,7.09-3.26.89-6.62-.84-7.46-3.84-.84-3.01,1.13-6.19,4.39-7.09,3.34-.62,6.62.84,7.46,3.84Z"/>
        <path class="st3" d="M98.01,94.26l26.43-8.17c4.17-1.14,8.3-1.35,12.47-.33l18.69,4.74c1.63.48,2.31,1.83,2.16,3.42-.31,1.01-.99,1.81-1.82,2.04l-56.45,12.08c-1.67.46-3.18-.67-3.58-2.1l-.16-.57-.46-6.96c-.28-2.08,1.06-3.68,2.73-4.14Z"/>
        <path class="st15" d="M171.85,142.96v-73.37c0-4.84,4.96-8.84,8.95-8.84h125.11c4.96,0,8.95,3.93,8.95,8.84v73.37h-143Z"/>
        <path class="st18" d="M282.57,133.51h3.55c.8,0,1.47-.67,1.47-1.45v-56.96c0-.79-.67-1.45-1.47-1.45h-3.55c-.8,0-1.47.67-1.47,1.45v56.96c0,.85.67,1.45,1.47,1.45ZM268.48,133.51h3.55c.8,0,1.47-.67,1.47-1.45v-56.96c0-.79-.67-1.45-1.47-1.45h-3.55c-.8,0-1.47.67-1.47,1.45v56.96c.06.85.67,1.45,1.47,1.45ZM254.38,133.51h3.55c.8,0,1.47-.67,1.47-1.45v-56.96c0-.79-.67-1.45-1.47-1.45h-3.55c-.8,0-1.47.67-1.47,1.45v56.96c.06.85.67,1.45,1.47,1.45ZM240.35,133.51h3.55c.8,0,1.47-.67,1.47-1.45v-56.96c0-.79-.67-1.45-1.47-1.45h-3.55c-.8,0-1.47.67-1.47,1.45v56.96c0,.85.67,1.45,1.47,1.45ZM226.26,133.51h3.55c.8,0,1.47-.67,1.47-1.45v-56.96c0-.79-.67-1.45-1.47-1.45h-3.55c-.8,0-1.47.67-1.47,1.45v56.96c0,.85.67,1.45,1.47,1.45ZM212.17,133.51h3.55c.8,0,1.47-.67,1.47-1.45v-56.96c0-.79-.67-1.45-1.47-1.45h-3.55c-.8,0-1.47.67-1.47,1.45v56.96c.06.85.67,1.45,1.47,1.45ZM198.14,133.51h3.55c.8,0,1.47-.67,1.47-1.45v-56.96c0-.79-.67-1.45-1.47-1.45h-3.55c-.8,0-1.47.67-1.47,1.45v56.96c0,.85.67,1.45,1.47,1.45Z"/>
        <path class="st4" d="M193.3,149.07l-21.45-5.93V61.11l19.12-5.08c1.16-.3,2.33.54,2.33,1.76v91.29Z"/>
        <path class="st18" d="M190.29,77.15l-15.44,2.48v-13.98l15.44-4.06v15.56ZM190.29,99.49l-15.44.36v-14.04l15.44-1.88v15.56ZM190.29,121.1l-15.44-1.82v-14.04l15.44.36v15.5ZM190.29,143.5l-15.44-4.06v-13.98l15.44,2.48v15.56Z"/>
        <path class="st17" d="M201.47,33.41c0-5.26,2.1-7.08,7.99-7.08s7.55,2.19,7.55,8.04c.08.97-.07,1.94-.42,2.85-.35.91-.91,1.72-1.62,2.39,0-.73-.24-4.53-.24-4.53l-10.75-2.34c0,2.07-.15,4.15-.44,6.2-.74-.78-1.31-1.7-1.67-2.71s-.49-2.08-.4-3.14"/>
        <path class="st7" d="M203.25,30.89v6.2h-.38c-.53,0-.92.44-.92,1.55s.3,1.7,1.24,1.7v1.17c-.02.63.11,1.25.38,1.82.27.57.66,1.07,1.16,1.46v1.9l4.59,6.2,4.47-5.82v-1.93c.44-.39.8-.87,1.05-1.4.25-.53.39-1.11.41-1.7v-1.26c1.04,0,1.18-.53,1.18-1.96s-.53-1.7-.86-1.7h-.27v-3.1l-12.05-3.13Z"/>
        <path class="st17" d="M206.53,38.2h-.44s-.08,0-.12-.01c-.04-.01-.08-.03-.11-.06-.03-.03-.06-.06-.07-.1-.02-.04-.03-.08-.03-.12v-.44c0-.08.04-.16.1-.22.06-.06.14-.09.22-.1h.44c.08,0,.16.04.22.1.06.06.1.14.1.22v.56c0,.09-.03.17-.1.23-.06.06-.14.09-.23.09M212.18,38.2h-.41s-.08,0-.11,0c-.04,0-.07-.02-.1-.05-.03-.02-.06-.05-.08-.08-.02-.03-.03-.07-.03-.11v-.5c0-.09.03-.17.1-.23.06-.06.14-.09.23-.09h.41c.09,0,.17.03.23.09.06.06.1.14.1.23v.56c0,.07-.01.15-.05.21-.04.06-.11.1-.18.11"/>
        <path class="st6" d="M213.78,45.13v1.93s-2.81,3.54-2.81,3.66c-3.29,0-6.28-5.85-6.28-5.85,3.61,3.1,5.62,3.6,9.18,0"/>
        <path class="st7" d="M193.51,101.81l-1.66-4.74,5.18-1.75,2.96,8.63-1.01.44c-1.06.36-2.21.28-3.21-.2-1-.48-1.77-1.34-2.14-2.38M219.08,101.4l2.99-8.63,5.18,1.75-3,8.63-5.18-1.75Z"/>
        <path class="st17" d="M208.57,158.72v3.66c0,.26-.11.52-.3.7-.19.19-.44.29-.71.29h-17.23v-1.08c0-.4.12-.79.35-1.12.23-.33.55-.58.93-.72l10.86-4.09,6.1,2.37ZM226.19,162.08v1.37h-11.84c-.26,0-.51-.11-.69-.29-.19-.18-.3-.42-.31-.68v-4.3l4.77-1.84,5.54,1.96c.77.27,1.44.77,1.91,1.43.47.66.72,1.45.72,2.26"/>
        <path class="st9" d="M191.08,97.66l-.15-3.01,5.77-.26v3.01l-5.62.26ZM221.51,93.97l.74-3.6,6.84,1.61-.98,3.71-6.6-1.73Z"/>
        <path class="st8" d="M196.67,92.57h25.66l2.49,8.77-.98,29.24v.47l-2.49,26.32-8.88,2.25v-28.28l-1.95-25.09-2.31,22.08,1.42,31.99-9.15-3.1-3.49-27.67v-.94l-.24-35.94"/>
        <path class="st8" d="M222.66,94.15l-5.92,3.13c-.45.25-.95.4-1.47.46-.52.06-1.04.01-1.54-.13-.5-.14-.96-.38-1.37-.71-.4-.32-.74-.72-.99-1.17-.17-.28-.3-.59-.38-.91l-.53-2.05-.8,3.66c-.2.92-.72,1.74-1.47,2.3-.76.57-1.69.85-2.64.8l-8.88-.5v-4.65l-5.77.26-.8-20.15c-.03-.53-.03-1.05,0-1.58l2.96-16.79c.22-1.28.77-2.48,1.58-3.5.81-1.02,1.87-1.83,3.07-2.35l5.62-2.43,1.42-1.14,3.94,4.15.59,4.91.59-4.97,3.91-3.92,1.48.99,7.4,3.51c.95.44,1.8,1.07,2.5,1.85.7.78,1.23,1.69,1.56,2.68l5.92,16.99c.51,1.39.59,2.89.24,4.33l-3.55,14.62-6.84-1.61,3.14-14.86-2.96-8.42v27.17Z"/>
        <path class="st9" d="M209.34,57.15l5.98-9.24-1.48-1.23-4.53,4.68-4.65-4.94-1.39,1.4,6.07,9.33Z"/>
        <path class="st2" d="M217.66,59.9h-4.5c-.39,0-.71.31-.71.7v4.77c0,.39.32.7.71.7h4.5c.39,0,.71-.31.71-.7v-4.77c0-.39-.32-.7-.71-.7Z"/>
        <path class="st10" d="M216.36,62.85l1.18-1.46-1.72.79-.39-1.81-.44,1.81-1.72-.79,1.21,1.46-1.69.79h1.86l-.44,1.81,1.21-1.46,1.15,1.46-.41-1.81h1.89l-1.72-.79Z"/>
        <path class="st9" d="M216.74,32.56h-15.27s.39,2.49,7.4,2.49,7.87-2.49,7.87-2.49Z"/>
        <path class="st2" d="M210.82,23.37v-.61h-3.29v.61c-5,.58-6.78,3.71-6.78,8.13v1.05h17.02v-1.02c-.21-5.23-2.37-7.57-6.96-8.16Z"/>
        <path class="st8" d="M210.82,23.37v6.23l1.18-6.02c-.38-.13-.78-.21-1.18-.23"/>
      </g>
    </g>
  </g>
</svg>