<svg width="300" height="168" viewBox="0 0 300 168" fill="none" xmlns="http://www.w3.org/2000/svg">
<g clip-path="url(#clip0_1_93)">
<rect width="300" height="168" fill="white"/>
<g clip-path="url(#clip1_1_93)">
<path d="M-61 -49H313V130.681H-61V-49Z" fill="#E1F5FC" fill-opacity="0.8"/>
<path d="M-61 116.28H313V224.002H-61V116.28Z" fill="#E7E7E7"/>
<path d="M121.492 107.421V116.642C121.492 116.746 121.408 116.831 121.305 116.831H56.2356V116.44C56.2326 116.638 56.0738 116.798 55.8772 116.801L-42.4408 116.831C-42.7363 116.831 -42.9759 116.589 -42.9759 116.291V102.606C-42.9749 102.303 -42.7313 102.059 -42.4308 102.057H-37.3252C-37.0247 102.056 -36.7821 101.81 -36.7801 101.507V98.5633C-36.7801 97.7823 -36.7422 96.6903 -30.789 96.6903C-25.2232 96.6903 -25.1363 97.7632 -25.1363 98.5633V101.134C-25.1353 101.643 -24.726 102.055 -24.2218 102.056H-23.9802C-23.481 102.056 -23.0757 101.647 -23.0757 101.144V100.017C-23.0827 99.5879 -22.7862 99.2135 -22.3689 99.1279C-22.2241 99.0786 -22.1263 98.9407 -22.1273 98.7867V94.0443C-22.1253 93.5854 -22.0594 93.1294 -21.9336 92.6886L-20.6068 88.1605C-20.5519 87.9703 -20.3542 87.8606 -20.1655 87.9159C-20.0447 87.9512 -19.9518 88.0478 -19.9209 88.1696L-18.6919 92.7168C-18.6021 93.1113 -18.5502 93.5129 -18.5372 93.9165V95.2118C-18.5372 95.5147 -18.2926 95.7603 -17.9921 95.7613H-14.1913C-13.8599 95.7643 -13.5484 95.9223 -13.3487 96.1901L-11.9161 98.7274H-11.6256C-10.8808 98.7545 -10.2998 99.3856 -10.3267 100.136C-10.3267 100.148 -10.3277 100.16 -10.3287 100.172C-9.84351 100.116 -9.37828 100.384 -9.17861 100.833C-9.07877 101.057 -8.85613 101.2 -8.61154 101.196H-7.52234C-7.52234 101.196 -6.88338 101.215 -6.88338 100.631V89.9872C-6.88239 89.6843 -6.63879 89.4397 -6.33829 89.4377H1.58366C1.88416 89.4377 2.12775 89.6833 2.12875 89.9872V98.1154C2.12875 98.2614 2.18367 98.4013 2.2835 98.5069L3.42561 99.7137H4.12247V80.1491C4.12447 78.74 5.25859 77.6007 6.65629 77.6027H8.67896C8.78178 77.6027 8.86565 77.5182 8.86565 77.4145V73.6946C8.86565 73.0243 9.40576 72.4808 10.0707 72.4808C10.7356 72.4808 11.2757 73.0243 11.2757 73.6946V77.0421C11.2757 77.3521 11.5253 77.6027 11.8328 77.6027H12.89C14.3885 77.6027 15.6025 78.8276 15.6025 80.3373V90.6002H16.3773C16.3773 90.6002 17.9936 90.6002 17.9936 91.9468C17.9936 92.8536 17.9846 99.1863 17.9846 101.011C17.9846 101.205 18.1414 101.363 18.334 101.362C18.337 101.362 18.339 101.362 18.342 101.362H20.2389V100.055H20.152C19.555 100.083 19.0459 99.6221 19.0099 99.0202V97.7813C19.0429 97.1774 19.553 96.7144 20.152 96.7466H21.2752C21.8742 96.7154 22.3844 97.1784 22.4173 97.7813V99.0202C22.3814 99.6221 21.8722 100.083 21.2752 100.055H21.1594V101.362L24.1894 101.353V100.299H24.1215C23.5834 100.328 23.1211 99.915 23.0862 99.3725V98.2594C23.1181 97.7149 23.5824 97.3002 24.1215 97.3324H25.1189C25.654 97.3012 26.1132 97.7139 26.1442 98.2533C26.1442 98.2553 26.1442 98.2573 26.1442 98.2594V99.3725C26.1132 99.914 25.655 100.328 25.1179 100.299H25.021V101.353H26.8221C27.0617 101.342 27.2483 101.137 27.2384 100.895V96.7185H26.2899L29.1742 93.6548C29.3689 93.4495 29.6374 93.3327 29.9189 93.3327H32.8811C33.0787 93.3327 33.2385 93.1707 33.2395 92.9714V92.2005C33.2395 92.0012 33.4002 91.8391 33.5979 91.8391H34.3037C34.5014 91.8391 34.6611 91.9992 34.6621 92.1974V92.9704C34.6621 93.1697 34.8209 93.3307 35.0185 93.3317H36.2495C36.579 93.3357 36.8954 93.4605 37.14 93.683L40.0922 96.6883H39.0279C38.8342 96.6883 38.8532 96.8936 38.8532 96.8936V100.823C38.8532 101.121 39.0918 101.362 39.3873 101.362H40.3827C40.8569 101.362 40.9917 101.167 40.9917 100.933V99.9794C40.9917 99.5416 41.1774 99.1239 41.5008 98.831L41.7415 98.6136C42.0659 98.3208 42.2506 97.9031 42.2506 97.4643V95.5359C42.2506 95.3507 42.028 95.3406 42.028 95.3406H40.9827L43.5375 92.1199C43.7252 91.8925 43.9997 91.7576 44.2923 91.7496H47.5539V90.4714H48.9765V91.7496H52.0255C52.341 91.7304 52.6455 91.8683 52.8382 92.1199L55.3161 95.3114H54.1839C54.0901 95.3074 54.0112 95.3799 54.0062 95.4745C54.0062 95.4886 54.0062 95.5027 54.0092 95.5167V100.422C54.0092 100.725 54.2528 100.972 54.5543 100.972H55.8782C56.0748 100.975 56.2336 101.135 56.2366 101.333V78.2519C56.2366 78.2418 56.2366 78.2308 56.2396 78.2207C56.2795 78.0295 56.7417 76.1182 59.1697 76.1182H64.7326C66.0654 76.1182 67.1446 77.2072 67.1446 78.5508V83.9545H67.5998C67.5998 83.9545 70.8135 83.9837 70.8135 87.0182V96.9359C70.8135 96.9781 70.8275 97.0184 70.8525 97.0516L73.9783 101.119C74.2609 101.485 74.784 101.55 75.1474 101.267C75.3511 101.108 75.4699 100.862 75.4689 100.602V62.0982C75.4689 60.1658 77.3857 59.7471 78.2852 59.7471H78.8852C78.8942 57.0286 79.3964 55.2059 83.0104 54.7953C83.0893 54.7872 83.1532 54.7289 83.1702 54.6504L84.4381 48.1667C84.459 48.0651 84.5589 47.9987 84.6597 48.0208C84.7306 48.0359 84.7865 48.0903 84.8035 48.1607L86.299 54.6413C86.318 54.7188 86.3839 54.7762 86.4627 54.7832C90.4212 55.1737 90.7617 57.0548 90.7716 59.7471H93.1148C94.0492 59.7471 94.808 60.511 94.808 61.454V81.8661C94.808 81.9698 94.8918 82.0543 94.9947 82.0543H96.618C96.618 82.0543 100.364 82.0543 100.364 85.0888C100.364 87.3725 100.335 101.013 100.335 102.858C100.341 103.388 100.757 103.821 101.283 103.843H105.395C105.497 103.843 105.581 103.759 105.581 103.655V100.877H105.388C103.916 100.877 102.726 99.8335 102.726 98.5351V95.7352C102.726 94.4368 103.917 93.3931 105.388 93.3931H107.981C109.453 93.3931 110.643 94.4368 110.643 95.7352V98.5351C110.643 99.8325 109.452 100.877 107.981 100.877H107.73V103.646C107.73 103.75 107.814 103.833 107.916 103.833L114.58 103.824C114.683 103.824 114.767 103.741 114.767 103.637V101.434H114.592C113.266 101.434 112.201 100.498 112.201 99.3363V96.8191C112.201 95.6576 113.267 94.7216 114.592 94.7216H116.916C118.242 94.7216 119.307 95.6576 119.307 96.8191V99.3363C119.307 100.498 118.241 101.434 116.916 101.434H116.693V103.637C116.693 103.741 116.777 103.825 116.88 103.825H117.925C119.896 103.825 121.494 105.435 121.494 107.422L121.492 107.421Z" fill="#C6E7F2"/>
<path d="M177.821 109.272V116.679C177.821 116.763 177.888 116.831 177.97 116.831H230.115V116.517C230.118 116.676 230.245 116.805 230.403 116.807L309.192 116.831C309.428 116.831 309.62 116.637 309.62 116.397V105.404C309.62 105.161 309.424 104.965 309.184 104.963H305.092C304.851 104.962 304.657 104.765 304.655 104.522V102.157C304.655 101.529 304.625 100.652 299.854 100.652C295.394 100.652 295.324 101.514 295.324 102.157V104.222C295.324 104.631 294.996 104.961 294.592 104.962H294.398C293.998 104.962 293.673 104.634 293.673 104.23V103.324C293.679 102.98 293.441 102.679 293.107 102.61C292.991 102.571 292.912 102.46 292.913 102.336V98.5268C292.911 98.1582 292.859 97.7919 292.758 97.4378L291.695 93.8005C291.651 93.6477 291.492 93.5596 291.341 93.6041C291.244 93.6324 291.17 93.71 291.145 93.8078L290.16 97.4605C290.088 97.7774 290.046 98.1 290.036 98.4241V99.4646C290.036 99.708 289.84 99.9053 289.599 99.9061H286.553C286.288 99.9085 286.038 100.035 285.878 100.25L284.73 102.289H284.497C283.9 102.31 283.435 102.817 283.456 103.42C283.456 103.43 283.457 103.439 283.458 103.449C283.069 103.404 282.696 103.619 282.536 103.98C282.456 104.16 282.278 104.275 282.082 104.272H281.209C281.209 104.272 280.697 104.287 280.697 103.817V95.2679C280.696 95.0245 280.501 94.8281 280.26 94.8265H273.912C273.671 94.8265 273.476 95.0237 273.475 95.2679V101.797C273.475 101.914 273.431 102.027 273.351 102.112L272.436 103.081H271.877V87.3651C271.876 86.2332 270.967 85.318 269.847 85.3197H268.226C268.143 85.3197 268.076 85.2518 268.076 85.1685V82.1804C268.076 81.6419 267.643 81.2054 267.111 81.2054C266.578 81.2054 266.145 81.6419 266.145 82.1804V84.8693C266.145 85.1184 265.945 85.3197 265.698 85.3197H264.851C263.65 85.3197 262.677 86.3036 262.677 87.5163V95.7602H262.057C262.057 95.7602 260.761 95.7602 260.761 96.842C260.761 97.5704 260.769 102.657 260.769 104.123C260.769 104.279 260.643 104.406 260.489 104.405C260.486 104.405 260.485 104.405 260.482 104.405H258.962V103.355H259.032C259.51 103.378 259.918 103.007 259.947 102.524V101.529C259.921 101.044 259.512 100.672 259.032 100.698H258.132C257.652 100.673 257.243 101.044 257.216 101.529V102.524C257.245 103.007 257.653 103.378 258.132 103.355H258.224V104.405L255.796 104.398V103.551H255.851C256.282 103.574 256.652 103.243 256.68 102.807V101.913C256.655 101.475 256.283 101.142 255.851 101.168H255.051C254.623 101.143 254.255 101.474 254.23 101.908C254.23 101.909 254.23 101.911 254.23 101.913V102.807C254.255 103.242 254.622 103.574 255.052 103.551H255.13V104.398H253.687C253.495 104.389 253.345 104.224 253.353 104.03V100.675H254.113L251.802 98.2139C251.646 98.049 251.43 97.9552 251.205 97.9552H248.831C248.673 97.9552 248.545 97.8251 248.544 97.665V97.0457C248.544 96.8856 248.415 96.7555 248.257 96.7555H247.691C247.533 96.7555 247.405 96.884 247.404 97.0433V97.6642C247.404 97.8243 247.277 97.9536 247.118 97.9544H246.132C245.868 97.9577 245.614 98.0579 245.418 98.2366L243.052 100.651H243.905C244.06 100.651 244.045 100.816 244.045 100.816V103.972C244.045 104.211 243.854 104.405 243.617 104.405H242.819C242.439 104.405 242.331 104.248 242.331 104.06V103.294C242.331 102.943 242.183 102.607 241.923 102.372L241.731 102.197C241.471 101.962 241.323 101.626 241.323 101.274V99.725C241.323 99.5762 241.501 99.5681 241.501 99.5681H242.339L240.291 96.981C240.141 96.7983 239.921 96.69 239.686 96.6835H237.073V95.6568H235.933V96.6835H233.489C233.236 96.6681 232.992 96.7789 232.838 96.981L230.852 99.5447H231.76C231.835 99.5415 231.898 99.5997 231.902 99.6757C231.902 99.687 231.902 99.6983 231.9 99.7096V103.65C231.9 103.893 231.704 104.092 231.463 104.092H230.402C230.244 104.094 230.117 104.222 230.115 104.382V85.8411C230.115 85.833 230.115 85.8242 230.112 85.8161C230.08 85.6625 229.71 84.1272 227.764 84.1272H223.306C222.238 84.1272 221.373 85.0019 221.373 86.0812V90.4219H221.008C221.008 90.4219 218.433 90.4454 218.433 92.8829V100.85C218.433 100.884 218.422 100.916 218.402 100.943L215.897 104.21C215.67 104.504 215.251 104.556 214.96 104.328C214.797 104.201 214.702 104.003 214.702 103.795V72.8652C214.702 71.3129 213.166 70.9766 212.445 70.9766H211.965C211.957 68.7929 211.555 67.3288 208.659 66.9989C208.596 66.9925 208.544 66.9456 208.531 66.8825L207.515 61.6744C207.498 61.5927 207.418 61.5393 207.337 61.5571C207.28 61.5693 207.236 61.6129 207.222 61.6695L206.023 66.8752C206.008 66.9375 205.955 66.9836 205.892 66.9892C202.72 67.3029 202.447 68.814 202.439 70.9766H200.562C199.813 70.9766 199.205 71.5902 199.205 72.3478V88.7443C199.205 88.8276 199.137 88.8955 199.055 88.8955H197.754C197.754 88.8955 194.752 88.8955 194.752 91.3331C194.752 93.1675 194.776 104.125 194.776 105.607C194.771 106.033 194.437 106.38 194.016 106.398H190.721C190.638 106.398 190.571 106.33 190.571 106.247V104.016H190.726C191.906 104.016 192.859 103.177 192.859 102.134V99.8851C192.859 98.8421 191.905 98.0037 190.726 98.0037H188.648C187.469 98.0037 186.515 98.8421 186.515 99.8851V102.134C186.515 103.176 187.469 104.016 188.648 104.016H188.85V106.24C188.85 106.323 188.782 106.39 188.7 106.39L183.36 106.383C183.277 106.383 183.21 106.316 183.21 106.232V104.463H183.35C184.413 104.463 185.266 103.711 185.266 102.778V100.756C185.266 99.8228 184.412 99.0709 183.35 99.0709H181.488C180.425 99.0709 179.572 99.8228 179.572 100.756V102.778C179.572 103.711 180.426 104.463 181.488 104.463H181.667V106.232C181.667 106.316 181.6 106.384 181.517 106.384H180.679C179.1 106.384 177.819 107.677 177.819 109.273L177.821 109.272Z" fill="#C6E7F2"/>
<path d="M261.374 96.4985H267.103V116.584H261.374V96.4985Z" fill="#FFD6C3"/>
<path d="M267.103 96.4985H261.374V103.726L267.103 116.586V96.5003V96.4985Z" fill="#E0AD98"/>
<path d="M277.515 97.8528V92.2735C280.086 91.89 282.041 89.9813 282.041 87.6839V79.7365C282.041 77.161 279.589 75.0744 276.565 75.0744H271.835V72.7667C271.835 70.1912 269.382 68.1046 266.358 68.1046H260.748C257.725 68.1046 255.273 70.1912 255.273 72.7667V73.5284H255.028C249.884 73.5284 245.713 76.7551 245.713 80.7401V89.5218C245.751 92.999 248.594 95.7886 252.066 95.7541C252.066 100.8 255.568 103.631 258.315 103.631H270.726C274.475 103.631 277.513 101.041 277.513 97.851" fill="#B2D7D2"/>
<path d="M57.3242 18.5533C62.5269 18.5533 63.8275 20.073 63.8275 23.8592H71.0766C78.477 23.8592 80.326 26.0202 80.326 31.4052H9C9 27.619 10.3007 26.0993 15.5055 26.0993C15.5055 20.7143 17.3545 18.5533 24.7549 18.5533H29.9795C29.9795 11.7364 32.322 9 41.6899 9C51.0578 9 53.4003 11.7364 53.4003 18.5533H57.3264H57.3242ZM254.962 53H227.391C227.391 49.4818 228.6 48.0718 233.432 48.0718H237.735C237.735 43.058 239.457 41.0441 246.348 41.0441C251.718 41.0441 253.058 42.6122 253.058 46.5191C259.412 46.5191 261 48.3749 261 52.9978H250.696" fill="white" fill-opacity="0.8"/>
<path d="M99.8077 27.6556H134.005C136.398 27.6556 138.34 29.5954 138.342 31.993V65.6656C138.342 68.0649 136.4 70.0099 134.005 70.0116H122.115L116.8 82.2809L111.874 70.0116H99.806C97.4125 70.0082 95.4742 68.0632 95.476 65.6656V31.993C95.4777 29.5989 97.4159 27.6574 99.806 27.6556" fill="white"/>
<path d="M129.621 35.7327H130.815V65.8332C130.799 66.4879 130.259 67.013 129.604 66.9957H124.733C124.079 67.0112 123.539 66.4879 123.522 65.8332V35.6999H124.715M120.792 60.8222L114.203 47.6219V35.7327C115.25 35.4546 115.985 34.5201 115.985 33.4232V32.2279C115.985 31.5733 115.445 31.0326 114.791 31.0326H106.454C105.8 31.0326 105.26 31.5733 105.26 32.2279V33.4232C105.26 34.5045 105.997 35.4546 107.042 35.7327V47.6219L100.453 60.8222C99.4232 62.8864 100.256 65.391 102.317 66.4239C102.889 66.7193 103.543 66.8661 104.181 66.8661H117.049C119.354 66.8661 121.218 64.9989 121.218 62.6894C121.234 62.0503 121.072 61.4129 120.792 60.8222Z" fill="#B5E0F5"/>
<path d="M124.274 41.1807H127.347V42.376H124.274V41.1807Z" fill="#42B0D5"/>
<path d="M124.258 38.2045H127.331V39.3998H124.258V38.2045Z" fill="#42B0D5"/>
<path d="M124.274 44.15H127.347V45.3453H124.274V44.15Z" fill="#42B0D5"/>
<path d="M107.581 41.2014H110.654V42.3967H107.581V41.2014Z" fill="#0B739E"/>
<path d="M107.564 38.2045H110.637V39.3998H107.564V38.2045Z" fill="#0B739E"/>
<path d="M107.581 44.15H110.654V45.3453H107.581V44.15Z" fill="#0B739E"/>
<path d="M130.666 35.9123L123.782 35.8968C122.687 35.7983 121.82 34.8984 121.787 33.7842V31.9826C121.787 31.5076 122.18 31.1138 122.653 31.1138H131.563C131.972 31.1138 132.299 31.442 132.299 31.8513V33.7842C132.284 34.7343 131.679 35.5686 130.778 35.8484L130.665 35.914L130.666 35.9123Z" fill="#B5E0F5"/>
<path d="M124.733 50.7501H129.604V65.8004H124.733V50.7501Z" fill="#42B0D5"/>
<path d="M119.599 64.2613C119.059 65.1457 118.095 65.6863 117.064 65.6691H104.196C102.544 65.6691 101.22 64.3269 101.22 62.6877C101.22 62.2282 101.334 61.7705 101.53 61.3456L102.953 58.4955H105.864C106.55 58.4955 107.204 58.1845 107.645 57.6767C108.087 58.2001 108.74 58.4955 109.427 58.4955H111.813C112.499 58.4955 113.153 58.1845 113.595 57.6767C114.036 58.2001 114.69 58.4955 115.376 58.4955H118.287L119.709 61.3456C120.184 62.2783 120.134 63.3924 119.596 64.2613H119.599Z" fill="#0B739E"/>
<path d="M124.012 34.717H130.389C130.944 34.4389 131.125 34.2091 131.125 33.7842V32.3108H122.982V33.7842C122.967 34.2264 123.129 34.4717 124.012 34.717ZM106.454 33.4388V32.2434H114.791V33.4388C114.791 34.0934 114.251 34.6341 113.598 34.6341H107.63C106.992 34.6341 106.452 34.0934 106.452 33.4388H106.454Z" fill="#F5FBFD"/>
<path d="M77.6782 87.639H182.182C183.523 87.639 184.61 88.729 184.61 90.0711V137.117H75.2502V90.0711C75.2502 88.7273 76.3383 87.639 77.6782 87.639Z" fill="#F6F6F6"/>
<path d="M73.0291 137.117H188.179V148.593H73.0291C72.1342 148.593 71.4099 147.868 71.4099 146.971V138.739C71.4099 137.842 72.1342 137.117 73.0291 137.117Z" fill="#545454"/>
<path d="M234.911 152.411C236.698 152.411 238.146 150.96 238.146 149.17V122.301C238.146 121.83 238.043 121.364 237.844 120.935L228.326 100.416C227.794 99.2727 226.651 98.542 225.392 98.542H191.414C189.628 98.542 188.179 99.9912 188.179 101.781V152.409H234.911V152.411Z" fill="#42B0D5"/>
<path d="M199.714 103.779H206.215C206.784 103.779 207.246 104.242 207.246 104.812V111.796C207.246 112.366 206.786 112.827 206.217 112.829H199.714C199.145 112.829 198.684 112.368 198.684 111.798V104.811C198.684 104.241 199.145 103.779 199.714 103.779Z" fill="#CCEDFB"/>
<path d="M110.135 150.967C110.135 157.19 105.102 162.236 98.8886 162.237C92.6755 162.239 87.6384 157.195 87.6367 150.972C87.6367 144.748 92.6703 139.703 98.8834 139.701C105.095 139.701 110.132 144.745 110.134 150.967" fill="#00243F"/>
<path d="M105.231 150.967C105.231 154.478 102.391 157.325 98.8851 157.325C95.3794 157.325 92.5375 154.48 92.5375 150.968C92.5375 147.457 95.3777 144.61 98.8834 144.61H98.8851C102.389 144.61 105.231 147.453 105.231 150.965" fill="#CFCFCF"/>
<path d="M229.272 150.967C229.272 157.19 224.239 162.236 218.026 162.237C211.812 162.239 206.775 157.195 206.774 150.972C206.774 144.748 211.807 139.703 218.02 139.701C224.232 139.701 229.269 144.745 229.271 150.967" fill="#00243F"/>
<path d="M224.366 150.967C224.366 154.478 221.526 157.325 218.02 157.325C214.515 157.325 211.673 154.48 211.673 150.968C211.673 147.457 214.513 144.61 218.019 144.61H218.02C221.524 144.61 224.366 147.453 224.366 150.965" fill="#CFCFCF"/>
<path d="M231.531 126.172H212.899C212.225 126.172 211.676 125.625 211.676 124.948V105.004C211.676 104.329 212.223 103.779 212.899 103.779H223.956C224.43 103.779 224.859 104.054 225.061 104.482L232.637 120.581C232.714 120.745 232.754 120.923 232.754 121.103V124.948C232.754 125.623 232.207 126.172 231.531 126.172Z" fill="#CCEDFB"/>
<path d="M79.463 91.8607H180.395V132.897H79.463V91.8607Z" fill="#EDEDED"/>
<path d="M116.383 115.774V108.987H118.187L120.471 114.057L122.724 108.987H124.451V115.774H122.963V111.825L121.249 115.774H119.664L117.926 111.846V115.774H116.385H116.383ZM126.862 115.774H125.112L128.119 108.984H130.273L133.301 115.774H131.573L130.978 114.42H127.442L126.864 115.774H126.862ZM130.432 113.145L129.188 110.265L127.973 113.145H130.432ZM133.996 115.774V108.987H140.466V110.341H135.558V111.689H139.768V113.015H135.558V114.414H140.477V115.774H133.996ZM141.735 115.772V108.985H147.15C147.723 108.927 148.233 109.345 148.292 109.918C148.298 109.987 148.298 110.055 148.292 110.124V112.407C148.292 112.929 147.829 113.406 146.929 113.406H146.774L148.35 115.774H146.61L145.115 113.454H143.32V115.774H141.735V115.772ZM143.32 112.102H146.721V110.345H143.32V112.102ZM151.144 115.777H150.609C150.102 115.841 149.638 115.48 149.575 114.972C149.566 114.908 149.566 114.845 149.571 114.781V113.895H151.144V114.42H154.487V113.029H150.651C150.109 113.067 149.638 112.658 149.6 112.115C149.6 112.093 149.599 112.069 149.599 112.046V110.029C149.594 109.459 150.051 108.994 150.62 108.989C150.633 108.989 150.649 108.989 150.663 108.989H155.048C155.598 108.982 156.048 109.424 156.055 109.975C156.055 110.008 156.055 110.041 156.052 110.074V110.884H154.487V110.348H151.144V111.685H154.97C155.543 111.661 156.027 112.105 156.053 112.678C156.053 112.713 156.053 112.746 156.053 112.78V114.717C156.112 115.244 155.734 115.719 155.208 115.777C155.141 115.784 155.072 115.786 155.003 115.777H151.146H151.144ZM157.562 115.777V108.989H159.168V111.703L162.228 108.989H164.403L160.752 112.14L164.536 115.776H162.282L159.168 112.687V115.776H157.562V115.777Z" fill="black"/>
<path d="M97.0745 104.676H108.145C109.114 104.676 109.901 105.463 109.901 106.434V118.325C109.901 119.296 109.116 120.084 108.147 120.084H97.0762C96.1071 120.084 95.3225 119.298 95.3225 118.327V106.431C95.3225 105.462 96.1071 104.676 97.0745 104.676Z" fill="#42B0D5"/>
<path d="M104.936 111.979L107.811 108.365L107.802 108.353L103.645 110.36L102.617 105.852H102.603L101.575 110.36L97.4177 108.353L97.4073 108.365L100.285 111.979L96.1261 113.983L96.1313 113.996H100.742L99.7164 118.505L99.7301 118.51L102.605 114.896L105.481 118.51L105.495 118.501L104.469 113.996H109.083L109.087 113.983L104.929 111.979H104.936Z" fill="white"/>
<path d="M175.898 142.475H154.589C153.607 142.475 152.811 143.272 152.811 144.256V154.929C152.811 155.913 153.607 156.71 154.589 156.71H175.898C176.88 156.71 177.676 155.913 177.676 154.929V144.256C177.676 143.272 176.88 142.475 175.898 142.475Z" fill="#CFCFCF"/>
<path d="M77.6782 87.639H79.4647V91.8606H75.2519V90.0711C75.2519 88.7273 76.34 87.639 77.6799 87.639H77.6782Z" fill="#CFCFCF"/>
<path d="M78.0334 89.7499C78.0334 89.375 77.73 89.071 77.3557 89.071C76.9815 89.071 76.678 89.375 76.678 89.7499C76.678 90.1248 76.9815 90.4287 77.3557 90.4287C77.73 90.4287 78.0334 90.1248 78.0334 89.7499Z" fill="#878787"/>
<path d="M75.2502 132.897H79.4647V137.119H75.2502V132.897Z" fill="#CFCFCF"/>
<path d="M78.0334 135.006C78.0334 134.631 77.73 134.327 77.3557 134.327C76.9815 134.327 76.678 134.631 76.678 135.006C76.678 135.381 76.9815 135.685 77.3557 135.685C77.73 135.685 78.0334 135.381 78.0334 135.006Z" fill="#878787"/>
<path d="M184.61 91.8589H180.397V87.639H182.182C183.523 87.639 184.61 88.729 184.61 90.0711V91.8606V91.8589Z" fill="#CFCFCF"/>
<path d="M183.18 89.7481C183.18 89.3732 182.877 89.0693 182.502 89.0693C182.128 89.0693 181.825 89.3732 181.825 89.7481C181.825 90.123 182.128 90.427 182.502 90.427C182.877 90.427 183.18 90.123 183.18 89.7481Z" fill="#878787"/>
<path d="M184.61 137.117H180.395V132.895H184.61V137.117Z" fill="#CFCFCF"/>
<path d="M183.18 135.008C183.18 134.633 182.877 134.329 182.502 134.329C182.128 134.329 181.825 134.633 181.825 135.008C181.825 135.383 182.128 135.687 182.502 135.687C182.877 135.687 183.18 135.383 183.18 135.008Z" fill="#878787"/>
</g>
</g>
<defs>
<clipPath id="clip0_1_93">
<rect width="300" height="168" fill="white"/>
</clipPath>
<clipPath id="clip1_1_93">
<rect width="374" height="273" fill="white" transform="translate(-61 -49)"/>
</clipPath>
</defs>
</svg>
