<?xml version="1.0" encoding="UTF-8"?>
<svg id="Layer_1" xmlns="http://www.w3.org/2000/svg" version="1.1" viewBox="0 0 300 168">
  <!-- Generator: Adobe Illustrator 29.3.1, SVG Export Plug-In . SVG Version: 2.1.0 Build 151)  -->
  <defs>
    <style>
      .st0 {
        fill: #7b7f83;
      }

      .st1 {
        fill: #0074a8;
      }

      .st2 {
        fill: #90d7ec;
      }

      .st3 {
        fill: #e1e1e1;
      }

      .st3, .st4 {
        fill-rule: evenodd;
      }

      .st5 {
        fill: #00aadc;
      }

      .st6 {
        fill: #e7e7e7;
      }

      .st7 {
        fill: #fff;
      }

      .st8 {
        fill: #414a51;
      }

      .st9 {
        fill: #b2d7d2;
      }

      .st10 {
        fill: #e0ad98;
      }

      .st11 {
        fill: #42b0d5;
      }

      .st12 {
        fill: #ffd6c3;
      }

      .st13 {
        fill: #5e5e5e;
      }

      .st14 {
        fill: #e1f5fc;
      }

      .st15 {
        fill: #2fbedf;
      }

      .st16 {
        fill: #32c1e1;
      }

      .st17 {
        fill: #c6e7f2;
      }

      .st4 {
        fill: #f6f7f7;
      }

      .st18 {
        fill: #888;
        isolation: isolate;
        opacity: .6;
      }

      .st19 {
        fill: #00243f;
      }

      .st20 {
        fill: #cfcfcf;
      }

      .st21 {
        fill: none;
        stroke: #90d7ec;
        stroke-miterlimit: 10;
        stroke-width: 1.3px;
      }
    </style>
  </defs>
  <rect class="st14" width="300" height="123.4"/>
  <rect class="st6" y="117.7" width="300" height="50.3"/>
  <path class="st17" d="M152.7,109v8.7c0,0,0,.2-.2.2h-61.7v-.4c0,.2-.2.3-.3.3H0c-.3,0-.5-.2-.5-.5h0v-12.9c0-.3.2-.5.5-.5h2.3c.3,0,.5-.2.5-.5v-2.8c0-.7,0-1.8,5.7-1.8s5.4,1,5.4,1.8v2.4c0,.5.4.9.9.9h.2c.5,0,.9-.4.9-.9h0v-1.1c0-.4.3-.8.7-.8.1,0,.2-.2.2-.3v-4.5c0-.4,0-.9.2-1.3l1.3-4.3c0-.2.2-.3.4-.2.1,0,.2.1.2.2l1.2,4.3c0,.4.1.7.1,1.1v1.2c0,.3.2.5.5.5h3.6c.3,0,.6.2.8.4l1.4,2.4h.3c.7,0,1.3.6,1.2,1.3,0,0,0,0,0,0,.5,0,.9.2,1.1.6,0,.2.3.3.5.3h1s.6,0,.6-.5v-10c0-.3.2-.5.5-.5h7.5c.3,0,.5.2.5.5v7.6c0,.1,0,.3.1.4l1.1,1.1h.7v-18.4c0-1.3,1.1-2.4,2.4-2.4,0,0,0,0,0,0h1.9c0,0,.2,0,.2-.2v-3.5c0-.6.5-1.1,1.1-1.1h0c.6,0,1.1.5,1.1,1.1h0v3.1c0,.3.2.5.5.5h1c1.4,0,2.6,1.2,2.6,2.6h0v9.6h.7s1.5,0,1.5,1.3,0,6.8,0,8.5c0,.2.1.3.3.3,0,0,0,0,0,0h1.8v-1.2h0c-.6,0-1-.4-1.1-1v-1.2c0-.6.5-1,1.1-1h1.1c.6,0,1.1.4,1.1,1v1.2c0,.6-.5,1-1.1,1h-.1v1.2h2.9v-1h0c-.5,0-.9-.4-1-.9v-1c0-.5.5-.9,1-.9h.9c.5,0,.9.4,1,.9,0,0,0,0,0,0v1c0,.5-.5.9-1,.9h0v1h1.7c.2,0,.4-.2.4-.4v-3.9h-.9l2.7-2.9c.2-.2.4-.3.7-.3h2.8c.2,0,.3-.2.3-.3v-.7c0-.2.2-.3.3-.3h.7c.2,0,.3.2.3.3h0v.7c0,.2.2.3.3.3h1.2c.3,0,.6.1.8.3l2.8,2.8h-1c-.2,0-.2.2-.2.2v3.7c0,.3.2.5.5.5h.9c.4,0,.6-.2.6-.4v-.9c0-.4.2-.8.5-1.1l.2-.2c.3-.3.5-.7.5-1.1v-1.8c0-.2-.2-.2-.2-.2h-1l2.4-3c.2-.2.4-.3.7-.3h3.1v-1.2h1.3v1.2h2.9c.3,0,.6.1.8.3l2.3,3h-1.1c0,0-.2,0-.2.2,0,0,0,0,0,0v4.6c0,.3.2.5.5.5h1.3c.2,0,.3.2.3.3v-21.7s0,0,0,0c0-.2.5-2,2.8-2h5.3c1.3,0,2.3,1,2.3,2.3h0v5.1h.4s3,0,3,2.9v9.3s0,0,0,.1l3,3.8c.3.3.8.4,1.1.1.2-.1.3-.4.3-.6v-36.2c0-1.8,1.8-2.2,2.7-2.2h.6c0-2.6.5-4.3,3.9-4.7,0,0,.1,0,.2-.1l1.2-6.1c0,0,.1-.2.2-.1,0,0,.1,0,.1.1l1.4,6.1c0,0,0,.1.2.1,3.8.4,4.1,2.1,4.1,4.7h2.2c.9,0,1.6.7,1.6,1.6v19.2c0,0,0,.2.2.2h1.5s3.5,0,3.5,2.9,0,15,0,16.7c0,.5.4.9.9.9h3.9c0,0,.2,0,.2-.2h0v-2.6h-.2c-1.4,0-2.5-1-2.5-2.2v-2.6c0-1.2,1.1-2.2,2.5-2.2h2.5c1.4,0,2.5,1,2.5,2.2v2.6c0,1.2-1.1,2.2-2.5,2.2h-.2v2.6c0,0,0,.2.2.2h6.3c0,0,.2,0,.2-.2v-2.1h-.2c-1.3,0-2.3-.9-2.3-2v-2.4c0-1.1,1-2,2.3-2h2.2c1.3,0,2.3.9,2.3,2v2.4c0,1.1-1,2-2.3,2h-.2v2.1c0,0,0,.2.2.2h1c1.9,0,3.4,1.5,3.4,3.4h0Z"/>
  <path class="st17" d="M317.4,112.1v-2.6h.2c1.4,0,2.6-1,2.6-2.2v-2.7c0-1.2-1.2-2.2-2.6-2.2h-2.5c-1.4,0-2.6,1-2.6,2.2v2.7c0,1.2,1.2,2.2,2.6,2.2h.2v2.6h-7.6s0-3.2,0-3.2h.3c1.6,0,2.9-1.1,2.9-2.5v-3c0-1.4-1.3-2.5-2.9-2.5h-2.8c-1.6,0-2.9,1.1-2.9,2.5v3c0,1.4,1.3,2.5,2.9,2.5h.2v3.2h-4.6s-1,0-1-1c0-2,0-16.6,0-19s-4-3.3-4-3.3h-1.9v-23.9h-4.4c0-2.9-.4-4.9-4.8-5.3l-1.9-8-1.6,8c-4,.4-4.6,2.4-4.6,5.3h-.7c-1,0-3,.4-3,2.5v43.8l-5-6.5v-10.7c0-3.3-3.5-3.3-3.5-3.3h-.5v-8.4h-8.6c-2.8,0-3.1,2.3-3.1,2.3v4.7c0,1.5-1.5,1.4-1.5,1.4h-2.5v9.8s-4.6.4-4.6,4.2,0,6.8,0,6.8h0s0-3-3.7-3c0-4.1-3.9-4.1-3.9-4.1h-.9s-2.6-7.8-3.6-10.9c-1.8,0-3.5.7-3.5,2.2h-10v-5.2l-2-24-4.8,21.5-4.5-17.9-4.1,16.9s-.6,1.8-.6,3.9v14.5s-2.8.2-2.8,2.7v5.6c-.3,0-2,0-5.7,0h0c0-.1-3.8-.1-3.8-.1v-10c0-3.2-2.5-3.7-4.2-3.7,1.9,0,4,0,4.2,0-.2,0-21.7,0-29.2,0v13.8s-4.2.1-6,.1c-8.5,0-8.7,3.8-8.7,3.8h176.3c0-5.4-4.6-5.7-4.6-5.7Z"/>
  <rect class="st12" x="178" y="105.5" width="3.5" height="12.3"/>
  <polygon class="st10" points="181.6 105.5 178 105.5 178 109.9 181.6 117.8 181.6 105.5"/>
  <path class="st9" d="M188,106.3v-3.4c1.6-.2,2.8-1.4,2.8-2.8v-4.9c0-1.6-1.5-2.9-3.4-2.9h-2.9v-1.4c0-1.6-1.5-2.9-3.4-2.9h-3.5c-1.9,0-3.4,1.3-3.4,2.9v.5h-.2c-3.2,0-5.7,2-5.7,4.4v5.4c0,2.1,1.8,3.9,3.9,3.8,0,3.1,2.2,4.8,3.8,4.8h7.6c2.3,0,4.2-1.6,4.2-3.6"/>
  <rect class="st12" x="279" y="105.5" width="3.5" height="12.3"/>
  <polygon class="st10" points="282.6 105.5 279 105.5 279 109.9 282.6 117.8 282.6 105.5"/>
  <path class="st9" d="M289,106.3v-3.4c1.6-.2,2.8-1.4,2.8-2.8v-4.9c0-1.6-1.5-2.9-3.4-2.9h-2.9v-1.4c0-1.6-1.5-2.9-3.4-2.9h-3.5c-1.9,0-3.4,1.3-3.4,2.9v.5h-.2c-3.2,0-5.7,2-5.7,4.4v5.4c0,2.1,1.8,3.9,3.9,3.8,0,3.1,2.2,4.8,3.8,4.8h7.6c2.3,0,4.2-1.6,4.2-3.6"/>
  <path class="st7" d="M46,20.1c2.5,0,3.2.7,3.2,2.6h3.5c3.6,0,4.5,1,4.5,3.7H22.6c0-1.8.6-2.6,3.2-2.6,0-2.6.9-3.7,4.5-3.7h2.5c0-3.3,1.1-4.6,5.7-4.6s5.7,1.3,5.7,4.6h1.9Z"/>
  <path class="st7" d="M267.1,27c-1.4,0-1.8.4-1.8,1.5h-2c-2.1,0-2.6.6-2.6,2.1h19.9c0-1.1-.4-1.5-1.8-1.5,0-1.5-.5-2.1-2.6-2.1h-1.5c0-1.9-.7-2.7-3.3-2.7s-3.3.8-3.3,2.7h-1.1Z"/>
  <path class="st7" d="M175.3,68.6h-17.3c0-2.2.8-3.1,3.8-3.1h2.7c0-3.1,1.1-4.4,5.4-4.4s4.2,1,4.2,3.4h0c4,0,5,1.2,5,4.1h-6.5"/>
  <g>
    <g>
      <path class="st18" d="M167.9,152H25.4c-.5,0-.9-.4-.9-.9v-1.7c0-.5.4-.9.9-.9h142.5c.5,0,.9.4.9.9v1.7c0,.5-.4.9-.9.9Z"/>
      <g>
        <rect class="st13" x="24.2" y="134.8" width="114.2" height="7.7"/>
        <path class="st16" d="M171.4,124.1l-6.3-13.6c-.4-.8-1.1-1.2-1.9-1.2h-22.6c-1.2,0-2.1,1-2.1,2.1v33.5h8.6c0-.3,0-.5,0-.8,0-4.4,3.6-8,8-8s8,3.6,8,8,0,.5,0,.8h6.5c1.2,0,2.1-1,2.1-2.1v-17.8c0-.3,0-.6-.2-.9Z"/>
        <path class="st4" d="M134.4,134.8v-28.1c0-1.7-1.4-3.1-3.1-3.1H29.2c-2,0-3.4,1.4-3.4,3.1v28.1h108.7Z"/>
        <path class="st3" d="M31.7,130.3h0c-.6,0-1.1-.6-1.1-1.1v-19.6c0-.6.6-1.1,1.1-1.1s1.1.6,1.1,1.1v19.6c0,.6-.3,1.1-1.1,1.1Z"/>
        <path class="st3" d="M37.1,130.3h0c-.6,0-1.1-.6-1.1-1.1v-19.6c0-.6.6-1.1,1.1-1.1.9,0,1.4.6,1.4,1.1v19.6c0,.6-.6,1.1-1.4,1.1Z"/>
        <path class="st3" d="M42.5,130.3h0c-.6,0-1.1-.6-1.1-1.1v-19.6c0-.6.6-1.1,1.1-1.1.6-.3,1.1.3,1.1.9v19.9c0,.6-.3,1.1-1.1,1.1Z"/>
        <path class="st3" d="M47.9,130.3h0c-.6,0-1.1-.6-1.1-1.1v-19.6c0-.6.6-1.1,1.1-1.1.6-.3,1.1.3,1.4.9v19.9c0,.6-.6,1.1-1.1,1.1h-.3Z"/>
        <path class="st3" d="M53.3,130.3h0c-.6,0-1.1-.6-1.1-1.1v-19.6c0-.6.6-1.1,1.1-1.1.6-.3,1.1.3,1.1.9v19.9c0,.6-.3,1.1-1.1,1.1Z"/>
        <path class="st3" d="M58.7,130.3h0c-.6,0-1.1-.6-1.1-1.1v-19.6c0-.6.6-1.1,1.1-1.1s1.1.6,1.1,1.1v19.6c0,.6-.6,1.1-1.1,1.1Z"/>
        <path class="st3" d="M64.1,130.3h0c-.6,0-1.1-.6-1.1-1.1v-19.6c0-.6.6-1.1,1.1-1.1s1.1.6,1.1,1.1v19.6c0,.6-.6,1.1-1.1,1.1Z"/>
        <path class="st3" d="M69.4,130.3h0c-.6,0-1.1-.6-1.1-1.1v-19.6c0-.6.3-1.1,1.1-1.1.6-.3,1.1.3,1.1.9v19.9c0,.6-.6,1.1-1.1,1.1Z"/>
        <path class="st3" d="M74.8,130.3h0c-.6,0-1.1-.6-1.1-1.1v-19.6c0-.6.6-1.1,1.1-1.1s1.1.6,1.1,1.1v19.6c0,.6-.6,1.1-1.1,1.1Z"/>
        <path class="st3" d="M80.2,130.3h0c-.6,0-1.1-.6-1.1-1.1v-19.6c0-.6.3-1.1.9-1.1.9-.3,1.4.3,1.4.9v19.9c0,.6-.6,1.1-1.1,1.1Z"/>
        <path class="st3" d="M85.6,130.3h0c-.9,0-1.1-.6-1.1-1.1v-19.6c-.3-.6.3-1.1.9-1.1.9-.3,1.4.3,1.4.9v19.9c0,.6-.6,1.1-1.1,1.1Z"/>
        <path class="st3" d="M91,130.3h0c-.9,0-1.1-.6-1.1-1.1v-19.6c0-.6.3-1.1,1.1-1.1s1.1.6,1.1,1.1v19.6c0,.6-.6,1.1-1.1,1.1Z"/>
        <path class="st3" d="M96.4,130.3h0c-.9,0-1.1-.6-1.1-1.1v-19.6c-.3-.6.3-1.1.9-1.1.9-.3,1.4.3,1.4.9v19.9c0,.6-.6,1.1-1.1,1.1Z"/>
        <path class="st3" d="M101.5,130.3h0c-.6,0-1.1-.6-1.1-1.1v-19.6c0-.6.6-1.1,1.1-1.1.6-.3,1.1.3,1.4.9v19.9c0,.6-.6,1.1-1.1,1.1h-.3Z"/>
        <path class="st3" d="M107.2,130.3h0c-.9,0-1.1-.6-1.1-1.1v-19.6c0-.6.3-1.1,1.1-1.1s1.1.6,1.1,1.1v19.6c0,.6-.6,1.1-1.1,1.1Z"/>
        <path class="st3" d="M112.3,130.3h0c-.6,0-1.1-.6-1.1-1.1v-19.6c0-.6.6-1.1,1.1-1.1.6-.3,1.1.3,1.4.9v19.9c0,.6-.6,1.1-1.1,1.1h-.3Z"/>
        <path class="st3" d="M117.7,130.3h0c-.6,0-1.1-.6-1.1-1.1v-19.6c0-.6.6-1.1,1.1-1.1.6-.3,1.1.3,1.1.9q.3.3,0,.3v19.6c0,.6-.3,1.1-1.1,1.1Z"/>
        <path class="st3" d="M123.1,130.3h0c-.6,0-1.1-.6-1.1-1.1v-19.6c0-.6.6-1.1,1.1-1.1s1.1.6,1.1,1.1v19.6c0,.6-.6,1.1-1.1,1.1Z"/>
        <path class="st3" d="M128.5,130.3h0c-.6,0-1.1-.6-1.1-1.1v-19.6c0-.6.6-1.1,1.1-1.1s1.1.6,1.1,1.1v19.6c0,.6-.6,1.1-1.1,1.1Z"/>
        <path class="st4" d="M167.1,127.7h-12.2c-.6,0-.9-.3-.9-.9v-13.1c0-.3.3-.9.9-.9h7.1c.3,0,.6.3.9.6l4.8,10.5v2.8c0,.6-.3.9-.6.9Z"/>
        <path class="st19" d="M45.6,144.2c0,3.8-3.1,6.8-6.8,6.8s-6.8-3.1-6.8-6.8,3.1-6.8,6.8-6.8h0c3.8,0,6.8,3.1,6.8,6.8"/>
        <path class="st20" d="M42.7,144.2c0,2.1-1.7,3.9-3.9,3.9-2.1,0-3.9-1.7-3.9-3.9,0-2.1,1.7-3.9,3.9-3.9h0c2.1,0,3.9,1.7,3.9,3.9h0"/>
        <path class="st19" d="M61.4,144.2c0,3.8-3.1,6.8-6.8,6.8s-6.8-3.1-6.8-6.8,3.1-6.8,6.8-6.8h0c3.8,0,6.8,3.1,6.8,6.8"/>
        <path class="st20" d="M58.4,144.2c0,2.1-1.7,3.9-3.9,3.9-2.1,0-3.9-1.7-3.9-3.9,0-2.1,1.7-3.9,3.9-3.9h0c2.1,0,3.9,1.7,3.9,3.9h0"/>
        <path class="st19" d="M115.5,144.2c0,3.8-3.1,6.8-6.8,6.8s-6.8-3.1-6.8-6.8,3.1-6.8,6.8-6.8h0c3.8,0,6.8,3.1,6.8,6.8"/>
        <path class="st20" d="M112.5,144.2c0,2.1-1.7,3.9-3.9,3.9-2.1,0-3.9-1.7-3.9-3.9,0-2.1,1.7-3.9,3.9-3.9h0c2.1,0,3.9,1.7,3.9,3.9h0"/>
        <path class="st19" d="M161.8,144.2c0,3.8-3.1,6.8-6.8,6.8s-6.8-3.1-6.8-6.8c0-3.8,3.1-6.8,6.8-6.8h0c3.8,0,6.8,3.1,6.8,6.8"/>
        <path class="st20" d="M158.8,144.2c0,2.1-1.7,3.9-3.9,3.9-2.1,0-3.9-1.7-3.9-3.9,0-2.1,1.7-3.9,3.9-3.9h0c2.1,0,3.9,1.7,3.9,3.9h0"/>
        <path class="st19" d="M131.3,144.2c0,3.8-3.1,6.8-6.8,6.8s-6.8-3.1-6.8-6.8,3.1-6.8,6.8-6.8h0c3.8,0,6.8,3.1,6.8,6.8"/>
        <path class="st20" d="M128.3,144.2c0,2.1-1.7,3.9-3.9,3.9-2.1,0-3.9-1.7-3.9-3.9,0-2.1,1.7-3.9,3.9-3.9h0c2.1,0,3.9,1.7,3.9,3.9h0"/>
        <polygon points="67.1 122.2 67.1 115.7 68.9 115.7 71.1 120.6 73.3 115.7 74.9 115.7 74.9 122.2 73.5 122.2 73.5 118.4 71.8 122.2 70.3 122.2 68.6 118.5 68.6 122.2 67.1 122.2"/>
        <path d="M77.3,122.2h-1.7l2.9-6.6h2.1l2.9,6.6h-1.7l-.6-1.3h-3.4l-.6,1.3ZM80.7,119.7l-1.2-2.8-1.2,2.8h2.4Z"/>
        <polygon points="84.2 122.2 84.2 115.7 90.4 115.7 90.4 117 85.7 117 85.7 118.3 89.7 118.3 89.7 119.6 85.7 119.6 85.7 120.9 90.4 120.9 90.4 122.2 84.2 122.2"/>
        <path d="M91.6,122.2v-6.6h5.2c.6,0,1,.3,1.1.9,0,0,0,.1,0,.2v2.2c0,.5-.4,1-1.3,1h-.2l1.5,2.3h-1.7l-1.4-2.2h-1.7v2.2h-1.5ZM93.2,118.7h3.3v-1.7h-3.3v1.7Z"/>
        <path d="M100.7,122.3h-.5c-.5,0-.9-.3-1-.8,0,0,0-.1,0-.2v-.9h1.5v.5h3.2v-1.3h-3.7c-.5,0-1-.4-1-.9,0,0,0,0,0,0v-1.9c0-.6.4-1,1-1,0,0,0,0,0,0h4.2c.5,0,1,.4,1,1,0,0,0,0,0,0v.8h-1.5v-.5h-3.2v1.3h3.7c.6,0,1,.4,1,1,0,0,0,0,0,0v1.9c0,.5-.3,1-.8,1,0,0-.1,0-.2,0h-3.7Z"/>
        <polygon points="107 122.3 107 115.7 108.5 115.7 108.5 118.3 111.5 115.7 113.6 115.7 110 118.7 113.7 122.3 111.5 122.3 108.5 119.3 108.5 122.3 107 122.3"/>
        <path class="st11" d="M48.4,111.5h10.7c.9,0,1.7.8,1.7,1.7v11.5c0,.9-.8,1.7-1.7,1.7h-10.7c-.9,0-1.7-.8-1.7-1.7h0v-11.5c0-.9.8-1.7,1.7-1.7h0Z"/>
        <polygon class="st7" points="56 118.6 58.8 115.1 58.8 115.1 54.8 117 53.8 112.7 53.8 112.7 52.8 117 48.8 115.1 48.8 115.1 51.5 118.6 47.5 120.5 47.5 120.5 52 120.5 51 124.9 51 124.9 53.8 121.4 56.6 124.9 56.6 124.9 55.6 120.5 60.1 120.5 60.1 120.5 56 118.6"/>
      </g>
    </g>
    <g>
      <path class="st7" d="M102.5,57.2h-26c-1.8,0-3.3,1.4-3.3,3.2v24.8c0,1.8,1.5,3.2,3.3,3.2h9.7l7.8,9v-9h8.5c1.8,0,3.3-1.4,3.3-3.2v-24.8c0-1.8-1.5-3.2-3.3-3.2Z"/>
      <path class="st5" d="M88.7,80.6v1.5c0,.6,0,1.3,0,1.9,0,.3,0,.5.2.6.3.2.6.2,1,0,.2,0,.3-.2.3-.6v-3.4s.7.7.8.8c.1,0,.2.2.3.3.3.3.6.6,1,.9.4.3.8.3,1.1-.1.4-.5.4-.9-.2-1.3-.4-.3-.7-.6-1.1-.9-.6-.4-1.1-.9-1.6-1.3-.2-.1-.3-.4-.3-.6,0-1,0-2.1,0-3.1,0,0,0-.7,0-.8,0-.3.3-.4.5-.3s.5.3.5.3c1,.6,2.1,1.2,3.1,1.8.2,0,.3.3.3.4,0,.3,0,.6,0,.9v.4c0,.2,0,.4,0,.7,0,.5,0,1,.1,1.6,0,.5.4.9.9.8.6,0,.9-.4.8-1,0,0,0-.1,0-.2,0,0,0-.1,0-.1l-.2-2.2.5.3c0,0,.1,0,.2.1l.6.4c.4.3.9.5,1.3.8.3.2.6.2.8,0,.3-.2.4-.4.4-.6,0-.2,0-.5-.3-.7-.1,0-.2-.2-.4-.3-.5-.3-.9-.6-1.4-.9l-1-.6,1.3-.6c.1,0,.3-.1.4-.2.3-.1.6-.2.9-.4.4-.2.6-.7.4-1.1-.2-.4-.5-.5-1-.3,0,0-.2,0-.3.1l-.8.3c-.8.3-1.6.6-2.4,1-.3.1-.5,0-.7,0-.7-.4-1.4-.8-2.2-1.2l-.9-.5c0,0-.1,0-.2-.1-.2-.1-.2-.4,0-.6s.6-.4.6-.4c.9-.5,1.7-1,2.6-1.5.2,0,.4,0,.6,0,.5.2,1,.4,1.4.6.6.3,1.2.5,1.8.7.2,0,.4.1.6.1.4,0,.7-.4.8-.9,0-.3,0-.5-.5-.7-.5-.2-1-.4-1.5-.6l-1.1-.5.5-.3c0,0,.1,0,.2-.1l.9-.5c.5-.3.9-.5,1.4-.8.3-.1.4-.3.5-.5,0-.2,0-.5-.2-.7-.1-.2-.4-.5-.7-.5s-.4,0-.6.2c-.4.3-.8.5-1.2.8l-.8.5c0,0-.1,0-.2.1l-.5.3v-.8c0-.2,0-.4,0-.6,0-.5,0-1,0-1.4,0-.2,0-.4-.2-.5-.2-.3-.6-.3-1-.2-.3,0-.4.4-.4.7-.1,1.2-.2,2.4-.3,3.6,0,.2-.1.4-.3.5-.9.5-1.9,1-2.9,1.5,0,0-.4.2-.7.4-.3.1-.4,0-.4-.3v-.6c0-1,0-2,0-3,0-.2.2-.4.3-.4.3-.3.6-.5.9-.8.3-.2.5-.5.8-.7l.3-.2c.3-.3.6-.5.9-.8.4-.4.3-.7,0-1.1-.4-.3-.7-.3-1.1,0-.3.2-.5.5-.8.7l-1.3,1.2v-3.4c0-.6-.3-.8-.8-.8s-.8.3-.8.8c0,.5,0,1.1,0,1.6v.9c0,0,0,.1,0,.2v.6s-.8-.7-.8-.7c-.3-.3-.7-.6-1-.9-.2-.2-.4-.3-.6-.4-.4-.2-.7-.1-.9.2-.3.4-.2.9.3,1.3.9.7,1.9,1.4,2.7,2.1.2.2.3.4.3.6,0,.7,0,1.4,0,2.1v1.1c0,.4-.2.4-.5.3-.3-.1-.8-.4-.8-.4-.8-.4-1.6-.8-2.5-1.2-.3-.1-.4-.3-.4-.7,0-.8,0-1.5-.1-2.3v-.9c0-.4-.2-.6-.5-.7-.4-.2-.9-.1-1.1.2-.2.2-.3.5-.2.8,0,.4.1.9.2,1.3v1.1c.1,0-.7-.4-.7-.4-.3-.2-.7-.3-1-.5h-.3c-.4-.3-.7-.5-1.1-.6-.1,0-.2,0-.3,0s-.5,0-.7.6c-.1.4-.1.6.4.9.5.3,1.1.5,1.6.8l.9.4c0,0,.1,0,.2,0l.6.3-1.2.5c-.6.2-1.1.4-1.6.7-.3.1-.4.3-.5.5,0,.2,0,.4,0,.7.3.5.6.6,1.2.4,1.1-.5,2.3-1,3.4-1.5.3-.1.5-.1.7,0,.8.4,1.6.9,2.3,1.3l1,.5c0,0,.1,0,.2.1.3.1.3.4,0,.5-.1,0-.6.4-.6.4-1,.6-2,1.1-3,1.6-.2,0-.5,0-.6,0-.5-.2-.9-.4-1.4-.6-.6-.2-1.2-.5-1.7-.7-.2,0-.5-.1-.7-.2,0,0,0,0-.1,0-.3,0-.6,0-.7.8,0,.5,0,.7.5.8.1,0,.3,0,.4.1l2.2.7-.5.3c0,0-.1,0-.2.1-.2.1-.4.3-.7.4-.5.3-.9.5-1.4.8-.3.2-.4.3-.4.5,0,.2,0,.4.2.6.3.5.7.6,1.2.3.4-.2.8-.5,1.2-.7l.8-.5c0,0,.1,0,.2,0l.5-.3v.6c0,0,0,.2,0,.2,0,.3,0,.5-.1.8,0,.4-.1.8-.2,1.2,0,.5.2.7.7.8,0,0,.1,0,.2,0,.2,0,.5,0,.6-.6,0,0,0-.2,0-.3v-.9c.3-.8.4-1.7.6-2.5,0-.2.2-.4.4-.6.8-.5,1.7-1.1,2.5-1.6,0,0,.6-.3.8-.5.2-.1.5-.2.5.3v.8c0,1.1,0,2.1,0,3.2,0,.2-.2.4-.3.5-.7.6-1.4,1.1-2.2,1.7l-.7.5c-.4.3-.4.7-.1,1.1.3.4.7.4,1.1.2.1,0,.2-.1.3-.2.4-.3.7-.6,1.1-.9l.9-.8Z"/>
    </g>
  </g>
  <g>
    <g>
      <path class="st2" d="M214,36s-1.9,1.9-2.3,2.3c-.4.4,0,.8.4.4.4-.4,2.2-2.2,2.2-2.2l-.4-.5Z"/>
      <g>
        <path class="st0" d="M215.5,37.3l-.6.7c-.3.3-.8.3-1.1,0l-1.3-1.3c-.3-.3-.3-.8,0-1.1l.6-.7,2.4,2.4Z"/>
        <g>
          <rect class="st15" x="216.5" y="28.2" width="2.6" height="8.7" transform="translate(41 163.8) rotate(-45.1)"/>
          <rect class="st2" x="206.6" y="17.1" width="6.6" height="15.1" transform="translate(44.3 156) rotate(-45.1)"/>
          <rect class="st8" x="203.5" y="19.5" width="5.2" height="2.9" transform="translate(45.8 152.1) rotate(-45.1)"/>
          <rect class="st8" x="206" y="22" width="5.2" height="2.9" transform="translate(44.8 154.7) rotate(-45.1)"/>
          <rect class="st8" x="208.6" y="24.5" width="5.2" height="2.9" transform="translate(43.7 157.2) rotate(-45.1)"/>
          <rect class="st8" x="211.1" y="27" width="5.2" height="2.9" transform="translate(42.7 159.7) rotate(-45.1)"/>
          <rect class="st2" x="222.2" y="32.7" width="6.6" height="15.1" transform="translate(37.8 171.5) rotate(-45.1)"/>
          <rect class="st8" x="219.1" y="35" width="5.2" height="2.9" transform="translate(39.4 167.7) rotate(-45.1)"/>
          <rect class="st8" x="221.6" y="37.5" width="5.2" height="2.9" transform="translate(38.3 170.3) rotate(-45.1)"/>
          <rect class="st8" x="224.1" y="40" width="5.2" height="2.9" transform="translate(37.3 172.8) rotate(-45.1)"/>
          <rect class="st8" x="226.6" y="42.6" width="5.2" height="2.9" transform="translate(36.3 175.3) rotate(-45.1)"/>
        </g>
        <path class="st1" d="M222.2,30.3c.5.5.5,1.4,0,2l-4.6,4.6c-.5.5-1.4.5-1.9,0l-2.3-2.3c-.5-.5-.6-1.4,0-1.9l4.6-4.6c.5-.5,1.4-.5,2,0l2.3,2.3Z"/>
      </g>
    </g>
    <path class="st21" d="M207,36.3c0,3.8,3.1,6.9,6.9,6.9"/>
    <path class="st21" d="M202.4,36.3c0,6.3,5.1,11.5,11.5,11.5"/>
    <path class="st21" d="M197.9,36.3c0,8.9,7.2,16,16,16"/>
  </g>
</svg>