<?xml version="1.0" encoding="UTF-8"?>
<svg id="Layer_1" xmlns="http://www.w3.org/2000/svg" xmlns:xlink="http://www.w3.org/1999/xlink" version="1.1" viewBox="0 0 300 168">
  <!-- Generator: Adobe Illustrator 29.2.1, SVG Export Plug-In . SVG Version: 2.1.0 Build 116)  -->
  <defs>
    <style>
      .st0 {
        fill: none;
      }

      .st1 {
        fill: #00b2d9;
      }

      .st2, .st3 {
        fill: #fff;
      }

      .st2, .st4 {
        fill-rule: evenodd;
      }

      .st5 {
        fill: #99c7dd;
      }

      .st6, .st4 {
        fill: #ffc373;
      }

      .st7 {
        fill: #d3ecf9;
      }

      .st8 {
        fill: #fafafa;
      }

      .st9 {
        fill: #42b0d5;
      }

      .st10 {
        fill: #f7f7f7;
      }

      .st11 {
        fill: #d5d5d5;
      }

      .st12 {
        fill: #eeaf30;
      }

      .st13 {
        fill: #ededed;
      }

      .st14 {
        clip-path: url(#clippath);
      }
    </style>
    <clipPath id="clippath">
      <rect class="st0" x="23" y="-.84" width="253.26" height="168.84"/>
    </clipPath>
  </defs>
  <rect class="st7" y="-.84" width="300" height="168.84"/>
  <g class="st14">
    <path class="st5" d="M63.1,76.9v8.44c-.35.1-.65.45-.65.85v.05h-1.51c-.1-1.01-.8-1.46-1.76-1.51v-15.48h16.78c0,.4.4.4.4.4v1.96c-.3.05-.4.4-.45.7h-.6c-.25,0-.25.25-.25.25v2.96h3.97v-3.02s0-.25-.3-.25h-.55c0-.4-.2-.6-.45-.7v-1.96s.35,0,.35-.4h5.43v-.7c0-.95-.75-1.71-1.71-1.71h-1.11l-21.86-9.85v-.45c0-.35-1.06-.35-1.06,0v.4l-21.16,9.9h-.7v2.41h2.06v1.46s-.05.9.9.9h2.76v-2.36h3.42v15.48c-1.01.05-1.61.75-1.81,1.51h-2.41v-2.21s0-.25-.25-.25h-2.51c-.25,0-.25.25-.25.25v2.21h-.55v-2.21s0-.25-.25-.25h-2.51c-.25,0-.25.25-.25.25v2.21h-.55v-2.21s0-.25-.25-.25h-2.51c-.25,0-.25.25-.25.25v2.21h-3.77c-5.38,0-5.73,4.47-5.73,4.47h58.69s-.1-4.47-5.68-4.47h-.05v-.05c0-.4-.25-.7-.6-.85v-8.49c0-.5-.4-.9-.9-.9h-8.64c-.5.1-.9.5-.9,1.01ZM68.78,79.76h-.65v-1.71h.65v1.71ZM64.76,77.75h2.71c0,.3.35.3.35.3v1.71c-.25.05-.35.35-.4.6h-.55c-.2,0-.2.2-.2.2v2.61h3.57v-2.61s0-.25-.25-.25h-.5c0-.35-.2-.55-.4-.6v-1.66s.3,0,.3-.3h2.46v7.59c-.4.1-.65.45-.65.85v.05h-5.78v-.05c0-.4-.25-.75-.65-.85,0,0,0-7.59,0-7.59ZM46.97,75.09h10.4v9.65h-.1c-1.06,0-1.66.75-1.86,1.56h-6.53c-.1-1.06-.9-1.51-1.91-1.51,0,0,0-9.7,0-9.7ZM46.97,70.01l10.3,4.12h-10.3v-4.12ZM47.07,69.26h10.25v4.07l-10.25-4.07ZM57.57,57.3l-10.65,9.4v-2.16s.05-.45-.45-.45h-1.71c-2.06,0-2.11,1.76-2.11,1.76v.9h-5.33l20.25-9.45ZM57.77,66.8h-10.45l10.45-9.25v9.25ZM76.77,69.61h.7v1.91h-.7v-1.91ZM72.14,66.8l-12.56-9.15,20.5,9.15h-7.94ZM58.83,66.8v-9.35l12.81,9.35h-12.81Z"/>
    <path class="st0" d="M46.97,64.58s.05-.45-.45-.45h-1.71c-2.06,0-2.11,1.76-2.11,1.76v.9h-5.38l20.25-9.5-10.65,9.4.05-2.11h0Z"/>
    <polygon class="st0" points="57.32 69.26 57.32 73.33 47.07 69.26 57.32 69.26"/>
    <polygon class="st0" points="46.97 74.13 46.97 70.01 57.27 74.13 46.97 74.13"/>
    <path class="st0" d="M57.32,84.74h-.1c-1.06,0-1.66.75-1.86,1.56h-6.53c-.1-1.06-.9-1.51-1.91-1.51v-9.65h10.4s0,9.6,0,9.6Z"/>
    <rect class="st0" x="68.12" y="78.05" width=".65" height="1.71"/>
    <path class="st0" d="M67.82,78.05v1.71c-.25.05-.35.35-.4.6h-.55c-.2,0-.2.2-.2.2v2.61h3.57v-2.61s0-.25-.25-.25h-.5c0-.35-.2-.55-.4-.6v-1.66s.3,0,.3-.3h2.46v7.59c-.4.1-.65.45-.65.85v.05h-5.78v-.05c0-.4-.25-.75-.65-.85v-7.59h2.71c.05.3.35.3.35.3Z"/>
    <polygon class="st0" points="58.83 57.45 71.64 66.8 58.83 66.8 58.83 57.45"/>
    <polygon class="st0" points="80.13 66.8 72.14 66.8 59.58 57.65 80.13 66.8"/>
    <polygon class="st0" points="57.77 57.55 57.77 66.8 47.32 66.8 57.77 57.55"/>
  </g>
  <rect class="st0" x="23" y="-.84" width="253.26" height="168.84"/>
  <path class="st5" d="M21.99,104.08h255.62c.7-4.17,1.21-8.84,1.51-14.22H20.49c.3,5.38.8,10.1,1.51,14.22Z"/>
  <rect class="st11" y="104.18" width="300" height="63.82"/>
  <g>
    <path class="st8" d="M251.69,50.01c0-1.41-1.06-3.97-5.73-3.97s-5.88,2.51-5.88,4.12c-3.62,0-5.93,1.86-6.43,4.82h24.57c-.6-2.46-2.01-4.97-6.53-4.97Z"/>
    <path class="st8" d="M64.31,30.97h-29.04c0-1.41.7-2.76,2.81-2.76h1.01c0-1.41,1.51-3.17,5.28-3.17h3.92c0-1.91.95-3.27,4.87-3.27,5.38,0,5.53,2.61,5.53,5.48,5.68.05,5.63,3.72,5.63,3.72Z"/>
  </g>
  <g>
    <rect class="st3" x="127.32" y="-.84" width=".5" height="54.72"/>
    <rect class="st3" x="124.05" y="-.84" width=".5" height="54.72"/>
    <path d="M128.07,62.63c0-.05-.05-.05,0,0-.35.1-.6.35-.8.6-.2.65-.75,1.11-1.41,1.16-.65-.05-1.11-.6-1.11-1.26,0-.05,0-.15.05-.2.2-1.06,1.51-.8,1.71-2.06l.05-.9h-1.36l.05.4c0,.4.1.5-.25.65-1.11.4-1.81,1.51-1.61,2.71.15,1.01.9,1.81,1.91,1.96,1.01.3,2.01-.3,2.36-1.26.2-.55,0-1.51.35-1.71.05,0,.05-.05.05-.1h0Z"/>
    <path class="st12" d="M129.13,54.99l-.25,1.06-.3,1.21-.3,1.31-.2.8c-.05.1-.1.2-.15.3l-.05.05-.55.4c-.1.1-.25.1-.35.1h-2.01c-.15,0-.25-.05-.35-.1l-.55-.4c-.1-.1-.2-.2-.25-.35l-.25-.95-.5-1.96-.35-1.46c-.05-.15,0-.3.05-.4v-.05l.5-1.01.15-.35c.1-.2.3-.35.55-.35h3.92c.25,0,.45.15.55.35l.65,1.41c0,.05.05.1.05.15,0,.05,0,.15,0,.25Z"/>
    <path d="M129.13,54.99l-.25,1.06-3.27-3.27h1.61l1.91,1.91v.3Z"/>
    <path d="M128.53,57.25l-.3,1.31-5.03-5.03.15-.35c.1-.2.3-.35.55-.35h.2l4.42,4.42Z"/>
    <path d="M127.82,59.66l-.05.05-.55.4c-.1.1-.25.1-.35.1h-.1l-3.77-3.77-.35-1.46c-.05-.15,0-.3.05-.4v-.05l5.13,5.13Z"/>
    <path d="M125.31,60.21h-.4c-.15,0-.25-.05-.35-.1l-.55-.4c-.1-.1-.2-.2-.25-.35l-.25-.95,1.81,1.81Z"/>
    <rect class="st3" x="201.69" y="-.84" width=".5" height="54.47"/>
    <rect class="st3" x="204.91" y="-.84" width=".5" height="54.47"/>
    <path d="M201.44,62.37h0c.35.1.6.35.75.6.2.6.75,1.06,1.41,1.16.65-.05,1.11-.6,1.06-1.21,0-.05,0-.15-.05-.2-.2-1.06-1.51-.8-1.71-2.01l-.05-.9h1.36l-.05.4c0,.4-.1.5.25.65,1.11.4,1.81,1.51,1.61,2.66-.15,1.01-.9,1.81-1.91,1.96-1.01.3-2.01-.25-2.31-1.26-.2-.55,0-1.51-.35-1.71-.05,0-.05-.05,0-.15h0Z"/>
    <path class="st12" d="M200.38,54.79l.25,1.06.3,1.16.3,1.31.2.8c.05.1.1.2.15.3l.05.05.55.4c.1.1.25.1.35.1h1.96c.15,0,.25-.05.35-.1l.55-.4c.1-.1.2-.2.25-.35l.25-.95.5-1.96.35-1.46c.05-.15,0-.3-.05-.4v-.05l-.5-1.01-.15-.35c-.1-.2-.3-.35-.55-.35h-3.87c-.25,0-.45.15-.55.35l-.65,1.41c0,.05-.05.1-.05.15-.05.15,0,.25,0,.3Z"/>
    <path d="M200.38,54.79l.25,1.06,3.22-3.22h-1.61l-1.91,1.91c0,.1.05.2.05.25Z"/>
    <path d="M200.94,57.05l.3,1.31,4.97-4.97-.15-.35c-.1-.2-.3-.35-.55-.35h-.2l-4.37,4.37Z"/>
    <path d="M201.64,59.46l.05.05.55.4c.1.1.25.1.35.1h.1l3.77-3.77.35-1.46c.05-.15,0-.3-.05-.4v-.05l-5.13,5.13Z"/>
    <path d="M204.15,60.01h.4c.15,0,.25-.05.35-.1l.55-.4c.1-.1.2-.2.25-.35l.25-.95-1.81,1.81Z"/>
    <g>
      <path class="st10" d="M223.75,94.79v-29.7c0-1.86-1.51-3.42-3.42-3.42h-108.44c-1.86,0-3.42,1.51-3.42,3.42v29.7h115.27Z"/>
      <path class="st13" d="M114.81,89.81h0c-.65,0-1.21-.55-1.21-1.21h0v-20.65c0-.65.55-1.21,1.21-1.21s1.21.55,1.21,1.21h0v20.65c0,.65-.5,1.21-1.21,1.21h0"/>
      <path class="st13" d="M120.49,89.81h0c-.65,0-1.21-.55-1.21-1.21h0v-20.65c0-.65.55-1.21,1.21-1.21s1.21.55,1.21,1.21h0v20.65c.05.65-.5,1.21-1.21,1.21h0"/>
      <path class="st13" d="M126.21,89.81h0c-.65,0-1.21-.55-1.21-1.21h0v-20.65c0-.65.55-1.21,1.21-1.21s1.21.55,1.21,1.21h0v20.65c0,.65-.55,1.21-1.21,1.21h0"/>
      <path class="st13" d="M131.89,89.81h0c-.65,0-1.21-.55-1.21-1.21h0v-20.65c0-.65.55-1.21,1.21-1.21s1.21.55,1.21,1.21v20.65c.05.65-.5,1.21-1.21,1.21"/>
      <path class="st13" d="M137.62,89.81h0c-.65,0-1.21-.55-1.21-1.21h0v-20.65c0-.65.55-1.21,1.21-1.21s1.21.55,1.21,1.21v20.65c0,.65-.55,1.21-1.21,1.21h0"/>
      <path class="st13" d="M143.3,89.81h0c-.65,0-1.21-.55-1.21-1.21h0v-20.65c0-.65.55-1.21,1.21-1.21h0c.65,0,1.21.55,1.21,1.21v20.65c0,.65-.5,1.21-1.21,1.21h0"/>
      <path class="st13" d="M149.03,89.81h0c-.65,0-1.21-.55-1.21-1.21h0v-20.65c0-.65.55-1.21,1.21-1.21s1.21.55,1.21,1.21v20.65c0,.65-.55,1.21-1.21,1.21h0"/>
      <path class="st13" d="M154.71,89.81h0c-.65,0-1.21-.55-1.21-1.21h0v-20.65c0-.65.55-1.21,1.21-1.21h0c.65,0,1.21.55,1.21,1.21v20.65c0,.65-.55,1.21-1.21,1.21h0"/>
      <path class="st13" d="M160.38,89.81h0c-.65,0-1.21-.55-1.21-1.21h0v-20.65c0-.65.55-1.21,1.21-1.21s1.21.55,1.21,1.21v20.65c.05.65-.5,1.21-1.21,1.21"/>
      <path class="st13" d="M166.11,89.81h0c-.65,0-1.21-.55-1.21-1.21h0v-20.65c0-.65.55-1.21,1.21-1.21h0c.65,0,1.21.55,1.21,1.21v20.65c0,.65-.55,1.21-1.21,1.21h0"/>
      <path class="st13" d="M171.79,89.81h0c-.65,0-1.21-.55-1.21-1.21h0v-20.65c0-.65.55-1.21,1.21-1.21s1.21.55,1.21,1.21h0v20.65c.05.65-.5,1.21-1.21,1.21h0"/>
      <path class="st13" d="M177.52,89.81h0c-.65,0-1.21-.55-1.21-1.21h0v-20.65c0-.65.55-1.21,1.21-1.21h0c.65,0,1.21.55,1.21,1.21v20.65c0,.65-.55,1.21-1.21,1.21h0"/>
      <path class="st13" d="M183.2,89.81h0c-.7,0-1.21-.55-1.21-1.21v-20.65c0-.65.55-1.21,1.21-1.21s1.21.55,1.21,1.21v20.65c0,.65-.5,1.21-1.21,1.21h0"/>
      <path class="st13" d="M188.93,89.81h0c-.65,0-1.21-.55-1.21-1.21h0v-20.65c0-.65.55-1.21,1.21-1.21s1.21.55,1.21,1.21v20.65c0,.65-.55,1.21-1.21,1.21h0"/>
      <path class="st13" d="M194.6,89.81h0c-.65,0-1.21-.55-1.21-1.21h0v-20.65c0-.65.55-1.21,1.21-1.21h0c.65,0,1.21.55,1.21,1.21v20.65c0,.65-.55,1.21-1.21,1.21h0"/>
      <path class="st13" d="M200.28,89.81h0c-.65,0-1.21-.55-1.21-1.21h0v-20.65c0-.65.55-1.21,1.21-1.21s1.21.55,1.21,1.21v20.65c.05.65-.5,1.21-1.21,1.21h0"/>
      <path class="st13" d="M206.01,89.81h0c-.65,0-1.21-.55-1.21-1.21h0v-20.65c0-.65.55-1.21,1.21-1.21s1.21.55,1.21,1.21h0v20.65c0,.65-.55,1.21-1.21,1.21h0"/>
      <path class="st13" d="M211.69,89.81h0c-.65,0-1.21-.55-1.21-1.21h0v-20.65c0-.65.55-1.21,1.21-1.21s1.21.55,1.21,1.21v20.65c.05.65-.5,1.21-1.21,1.21h0"/>
      <path class="st13" d="M217.42,89.81h0c-.65,0-1.21-.55-1.21-1.21h0v-20.65c0-.65.55-1.21,1.21-1.21h0c.65,0,1.21.55,1.21,1.21v20.65c0,.65-.55,1.21-1.21,1.21h0"/>
      <polygon points="150.23 81.77 150.23 74.74 152.14 74.74 154.51 80.01 156.82 74.74 158.63 74.74 158.63 81.77 157.07 81.77 157.07 77.7 155.31 81.77 153.65 81.77 151.84 77.7 151.84 81.77 150.23 81.77"/>
      <path d="M161.09,81.77h-1.81l3.12-7.04h2.21l3.12,7.04h-1.81l-.6-1.41h-3.62l-.6,1.41ZM164.81,79.06l-1.31-2.96-1.26,2.96h2.56Z"/>
      <polygon points="168.47 81.77 168.47 74.74 175.16 74.74 175.16 76.14 170.08 76.14 170.08 77.55 174.45 77.55 174.45 78.91 170.08 78.91 170.08 80.36 175.21 80.36 175.21 81.77 168.47 81.77"/>
      <path d="M176.51,81.77v-6.98h5.63c.6-.05,1.11.35,1.16.95v2.56c0,.55-.5,1.06-1.41,1.06h-.15l1.61,2.46h-1.81l-1.56-2.41h-1.86v2.41l-1.61-.05h0ZM178.12,77.95h3.52v-1.81h-3.52v1.81Z"/>
      <path d="M186.21,81.77h-.55c-.55.05-1.01-.3-1.06-.85v-1.11h1.61v.55h3.47v-1.46h-3.97c-.55.05-1.06-.35-1.11-.95v-2.16c0-.6.45-1.06,1.06-1.06h4.57c.55,0,1.06.45,1.06,1.01v.95h-1.61v-.55h-3.47v1.36h3.97c.6-.05,1.11.4,1.11,1.01v2.11c.05.55-.35,1.06-.9,1.11h-.2l-3.97.05Z"/>
      <polygon points="192.9 81.77 192.9 74.74 194.55 74.74 194.55 77.55 197.72 74.74 199.93 74.74 196.16 78 200.08 81.77 197.77 81.77 194.55 78.6 194.55 81.77 192.9 81.77"/>
      <path class="st1" d="M130.28,70.31h11.46c1.01,0,1.81.8,1.81,1.81h0v12.26c0,1.01-.8,1.81-1.81,1.81h-11.46c-1.01,0-1.81-.8-1.81-1.81v-12.31c0-.95.8-1.76,1.81-1.76Z"/>
      <polygon class="st3" points="138.43 77.85 141.39 74.13 141.39 74.08 137.07 76.19 136.01 71.52 136.01 71.52 134.96 76.19 130.64 74.08 130.64 74.13 133.6 77.85 129.28 79.91 129.33 79.91 134.05 79.91 133 84.58 133.05 84.58 136.01 80.87 138.98 84.58 138.98 84.58 137.92 79.91 142.7 79.91 142.7 79.91 138.43 77.85"/>
    </g>
  </g>
  <g>
    <path class="st10" d="M223.75,133.18v-29.7c0-1.86-1.51-3.42-3.42-3.42h-108.44c-1.86,0-3.42,1.51-3.42,3.42v29.7h115.27Z"/>
    <path class="st13" d="M114.81,128.15h0c-.65,0-1.21-.55-1.21-1.21h0v-20.65c0-.65.55-1.21,1.21-1.21s1.21.55,1.21,1.21h0v20.65c0,.65-.5,1.21-1.21,1.21h0"/>
    <path class="st13" d="M120.49,128.15h0c-.65,0-1.21-.55-1.21-1.21h0v-20.65c0-.65.55-1.21,1.21-1.21s1.21.55,1.21,1.21h0v20.65c.05.65-.5,1.21-1.21,1.21h0"/>
    <path class="st13" d="M126.21,128.15h0c-.65,0-1.21-.55-1.21-1.21h0v-20.65c0-.65.55-1.21,1.21-1.21s1.21.55,1.21,1.21h0v20.65c0,.65-.55,1.21-1.21,1.21h0"/>
    <path class="st13" d="M131.89,128.15h0c-.65,0-1.21-.55-1.21-1.21h0v-20.65c0-.65.55-1.21,1.21-1.21s1.21.55,1.21,1.21v20.65c.05.65-.5,1.21-1.21,1.21"/>
    <path class="st13" d="M137.62,128.15h0c-.65,0-1.21-.55-1.21-1.21h0v-20.65c0-.65.55-1.21,1.21-1.21s1.21.55,1.21,1.21v20.65c0,.65-.55,1.21-1.21,1.21h0"/>
    <path class="st13" d="M143.3,128.15h0c-.65,0-1.21-.55-1.21-1.21h0v-20.65c0-.65.55-1.21,1.21-1.21h0c.65,0,1.21.55,1.21,1.21v20.65c0,.65-.5,1.21-1.21,1.21h0"/>
    <path class="st13" d="M149.03,128.15h0c-.65,0-1.21-.55-1.21-1.21h0v-20.65c0-.65.55-1.21,1.21-1.21s1.21.55,1.21,1.21v20.65c0,.65-.55,1.21-1.21,1.21h0"/>
    <path class="st13" d="M154.71,128.15h0c-.65,0-1.21-.55-1.21-1.21h0v-20.65c0-.65.55-1.21,1.21-1.21h0c.65,0,1.21.55,1.21,1.21v20.65c0,.65-.55,1.21-1.21,1.21h0"/>
    <path class="st13" d="M160.38,128.15h0c-.65,0-1.21-.55-1.21-1.21h0v-20.65c0-.65.55-1.21,1.21-1.21s1.21.55,1.21,1.21v20.65c.05.65-.5,1.21-1.21,1.21"/>
    <path class="st13" d="M166.11,128.15h0c-.65,0-1.21-.55-1.21-1.21h0v-20.65c0-.65.55-1.21,1.21-1.21h0c.65,0,1.21.55,1.21,1.21v20.65c0,.65-.55,1.21-1.21,1.21h0"/>
    <path class="st13" d="M171.79,128.15h0c-.65,0-1.21-.55-1.21-1.21h0v-20.65c0-.65.55-1.21,1.21-1.21s1.21.55,1.21,1.21h0v20.65c.05.65-.5,1.21-1.21,1.21h0"/>
    <path class="st13" d="M177.52,128.15h0c-.65,0-1.21-.55-1.21-1.21h0v-20.65c0-.65.55-1.21,1.21-1.21h0c.65,0,1.21.55,1.21,1.21v20.65c0,.65-.55,1.21-1.21,1.21h0"/>
    <path class="st13" d="M183.2,128.15h0c-.7,0-1.21-.55-1.21-1.21v-20.65c0-.65.55-1.21,1.21-1.21s1.21.55,1.21,1.21v20.65c0,.65-.5,1.21-1.21,1.21h0"/>
    <path class="st13" d="M188.93,128.15h0c-.65,0-1.21-.55-1.21-1.21h0v-20.65c0-.65.55-1.21,1.21-1.21s1.21.55,1.21,1.21v20.65c0,.65-.55,1.21-1.21,1.21h0"/>
    <path class="st13" d="M194.6,128.15h0c-.65,0-1.21-.55-1.21-1.21h0v-20.65c0-.65.55-1.21,1.21-1.21h0c.65,0,1.21.55,1.21,1.21v20.65c0,.65-.55,1.21-1.21,1.21h0"/>
    <path class="st13" d="M200.28,128.15h0c-.65,0-1.21-.55-1.21-1.21h0v-20.65c0-.65.55-1.21,1.21-1.21s1.21.55,1.21,1.21v20.65c.05.65-.5,1.21-1.21,1.21h0"/>
    <path class="st13" d="M206.01,128.15h0c-.65,0-1.21-.55-1.21-1.21h0v-20.65c0-.65.55-1.21,1.21-1.21s1.21.55,1.21,1.21h0v20.65c0,.65-.55,1.21-1.21,1.21h0"/>
    <path class="st13" d="M211.69,128.15h0c-.65,0-1.21-.55-1.21-1.21h0v-20.65c0-.65.55-1.21,1.21-1.21s1.21.55,1.21,1.21v20.65c.05.65-.5,1.21-1.21,1.21h0"/>
    <path class="st13" d="M217.42,128.15h0c-.65,0-1.21-.55-1.21-1.21h0v-20.65c0-.65.55-1.21,1.21-1.21h0c.65,0,1.21.55,1.21,1.21v20.65c0,.65-.55,1.21-1.21,1.21h0"/>
    <polygon points="150.23 120.11 150.23 113.13 152.14 113.13 154.51 118.35 156.82 113.13 158.63 113.13 158.63 120.11 157.07 120.11 157.07 116.04 155.31 120.11 153.65 120.11 151.84 116.09 151.84 120.11 150.23 120.11"/>
    <path d="M161.09,120.11h-1.81l3.12-7.04h2.21l3.12,7.04h-1.81l-.6-1.41h-3.62l-.6,1.41ZM164.81,117.4l-1.31-2.96-1.26,2.96h2.56Z"/>
    <polygon points="168.47 120.11 168.47 113.13 175.16 113.13 175.16 114.53 170.08 114.53 170.08 115.89 174.45 115.89 174.45 117.3 170.08 117.3 170.08 118.75 175.21 118.75 175.21 120.11 168.47 120.11"/>
    <path d="M176.51,120.11v-6.98h5.63c.6-.05,1.11.35,1.16.95v2.56c0,.55-.5,1.06-1.41,1.06h-.15l1.61,2.46h-1.81l-1.56-2.41h-1.86v2.41l-1.61-.05h0ZM178.12,116.34h3.52v-1.81h-3.52v1.81Z"/>
    <path d="M186.21,120.11h-.55c-.55.05-1.01-.3-1.06-.85v-1.11h1.61v.55h3.47v-1.46h-3.97c-.55.05-1.06-.35-1.11-.95v-2.16c0-.6.45-1.06,1.06-1.06h4.57c.55,0,1.06.45,1.06,1.01v.95h-1.61v-.55h-3.47v1.36h3.97c.6-.05,1.11.4,1.11,1.01v2.11c.05.55-.35,1.06-.9,1.11h-.2l-3.97.05Z"/>
    <polygon points="192.9 120.11 192.9 113.13 194.55 113.13 194.55 115.94 197.72 113.13 199.93 113.13 196.16 116.39 200.08 120.11 197.77 120.11 194.55 116.95 194.55 120.11 192.9 120.11"/>
    <path class="st1" d="M130.28,108.65h11.46c1.01,0,1.81.8,1.81,1.81h0v12.31c0,1.01-.8,1.81-1.81,1.81h-11.46c-1.01,0-1.81-.8-1.81-1.81v-12.31c0-1.01.8-1.81,1.81-1.81Z"/>
    <polygon class="st3" points="138.43 116.19 141.39 112.47 141.39 112.47 137.07 114.53 136.01 109.86 136.01 109.86 134.96 114.53 130.64 112.47 130.64 112.47 133.6 116.19 129.28 118.3 129.33 118.3 134.05 118.3 133 122.98 133.05 122.98 136.01 119.21 138.98 122.98 138.98 122.98 137.92 118.3 142.7 118.3 142.7 118.3 138.43 116.19"/>
  </g>
  <g>
    <path class="st6" d="M75.26,60.31v-20.3h2.56c5.43,0,10.5-2.61,13.67-7.04l1.96-2.76h6.93l1.96,2.76c3.17,4.42,8.24,7.04,13.67,7.04h2.56v21.66c0,16.78-21.66,24.47-21.66,24.47,0,0-21.66-7.69-21.66-25.83Z"/>
    <path class="st4" d="M93.05,29.51h7.69l2.16,3.07c3.02,4.22,7.89,6.73,13.07,6.73h3.27v22.36c0,8.74-5.63,15.02-11.11,19.1-2.76,2.06-5.53,3.57-7.54,4.52-1.06.5-1.91.85-2.51,1.11-.3.1-.55.2-.7.3-.1.05-.15.05-.2.05h-.05l-.25-.65-.25.65h-.05c-.05,0-.1-.05-.2-.05-.15-.05-.4-.15-.7-.3-.6-.25-1.46-.65-2.51-1.16-2.06-1.01-4.82-2.56-7.59-4.72-5.48-4.27-11.11-10.9-11.11-20.3v-20.9h3.27c5.18,0,10.05-2.51,13.07-6.73l2.26-3.07ZM96.92,86.14l-.25.65.25.1.25-.1-.25-.65ZM96.92,85.44c.15-.05.4-.15.65-.25.6-.25,1.41-.6,2.41-1.11,2.01-.95,4.67-2.41,7.34-4.42,5.33-3.97,10.55-9.9,10.55-17.99v-20.95h-1.86c-5.63,0-10.95-2.71-14.22-7.34l-1.76-2.46h-6.28l-1.76,2.46c-3.27,4.57-8.59,7.34-14.22,7.34h-1.86v19.6c0,8.79,5.23,15.08,10.55,19.2,2.66,2.06,5.33,3.57,7.34,4.57,1.01.5,1.81.85,2.41,1.11.3.1.55.15.7.25Z"/>
    <path class="st9" d="M110.89,58.91c0,7.74-6.28,13.97-13.97,13.97s-13.97-6.28-13.97-13.97,6.28-13.97,13.97-13.97,13.97,6.23,13.97,13.97Z"/>
    <path class="st2" d="M105.76,54.08l-7.49,10.9c-.4.55-1.06.9-1.71.9h-4.17c-.7,0-1.36-.35-1.76-.95l-2.61-3.87,2.31-1.56,2.36,3.57h3.42l7.29-10.6,2.36,1.61Z"/>
  </g>
</svg>