<?xml version="1.0" encoding="UTF-8"?>
<svg id="Layer_1" xmlns="http://www.w3.org/2000/svg" xmlns:xlink="http://www.w3.org/1999/xlink" version="1.1" viewBox="0 0 300 168">
  <!-- Generator: Adobe Illustrator 29.3.1, SVG Export Plug-In . SVG Version: 2.1.0 Build 151)  -->
  <defs>
    <style>
      .st0 {
        fill: #a1d1e8;
      }

      .st1 {
        fill: #363636;
      }

      .st2 {
        fill: #c3e4f3;
      }

      .st3 {
        fill: #e2e2e2;
      }

      .st4 {
        fill: #d4d4d4;
      }

      .st5 {
        fill: #212121;
      }

      .st6 {
        fill: #ffccb4;
      }

      .st7 {
        fill: #fff;
      }

      .st8 {
        fill: #f27463;
      }

      .st9 {
        fill: #42b0d5;
      }

      .st10 {
        fill: #dca48c;
      }

      .st11 {
        fill: #8a8a8a;
      }

      .st12 {
        fill: #ededed;
      }

      .st13 {
        fill: #3098bb;
      }

      .st14 {
        fill: #1686bd;
      }
    </style>
  </defs>
  <path class="st7" d="M93.6,29.7c0-1.4-1-4-5.8-4s-6,2.5-6,4.2c-3.6,0-6,1.9-6.5,4.9h24.9c-.6-2.4-2-5-6.6-5Z"/>
  <g>
    <g>
      <rect class="st4" width="300" height="168"/>
      <rect class="st2" width="300" height="77.2"/>
      <rect class="st0" y="77.2" width="300" height="36.5"/>
      <g>
        <path class="st13" d="M206.2,36h7.9s0-1.1,0-1.1c0-1.4-1.1-2.4-2.4-2.4h-1.6s-39.7-14.4-39.7-14.4v-.7c0-.5-1.5-.5-1.5,0v.6s-31,14.5-31,14.5h-1s0,3.5,0,3.5h3v2.1s0,1.3,1.4,1.3h4.1s0-3.5,0-3.5h5v35c-1.5,0-2.4,1.2-2.6,2.3h-3.5v-3.2s0-.3-.3-.3h-3.7c-.3,0-.3.3-.3.3v3.2h-.8v-3.2s0-.3-.3-.3h-3.7c-.3,0-.3.3-.3.3v3.2h-.8v-3.2s0-.3-.3-.3h-3.7c-.3,0-.3.3-.3.3v3.2c-2.3,0,2.3,0-5.6,0-7.9,0-8.4,6.6-8.4,6.6h86s0-6.6-8.3-6.6h0c0-.6-.3-1.1-.8-1.3v-8.7c0-.8-.6-1.4-1.4-1.4h-12.7c-.8,0-1.4.6-1.4,1.4v8.7c-.5.2-.9.7-.9,1.4h-2.2c0-1.4-1.2-2.1-2.5-2.2v-35h32c0,.6.6.6.6.6v2.9c-.5,0-.7.6-.7,1h-.9c-.3,0-.3.3-.3.3v4.4s5.8,0,5.8,0v-4.3s0-.3-.4-.3h-.8c0-.6-.3-.9-.7-1v-2.9s.5,0,.5-.6M152.4,28.8h-2.4c-3,0-3.1,2.5-3.1,2.5v1.4h-7.9s29.6-13.9,29.6-13.9l-15.5,13.8v-3.1s0-.6-.7-.6M168.2,43.4h-15.1v-6.1s15.1,6.1,15.1,6.1ZM168.2,44.7v26.4h0c-1.5,0-2.4,1.1-2.7,2.3h-9.5c0-1.5-1.4-2.3-2.8-2.3v-26.4h15.2s0,0,0,0ZM168.3,42.2l-15-6h15v6ZM169,32.7h-15.3s15.3-13.6,15.3-13.6v13.6ZM184.2,65.1h.9v2.5h-.9v-2.5ZM179.2,72h0v-7.4h4c0,.5.5.5.5.5v2.5c-.4,0-.6.5-.6.8h-.8c-.3,0-.3.3-.3.3v1.4s5.2,0,5.2,0v-1.4s0-.3-.3-.3h-.8c0-.5-.3-.8-.6-.8v-2.5s.4,0,.4-.5h3.6v7.4c-.6.2-1,.7-1,1.4h-8.4c0-.6-.4-1.1-.9-1.3h0ZM170.5,32.7v-13.8s26.2,13.8,26.2,13.8h-26.2ZM205.3,39.6h-1.1v-2.8h1.1v2.8ZM197.4,32.7l-25.8-13.4,37.4,13.4h-11.7Z"/>
        <g>
          <polygon class="st11" points="38.2 63.6 38.2 50.5 32.5 50.5 29 63.6 38.2 63.6"/>
          <path class="st3" d="M123.8,81.7v-8.1c0-.5-.4-.9-.9-.9h-29.7c-.5,0-.9.4-.9.9v8.1h31.6-.1Z"/>
          <path class="st1" d="M91,81.7v-8.1c0-.5-.4-.9-.9-.9h-29.7c-.5,0-.9.4-.9.9v8.1h31.6-.1Z"/>
          <path class="st9" d="M123.8,71.7v-8.1c0-.5-.4-.9-.9-.9h-29.7c-.5,0-.9.4-.9.9v8.1h31.6-.1Z"/>
          <path class="st14" d="M91,71.7v-8.1c0-.5-.4-.9-.9-.9h-29.7c-.5,0-.9.4-.9.9v8.1h31.6-.1Z"/>
          <path class="st9" d="M143.5,93.6H30.4c-2.9,0-5.4-1.6-6.6-4.1l-6.2-13h33c1.4,0,2.6.5,3.5,1.5l4.5,4.6h60.2l10.5-6.5c.9-.5,2-.9,3-.9h21.2l-12.1,13.1c-.1,2.2.4,4.1,2.1,5.2"/>
          <rect class="st11" x="40.2" y="57.6" width="7.1" height="6"/>
          <path class="st11" d="M24.3,76.2v-12.4c0-.5.4-.9.9-.9h22.6c.5,0,.9.4.9.9v12.4h-24.5.1Z"/>
          <path class="st11" d="M40.2,56h8.7v1c0,.4-.2.6-.6.6h-8.1v-1.6Z"/>
          <polygon class="st9" points="29.9 60.3 38.2 60.3 38.2 53.1 31.8 53.1 29.9 60.3"/>
          <polygon class="st7" points="33.8 56.5 32.7 55.1 32.7 55.1 34.3 55.9 34.7 54.1 34.7 54.1 35.2 55.9 36.8 55.1 36.8 55.1 35.7 56.5 37.3 57.4 37.3 57.4 35.4 57.4 35.8 59.1 35.8 59.1 34.7 57.8 33.5 59.1 33.5 59.1 33.9 57.4 32.2 57.4 32.2 57.4 33.8 56.5"/>
        </g>
        <g>
          <polygon class="st3" points="104.1 68.6 104.1 66.7 104.7 66.7 105.3 68.2 106 66.7 106.5 66.7 106.5 68.6 106.1 68.6 106.1 67.5 105.5 68.6 105.1 68.6 104.6 67.5 104.6 68.6 104.1 68.6"/>
          <path class="st3" d="M107.2,68.6h-.5l.9-2h.6l.9,2h-.5l-.2-.4h-1l-.2.4h0ZM108.2,67.9l-.3-.9-.3.9h.7,0Z"/>
          <polygon class="st3" points="109.3 68.6 109.3 66.7 111.2 66.7 111.2 67.1 109.7 67.1 109.7 67.5 110.9 67.5 110.9 67.8 109.7 67.8 109.7 68.2 111.2 68.2 111.2 68.6 109.3 68.6"/>
          <path class="st3" d="M111.6,68.6v-2h1.6c.2,0,.3.1.3.3h0v.7c0,.2-.1.3-.4.3h0l.5.7h-.5l-.5-.7h-.5v.7h-.5ZM112,67.6h1v-.5h-1v.5h0Z"/>
          <path class="st3" d="M114.2,68.6h-.2c-.2,0-.3-.1-.3-.3v-.3h.5v.2h1v-.4h-1.1c-.2,0-.3-.1-.3-.3h0v-.6c0-.2.1-.3.3-.3h1.3c.2,0,.3.1.3.3h0v.2h-.5v-.2h-1v.4h1.1c.2,0,.3.1.3.3h0v.6c0,.2-.1.3-.2.3h-1.2,0Z"/>
          <polygon class="st3" points="116.1 68.6 116.1 66.7 116.6 66.7 116.6 67.5 117.5 66.7 118.1 66.7 117.1 67.6 118.2 68.6 117.5 68.6 116.6 67.8 116.6 68.6 116.1 68.6"/>
          <path class="st3" d="M101.7,65.4c.3,0,.5.2.5.5v3.4c0,.3-.2.5-.5.5h-3.2c-.3,0-.5-.2-.5-.5v-3.4c0-.3.2-.5.5-.5h3.2M101.7,65.3h-3.2c-.3,0-.6.3-.6.6v3.4c0,.3.3.6.6.6h3.2c.3,0,.6-.3.6-.6v-3.4c0-.3-.3-.6-.6-.6Z"/>
          <polygon class="st3" points="100.8 67.5 101.6 66.5 101.6 66.5 100.4 67.1 100.1 65.8 100.1 65.8 99.8 67.1 98.6 66.5 98.6 66.5 99.4 67.5 98.2 68.1 98.2 68.1 99.6 68.1 99.2 69.4 99.3 69.4 100.1 68.4 101 69.4 101 69.4 100.7 68.1 102 68.1 102 68.1 100.8 67.5"/>
        </g>
      </g>
      <path class="st8" d="M157.6,116.1v-23.2c0-1.4-1.3-2.7-2.7-2.7h-84.9c-1.4,0-2.7,1.3-2.7,2.7v23.2h90.2Z"/>
      <g>
        <path class="st9" d="M157.6,143.8v-23.2c0-1.4-1.3-2.7-2.7-2.7h-84.9c-1.4,0-2.7,1.3-2.7,2.7v23.2h90.2Z"/>
        <g>
          <polygon class="st3" points="101.7 133.4 101.7 128.1 103.3 128.1 105 132.2 106.9 128.1 108.1 128.1 108.1 133.4 107 133.4 107 130.3 105.6 133.4 104.4 133.4 103 130.3 103 133.4 101.7 133.4"/>
          <path class="st3" d="M110.2,133.4h-1.4l2.4-5.5h1.7l2.4,5.5h-1.4l-.5-1.1h-2.8l-.5,1.1h.2ZM113,131.4l-.9-2.4-.9,2.4h2-.2Z"/>
          <polygon class="st3" points="115.8 133.4 115.8 128.1 121 128.1 121 129.2 117.1 129.2 117.1 130.3 120.4 130.3 120.4 131.2 117.1 131.2 117.1 132.3 121 132.3 121 133.4 115.8 133.4"/>
          <path class="st3" d="M122.1,133.4v-5.5h4.4c.5,0,.9.3.9.8h0v1.9c0,.5-.3.8-1.1.8h0l1.3,1.9h-1.4l-1.3-1.9h-1.4v1.9h-1.3l-.2.2ZM123.4,130.6h2.7v-1.4h-2.7v1.4h0Z"/>
          <path class="st3" d="M129.5,133.4h-.5c-.6,0-.8-.3-.8-.8v-.8h1.3v.5h2.7v-1.1h-3.1c-.5,0-.8-.3-.8-.8h0v-1.6c0-.5.3-.8.8-.8h3.5c.5,0,.8.3.8.8h0v.6h-1.3v-.5h-2.7v1.1h3c.5,0,.8.3.9.8h0v1.6c0,.5-.3.8-.6.8h-3.3l.2.2Z"/>
          <polygon class="st3" points="134.7 133.4 134.7 128.1 135.9 128.1 135.9 130.3 138.4 128.1 140.1 128.1 137.2 130.6 140.3 133.4 138.4 133.4 135.9 131.1 135.9 133.4 134.7 133.4"/>
          <path class="st3" d="M95.1,124.6c.8,0,1.4.6,1.4,1.4v9.4c0,.8-.6,1.4-1.4,1.4h-8.8c-.8,0-1.4-.6-1.4-1.4v-9.4c0-.8.6-1.4,1.4-1.4h8.8M95.1,124.3h-8.8c-.9,0-1.7.8-1.7,1.7v9.4c0,.9.8,1.7,1.7,1.7h8.8c.9,0,1.7-.8,1.7-1.7v-9.4c0-.9-.8-1.7-1.7-1.7Z"/>
          <polygon class="st3" points="92.6 130.5 95 127.6 95 127.6 91.5 129.2 90.7 125.6 90.7 125.6 89.9 129.2 86.6 127.6 86.6 127.6 88.8 130.5 85.5 132 85.5 132 89.3 132 88.4 135.6 88.5 135.6 90.7 132.8 93.1 135.6 93.1 135.6 92.3 132 95.9 132 95.9 132 92.6 130.5"/>
        </g>
      </g>
      <path class="st11" d="M249,116.1v-23.2c0-1.4-1.3-2.7-2.7-2.7h-84.9c-1.4,0-2.7,1.3-2.7,2.7v23.2h90.2Z"/>
      <path class="st14" d="M249,143.8v-23.2c0-1.4-1.3-2.7-2.7-2.7h-84.9c-1.4,0-2.7,1.3-2.7,2.7v23.2h90.2Z"/>
      <g>
        <g>
          <g>
            <path d="M220.1,54.6c0-11.3,4.5-15.2,17-15.2s16,4.8,16,17.2-4.3,11.3-4.3,11.3c0-1.6-.4-9.7-.4-9.7l-22.8-4.7s-.3,13.9-1,13.5c-2.2-1.3-4.4-6.9-4.4-12.3"/>
            <path class="st6" d="M223.9,49.2v13.5h-.9c-1.1,0-2,.9-2,3.3s.7,3.7,2.6,3.7v2.8c0,4.7,3.2,7,3.2,7v7.8l9.7,9.6,9.7-12.9v-4.1s3.1-2.6,3.1-6.6-.1-1.4-.1-2.6c2.2,0,2.5-1.1,2.5-4.2s-1.1-3.6-1.8-3.6h-.7v-6.7l-25.5-6.8h0Z"/>
            <path d="M230.9,65h-1c-.4,0-.6-.3-.6-.6v-1c0-.4.3-.6.6-.6h1c.4,0,.6.3.6.6v1c0,.3-.3.6-.6.6"/>
            <path d="M242.9,65h-1c-.4,0-.6-.3-.6-.6v-1c0-.4.3-.6.6-.6h1c.4,0,.6.3.6.6v1c0,.3-.3.6-.6.6"/>
            <path class="st10" d="M246.4,86.5s-5.9,4.9-6,5.2c-7,0-13.5-12.3-13.5-12.3,7.6,6.7,11.9,7.7,19.4.3v6.8h0Z"/>
          </g>
          <path class="st7" d="M240.9,76.9h-7.6c0,1.8,7.6,1.9,7.6,0"/>
        </g>
        <g>
          <path class="st5" d="M267.6,162.9l3.1-3,15.6-13.1c.7-3.1.6-6.2-.4-9.3l-12.4-36.6c-1.4-4.3-4.5-7.8-8.6-9.7l-15.4-7.5-2.9-2.1.4,5.6-10.2,13.4-9.6-10.8-.8-7.9-2.5,1.6-19,8.4c-4,1.7-6.7,5.4-7.3,9.6l-3.1,21.9,5.7,1.1,7.9,36.8,59.4,1.4h.2ZM264.6,159.9v-33.3l6.2,16.6-6.2,16.7Z"/>
          <path class="st9" d="M230.4,144.3l16,3.8,3.1-64.2-3.2-2.5s-1,10-9.6,10-9.9-10.7-9.9-10.7l-2.9,3.1,6.5,60.6h0Z"/>
          <path class="st5" d="M194.8,121.4l-1.5,26.1c-.1,1.9.3,3.8,1.3,5.4l11.4,10.4,7.9-6.7-3.5-10.1,2.6-26.6-18.2,1.5h0Z"/>
        </g>
        <path class="st12" d="M265.7,167.9h-55c-2.5,0-4.6-2.1-4.6-4.6v-38c0-2.5,2.1-4.6,4.6-4.6h55c2.5,0,4.6,2.1,4.6,4.6v38c0,2.5-2.1,4.6-4.6,4.6Z"/>
      </g>
    </g>
    <path class="st7" d="M277.9,31.3h-35.4c0-1.7.9-3.3,3.4-3.3h1.3c0-1.7,1.8-3.8,6.4-3.8h4.8c0-2.3,1.1-4,5.9-4s6.8,3.2,6.8,6.7c6.9,0,6.9,4.5,6.9,4.5Z"/>
  </g>
  <path class="st7" d="M93.6,34.4h-39.4c0-1.9,1-3.7,3.8-3.7h1.4c0-1.9,2-4.3,7.1-4.3h5.3c0-2.6,1.3-4.4,6.6-4.4s7.5,3.6,7.5,7.4c7.7,0,7.6,5,7.6,5Z"/>
</svg>