<?xml version="1.0" encoding="UTF-8"?>
<svg xmlns="http://www.w3.org/2000/svg" xmlns:xlink="http://www.w3.org/1999/xlink" version="1.1" viewBox="0 0 300 168">
  <!-- Generator: Adobe Illustrator 29.2.1, SVG Export Plug-In . SVG Version: 2.1.0 Build 116)  -->
  <defs>
    <style>
      .st0, .st1, .st2, .st3 {
        fill: none;
      }

      .st4 {
        fill: #1981b3;
      }

      .st5 {
        fill: #6b0d05;
      }

      .st6 {
        fill: #61aba3;
      }

      .st7 {
        opacity: .2;
      }

      .st7, .st8, .st9 {
        isolation: isolate;
      }

      .st10 {
        fill: #d0d1d0;
      }

      .st11 {
        fill: #8dabcb;
      }

      .st12 {
        fill: #545454;
      }

      .st13 {
        fill: #893d37;
      }

      .st14 {
        fill: #d2ac98;
      }

      .st15 {
        fill: #a6806c;
      }

      .st8 {
        fill: #eaf6fc;
        mix-blend-mode: multiply;
        opacity: .6;
      }

      .st16 {
        fill: #4172a8;
      }

      .st17 {
        fill: #00786b;
      }

      .st18 {
        fill: #6ec3bb;
        fill-rule: evenodd;
      }

      .st19 {
        clip-path: url(#clippath-1);
      }

      .st20 {
        fill: #fc9a8b;
      }

      .st21 {
        fill: #00243d;
      }

      .st22 {
        fill: #fff;
      }

      .st1 {
        stroke: #a3a3a3;
      }

      .st1, .st2 {
        stroke-miterlimit: 10;
        stroke-width: .3px;
      }

      .st23 {
        fill: #17293f;
      }

      .st24 {
        fill: #6b4a3e;
      }

      .st2, .st3 {
        stroke: #fff;
      }

      .st25 {
        fill: #666;
      }

      .st26 {
        fill: #0073ab;
      }

      .st27 {
        fill: #678eb9;
      }

      .st28 {
        fill: #abd1e5;
      }

      .st29 {
        fill: #f7f7f7;
      }

      .st30 {
        fill: #fa6a55;
      }

      .st31 {
        fill: #f1cbb4;
      }

      .st3 {
        stroke-linecap: round;
        stroke-linejoin: round;
      }

      .st32 {
        fill: #b8e1dd;
      }

      .st33 {
        fill: #b5e0f5;
      }

      .st34 {
        fill: #ababab;
      }

      .st35 {
        fill: #fb8877;
      }

      .st36 {
        fill: #ededed;
      }

      .st37 {
        fill: #787878;
      }

      .st38 {
        fill: #335064;
      }

      .st39 {
        fill: #cda38c;
      }

      .st40 {
        fill: #555;
      }

      .st41 {
        clip-path: url(#clippath);
      }

      .st42 {
        fill: #f07508;
      }

      .st43 {
        fill: #cfcfcf;
      }

      .st44 {
        fill: #7ea0c4;
      }
    </style>
    <clipPath id="clippath">
      <rect class="st0" width="300" height="168"/>
    </clipPath>
    <clipPath id="clippath-1">
      <polygon class="st0" points="179.31 66.27 181.42 68.55 178.2 70.49 175.31 67.6 179.31 66.27"/>
    </clipPath>
  </defs>
  <g class="st9">
    <g id="Layer_1">
      <g class="st41">
        <g>
          <g>
            <rect class="st8" x="-92.89" y="-36.03" width="400.51" height="225.27"/>
            <polygon class="st8" points="290.28 36.08 290.28 18.96 273.99 18.96 273.99 59.82 252.97 59.82 252.97 49.2 236.91 49.2 236.91 58.71 221.62 58.71 221.62 30.3 209.39 30.3 209.39 53.2 188.09 53.2 188.09 36.08 173.86 36.08 173.86 44.03 160.07 44.03 160.07 11.45 137.22 11.45 137.22 29.85 108.81 29.85 108.81 45.87 94.58 45.87 94.58 59.6 73.96 59.6 73.96 33.02 60.56 33.02 60.56 45.87 29.7 45.87 29.7 17.12 4.85 17.12 4.85 74.61 -8.05 74.61 -8.05 32.47 -31.9 32.47 -31.9 60.71 -50.08 60.71 -50.08 36.64 -64.14 36.64 -64.14 44.03 -75.1 44.03 -75.1 -2.45 -92.89 -2.45 -92.89 108.52 307.46 108.52 307.46 36.08 290.28 36.08"/>
            <rect class="st36" x="-92.89" y="108.52" width="400.51" height="80.72"/>
            <g>
              <g>
                <rect class="st38" x="132.28" y="112.97" width="4.61" height="34.97"/>
                <path class="st38" d="M146.06,116.75v-1.56h-22.91v1.56h0c0,.83.67,1.56,1.56,1.56h19.85c.83,0,1.56-.67,1.56-1.56h0"/>
                <rect class="st21" x="133" y="95.23" width="3.22" height="15.96"/>
                <path class="st35" d="M116.49,95.62l4.17-24.85c0-1.61,1.22-2.89,2.78-2.89h22.57c1.5,0,2.78,1.28,2.78,2.89l4.17,24.85"/>
                <path class="st35" d="M113.32,112.97v3.34h42.53v-3.34h0c0-1.83-1.5-3.34-3.34-3.34h-35.86c-1.83,0-3.34,1.5-3.34,3.34h0"/>
                <path class="st38" d="M134.61,145.94l-15.96,4.56c-.95.28-1.56,1.11-1.56,2.11v1.39l17.57-2.45,17.57,2.45v-1.39c0-.95-.67-1.83-1.56-2.11l-15.96-4.56h-.11Z"/>
              </g>
              <path class="st17" d="M139.11,66.83l7.51,3.72c2,1,3.45,2.89,3.89,5.11l3.17,16.01c.22,1.06-.11,2.11-.83,2.89l-5,5.17-2.11-1.95-19.35.5-.17.95-7.67-1.39c-1.45-.28-2.39-1.61-2.17-3.06l3-19.07c.33-1.95,1.56-3.67,3.34-4.56l8.78-4.28h7.67l-.06-.06Z"/>
              <path class="st26" d="M143.06,111.69l-16.12,2.61c-3.06,0-5.39-2.72-5-5.73l1.22-8.73h24.57l-4.67,11.9v-.06Z"/>
              <path class="st26" d="M144.06,114.3h-3.95l7.62-14.51.89,9.51c.28,2.67-1.83,5-4.56,5Z"/>
              <path class="st42" d="M120.27,137.77l-7.23-1.61c-.89-.22-1.28-1.28-.72-2l5.34-6.62,4.11,6.89-1.5,3.28h0v.06Z"/>
              <polygon class="st24" points="125.94 125.48 121.82 134.49 113.6 132.65 121.55 122.75 125.94 125.48"/>
              <path class="st42" d="M142.73,154.05h7.06c1.11,0,1.83-1.11,1.33-2.11l-3.67-7.23-6.17,2.56,1.45,6.73v.06Z"/>
              <path class="st4" d="M137.45,141.93l7.12-2.95-9.51-30.74c-.95-3.11-4.39-4.67-7.34-3.45h0c-2.78,1.17-4.11,4.39-2.95,7.23l12.73,29.97h0l-.06-.06Z"/>
              <path class="st24" d="M144.51,138.99l-4.61,1.95,1.95,8.9s1.89.61,3.89.44,3.56-1.89,3.56-1.89l-4.78-9.4h0Z"/>
              <path class="st42" d="M121.82,134.49s-5.17-1-6.28-4.23l-2.45,3,8.67,1.22h.06Z"/>
              <path class="st4" d="M126.33,128.37l-5.45-5.39,22.63-24.24c1.5-1.67,4.11-1.78,5.73-.17l2.17,2.17c1.67,1.67,1.56,4.34-.17,5.89l-24.96,21.74h.06Z"/>
              <g>
                <g>
                  <path d="M145.4,54.09c.11-2.89-.22-4.95-1.5-6.34-1.39-1.56-3.84-2.28-7.95-2.45-6.67-.22-9.12,1.45-9.9,5.67-.11.72-.22,1.56-.22,2.5-.06,2.22.11,4,.83,5.34.22.39.5.78.78,1.11h0c1.39,1.45,3.84,2.17,7.84,2.28,7.89.22,9.9-2.17,10.12-8.12h0Z"/>
                  <path d="M128.27,60.1c0-.33,0-.56-.17-.72s-.44-.22-.89-.28c-.72,0-1,.17-1.11.61v.28c0,.22,0,.44.11.56,0,0,0,.11.11.11h0c.17.17.44.22.83.22.89,0,1.11-.22,1.11-.89h0v.11Z"/>
                  <path d="M127.27,58.54c0-.33,0-.56-.17-.72s-.44-.22-.89-.28c-.72,0-1,.17-1.11.61v.28c0,.22,0,.44.11.56,0,0,0,.11.11.11h0c.17.17.44.22.83.22.89,0,1.11-.22,1.11-.89h0v.11Z"/>
                  <path d="M130.33,61.38c-.22-.22-.39-.39-.56-.39-.22,0-.5.11-.83.44-.56.5-.61.83-.39,1.22,0,.06.11.17.17.22.17.17.28.33.44.39h.17c.22,0,.44-.11.78-.44.67-.61.67-.95.22-1.45h0Z"/>
                  <path d="M129.33,60.6c-.17-.28-.28-.44-.5-.5s-.5,0-.89.28c-.61.39-.78.72-.56,1.17,0,.06.06.17.11.22.11.22.22.33.39.44h.11c.22,0,.5,0,.83-.28.72-.5.78-.83.44-1.39l.06.06Z"/>
                  <path d="M126.72,56.99c0-.33,0-.56-.17-.72s-.44-.22-.89-.28c-.72,0-1,.17-1.11.61v.28c0,.22,0,.44.11.56,0,0,0,.11.11.11h0c.17.17.44.22.83.22.89,0,1.11-.22,1.11-.89h0v.11Z"/>
                  <path d="M126.6,55.32c0-.33,0-.56-.17-.72s-.44-.22-.89-.28c-.72,0-1,.17-1.11.61v.28c0,.22,0,.44.11.56,0,0,0,.11.11.11h0c.17.17.44.22.83.22.89,0,1.11-.22,1.11-.89h0v.11Z"/>
                  <path d="M126.77,53.65c0-.33,0-.56-.17-.72s-.44-.22-.89-.28c-.72,0-1,.17-1.11.61v.28c0,.22,0,.44.11.56,0,0,0,.11.11.11h0c.17.17.44.22.83.22.89,0,1.11-.22,1.11-.89h0v.11Z"/>
                  <path d="M127.22,52.04c.06-.33.06-.56,0-.72-.11-.22-.33-.33-.78-.44-.72-.17-1,0-1.17.39,0,.06-.06.17-.06.28-.06.22-.06.44,0,.61,0,0,0,.11.06.11h0c.11.17.33.33.78.44.83.22,1.11,0,1.28-.67h-.11Z"/>
                  <path d="M127.83,50.42c.11-.28.17-.5.11-.72-.06-.22-.28-.39-.72-.56-.67-.28-1-.22-1.22.22,0,.06-.06.17-.11.22-.11.22-.11.44-.11.61v.17h0c.11.22.33.39.72.56.78.33,1.06.17,1.33-.44v-.06Z"/>
                  <path d="M128.66,48.92c.17-.28.22-.5.17-.72,0-.22-.28-.44-.61-.67-.61-.39-.95-.33-1.22,0,0,.06-.11.17-.17.22-.11.22-.17.39-.17.56v.17h0c.06.22.28.39.61.61.72.44,1.06.28,1.33-.28h0l.06.11Z"/>
                  <path d="M129.66,47.92c.22-.22.33-.44.33-.67s-.11-.5-.39-.83c-.5-.56-.78-.61-1.17-.33-.06,0-.11.11-.22.17-.17.17-.28.33-.33.5v.17h0c0,.22.11.5.39.83.56.67.89.61,1.33.11h0l.06.06Z"/>
                  <path d="M130.83,47.14c.28-.17.44-.28.56-.5s0-.5-.11-.95c-.28-.67-.56-.83-1-.67-.06,0-.17.06-.22.11-.22.11-.39.22-.44.39,0,0,0,.11-.06.17h0c-.06.22,0,.5.11.95.33.83.67.89,1.22.56h0l-.06-.06Z"/>
                  <path d="M131.83,46.59c.28,0,.5,0,.72-.11.17-.17.33-.39.44-.89.17-.72,0-1.06-.39-1.17h-.83s-.11,0-.11.06h0c-.17.17-.28.39-.39.89-.17.89,0,1.11.67,1.22h-.11Z"/>
                  <path d="M133.5,46.26c.28,0,.5,0,.72-.11.17-.17.33-.39.44-.89.17-.72,0-1.06-.39-1.17h-.83s-.11,0-.11.06h0c-.17.17-.28.39-.39.89-.17.89,0,1.11.67,1.22h-.11Z"/>
                  <path d="M135.06,45.75c.28,0,.5,0,.72-.11.17-.17.33-.39.44-.89.17-.72,0-1.06-.39-1.17h-.83s-.11,0-.11.06h0c-.17.17-.28.39-.39.89-.17.89,0,1.11.67,1.22h-.11Z"/>
                  <path d="M136.67,45.81c.28,0,.5,0,.72-.11.17-.17.33-.39.44-.89.17-.72,0-1.06-.39-1.17h-.83s-.11,0-.11.06h0c-.17.17-.28.39-.39.89-.17.89,0,1.11.67,1.22h-.11Z"/>
                  <path d="M138.22,46.14c.28,0,.5,0,.72-.11.17-.17.33-.39.44-.89.17-.72,0-1.06-.39-1.17h-.83s-.11,0-.11.06h0c-.17.17-.28.39-.39.89-.17.89,0,1.11.67,1.22h-.11Z"/>
                  <path d="M139.67,46.7c.28.11.5.11.72,0s.39-.33.56-.78c.28-.72.22-1-.17-1.22-.06,0-.17-.06-.22-.11-.22-.06-.39-.11-.56-.06h-.17c-.22.11-.39.33-.56.78-.33.83-.22,1.11.39,1.33h0v.06Z"/>
                  <path d="M141.17,47.48c.28.17.5.22.67.17.22-.06.44-.28.67-.67.39-.67.39-1,0-1.28-.06,0-.11-.11-.22-.17-.22-.11-.39-.17-.56-.17h-.17c-.22.06-.44.28-.67.67-.5.78-.39,1.11.17,1.39h0l.11.06Z"/>
                  <path d="M142.39,48.48c.22.17.44.28.67.22.22,0,.44-.22.78-.61.44-.61.5-.95.17-1.28-.06,0-.11-.11-.22-.17-.17-.11-.33-.22-.5-.22h-.17c-.22,0-.44.22-.72.61-.56.72-.5,1.06,0,1.39h0v.06Z"/>
                  <path d="M143.23,49.54c.17.22.33.39.56.44.22,0,.5-.06.89-.33.61-.44.72-.78.5-1.17,0-.06-.11-.17-.17-.22-.11-.17-.28-.33-.44-.39h-.17c-.22,0-.5.11-.83.33-.72.56-.78.89-.39,1.39l.06-.06Z"/>
                  <path d="M143.73,50.81c.11.28.22.5.39.61.22.11.5.11.95,0,.72-.22.89-.5.83-.95,0-.06,0-.17-.06-.28-.06-.22-.17-.39-.28-.5,0,0-.06-.06-.11-.06h0c-.22-.11-.5-.06-.89.06-.83.28-.95.61-.78,1.22h0l-.06-.11Z"/>
                  <path d="M143.89,52.37c.11.28.22.5.39.56.22.11.5.06.95-.11.72-.28.89-.56.83-1,0-.06,0-.17-.06-.28-.06-.22-.17-.39-.28-.5,0,0-.06-.06-.11-.06h0c-.22-.11-.5,0-.89.11-.83.33-.95.61-.72,1.22h0l-.11.06Z"/>
                  <path d="M144.06,53.98c0,.33.11.5.28.67.17.17.44.17.89.11.72-.11.95-.33,1-.78v-.28c0-.22-.06-.44-.17-.56l-.11-.11h0c-.17-.11-.44-.17-.89-.11-.89.11-1.06.44-.95,1.06h-.06Z"/>
                  <path d="M144.01,55.76c0,.33,0,.56.17.67.17.17.44.22.89.28.72,0,1-.17,1.06-.67v-.28c0-.22,0-.44-.11-.56,0,0,0-.06-.11-.11h0c-.17-.17-.44-.22-.89-.22-.89,0-1.06.28-1.11.89h.11Z"/>
                  <path d="M143.73,57.37c0,.33,0,.56.11.72s.39.28.83.33c.72.11,1,0,1.11-.5v-.89s0-.11-.06-.11h0c-.11-.17-.39-.28-.83-.33-.83-.11-1.11.11-1.17.78h0Z"/>
                  <path d="M143.17,58.71c-.11.28-.17.5-.11.72.06.22.28.39.67.61.67.33.95.28,1.22-.17,0-.06.11-.17.11-.22.11-.22.17-.39.11-.61v-.17h0c-.06-.22-.28-.39-.67-.56-.78-.39-1.06-.22-1.33.39h0Z"/>
                  <path d="M142.28,59.82c-.22.22-.33.44-.33.67s.11.5.44.83c.5.5.83.56,1.17.28.06,0,.11-.11.17-.17.17-.17.28-.33.33-.5v-.17h0c0-.22-.17-.5-.44-.78-.61-.61-.95-.56-1.39-.06l.06-.11Z"/>
                  <path d="M141.17,60.82c-.22.17-.39.39-.44.56,0,.22.06.5.33.89.44.61.72.72,1.11.44.06,0,.17-.11.22-.17.17-.17.33-.28.39-.44v-.17h0c0-.22-.06-.5-.33-.83-.5-.72-.83-.72-1.33-.33h0l.06.06Z"/>
                  <path d="M139.89,61.38c-.28.11-.5.22-.61.39-.11.22-.11.5,0,.95.22.72.44.89.89.83.06,0,.17,0,.28-.06.22-.06.39-.17.5-.28,0,0,.06-.06.06-.11h0c.11-.22.11-.5,0-.89-.22-.83-.56-.95-1.17-.72h0l.06-.11Z"/>
                </g>
                <g>
                  <path d="M127.55,55.04c0-5.89,2.17-7.56,8.12-7.56s7.62,2.28,7.62,7.67-2.34,7.89-6.89,7.89h-2.39c-4,0-6.45-1.06-6.45-8.01h0Z"/>
                  <path class="st24" d="M141.45,52.48v4h.5c.33,0,.67.33.61.67,0,1.5.39,3.06-1.06,3v1.28c0,2.17-1.83,3.61-1.83,3.61v2.34l-4.11,12.51-4.17-13.12v-1.5s-1.78-1.72-1.78-3.5,0-.67,0-1.22c-.89,0-1.11-.67-1.11-1.56v-1.33c0-.83.44-.83.67-.83h.44v-2.34h0c2.11,1.39,4.5,1,6.17-.28,1.06-.83,2.56-1.72,5.67-1.72Z"/>
                  <g>
                    <path d="M133.17,58.76h-.44c-.17,0-.33-.11-.33-.28v-.44c0-.17.11-.28.33-.28h.44c.17,0,.28.11.28.28v.44c0,.17-.11.28-.28.28"/>
                    <path d="M138.39,58.76h-.44c-.17,0-.28-.11-.28-.28v-.44c0-.17.11-.28.28-.28h.44c.17,0,.28.11.28.28v.44c0,.17-.11.28-.28.28"/>
                  </g>
                  <path class="st22" d="M137.06,63.05h-2.89c0,.67,2.89.72,2.89,0h0Z"/>
                  <path class="st7" d="M139.73,65.1v2l-1.06,3.45c-5.45,0-7.28-5.17-7.28-5.17,2.67,2.39,4.89,2.78,8.28-.28"/>
                </g>
                <path class="st43" d="M139.73,67.1l.39,5.78c.17,2.11-.78,4.17-2.45,5.5l-2.06,1.56-2-1.67c-1.5-1.28-2.34-3.17-2.28-5.11l.11-6.34,4.17,13.12,4.17-12.84h-.06Z"/>
              </g>
            </g>
            <g>
              <path class="st43" d="M183.65,99.02H23.31l-7.23,60.04h3.17s12.01-45.03,14.12-51.87c.44-1.5,1.28-2.5,3.39-2.5h133.15c2.17,0,2.89.89,3.39,2.5,2.17,6.84,13.51,51.87,13.51,51.87h3.17l-6.39-60.04h.06Z"/>
              <path class="st12" d="M188.59,96.51c0,1.78-.44,2.72-4.39,2.72H22.92c-3.95,0-4.61-.17-4.61-2.72h170.29Z"/>
            </g>
            <g>
              <path class="st34" d="M148.23,94.01c0,.95-.95,1.72-2.28,1.72h-20.51c-1.33,0-2.28-.78-2.28-1.72v-14.01c0-.95.95-1.72,2.28-1.72h20.51c1.33,0,2.28.78,2.28,1.72v14.01Z"/>
              <path class="st43" d="M147.68,96.12c0,.17-.17.39-.39.39h-23.02c-.17,0-.39-.17-.39-.39h0c0-.17.17-.39.39-.39h23.02c.17,0,.39.17.39.39h0Z"/>
              <path class="st43" d="M135.78,85.01h0c-.95,0-1.72.78-1.72,1.89s.78,1.72,1.72,1.72,1.89-.78,1.89-1.72h0v-.17c-.95,0-1.72-.78-1.89-1.72h0Z"/>
            </g>
            <g>
              <g>
                <rect class="st20" x="158.41" y="90.51" width="25.85" height="2.78"/>
                <line class="st2" x1="158.41" y1="91.95" x2="167.63" y2="91.95"/>
              </g>
              <g>
                <rect class="st20" x="157.46" y="84.17" width="25.85" height="2.78"/>
                <line class="st2" x1="157.46" y1="85.56" x2="167.02" y2="85.56"/>
              </g>
              <g>
                <rect class="st37" x="156.57" y="87.34" width="25.85" height="2.78"/>
                <line class="st1" x1="176.03" y1="88.73" x2="182.42" y2="88.73"/>
              </g>
              <g>
                <rect class="st37" x="157.18" y="93.73" width="25.85" height="2.78"/>
                <line class="st1" x1="175.97" y1="95.12" x2="182.98" y2="95.12"/>
              </g>
            </g>
            <g>
              <path class="st21" d="M89.41,96.51h19.29v-4.73h-19.29c-.44,0-.78.33-.78.78v3.17c0,.44.33.78.78.78h0Z"/>
              <rect class="st29" x="90.91" y="92.79" width="17.85" height="2.78"/>
              <path class="st30" d="M89.41,87.06h19.29v-4.73h-19.29c-.44,0-.78.33-.78.78v3.17c0,.44.33.78.78.78h0Z"/>
              <rect class="st29" x="90.91" y="83.45" width="17.85" height="2.45"/>
              <path class="st6" d="M85.13,91.79h19.29c.44,0,.78-.33.78-.78v-3.17c0-.44-.33-.78-.78-.78h-19.29v4.73h0Z"/>
              <rect class="st29" x="85.13" y="88.34" width="17.85" height="2.17"/>
            </g>
            <g>
              <rect class="st33" x="120.32" y="14.45" width="27.85" height="21.63" rx="2.17" ry="2.17"/>
              <path class="st10" d="M120.32,17.23v-.95c0-1.06.83-1.89,1.89-1.89h24.13c1.06,0,1.89.83,1.89,1.89v.95"/>
              <g>
                <rect class="st22" x="126.99" y="19.24" width="8.56" height=".33"/>
                <rect class="st22" x="126.99" y="20.13" width="8.84" height=".33"/>
                <rect class="st22" x="126.99" y="22.02" width="6.95" height=".33"/>
                <rect class="st22" x="126.99" y="21.07" width="5.06" height=".33"/>
              </g>
              <g>
                <path class="st22" d="M123.05,19.68c0-.56.17-.72.56-.72s.56.17.56.72-.17.72-.56.72-.56-.17-.56-.72Z"/>
                <path class="st22" d="M122.27,22.35c0-1.39.39-1.72,1.39-1.72s1.39.33,1.39,1.72h-2.78Z"/>
              </g>
              <circle class="st22" cx="122.32" cy="15.84" r=".56"/>
              <circle class="st22" cx="123.99" cy="15.84" r=".56"/>
              <circle class="st22" cx="125.66" cy="15.84" r=".56"/>
              <polyline class="st3" points="122.32 33.02 128.33 30.02 134.28 31.91 136.06 26.07 141.06 28.13 146.12 23.29"/>
              <circle class="st30" cx="136.06" cy="26.13" r=".67"/>
              <circle class="st30" cx="146.12" cy="23.13" r=".67"/>
              <circle class="st30" cx="122.27" cy="32.97" r=".67"/>
            </g>
            <g>
              <path class="st14" d="M205.16,64.94l-15.12,1.95c-3,.22-2.95,4.11.89,4.06l13.62-.61c6-.17,5.5-5.89.61-5.39h0Z"/>
              <path class="st14" d="M190.93,70.94c1.22-.95.83-3.56-.95-4l-3.84-1.11c-.22,0-.78-.06-1.5.06-.44.17-1.39.28-1.39.28-.22,0-.44.28-.33.56h0c.06.33.33.61.72.67h1.72c0,.06-4.95,2.17-4.95,2.17-.5.17-.56.83-.06,1.22.72.56,1.72,1.11,2,1.17l3.95,1.06c.22,0,1.78-.33,2-.44l2.67-1.56h0l-.06-.06Z"/>
              <path class="st31" d="M210.28,36.41c-1.5-3.61-8.39-2.61-6.5,3.5l1.45,4.56c1.83,4.61,9.17.83,7.51-2.5l-2.39-5.56h-.06Z"/>
              <path class="st40" d="M205.77,148.11l3.11-26.52c-.56-10.9-12.34-9.51-10.9.22l4.89,25.24,2.84,1.11h0l.06-.06Z"/>
              <path class="st40" d="M216.11,94.62c2.56-11.68-17.9-13.34-18.01-2.89l-.39,27.35c0,9.28,8.84,9.12,11.29,1.72l7.12-26.19h0Z"/>
              <path class="st5" d="M208.94,149.38l-6.06-2.34-10.73,4.06c-.78.33-1.28,1.06-1.28,1.83v1.11h17.12c.5,0,.95-.44.95-.95v-3.72h0Z"/>
              <path class="st13" d="M197.99,151.11l10.67-4.06,6.12,2.34v3.72h0c0,.5-.44.89-.95.89h-17.12v-1.11c0-.83.5-1.56,1.28-1.83v.06Z"/>
              <path class="st25" d="M214.78,149.38l-1.17-29.08h0c-1.22-10.01-15.34-8.17-13.06,1.39l5.28,26.46,9.01,1.22h-.06Z"/>
              <path class="st25" d="M218,88.95l-.17-3.78h-20.18l2.45,33.75c.67,9.9,11.56,9.51,13.45,1.39l4.11-26.02c.28-1.78.33-3.5.28-5.34h.06Z"/>
              <g>
                <g>
                  <polygon class="st22" points="176.59 58.76 192.65 78 186.59 82.39 169.19 62.38 176.59 58.76"/>
                  <polygon class="st43" points="169.69 62.16 186.98 82.11 192.65 78 176.59 58.76 169.69 62.16"/>
                  <polygon class="st22" points="177.03 57.71 193.1 76.89 187.04 81.34 169.64 61.32 177.03 57.71"/>
                </g>
                <g>
                  <polygon class="st27" points="171.64 62.1 171.97 62.49 177.53 59.6 177.2 59.21 171.64 62.1"/>
                  <polygon class="st34" points="172.69 63.43 172.8 63.55 178.36 60.6 178.25 60.49 172.69 63.43"/>
                  <polygon class="st34" points="173.03 63.77 173.14 63.88 178.64 60.93 178.59 60.82 173.03 63.77"/>
                  <polygon class="st34" points="173.3 64.1 173.42 64.21 178.98 61.27 178.86 61.21 173.3 64.1"/>
                  <polygon class="st34" points="173.64 64.44 173.75 64.55 179.31 61.66 179.2 61.54 173.64 64.44"/>
                  <polygon class="st34" points="173.97 64.77 174.08 64.88 179.64 61.99 179.53 61.88 173.97 64.77"/>
                  <polygon class="st34" points="174.31 65.1 174.36 65.21 179.92 62.32 179.87 62.21 174.31 65.1"/>
                  <polygon class="st34" points="174.58 65.44 174.69 65.55 180.25 62.66 180.14 62.54 174.58 65.44"/>
                  <polygon class="st34" points="174.92 65.82 175.03 65.94 180.59 62.99 180.48 62.88 174.92 65.82"/>
                  <polygon class="st34" points="175.25 66.16 175.36 66.27 180.92 63.32 180.81 63.21 175.25 66.16"/>
                  <g class="st19">
                    <g>
                      <polygon class="st34" points="182.14 65.1 176.59 67.99 176.7 68.1 182.26 65.21 182.14 65.1"/>
                      <polygon class="st34" points="182.48 65.44 176.92 68.33 177.03 68.44 182.59 65.55 182.48 65.44"/>
                      <polygon class="st34" points="182.81 65.77 177.25 68.72 177.36 68.77 182.87 65.88 182.81 65.77"/>
                      <polygon class="st34" points="183.09 66.1 177.53 69.05 177.64 69.16 183.2 66.21 183.09 66.1"/>
                      <polygon class="st34" points="183.42 66.44 177.86 69.38 177.97 69.49 183.53 66.55 183.42 66.44"/>
                    </g>
                  </g>
                </g>
                <g>
                  <polygon class="st34" points="186.37 79.28 186.48 79.33 191.32 75.94 191.26 75.83 186.37 79.28"/>
                  <polygon class="st34" points="186.7 79.61 186.81 79.72 191.65 76.28 191.54 76.17 186.7 79.61"/>
                  <polygon class="st34" points="186.98 79.95 187.09 80.06 191.98 76.61 191.87 76.55 186.98 79.95"/>
                </g>
              </g>
              <path class="st16" d="M197.66,85.23h20.18l-.78-30.8c0-.44-.11-1.22-.28-2.06-.67-3.45-1.95-6.73-3.61-9.78l-.56-.95-11.34,5.62c-.78,2.56-1.06,3.72-1.22,5.17-.5,3.5-.33,5.5-.78,9.28l-1.33,12.18-.22,11.34h-.06Z"/>
              <path class="st31" d="M208.89,51.26c-1.56.22-2.78,1.56-2.78,3.11l-.11,10.95c-.61,6.73,6.39,7.62,6.73,1.56l-.22-12.51c0-1.89-1.72-3.34-3.61-3.11h0Z"/>
              <path class="st31" d="M205.88,66.21h0l-15.84,5.34c-3.17,1.11-2.45,4.73.89,4.06l15.73-2.61c7.12-1.33,5.5-9.12-.72-6.78h-.06Z"/>
              <path class="st27" d="M203.33,66.77l1.22-.67v-4.45l-.95-7.62c-.22-1.83.5-3.61,1.89-4.78l.22-.17c1.67-1.45,4-1.67,5.95-.67.83.44,1.56,1.11,2.06,1.89s.78,1.67.83,2.61l-1.72,16.51c-.06.72-.5,1.33-1.17,1.61l-1.95.83-3.22,1.39-3.11-6.62h0l-.06.11Z"/>
              <path class="st31" d="M190.87,75.61c1.22-1.06.56-3.56-.95-4l-3.84-1.11c-.22,0-.78-.06-1.5.06-.44.17-1.39.28-1.39.28-.22,0-.44.28-.33.56h0c.06.33.33.61.72.67h1.72c0,.06-4.95,2.17-4.95,2.17-.5.17-.56.83-.06,1.22.72.56,1.72,1.11,2,1.17l3.95,1.06c.22,0,1.78-.33,2-.44l2.67-1.56h0l-.06-.06Z"/>
              <polygon class="st44" points="212.56 41.64 212 40.42 203.77 43.75 201.27 47.26 212.56 41.64"/>
              <path class="st15" d="M190.87,153.17v.95h17.12c.5,0,.95-.44.95-.95h-18.07Z"/>
              <path class="st39" d="M214.72,153.17c0,.5-.44.89-.95.89h-17.12v-.89h18.07Z"/>
              <path class="st31" d="M195.99,28.74c0-1.78,0-5.34,2.06-6.73,2.06-1.33,2.28-.17,2.28-.17l6.78,3.22,3,3.84.44,3.95,1.33,7.51-8.28,3.34-.78-4c-3.11,0-5.34.28-6.28-2.67h0c-.11-.44-.28-.95-.33-1.5-.06-.39-.11-.89-.17-1.33l-1.67-.44,1.5-5h.11Z"/>
              <path class="st23" d="M206.88,27.63h-.17c-1.72,0-1.61,1.5-1.67,2.45l-1.56-.11v-4.28l-5.89-3.28c2.06-2.28,4.39-2.84,6.45-2.67,5.06.39,8.28,1.67,8.28,6.5s-.61,5.95-1.61,7.12c-2.17-.22-2.72-.28-2.72-1.17s.33-2.34.33-2.45c0-1.06-.22-2.06-1.33-2.22"/>
              <path class="st23" d="M196.82,30.41c-.17,0-.28-.17-.33-.33v-.44c0-.17.17-.33.33-.33h.44c.17,0,.33.17.33.33v.44c0,.17-.17.33-.33.33h-.44"/>
              <polygon class="st11" points="204.1 66.33 204.55 66.05 209.66 71.94 206.44 73.33 203.33 66.77 204.1 66.33"/>
              <path class="st22" d="M198.66,35.64c0,1-1.33,1.33-2,1.45h0c-.11-.44-.28-.95-.33-1.5h2.34v.06Z"/>
              <path class="st14" d="M182.92,66.77c.06.33.33.61.72.67l1.67.11.44-.11-1.06-1.5c-.44.17-1.39.28-1.39.28-.22,0-.44.28-.33.56h0"/>
            </g>
            <g>
              <path class="st28" d="M181.09,15.18v29.58c0,.44-.39.83-.83.83h-25.52c-.28,0-.5-.22-.5-.5h0V15.18c0-.44.39-.83.83-.83h25.24c.44,0,.83.39.83.83h-.06Z"/>
              <rect class="st29" x="155.35" y="15.4" width="24.74" height="29.08"/>
              <g>
                <polygon class="st18" points="165.41 22.24 165.47 22.52 165.74 22.85 166.02 22.79 166.19 23.18 167.02 23.35 167.63 23.02 167.69 23.02 169.97 24.18 170.19 24.13 170.25 21.46 170.08 20.85 170.25 20.74 170.19 20.4 170.19 20.4 170.19 20.4 170.19 20.4 170.14 20.35 170.14 20.29 170.14 20.29 170.02 20.29 170.02 20.29 169.91 20.24 169.91 20.24 169.64 20.24 169.64 20.24 169.58 20.18 169.52 20.13 169.52 20.13 169.58 20.07 169.58 20.07 169.52 20.07 169.52 20.07 169.3 19.96 169.3 19.96 169.25 19.96 169.19 19.96 169.19 19.96 169.02 20.01 168.8 20.07 168.8 20.07 168.8 20.07 168.75 20.13 168.75 20.13 168.63 20.24 168.63 20.24 168.58 20.35 168.58 20.4 168.63 20.51 168.63 20.51 168.63 20.57 168.63 20.68 168.58 20.74 168.52 20.79 168.52 20.79 168.47 20.85 168.36 20.85 168.3 20.85 168.19 20.79 168.19 20.79 167.97 20.68 167.8 20.57 167.8 20.57 167.63 20.57 167.52 20.51 167.52 20.51 167.47 20.51 167.36 20.51 167.3 20.4 167.25 20.4 167.25 20.4 167.19 20.29 167.19 20.24 167.19 20.24 167.19 20.13 167.13 20.13 167.08 20.13 167.08 20.13 166.97 20.13 166.86 20.07 166.86 20.07 166.74 20.01 166.63 19.96 166.63 19.96 166.41 20.01 166.41 20.01 166.36 19.96 166.24 19.96 166.24 19.96 166.08 19.9 166.08 20.29 165.91 20.4 165.74 20.4 165.69 20.74 165.52 20.9 165.47 20.9 165.52 21.35 165.52 21.52 165.63 21.74 165.63 22.02 165.41 22.24 165.41 22.24 165.41 22.24"/>
                <polygon class="st18" points="171.8 38.31 171.75 38.69 171.8 38.86 171.97 38.86 172.03 38.64 171.97 38.31 171.86 38.25 171.8 38.31 171.8 38.31 171.8 38.31"/>
                <polygon class="st18" points="159.91 21.52 160.18 21.24 160.91 21.07 161.07 20.79 161.19 20.79 161.46 20.74 161.52 20.4 161.8 20.4 162.02 20.4 162.13 20.13 161.91 19.18 161.91 19.18 161.85 19.18 161.85 19.18 161.85 19.18 161.85 19.18 161.69 19.12 161.69 19.12 161.63 19.12 161.69 19.18 161.69 19.18 161.69 19.18 161.63 19.12 161.63 19.12 161.63 19.12 161.63 19.07 161.63 19.07 161.52 19.12 161.52 19.12 161.35 19.12 161.19 19.18 161.19 19.18 161.07 19.12 161.07 19.12 161.02 19.12 161.02 19.12 160.96 19.07 160.91 18.96 160.91 18.96 160.91 18.96 160.91 18.96 160.91 18.9 160.91 18.9 160.91 18.9 160.85 18.9 160.85 18.9 160.74 18.96 160.74 18.96 160.74 18.96 160.74 19.01 160.74 19.01 160.57 19.4 160.57 19.4 160.46 19.51 160.46 19.51 160.41 19.57 160.3 19.68 160.3 19.68 160.02 19.79 160.02 19.79 159.96 19.85 159.85 19.96 159.85 19.96 159.8 20.01 159.74 20.01 159.74 20.01 159.74 20.07 159.74 20.18 159.74 20.18 159.63 20.29 159.57 20.4 159.57 20.4 159.52 20.46 159.52 20.57 159.52 20.57 159.52 20.63 159.52 20.63 159.52 20.74 159.57 20.74 159.57 20.74 159.63 20.79 159.63 20.9 159.57 20.96 159.57 20.96 159.46 21.07 159.35 21.24 159.35 21.24 159.18 21.35 159.18 21.35 159.02 21.52 159.02 21.52 158.96 21.52 159.91 21.52 159.91 21.52 159.91 21.52 159.91 21.52"/>
                <polygon class="st18" points="162.13 20.46 161.85 20.51 161.63 20.51 161.57 20.79 161.19 20.9 161.13 20.9 160.96 21.18 160.24 21.35 159.96 21.52 159.96 21.57 160.02 21.96 162.96 24.02 163.08 24.24 163.24 24.24 163.46 24.24 163.46 24.57 163.91 24.52 164.3 24.52 166.08 23.18 165.97 22.91 165.63 22.91 165.35 22.57 165.3 22.18 165.52 21.96 165.52 21.68 165.47 21.52 165.47 21.35 165.35 20.85 165.13 20.35 164.69 19.9 164.69 19.68 164.97 19.35 164.97 19.07 164.97 19.01 164.8 18.57 164.8 18.57 164.85 18.57 164.8 18.51 164.8 18.51 164.8 18.51 164.69 18.57 164.69 18.57 164.63 18.57 164.63 18.57 164.63 18.57 164.58 18.57 164.58 18.57 164.52 18.57 164.52 18.57 164.52 18.51 164.47 18.57 164.47 18.57 164.47 18.57 164.47 18.57 164.47 18.57 164.24 18.62 164.24 18.62 164.13 18.62 164.13 18.62 164.02 18.62 163.91 18.57 163.85 18.57 163.85 18.57 163.63 18.62 163.46 18.62 163.46 18.62 163.41 18.62 163.41 18.68 163.41 18.68 163.3 18.68 163.24 18.68 163.24 18.68 162.91 18.74 162.91 18.74 162.74 18.79 162.74 18.79 162.69 18.79 162.57 18.9 162.57 18.9 162.52 18.96 162.46 18.96 162.46 18.96 162.41 18.9 162.41 18.96 162.41 18.96 162.24 19.01 162.24 19.01 162.19 19.07 162.19 19.07 162.19 19.07 162.13 19.12 162.02 19.18 162.02 19.18 162.02 19.18 162.24 20.13 162.13 20.46 162.13 20.46 162.13 20.46"/>
                <polygon class="st18" points="165.08 19.07 165.08 19.35 164.8 19.68 164.8 19.85 165.24 20.29 165.41 20.79 165.47 20.79 165.58 20.68 165.63 20.35 165.86 20.29 165.97 20.24 165.97 19.85 165.97 19.85 165.97 19.85 165.91 19.85 165.91 19.85 165.91 19.79 165.91 19.79 165.91 19.79 165.91 19.74 165.91 19.68 165.91 19.68 165.86 19.74 165.86 19.74 165.86 19.74 165.8 19.79 165.8 19.79 165.8 19.74 165.8 19.74 165.8 19.68 165.8 19.68 165.8 19.68 165.74 19.68 165.63 19.63 165.63 19.63 165.63 19.57 165.63 19.51 165.63 19.51 165.63 19.51 165.74 19.4 165.8 19.35 165.8 19.35 165.91 19.18 165.91 19.18 165.91 19.18 165.91 19.12 165.91 19.12 165.91 19.07 165.91 19.07 165.86 19.01 165.86 19.01 165.8 18.96 165.74 18.9 165.74 18.79 165.74 18.79 165.74 18.79 165.8 18.74 165.8 18.74 165.86 18.68 165.91 18.62 165.91 18.62 165.91 18.62 165.91 18.57 165.91 18.51 165.91 18.51 165.91 18.51 165.8 18.57 165.8 18.57 165.8 18.57 165.8 18.57 165.74 18.62 165.74 18.62 165.74 18.62 165.69 18.62 165.69 18.62 165.63 18.62 165.69 18.57 165.69 18.57 165.69 18.57 165.63 18.51 165.63 18.51 165.58 18.46 165.58 18.46 165.58 18.46 165.58 18.46 165.52 18.46 165.52 18.46 165.47 18.46 165.47 18.46 165.47 18.46 165.35 18.46 165.3 18.51 165.3 18.51 165.24 18.57 165.24 18.57 165.19 18.57 165.19 18.57 164.97 18.57 164.97 18.57 164.97 18.57 165.08 18.96 165.08 19.07 165.08 19.07 165.08 19.07"/>
                <polygon class="st18" points="171.75 20.51 171.75 20.51 171.69 20.51 171.69 20.51 171.58 20.57 171.41 20.68 171.41 20.68 171.36 20.68 171.3 20.68 171.3 20.68 171.25 20.63 171.14 20.57 171.14 20.57 170.91 20.51 170.91 20.51 170.64 20.46 170.64 20.46 170.53 20.4 170.41 20.4 170.36 20.4 170.36 20.4 170.3 20.4 170.3 20.74 170.19 20.85 170.36 21.46 170.36 21.46 170.3 23.46 171.19 23.57 172.64 23.46 172.69 23.57 172.8 23.63 172.8 23.46 173.14 23.35 173.36 23.13 173.36 23.13 173.36 23.02 173.36 22.96 173.36 22.96 173.36 22.96 173.42 22.96 173.36 22.91 173.36 22.91 173.3 22.85 173.3 22.85 173.25 22.74 173.14 22.46 173.14 22.46 172.92 22.07 172.92 22.07 172.86 22.07 172.86 22.02 172.86 22.02 172.86 21.96 172.86 21.9 172.86 21.9 172.8 21.74 172.8 21.74 172.69 21.63 172.69 21.63 172.64 21.52 172.53 21.35 172.53 21.35 172.47 21.24 172.42 21.18 172.42 21.18 172.42 21.13 172.42 21.02 172.42 21.02 172.42 21.02 172.42 21.02 172.42 20.96 172.42 20.96 172.47 21.02 172.47 21.02 172.53 21.13 172.53 21.13 172.58 21.18 172.58 21.18 172.64 21.29 172.64 21.4 172.64 21.4 172.69 21.46 172.8 21.57 172.8 21.57 172.92 21.68 172.92 21.68 172.97 21.68 172.97 21.68 172.97 21.63 172.97 21.63 173.03 21.46 173.03 21.46 173.08 21.46 173.08 21.46 173.08 21.46 173.08 21.46 173.08 21.13 173.03 21.13 172.92 20.51 172.92 20.51 172.86 20.57 172.86 20.57 172.53 20.57 172.53 20.57 172.47 20.57 172.42 20.57 172.42 20.57 172.36 20.51 172.36 20.51 172.36 20.51 172.36 20.57 172.36 20.57 172.36 20.57 172.36 20.57 172.3 20.57 172.3 20.57 172.25 20.57 172.25 20.51 172.25 20.51 172.25 20.51 172.25 20.4 172.25 20.46 172.25 20.46 172.14 20.46 172.08 20.4 172.08 20.4 171.97 20.4 171.92 20.4 171.92 20.4 171.8 20.46 171.8 20.46 171.75 20.51 171.75 20.51 171.75 20.51 171.75 20.51 171.75 20.51 171.75 20.51 171.75 20.51 171.75 20.51 171.75 20.51 171.75 20.51"/>
                <polygon class="st18" points="175.58 26.74 175.58 26.74 175.75 26.69 175.75 26.63 175.75 26.63 175.75 26.52 175.7 26.46 175.7 26.46 175.64 26.46 175.64 26.41 175.64 26.41 175.64 26.41 175.58 26.41 175.58 26.41 175.58 26.41 175.53 26.35 175.42 26.63 175.25 26.69 175.25 26.85 175.36 26.91 175.47 26.96 175.75 26.8 175.75 26.8 175.64 26.8 175.64 26.8 175.53 26.8 175.53 26.8 175.58 26.74 175.58 26.74 175.58 26.74 175.58 26.74"/>
                <polygon class="st18" points="177.81 34.69 177.81 34.69 177.75 34.41 177.75 34.41 177.7 34.3 177.7 34.3 177.7 34.3 177.59 34.14 177.59 34.14 177.59 34.14 177.53 34.14 177.53 34.14 177.53 34.08 177.53 34.08 177.53 34.08 177.53 34.08 177.53 34.02 177.53 34.02 177.53 34.02 177.47 34.08 177.47 34.08 177.42 34.14 177.42 34.14 177.42 34.14 177.36 34.14 177.42 34.25 177.42 34.25 177.42 34.3 177.42 34.3 177.42 34.3 177.36 34.41 177.36 34.41 177.36 34.47 177.31 34.47 177.31 34.47 177.31 34.47 177.31 34.47 177.25 34.47 177.25 34.47 177.25 34.47 177.25 34.52 177.25 34.58 177.25 34.58 177.2 34.58 177.2 34.58 177.2 34.52 177.2 34.52 177.14 34.47 177.14 34.47 177.14 34.52 177.14 34.64 177.14 34.64 177.14 34.69 177.14 34.69 177.14 34.69 177.14 34.69 177.09 34.69 177.09 34.69 177.09 34.75 177.09 34.8 177.09 34.8 177.09 34.86 177.09 34.86 177.14 34.86 177.14 34.86 177.14 34.86 177.14 34.86 177.09 34.86 177.09 34.86 177.03 34.86 177.03 34.91 177.03 34.91 176.97 34.91 176.97 34.91 176.97 34.91 177.03 34.91 176.97 34.86 176.97 34.86 176.92 34.91 176.92 35.03 176.92 35.03 176.86 35.03 176.92 35.08 176.92 35.08 176.92 35.14 176.86 35.14 176.86 35.14 176.86 35.14 176.86 35.08 176.86 35.08 176.86 35.03 176.86 35.03 176.75 35.08 176.75 35.08 176.64 35.14 176.64 35.14 176.64 35.19 176.64 35.19 176.64 35.19 176.64 35.25 176.64 35.25 176.64 35.25 176.64 35.25 176.59 35.19 176.59 35.19 176.59 35.19 176.59 35.19 176.59 35.19 176.53 35.19 176.53 35.19 176.53 35.19 176.47 35.19 176.47 35.19 176.47 35.19 176.42 35.19 176.42 35.25 176.42 35.25 176.36 35.3 176.36 35.3 176.31 35.3 176.31 35.3 176.31 35.3 176.25 35.3 176.25 35.3 176.25 35.3 176.14 35.36 176.08 35.3 176.08 35.3 176.08 35.36 176.08 35.36 176.03 35.53 176.03 35.53 175.97 35.64 175.97 35.69 175.97 35.69 175.92 35.69 175.92 35.8 175.92 35.8 175.97 36.14 175.97 36.14 176.08 36.36 176.08 36.36 176.08 36.36 176.08 36.41 176.08 36.41 176.08 36.53 176.08 36.53 175.97 36.64 175.97 36.64 175.92 36.75 175.92 36.75 175.86 36.92 175.86 36.92 175.86 36.92 175.81 36.92 175.81 36.92 175.81 36.97 175.75 36.97 175.81 37.03 175.81 37.03 175.75 37.14 175.75 37.14 175.7 37.14 175.7 37.14 175.7 37.3 175.7 37.3 175.75 37.47 175.81 37.64 175.81 37.64 175.86 37.64 175.86 37.69 175.86 37.69 175.81 37.75 175.81 37.75 175.81 37.75 175.81 37.92 175.81 37.92 175.86 37.97 175.92 38.08 175.92 38.08 176.08 38.19 176.25 38.31 176.25 38.31 176.31 38.36 176.42 38.31 176.53 38.25 176.53 38.25 176.64 38.19 176.75 38.14 176.75 38.14 176.86 38.14 176.86 38.14 176.86 38.14 176.92 37.97 177.03 37.69 177.25 36.92 177.59 35.8 177.59 35.8 177.59 35.69 177.59 35.69 177.59 35.64 177.64 35.58 177.64 35.58 177.7 35.53 177.7 35.53 177.7 35.53 177.7 35.47 177.7 35.36 177.7 35.36 177.7 35.36 177.7 35.3 177.7 35.3 177.64 35.3 177.64 35.25 177.64 35.25 177.64 35.19 177.7 35.14 177.7 35.14 177.7 35.08 177.7 35.14 177.81 35.19 177.81 35.19 177.81 35.25 177.86 35.25 177.86 35.19 177.86 35.19 177.92 35.08 177.86 34.97 177.86 34.97 177.81 34.69 177.81 34.69 177.81 34.69 177.81 34.69"/>
                <polygon class="st18" points="166.41 31.91 166.41 31.86 166.24 31.97 166.24 31.97 166.24 31.97 166.24 31.97 166.24 32.08 166.41 31.97 166.41 31.91 166.41 31.91 166.41 31.91"/>
                <polygon class="st18" points="167.02 29.8 167.19 29.58 166.86 28.85 166.86 28.69 167.19 28.13 167.02 27.85 166.69 27.63 166.74 27.35 167.08 27.3 167.08 26.8 166.86 26.46 166.86 26.46 166.91 27.02 166.74 27.13 166.52 27.58 166.3 27.74 166.19 28.3 165.97 28.52 165.74 28.3 165.58 28.3 165.24 28.74 165.13 28.97 165.13 28.97 165.13 28.97 165.13 28.97 165.19 28.97 165.19 28.97 165.19 28.97 165.19 28.97 165.19 28.97 165.24 28.97 165.24 29.02 165.24 29.02 165.24 29.08 165.3 29.13 165.3 29.13 165.3 29.13 165.35 29.19 165.47 29.13 165.47 29.13 165.47 29.13 165.47 29.13 165.47 29.13 165.47 29.13 165.47 29.13 165.47 29.13 165.47 29.19 165.47 29.19 165.47 29.19 165.52 29.19 165.47 29.19 165.47 29.19 165.47 29.19 165.47 29.24 165.47 29.24 165.52 29.3 165.52 29.3 165.58 29.35 165.58 29.41 165.58 29.41 165.52 29.69 165.52 29.69 165.52 29.69 166.86 29.69 167.02 29.8 167.02 29.8 167.02 29.8"/>
                <polygon class="st18" points="162.02 26.91 162.19 27.02 162.35 27.02 162.74 27.07 163.19 26.85 163.13 26.74 162.85 26.57 162.85 26.35 162.74 26.35 162.57 26.13 162.52 25.96 162.46 25.91 162.19 25.91 162.02 26.13 161.91 26.13 161.57 26.46 161.41 26.46 161.35 26.52 161.07 26.8 161.13 26.91 161.02 27.02 160.96 27.35 161.19 27.46 161.3 27.35 161.57 27.35 161.74 26.96 162.02 26.91 162.02 26.91 162.02 26.91"/>
                <polygon class="st18" points="171.47 30.86 171.47 30.86 171.58 30.86 171.58 30.69 171.75 30.69 171.75 30.58 171.64 30.52 171.58 30.47 171.47 30.58 171.36 30.58 171.36 30.8 171.41 30.8 171.47 30.86 171.47 30.86 171.47 30.86"/>
                <polygon class="st18" points="171.58 31.19 171.69 31.13 171.69 31.02 171.58 30.97 171.53 30.97 171.47 30.97 171.36 30.97 171.41 31.08 171.47 31.19 171.47 31.36 171.47 31.3 171.58 31.19 171.58 31.19 171.58 31.19"/>
                <polygon class="st18" points="166.52 31.19 166.36 31.02 166.24 30.97 166.19 31.08 166.13 31.3 166.08 31.24 166.08 31.3 166.36 31.58 166.13 31.74 166.13 31.74 166.19 31.86 166.41 31.74 166.52 31.8 166.58 31.74 166.74 31.69 166.8 31.8 167.25 31.63 167.47 30.86 167.69 30.74 167.8 30.36 167.86 29.8 168.02 29.63 168.08 29.35 167.91 29.35 167.58 29.35 167.41 29.41 167.3 29.58 167.3 29.58 167.02 29.91 166.86 29.8 166.41 29.8 166.41 29.91 166.58 30.08 166.86 29.97 166.91 30.08 166.97 30.36 166.8 30.47 166.74 30.63 166.74 30.69 166.91 30.69 166.8 31.36 166.52 31.19 166.52 31.19 166.52 31.19"/>
                <polygon class="st18" points="166.13 35.58 166.36 35.53 166.69 35.53 166.8 35.64 167.08 35.53 168.02 35.53 168.3 35.69 168.58 35.8 168.86 35.69 169.19 35.69 169.36 35.58 169.19 35.41 169.19 34.19 169.75 34.19 169.8 33.8 169.75 33.8 169.3 33.8 169.19 33.41 169.14 32.63 168.91 32.58 168.69 32.47 168.47 32.52 168.47 32.8 167.86 32.86 167.69 32.47 167.52 32.13 166.52 32.25 166.52 32.25 166.47 32.25 166.47 32.25 166.36 32.25 166.36 32.3 166.36 32.3 166.36 32.3 166.47 32.58 166.47 32.58 166.58 32.86 166.58 32.86 166.58 32.91 166.58 32.97 166.58 33.02 166.58 33.08 166.58 33.08 166.52 33.08 166.52 33.19 166.52 33.19 166.58 33.25 166.58 33.25 166.69 33.58 166.69 33.58 166.74 33.69 166.74 33.86 166.74 33.97 166.74 33.97 166.69 34.14 166.58 34.19 166.58 34.19 166.52 34.25 166.41 34.36 166.36 34.47 166.36 34.47 166.24 35.08 166.24 35.08 166.24 35.08 166.19 35.19 166.19 35.19 166.13 35.19 166.13 35.25 166.13 35.25 166.13 35.36 166.13 35.36 166.13 35.58 166.13 35.58 166.13 35.58 166.13 35.58"/>
                <polygon class="st18" points="159.96 28.58 159.96 28.24 159.74 28.19 159.63 28.13 159.46 28.02 159.18 28.41 159.18 28.41 159.29 28.41 159.29 28.41 159.35 28.46 159.35 28.46 159.41 28.52 159.52 28.58 159.52 28.58 159.68 28.74 159.85 28.85 159.85 28.85 160.13 29.02 160.24 28.8 160.24 28.74 159.96 28.58 159.96 28.58 159.96 28.58"/>
                <polygon class="st18" points="161.52 28.46 161.74 27.96 161.74 27.91 161.57 27.46 161.35 27.46 161.19 27.63 160.91 27.41 160.68 27.35 160.57 27.24 160.41 27.41 160.13 27.46 160.24 27.8 160.13 28.13 160.07 28.24 160.07 28.52 160.3 28.69 160.3 28.85 160.24 29.02 160.24 29.02 160.3 29.02 160.3 29.02 160.46 28.97 160.46 28.97 160.63 28.85 160.63 28.85 160.74 28.85 160.85 28.8 160.85 28.8 161.02 28.8 161.02 28.8 161.07 28.8 161.07 28.8 161.19 28.74 161.19 28.74 161.3 28.74 161.35 28.8 161.35 28.8 161.52 28.8 161.52 28.8 161.63 28.85 161.57 28.69 161.52 28.46 161.52 28.46 161.52 28.46"/>
                <polygon class="st18" points="165.97 31.36 165.91 31.08 166.08 31.13 166.13 31.02 166.19 30.86 166.41 30.91 166.58 31.13 166.69 31.19 166.74 30.8 166.74 30.8 166.63 30.63 166.69 30.41 166.86 30.3 166.86 30.13 166.86 30.08 166.58 30.19 166.3 29.97 166.36 29.8 166.02 29.8 166.02 30.08 165.47 30.08 165.47 30.08 165.47 30.08 165.47 30.08 165.47 30.19 165.47 30.19 165.47 30.19 165.41 30.19 165.41 30.19 165.41 30.19 165.41 30.24 165.41 30.24 165.47 30.3 165.47 30.3 165.47 30.3 165.52 30.36 165.52 30.36 165.47 30.36 165.47 30.36 165.47 30.36 165.41 30.3 165.41 30.3 165.41 30.3 165.41 30.3 165.41 30.3 165.41 30.47 165.3 30.58 165.3 30.58 165.3 30.63 165.3 30.63 165.3 30.63 165.24 30.63 165.24 30.63 165.24 30.63 165.24 30.63 165.24 30.69 165.24 30.69 165.3 30.74 165.35 30.8 165.35 30.8 165.41 30.8 165.41 30.8 165.41 30.8 165.41 30.86 165.41 30.86 165.41 30.86 165.41 30.86 165.41 30.86 165.41 30.86 165.41 30.86 165.35 30.86 165.35 30.86 165.35 30.91 165.41 30.97 165.41 30.97 165.41 30.97 165.47 30.97 165.47 30.97 165.47 31.02 165.47 31.13 165.47 31.13 166.08 31.69 166.19 31.58 165.97 31.36 165.97 31.36 165.97 31.36"/>
                <polygon class="st18" points="166.36 32.19 166.36 32.19 166.47 32.13 167.52 32.08 167.8 32.41 167.97 32.75 168.36 32.69 168.36 32.41 168.75 32.41 168.91 32.47 169.19 32.58 169.3 33.41 169.36 33.69 169.8 33.69 169.86 33.75 169.91 33.69 170.02 33.69 170.14 33.64 170.3 33.8 170.36 33.91 170.41 33.91 170.47 33.69 170.69 33.8 171.36 34.41 171.41 34.36 171.47 33.97 171.41 33.97 171.3 34.08 171.14 34.08 170.97 33.86 171.19 33.36 171.3 33.25 171.92 33.08 171.97 33.02 171.97 33.02 171.92 32.97 171.92 32.97 171.86 32.97 171.86 32.97 171.86 32.97 171.86 32.91 171.86 32.91 171.86 32.91 171.86 32.86 171.86 32.86 171.86 32.86 171.8 32.8 171.8 32.8 171.75 32.69 171.75 32.58 171.75 32.58 171.64 32.41 171.53 32.25 171.53 32.25 171.41 32.19 171.47 32.13 171.47 32.13 171.53 32.13 171.47 32.02 171.47 32.02 171.41 31.91 171.41 31.91 171.41 31.86 171.41 31.8 171.41 31.69 171.41 31.69 171.41 31.69 171.41 31.69 171.41 31.63 171.41 31.63 171.41 31.47 171.41 31.19 171.3 31.13 171.25 30.86 171.25 30.58 171.36 30.13 171.86 29.74 171.92 29.52 171.86 29.19 171.64 28.97 171.53 29.02 171.3 28.97 171.3 29.02 171.08 29.02 171.08 29.02 170.25 28.85 169.25 29.19 168.8 29.13 168.58 28.97 168.13 29.02 168.13 29.63 167.97 29.85 167.91 30.36 167.75 30.8 167.52 30.97 167.3 31.69 166.69 31.97 166.69 31.8 166.69 31.8 166.52 31.97 166.52 32.08 166.3 32.13 166.3 32.13 166.3 32.13 166.3 32.13 166.36 32.19 166.36 32.19 166.36 32.19 166.36 32.19 166.36 32.19"/>
                <polygon class="st18" points="165.8 28.19 165.97 28.35 166.08 28.24 166.19 27.69 166.41 27.52 166.63 27.07 166.74 27.02 166.74 26.41 166.63 26.3 166.19 26.46 165.63 26.41 165.47 26.57 165.24 26.63 164.97 26.57 164.69 26.57 164.41 26.3 164.02 26.24 163.8 26.41 163.63 26.8 163.58 26.8 163.69 27.07 163.63 27.52 163.46 27.74 163.46 28.41 163.46 28.41 163.58 28.41 163.58 28.41 163.63 28.41 163.63 28.35 163.63 28.35 163.74 28.41 163.74 28.41 163.8 28.41 163.91 28.46 164.02 28.52 164.02 28.52 164.08 28.58 164.08 28.58 164.08 28.58 164.08 28.63 164.08 28.63 164.08 28.63 164.13 28.63 164.13 28.63 164.19 28.63 164.19 28.63 164.13 28.69 164.13 28.69 164.13 28.69 164.19 28.69 164.19 28.69 164.19 28.69 164.19 28.69 164.24 28.69 164.24 28.74 164.24 28.74 164.19 28.8 164.24 28.85 164.24 28.85 164.3 29.02 164.35 29.02 164.41 29.08 164.41 29.08 164.47 29.02 164.47 29.02 164.52 29.02 164.52 29.02 164.52 29.02 164.52 29.02 164.58 29.02 164.58 29.02 164.58 29.02 164.58 29.02 164.63 29.02 164.63 29.02 164.63 29.02 164.69 29.02 164.69 29.02 164.69 28.97 164.69 28.97 164.69 28.97 164.74 28.97 164.74 28.97 164.74 28.91 164.74 28.97 164.74 28.97 164.8 28.97 164.8 28.97 164.8 28.97 164.85 28.97 164.85 28.97 164.85 28.97 164.97 28.97 164.97 28.97 165.02 28.97 165.02 28.97 165.08 28.91 165.08 28.91 165.08 28.91 165.08 28.91 165.08 28.91 165.08 28.91 165.08 28.91 165.08 28.91 165.13 28.69 165.58 28.19 165.8 28.19 165.8 28.19 165.8 28.19"/>
                <polygon class="st18" points="165.41 29.97 165.91 29.97 165.91 29.8 165.52 29.8 165.52 29.8 165.52 29.8 165.52 29.8 165.47 29.85 165.47 29.85 165.47 29.91 165.47 29.91 165.41 29.97 165.41 29.97 165.41 29.97 165.41 29.97"/>
                <polygon class="st18" points="162.63 28.13 162.57 28.02 162.52 27.13 162.35 27.13 162.24 27.13 161.96 27.02 161.85 27.07 161.69 27.46 161.85 27.91 161.85 27.96 161.63 28.52 161.69 28.69 161.8 28.85 161.8 28.91 161.8 28.91 161.85 28.91 161.85 28.91 161.96 28.91 161.96 28.91 161.96 28.91 162.02 28.85 162.13 28.8 162.13 28.8 162.24 28.74 162.35 28.74 162.35 28.74 162.46 28.69 162.52 28.69 162.52 28.69 162.69 28.58 162.63 28.41 162.63 28.13 162.63 28.13 162.63 28.13"/>
                <polygon class="st18" points="163.52 27.46 163.58 27.07 163.46 26.8 163.3 26.85 163.35 26.91 162.8 27.19 162.85 27.3 162.96 27.41 163.13 27.69 163.13 28.46 163.13 28.46 163.24 28.41 163.24 28.41 163.35 28.41 163.35 27.69 163.52 27.46 163.52 27.46 163.52 27.46"/>
                <polygon class="st18" points="162.74 27.35 162.69 27.19 162.63 27.19 162.69 27.96 162.74 28.13 162.74 28.41 162.74 28.58 162.74 28.58 162.8 28.58 162.8 28.58 162.85 28.58 162.91 28.52 162.91 28.52 162.96 28.52 162.96 28.52 162.96 28.52 163.02 28.46 163.02 27.74 162.85 27.52 162.74 27.35 162.74 27.35 162.74 27.35"/>
                <polygon class="st18" points="161.35 26.3 161.57 26.41 161.85 26.02 161.96 26.02 162.13 25.8 162.52 25.8 162.57 25.85 163.02 25.85 163.19 25.8 163.46 25.74 163.85 24.63 163.35 24.68 163.35 24.35 163.24 24.35 163.02 24.35 162.85 24.07 161.13 22.85 160.57 22.85 160.91 25.74 159.8 25.8 159.68 25.69 159.57 25.8 159.35 25.8 159.18 25.91 159.02 25.74 158.96 25.8 158.91 25.96 158.96 26.35 159.18 26.52 159.18 26.74 159.46 26.85 159.63 26.85 159.74 26.69 159.91 26.91 160.13 27.35 160.35 27.3 160.57 27.07 160.74 27.24 160.85 27.24 160.91 26.96 161.02 26.91 161.02 26.74 161.3 26.46 161.35 26.3 161.35 26.3 161.35 26.3"/>
                <polygon class="st18" points="170.75 36.53 170.69 36.41 170.25 36.03 170.25 35.86 170.08 35.86 169.75 35.97 169.47 35.91 168.97 36.08 168.91 37.08 168.63 37.14 168.63 37.92 168.86 38.08 168.91 38.58 169.14 38.58 169.52 38.19 169.75 38.14 169.86 38.25 170.08 38.25 170.3 38.03 170.36 37.64 170.64 37.53 170.69 37.42 171.08 37.14 170.91 36.97 170.75 36.53 170.75 36.53 170.75 36.53"/>
                <polygon class="st18" points="166.91 26.35 167.19 26.74 167.19 27.35 166.86 27.46 166.86 27.58 167.08 27.8 167.25 28.08 168.3 27.85 168.47 27.52 168.86 27.52 169.25 27.13 169.3 26.8 169.47 26.69 169.47 26.57 169.3 26.41 169.41 26.3 169.47 25.85 169.52 25.8 169.52 25.52 169.91 25.46 169.91 24.3 167.63 23.13 167.08 23.46 167.19 23.85 167.52 24.18 167.3 24.46 167.25 25.3 166.74 25.91 166.69 26.24 166.8 26.35 166.91 26.35 166.91 26.35 166.91 26.35"/>
                <polygon class="st18" points="173.14 29.58 172.92 29.19 172.86 29.02 172.69 29.24 172.25 29.24 172.03 29.19 171.97 29.24 172.03 29.52 171.97 29.85 171.41 30.19 171.36 30.52 171.41 30.47 171.58 30.36 171.69 30.41 171.8 30.36 172.25 30.52 172.25 30.52 172.3 30.47 172.3 30.47 172.25 30.41 172.25 30.41 172.3 30.36 172.3 30.36 172.42 30.36 172.42 30.36 172.47 30.36 172.47 30.36 172.47 30.36 172.47 30.3 172.53 30.36 172.53 30.36 172.53 30.36 172.53 30.36 172.58 30.36 172.58 30.36 172.69 30.24 172.69 30.24 172.69 30.24 172.69 30.24 172.69 30.24 172.75 30.24 172.75 30.24 172.75 30.3 172.8 30.3 172.8 30.3 172.8 30.24 172.8 30.24 172.86 30.02 173.14 29.8 173.14 29.58 173.14 29.58 173.14 29.58"/>
                <polygon class="st18" points="169.69 26.91 169.52 26.8 169.41 26.91 169.3 27.19 168.91 27.63 168.52 27.63 168.36 27.96 167.25 28.19 166.91 28.69 166.91 28.85 167.25 29.47 167.36 29.35 167.58 29.24 167.86 29.24 168.02 29.24 168.02 28.97 168.58 28.85 168.86 29.02 169.25 29.13 170.25 28.8 171.03 28.85 170.86 28.69 170.53 28.41 170.53 28.24 170.3 27.96 170.14 27.96 170.02 27.8 169.8 27.69 169.86 27.35 169.69 27.07 169.69 27.02 169.69 26.91 169.69 26.91 169.69 26.91"/>
                <polygon class="st18" points="172.3 35.91 172.3 35.53 172.19 35.36 171.53 35.14 171.3 35.19 171.19 35.25 171.19 35.47 170.97 35.58 170.8 35.64 170.64 35.86 170.36 35.86 170.36 35.97 170.8 36.36 170.86 36.53 171.03 36.97 171.14 37.14 171.3 37.14 171.47 37.03 171.92 37.14 172.08 37.03 172.08 36.64 172.36 36.47 172.42 36.41 172.25 36.19 172.25 35.97 172.3 35.91 172.3 35.91 172.3 35.91"/>
                <polygon class="st18" points="162.74 26.24 162.91 26.24 162.96 26.52 163.24 26.69 163.3 26.74 163.58 26.74 163.74 26.35 163.96 26.13 164.47 26.24 164.69 26.46 164.97 26.46 165.24 26.52 165.47 26.52 165.58 26.3 166.19 26.41 166.58 26.24 166.69 25.85 167.19 25.24 167.19 24.41 167.36 24.18 167.08 23.91 166.97 23.46 166.19 23.29 164.3 24.63 163.96 24.63 163.58 25.8 163.19 25.85 163.02 25.96 162.63 25.96 162.69 26.13 162.74 26.24 162.74 26.24 162.74 26.24"/>
                <polygon class="st18" points="172.14 34.64 172.36 34.52 172.64 34.25 172.69 34.02 172.8 33.97 172.69 33.69 172.64 33.52 172.69 33.41 172.69 33.3 172.42 33.25 172.08 33.08 171.97 33.19 171.41 33.3 171.3 33.41 171.08 33.8 171.19 33.97 171.3 33.97 171.41 33.86 171.58 33.97 171.53 34.41 171.3 34.52 170.58 33.86 170.53 33.86 170.53 33.97 170.3 33.97 170.25 33.86 170.14 33.75 170.08 33.86 169.97 33.8 169.91 33.86 169.8 34.3 169.25 34.3 169.3 35.36 169.47 35.53 169.64 35.64 169.97 35.64 170.25 35.69 170.3 35.75 170.58 35.75 170.69 35.53 170.91 35.53 171.08 35.36 171.14 35.25 171.25 35.08 171.53 35.03 171.58 34.86 171.97 34.64 172.14 34.64 172.14 34.64 172.14 34.64"/>
                <polygon class="st18" points="159.35 27.91 159.18 27.96 159.13 27.8 159.13 27.58 159.02 27.52 158.79 27.58 158.57 27.63 158.57 27.63 158.57 27.63 158.57 27.63 158.52 27.69 158.57 27.69 158.57 27.69 158.63 27.74 158.63 27.69 158.63 27.69 158.63 27.74 158.63 27.74 158.63 27.74 158.63 27.74 158.57 27.8 158.57 27.8 158.57 27.8 158.57 27.8 158.57 27.8 158.52 27.8 158.52 27.8 158.52 27.8 158.52 27.8 158.52 27.85 158.52 27.85 158.57 27.85 158.57 27.85 158.63 27.85 158.63 27.85 158.63 27.85 158.63 27.96 158.68 28.02 158.74 28.02 158.74 28.02 158.74 27.96 158.74 28.02 158.74 28.02 158.79 28.08 158.79 28.08 158.79 28.08 158.79 28.08 158.79 28.08 158.79 28.08 158.79 28.08 158.79 28.08 158.79 28.08 158.79 28.08 158.79 28.08 158.79 28.08 158.79 28.13 158.79 28.13 158.79 28.13 158.85 28.13 158.85 28.13 159.07 28.3 159.07 28.3 159.13 28.3 159.35 27.96 159.35 27.91 159.35 27.91 159.35 27.91"/>
                <polygon class="st18" points="172.97 34.75 173.14 35.03 173.19 35.03 173.3 34.91 173.19 34.69 173.19 34.69 173.19 34.69 173.14 34.69 173.14 34.69 173.14 34.69 173.08 34.69 173.08 34.69 173.08 34.69 173.08 34.64 173.08 34.64 173.08 34.58 173.03 34.52 173.03 34.52 173.03 34.47 173.03 34.41 173.03 34.41 172.97 34.19 172.97 34.19 172.92 34.14 172.97 34.02 172.97 34.02 172.97 33.97 172.97 33.86 172.97 33.8 172.97 33.8 172.97 33.58 172.86 33.36 172.86 33.36 172.86 33.3 172.8 33.3 172.8 33.47 172.75 33.52 172.8 33.69 172.92 33.97 172.8 34.14 172.75 34.3 172.92 34.58 172.97 34.75 172.97 34.75 172.97 34.75"/>
                <polygon class="st18" points="158.41 26.63 158.68 26.57 159.07 26.69 159.07 26.57 158.85 26.41 158.79 25.96 158.52 25.69 158.35 25.52 158.18 25.35 157.85 25.35 157.52 25.46 157.52 25.46 157.46 25.57 157.46 25.63 157.46 25.63 157.35 25.8 157.35 25.8 157.24 25.8 157.24 25.8 157.18 25.8 157.18 25.85 157.18 25.85 157.24 25.85 157.24 25.85 157.24 25.85 157.24 25.85 157.29 25.85 157.29 25.85 157.4 25.91 157.4 26.02 157.4 26.02 157.46 26.07 157.46 26.07 157.46 26.07 157.46 26.07 157.46 26.02 157.46 26.02 157.46 26.07 157.46 26.07 157.46 26.13 157.46 26.13 157.46 26.13 157.46 26.13 157.46 26.13 157.46 26.13 157.46 26.13 157.52 26.19 157.57 26.19 158.07 26.19 158.35 26.24 158.52 26.46 158.29 26.57 158.02 26.46 157.46 26.57 157.46 26.57 157.46 26.57 157.46 26.57 157.46 26.57 157.46 26.57 157.46 26.57 157.46 26.57 157.46 26.57 157.52 26.63 157.57 26.63 157.57 26.63 157.63 26.57 157.63 26.57 157.63 26.57 157.63 26.57 157.57 26.63 157.57 26.63 157.57 26.63 157.63 26.69 157.9 26.57 158.41 26.63 158.41 26.63 158.41 26.63"/>
                <polygon class="st18" points="157.57 25.35 157.85 25.18 158.18 25.24 158.46 25.46 158.57 25.63 158.85 25.85 158.91 25.69 159.07 25.63 159.18 25.8 159.35 25.69 159.52 25.69 159.74 25.57 159.8 25.69 160.8 25.63 160.46 22.79 161.02 22.79 160.02 22.07 159.96 22.46 158.96 22.46 159.02 23.29 158.74 23.29 158.63 23.57 158.68 23.96 158.68 23.96 158.07 23.96 157.57 23.96 157.57 23.96 157.63 24.07 157.63 24.07 157.63 24.13 157.63 24.13 157.63 24.13 157.57 24.24 157.57 24.24 157.63 24.24 157.57 24.3 157.57 24.3 157.57 24.35 157.57 24.35 157.57 24.41 157.57 24.35 157.57 24.35 157.57 24.35 157.57 24.35 157.57 24.35 157.57 24.41 157.57 24.46 157.57 24.46 157.57 24.52 157.63 24.57 157.63 24.57 157.68 24.85 157.68 24.85 157.68 24.96 157.63 25.07 157.63 25.07 157.57 25.35 157.57 25.35 157.57 25.35 157.57 25.35"/>
                <polygon class="st18" points="158.29 26.74 157.96 26.69 157.9 26.69 157.9 26.69 157.96 26.74 157.96 26.74 157.96 26.74 157.96 26.74 157.96 26.74 157.9 26.74 157.85 26.74 157.85 26.74 157.85 26.74 157.85 26.8 157.85 26.8 157.85 26.8 157.9 26.8 157.9 26.8 157.96 26.8 157.96 26.8 157.96 26.8 157.96 26.8 157.96 26.8 157.96 26.8 157.9 26.8 157.9 26.8 157.9 26.8 157.85 26.85 157.85 26.85 157.85 26.85 157.85 26.85 157.85 26.85 157.85 26.91 157.85 26.91 157.85 26.91 157.9 26.91 157.9 26.91 157.9 26.91 157.9 26.96 157.96 26.96 157.96 26.96 157.96 26.96 157.96 26.96 157.96 26.96 157.96 26.96 158.02 26.96 158.02 26.96 158.07 26.96 158.29 26.91 158.29 26.74 158.29 26.74 158.29 26.74"/>
                <polygon class="st18" points="158.74 27.46 159.07 27.46 159.29 27.52 159.18 27.74 159.24 27.85 159.41 27.8 159.46 27.91 159.68 28.02 159.74 28.13 159.96 28.13 160.07 28.08 160.13 27.8 160.07 27.41 159.85 26.96 159.74 26.85 159.68 26.91 159.46 26.96 159.13 26.85 158.68 26.69 158.46 26.74 158.41 27.02 158.07 27.07 158.07 27.07 158.07 27.07 158.07 27.07 158.07 27.13 158.07 27.13 158.07 27.13 158.13 27.19 158.13 27.19 158.13 27.19 158.18 27.24 158.18 27.24 158.18 27.24 158.18 27.24 158.24 27.24 158.24 27.24 158.24 27.24 158.24 27.24 158.29 27.24 158.29 27.24 158.35 27.35 158.35 27.35 158.35 27.35 158.35 27.35 158.35 27.35 158.35 27.35 158.35 27.35 158.41 27.35 158.41 27.35 158.41 27.35 158.41 27.41 158.41 27.41 158.35 27.46 158.41 27.46 158.41 27.46 158.46 27.46 158.46 27.46 158.46 27.46 158.52 27.52 158.52 27.52 158.52 27.58 158.74 27.46 158.74 27.46 158.74 27.46"/>
                <polygon class="st18" points="167.75 39.08 167.86 39.19 167.97 39.25 168.19 39.31 168.47 39.25 168.52 37.03 168.8 36.97 168.86 35.97 169.47 35.8 169.69 35.86 170.02 35.75 170.14 35.75 169.97 35.69 169.64 35.69 169.47 35.64 169.25 35.8 168.91 35.8 168.52 35.86 168.25 35.8 167.97 35.64 167.08 35.64 166.74 35.69 166.63 35.64 166.36 35.64 166.13 35.69 166.13 35.69 166.13 35.86 166.13 35.86 166.19 35.97 166.24 36.08 166.3 36.14 166.3 36.14 166.36 36.19 166.41 36.3 166.41 36.3 166.74 37.08 166.74 37.08 166.91 37.36 166.91 37.36 166.97 37.42 166.97 37.47 166.97 37.47 166.91 37.69 166.91 37.8 166.97 37.92 166.97 37.92 167.02 38.08 167.02 38.08 167.08 38.19 167.08 38.25 167.08 38.25 167.08 38.42 167.08 38.58 167.08 38.58 167.19 38.86 167.25 39.03 167.36 39.19 167.36 39.19 167.47 39.19 167.63 39.08 167.75 39.08 167.75 39.08 167.75 39.08"/>
                <polygon class="st18" points="157.35 23.85 157.35 23.85 157.4 23.79 157.4 23.79 157.4 23.91 158.57 23.91 158.52 23.57 158.68 23.24 158.91 23.24 158.85 22.35 159.91 22.35 159.91 21.96 159.91 21.63 158.79 21.63 158.68 21.63 158.68 21.63 158.63 21.63 158.63 21.63 158.63 21.63 158.63 21.63 158.52 21.74 158.52 21.74 158.52 21.85 158.41 22.02 158.41 22.02 158.24 22.18 158.24 22.18 158.18 22.18 158.13 22.24 158.13 22.24 158.07 22.35 158.07 22.4 158.07 22.4 158.02 22.63 158.02 22.63 158.02 22.68 157.96 22.74 157.96 22.74 157.9 22.79 157.9 22.79 157.79 22.91 157.74 23.02 157.74 23.02 157.52 23.41 157.52 23.41 157.52 23.41 157.46 23.46 157.46 23.46 157.4 23.57 157.35 23.57 157.35 23.63 157.35 23.63 157.35 23.74 157.35 23.79 157.35 23.79 157.35 23.91 157.35 23.91 157.35 23.91 157.35 23.85 157.35 23.85 157.35 23.85 157.35 23.85"/>
                <polygon class="st18" points="173.64 28.85 174.14 29.13 174.42 29.13 174.75 28.97 175.25 29.02 175.47 28.85 176.14 28.69 177.03 27.96 177.09 27.85 176.92 27.85 176.2 27.74 175.86 27.58 175.7 27.58 175.47 27.35 175.42 27.07 175.25 27.02 175.14 26.85 175.2 26.63 174.92 26.24 174.36 25.96 173.64 26.02 173.58 26.57 173.3 26.69 173.19 27.02 172.97 27.07 172.97 27.52 172.75 27.8 173.14 28.3 173.19 28.58 173.47 28.85 173.64 28.85 173.64 28.85 173.64 28.85"/>
                <polygon class="st18" points="178.09 27.13 178.09 27.13 178.09 27.13 178.09 27.07 178.09 27.07 178.09 26.96 178.09 26.91 178.14 26.85 178.14 26.85 178.14 26.74 178.14 26.74 178.14 26.74 178.03 26.69 177.97 26.69 177.92 26.74 177.92 26.74 177.92 26.74 177.81 26.8 177.81 26.8 177.53 26.91 177.53 26.91 177.47 26.91 177.31 26.91 177.31 26.91 177.09 26.91 176.92 26.96 176.92 26.96 176.75 27.07 176.64 27.07 176.64 27.07 176.64 27.07 176.53 27.02 176.42 27.07 176.42 27.07 176.2 27.19 176.08 27.19 176.03 27.19 175.97 27.13 175.97 27.13 175.86 27.02 175.75 26.96 175.75 26.96 175.75 26.91 175.53 27.02 175.58 27.24 175.75 27.46 175.86 27.46 176.2 27.63 176.92 27.74 177.25 27.69 177.14 28.08 177.14 28.08 176.14 28.8 175.53 28.91 175.25 29.08 175.08 29.24 175.08 30.52 175.31 30.63 175.31 30.63 175.36 30.63 175.36 30.63 175.58 30.36 175.58 30.36 175.75 30.19 176.03 29.97 176.03 29.97 176.42 29.74 176.42 29.74 176.92 29.24 176.92 29.24 177.09 29.02 177.25 28.85 177.25 28.85 177.42 28.52 177.59 28.24 177.59 28.24 177.7 28.02 177.75 27.85 177.75 27.85 177.92 27.69 177.92 27.69 177.97 27.52 177.97 27.52 178.03 27.46 178.03 27.46 178.03 27.3 178.09 27.19 178.09 27.19 178.14 27.19 178.14 27.19 178.14 27.19 178.14 27.13 178.14 27.13 178.09 27.13 178.09 27.13 178.09 27.13 178.09 27.13"/>
                <polygon class="st18" points="175.42 26.24 175.42 26.24 175.36 26.19 175.36 26.13 175.25 26.07 175.25 26.07 175.2 26.02 175.14 25.96 175.14 25.96 174.97 25.85 174.92 25.8 174.81 25.8 174.81 25.8 174.75 25.74 174.75 25.69 174.75 25.69 174.75 25.69 174.69 25.63 174.64 25.63 174.64 25.63 174.64 25.63 174.64 25.69 174.64 25.69 174.64 25.69 174.64 25.69 174.64 25.69 174.64 25.69 174.64 25.69 174.58 25.63 174.58 25.63 174.58 25.57 174.58 25.57 174.47 25.46 174.47 25.46 174.47 25.41 174.47 25.24 174.47 25.24 174.42 25.07 174.31 24.91 173.81 25.18 173.69 25.46 173.64 25.96 174.36 25.85 174.97 26.19 175.25 26.57 175.36 26.57 175.47 26.3 175.47 26.3 175.47 26.3 175.47 26.3 175.42 26.24 175.42 26.24 175.42 26.24 175.42 26.24"/>
                <polygon class="st18" points="174.97 34.75 174.97 34.75 174.92 34.75 174.92 34.75 174.92 34.75 174.92 34.69 174.92 34.69 174.92 34.69 174.92 34.69 174.92 34.69 174.86 34.52 174.86 34.52 174.86 34.41 174.86 34.36 174.86 34.36 174.92 34.3 174.86 34.3 174.86 34.3 174.81 34.3 174.86 34.3 174.86 34.3 174.92 34.25 174.92 34.19 174.92 34.19 174.86 33.86 174.86 33.86 174.81 33.8 174.81 33.8 174.81 33.8 174.86 33.69 174.86 33.69 174.86 33.69 174.86 33.69 174.86 33.64 174.86 33.64 174.86 33.64 174.86 33.64 174.92 33.64 174.86 33.58 174.86 33.58 174.81 33.52 174.81 33.52 174.75 33.47 174.75 33.47 174.75 33.47 174.53 33.52 174.42 33.69 174.19 33.8 174.08 33.91 173.64 33.97 173.36 33.97 173.19 33.91 173.19 33.91 173.19 33.91 173.19 33.91 173.19 33.97 173.14 34.08 173.14 34.08 173.14 34.14 173.14 34.19 173.14 34.19 173.14 34.41 173.14 34.41 173.14 34.52 173.19 34.58 173.19 34.58 173.19 34.58 173.19 34.64 173.19 34.64 173.3 34.64 173.36 34.97 173.25 35.14 173.08 35.14 173.03 35.03 172.86 34.86 172.8 34.58 172.69 34.36 172.42 34.64 172.14 34.75 171.97 34.75 171.64 34.91 171.64 35.08 172.25 35.3 172.42 35.47 172.42 35.97 172.36 36.03 172.36 36.14 172.53 36.41 172.47 36.53 172.19 36.69 172.14 37.03 172.03 37.19 172.08 37.92 172.08 38.25 172.14 38.58 172.58 38.58 172.58 38.58 172.58 38.53 172.58 38.53 172.58 38.53 172.58 38.53 172.53 38.53 172.53 38.53 172.53 38.53 172.53 38.53 172.53 38.53 172.47 38.47 172.47 38.47 172.47 38.42 172.47 38.42 172.53 38.42 172.53 38.36 172.53 38.36 172.58 38.31 172.64 38.25 172.69 38.19 172.69 38.19 173.03 38.08 173.19 38.03 173.3 37.92 173.3 37.92 173.3 37.92 173.36 37.8 173.36 37.8 173.36 37.75 173.3 37.75 173.3 37.75 173.3 37.75 173.3 37.75 173.3 37.75 173.36 37.58 173.36 37.58 173.36 37.25 173.36 37.25 173.36 37.19 173.36 37.19 173.36 37.19 173.3 37.25 173.3 37.25 173.3 37.25 173.3 37.19 173.3 37.19 173.3 37.14 173.19 36.97 173.19 36.97 173.19 36.86 173.19 36.86 173.19 36.86 173.19 36.86 173.19 36.8 173.19 36.8 173.14 36.75 173.14 36.69 173.14 36.69 173.14 36.64 173.14 36.58 173.14 36.58 173.14 36.58 173.14 36.58 173.14 36.58 173.14 36.58 173.14 36.53 173.14 36.53 173.14 36.53 173.14 36.47 173.14 36.47 173.14 36.41 173.14 36.41 173.14 36.47 173.14 36.47 173.14 36.47 173.19 36.47 173.19 36.47 173.42 36.25 173.42 36.25 173.47 36.14 173.53 36.14 173.53 36.14 173.58 36.14 173.58 36.14 173.58 36.14 173.64 36.14 173.64 36.14 173.64 36.08 173.64 36.08 173.75 35.97 173.75 35.97 173.81 35.91 173.81 35.91 173.81 35.91 173.75 35.91 173.81 35.86 173.81 35.86 173.81 35.86 173.81 35.86 173.92 35.8 174.03 35.75 174.03 35.75 174.08 35.75 174.14 35.64 174.14 35.64 174.14 35.64 174.25 35.64 174.25 35.64 174.47 35.58 174.58 35.47 174.75 35.3 174.75 35.3 174.86 35.08 174.86 35.08 174.92 34.97 174.92 34.97 174.92 34.97 174.92 34.91 174.92 34.91 174.92 34.91 174.97 34.86 174.97 34.75 174.97 34.75 174.97 34.75 174.97 34.75"/>
                <path class="st18" d="M172.03,38.97h-.28l-.11-.28v-.5h.39v-.28l-.11-.72-.39-.11-.17.11h-.22l-.33.28-.11.17-.33.11v.33l-.28.28h-.28l-.17-.11h-.11l-.39.44h-.33l-.11-.56-.11-.11v1.28l-.44.11h-.22c0-.06-.17-.17-.17-.17h-.11c0-.06-.06-.06-.06-.06l-.11.11h.06c0,.06.17.44.17.44l.28.56h0v.11c.06,0,.11.11.11.11v.11h0v.11h-.06c0,.06.06.11.06.11h0l.11.17h0v.11h0v.11h0c0,.06.11.06.11.06h0v.06h.06l.11.06h.06l.17-.11h.5c0-.06.33-.06.33-.06h.67v-.06h.44l.17-.17h.11c0-.06.11-.11.11-.11h0l.22-.22h0l.22-.22h0l.17-.11.17-.28h0l.11-.22.11-.11.11-.11h.06v-.17c.06,0,.11-.06.11-.06v-.11h0v-.28h.06v-.11h-.39l-.11.28h0l.17-.22ZM171.19,39.81l-.11.11-.33.11-.22-.28v-.22l.39-.33.44.11v.28s-.17.22-.17.22Z"/>
                <polygon class="st18" points="174.97 29.24 175.08 29.13 174.75 29.08 174.47 29.24 174.14 29.24 173.58 28.97 173.42 28.97 172.97 28.97 172.97 29.13 173.25 29.58 173.25 29.85 172.97 30.08 172.92 30.36 172.92 30.36 172.92 30.41 172.92 30.41 172.97 30.47 172.97 30.47 172.97 30.47 173.03 30.47 173.03 30.47 173.14 30.41 173.14 30.41 173.14 30.47 173.14 30.47 173.14 30.47 173.14 30.47 173.14 30.47 173.08 30.47 173.03 30.47 173.03 30.47 173.03 30.52 173.03 30.52 173.03 30.52 172.97 30.52 172.97 30.52 172.97 30.52 172.97 30.52 172.97 30.52 172.92 30.58 172.92 30.63 172.92 30.63 172.97 30.63 172.97 30.63 172.97 30.63 172.92 30.69 173.3 30.8 174.03 31.02 173.97 31.3 174.58 31.63 174.58 31.63 174.58 31.58 174.58 31.58 174.58 31.58 174.58 31.58 174.64 31.58 174.64 31.47 174.64 31.47 174.64 31.47 174.64 31.41 174.64 31.41 174.75 31.36 174.75 31.3 174.75 31.24 174.75 31.24 174.81 31.19 174.86 31.13 174.86 31.13 174.92 31.13 174.92 31.08 174.92 31.08 174.92 31.02 174.97 31.02 174.97 31.02 174.97 31.02 174.97 31.02 174.97 31.02 174.97 31.02 174.97 30.97 174.97 30.97 174.97 30.97 174.97 30.97 174.97 30.97 175.03 30.97 175.03 30.97 175.08 30.97 175.2 30.86 175.2 30.8 175.2 30.8 175.25 30.74 174.97 30.58 174.97 29.24 174.97 29.24 174.97 29.24"/>
                <polygon class="st18" points="173.3 30.86 172.86 30.8 172.86 30.8 172.86 30.8 172.86 30.8 172.86 30.8 172.86 30.8 172.86 30.8 172.86 30.8 172.86 30.8 172.86 30.8 172.8 30.8 172.8 30.86 172.8 30.86 172.8 30.86 172.75 30.91 172.75 30.91 172.69 30.91 172.69 30.97 172.69 30.97 172.69 30.97 172.69 30.97 172.69 30.97 172.69 30.97 172.69 30.97 172.69 30.97 172.69 31.02 172.69 31.02 172.69 31.02 172.69 31.02 172.69 31.02 172.69 31.02 172.75 31.02 172.86 31.02 172.86 31.02 172.75 31.08 172.69 31.13 172.69 31.13 172.64 31.13 172.64 31.13 172.58 31.13 172.58 31.13 172.58 31.13 172.58 31.19 172.58 31.19 172.53 31.24 172.53 31.24 172.53 31.24 172.53 31.19 172.53 31.19 172.53 31.13 172.53 31.13 172.53 31.13 172.53 31.13 172.53 31.13 172.53 31.13 172.53 31.13 172.53 31.13 172.53 31.08 172.47 31.13 172.47 31.13 172.42 31.13 172.42 31.13 172.42 31.13 172.42 31.13 172.42 31.13 172.42 31.13 172.36 31.02 172.36 31.02 172.3 31.08 172.3 31.13 172.3 31.13 172.3 31.13 172.3 31.13 172.3 31.13 172.3 31.13 172.3 31.13 172.3 31.13 172.25 31.19 172.25 31.19 172.25 31.19 172.25 31.19 172.25 31.19 172.25 31.19 172.25 31.19 172.25 31.19 172.25 31.19 172.25 31.13 172.25 31.13 172.19 31.08 172.14 31.02 172.19 30.97 172.19 30.97 172.19 30.86 172.25 30.74 172.25 30.74 172.25 30.69 172.25 30.69 172.25 30.69 172.19 30.58 172.25 30.58 171.8 30.41 171.75 30.47 171.86 30.58 171.8 30.74 171.69 30.8 171.69 30.86 171.8 30.97 171.75 31.19 171.64 31.3 171.58 31.36 171.47 31.47 171.47 31.58 171.47 31.58 171.53 31.63 171.53 31.63 171.53 31.74 171.53 31.74 171.53 31.74 171.53 31.8 171.58 31.91 171.58 31.91 171.64 31.91 171.58 31.97 171.58 31.97 171.64 32.02 171.64 32.08 171.64 32.08 171.64 32.13 171.64 32.19 171.64 32.19 171.64 32.25 171.64 32.3 171.64 32.3 171.69 32.3 171.69 32.3 171.69 32.3 171.75 32.41 171.86 32.52 171.97 32.8 172.08 32.97 172.47 33.19 172.97 33.19 172.97 33.36 172.97 33.36 173.03 33.41 173.03 33.41 173.08 33.58 173.08 33.58 173.14 33.75 173.14 33.75 173.14 33.8 173.14 33.8 173.64 33.86 174.03 33.8 174.14 33.69 174.36 33.58 174.47 33.47 174.64 33.41 174.64 33.41 174.64 33.36 174.64 33.36 174.58 33.25 174.58 33.25 174.58 33.19 174.58 33.19 174.58 33.19 174.58 33.08 174.58 33.08 174.53 33.08 174.53 33.02 174.47 32.86 174.47 32.86 174.53 32.8 174.53 32.63 174.53 32.63 174.47 32.63 174.53 32.58 174.53 32.58 174.58 32.47 174.58 32.47 174.47 32.41 174.47 32.41 174.36 32.3 174.36 32.25 174.36 32.08 174.36 32.08 174.42 31.91 174.47 31.8 174.47 31.8 174.58 31.69 173.92 31.36 173.92 31.13 173.3 30.86 173.3 30.86 173.3 30.86"/>
                <polygon class="st18" points="173.14 28.63 173.03 28.3 172.58 27.8 172.86 27.46 172.86 27.02 173.14 26.91 173.19 26.57 173.47 26.52 173.58 25.46 173.75 25.07 174.31 24.85 174.31 24.85 174.19 24.74 174.19 24.74 174.08 24.68 173.97 24.52 173.92 24.52 173.92 24.41 173.92 24.41 173.86 23.91 173.86 23.91 173.86 23.85 173.86 23.79 173.86 23.79 173.81 23.68 173.81 23.63 173.81 23.63 173.81 23.57 173.75 23.52 173.75 23.52 173.58 23.41 173.47 23.29 173.36 23.18 173.19 23.46 172.92 23.52 172.92 23.68 172.69 23.68 172.58 23.57 171.19 23.63 170.3 23.57 170.3 24.24 170.02 24.3 170.02 25.52 169.64 25.63 169.64 25.8 169.58 25.91 169.47 26.35 169.47 26.41 169.58 26.52 169.58 26.74 169.8 26.85 169.8 26.96 169.8 27.07 169.97 27.3 169.97 27.63 170.08 27.69 170.19 27.85 170.3 27.91 170.58 28.13 170.64 28.41 170.97 28.58 171.14 28.91 171.19 28.91 171.3 28.8 171.53 28.91 171.69 28.85 171.92 29.13 172.03 29.08 172.25 29.13 172.64 29.13 172.8 28.97 172.75 28.91 173.3 28.85 173.14 28.63 173.14 28.63 173.14 28.63"/>
                <polygon class="st18" points="170.97 39.31 170.64 39.64 170.64 39.7 170.86 39.92 171.08 39.86 171.14 39.75 171.36 39.53 171.3 39.36 170.97 39.31 170.97 39.31 170.97 39.31"/>
              </g>
            </g>
          </g>
          <g class="st9">
            <g id="Layer_11" data-name="Layer_1">
              <g>
                <path class="st32" d="M100.7,133.71c-4,0-5.67-1.33-5.67-7.06s1.67-7.06,5.67-7.06,5.73,1.39,5.73,7.06-1.67,7.06-5.73,7.06Z"/>
                <path class="st32" d="M90.58,122.37c-2.95,0-4.23-1-4.23-5.23s1.22-5.23,4.23-5.23,4.23,1.06,4.23,5.23-1.22,5.23-4.23,5.23Z"/>
                <path class="st32" d="M106.87,124.64c-2.61,0-3.72-.89-3.72-4.56s1.11-4.56,3.72-4.56,3.72.89,3.72,4.56-1.06,4.56-3.72,4.56Z"/>
                <path class="st32" d="M89.52,137.77c-2.5,0-3.5-.83-3.5-4.34s1.06-4.34,3.5-4.34,3.56.89,3.56,4.34-1,4.34-3.56,4.34Z"/>
                <path class="st32" d="M97.53,146.44h-.83v-21.63c0-1.11-.5-2.11-1.28-2.84l-2.95-2.5.56-.67,2.95,2.5c1,.89,1.61,2.11,1.61,3.45v21.63h0l-.06.06Z"/>
                <path class="st21" d="M92.75,161.17h8.67c.61,0,1.17-.44,1.28-1.06l3-17.18h-17.18l3,17.18c.11.61.61,1.06,1.28,1.06h-.06Z"/>
              </g>
            </g>
          </g>
        </g>
      </g>
    </g>
  </g>
</svg>