<?xml version="1.0" encoding="UTF-8"?>
<svg id="Layer_1" xmlns="http://www.w3.org/2000/svg" xmlns:xlink="http://www.w3.org/1999/xlink" version="1.1" viewBox="0 0 300 168">
  <!-- Generator: Adobe Illustrator 29.2.1, SVG Export Plug-In . SVG Version: 2.1.0 Build 116)  -->
  <defs>
    <style>
      .st0 {
        fill: #71c4bc;
      }

      .st1 {
        fill: none;
        stroke: #b5e0f5;
        stroke-miterlimit: 10;
        stroke-width: 3.01px;
      }

      .st2 {
        fill: #667c8b;
      }

      .st3 {
        fill: #fff;
      }

      .st4 {
        fill: #e9f6fc;
      }

      .st5 {
        fill: #00b1d8;
      }

      .st6 {
        fill: #42b0d5;
      }

      .st7 {
        fill: #b5e0f5;
      }

      .st8 {
        fill: #b2bdc5;
      }

      .st9 {
        fill: #cfcfcf;
      }
    </style>
  </defs>
  <path class="st4" d="M300,0H0v168.21h300V0Z"/>
  <path class="st8" d="M300,110.71H0v57.59h300v-57.59Z"/>
  <path class="st3" d="M205.58,44.66v80.26c0,4.62-3.75,8.37-8.37,8.37h-108.29c-4.62,0-8.37-3.75-8.37-8.37V44.66c0-4.62,3.75-8.37,8.37-8.37h108.29c4.62,0,8.37,3.75,8.37,8.37h0Z"/>
  <path class="st2" d="M80.55,48.81v-4.15c0-4.62,3.74-8.38,8.36-8.38h108.31c4.62,0,8.38,3.74,8.38,8.36v4.18"/>
  <path class="st5" d="M196.94,57.18h-38.37v1.61h38.37v-1.61Z"/>
  <path class="st5" d="M198.14,61.32h-39.56v1.61h39.56v-1.61Z"/>
  <path class="st0" d="M189.81,69.58h-31.23v1.61h31.23v-1.61Z"/>
  <path class="st0" d="M181.35,65.46h-22.78v1.61h22.78v-1.61Z"/>
  <path class="st9" d="M89.49,45c1.35,0,2.45-1.1,2.45-2.45s-1.1-2.45-2.45-2.45-2.45,1.1-2.45,2.45,1.1,2.45,2.45,2.45Z"/>
  <path class="st9" d="M97.03,45c1.35,0,2.45-1.1,2.45-2.45s-1.1-2.45-2.45-2.45-2.45,1.1-2.45,2.45,1.1,2.45,2.45,2.45Z"/>
  <path class="st9" d="M104.56,45c1.35,0,2.45-1.1,2.45-2.45s-1.1-2.45-2.45-2.45-2.45,1.1-2.45,2.45,1.1,2.45,2.45,2.45Z"/>
  <path class="st7" d="M103.58,84.7h-7.15v35.28h7.15v-35.28Z"/>
  <path class="st7" d="M123.87,90.24h-7.15v29.74h7.15v-29.74Z"/>
  <path class="st7" d="M142.78,98.24h-7.15v21.74h7.15v-21.74Z"/>
  <path class="st7" d="M161.92,98.24h-7.15v21.74h7.15v-21.74Z"/>
  <path class="st1" d="M98.03,73.33l22.26,6.48,18.9,10.43,19.14,4.33"/>
  <path class="st5" d="M120.3,82.75c1.62,0,2.93-1.31,2.93-2.93s-1.31-2.93-2.93-2.93-2.93,1.31-2.93,2.93,1.31,2.93,2.93,2.93Z"/>
  <path class="st0" d="M139.2,92.25c1.62,0,2.93-1.31,2.93-2.93s-1.31-2.93-2.93-2.93-2.93,1.31-2.93,2.93,1.31,2.93,2.93,2.93Z"/>
  <path class="st0" d="M98.03,76.36c1.62,0,2.93-1.31,2.93-2.93s-1.31-2.93-2.93-2.93-2.93,1.31-2.93,2.93,1.31,2.93,2.93,2.93Z"/>
  <path class="st5" d="M157.7,97.5c1.62,0,2.93-1.31,2.93-2.93s-1.31-2.93-2.93-2.93-2.93,1.31-2.93,2.93,1.31,2.93,2.93,2.93Z"/>
  <path class="st5" d="M211.78,124.28h-1.75v-8.59c0-.31-.26-.57-.57-.57h-5.28c-.31,0-.57.26-.57.57v8.59h-1.75c-1.1,0-1.71,1.27-1.03,2.13l4.95,6.19c.53.66,1.52.66,2.05,0l4.95-6.19c.69-.86.08-2.13-1.03-2.13h.03Z"/>
  <path class="st6" d="M196.64,123h-1.24v-6.08c0-.22-.18-.4-.4-.4h-3.74c-.22,0-.4.18-.4.4v6.08h-1.24c-.78,0-1.21.9-.73,1.51l3.51,4.38c.37.47,1.08.47,1.45,0l3.51-4.38c.49-.61.06-1.51-.73-1.51h.01Z"/>
  <path class="st6" d="M224.24,123h-1.24v-6.08c0-.22-.18-.4-.4-.4h-3.74c-.22,0-.4.18-.4.4v6.08h-1.24c-.78,0-1.21.9-.73,1.51l3.51,4.38c.37.47,1.08.47,1.45,0l3.51-4.38c.49-.61.06-1.51-.73-1.51h.01Z"/>
  <path class="st2" d="M227.33,96.04h-2.86c-1.32-2.59-3.83-4.48-6.8-4.95-2.09-6.48-8.17-11.17-15.35-11.17-8.91,0-16.13,7.22-16.13,16.13h0c-6.89.2-12.41,5.84-12.41,12.76s5.72,12.76,12.76,12.76h1.6c.27-.17.56-.29.87-.36v-4.29c0-1.25,1.01-2.26,2.26-2.26h3.74c1.25,0,2.26,1.01,2.26,2.26v4.29c.31.07.6.19.87.36h3.64v-5.87c0-1.34,1.09-2.42,2.42-2.42h5.28c1.34,0,2.42,1.09,2.42,2.42v5.87h3.85c.27-.17.56-.29.87-.36v-4.29c0-1.25,1.01-2.26,2.26-2.26h3.74c1.25,0,2.26,1.01,2.26,2.26v4.29c.31.07.6.19.87.36h1.6c7.05,0,12.76-5.72,12.76-12.76s-5.72-12.76-12.76-12.76h-.02Z"/>
  <g>
    <path class="st3" d="M195.75,106.63c-.48-.26-.82-.69-1-1.28s-.28-1.45-.28-2.57c0-1.21.13-2.13.4-2.76s.67-1.06,1.21-1.29c.54-.23,1.29-.34,2.23-.34.37,0,.73.02,1.07.06.35.04.64.09.87.14v1.66c-.2-.05-.46-.09-.78-.13-.32-.04-.65-.06-1-.06-.62,0-1.08.07-1.36.21-.28.14-.47.39-.56.74-.09.36-.14.92-.14,1.7s.04,1.4.13,1.78c.09.38.23.62.44.74.2.12.51.17.92.17.27,0,.61-.02,1.01-.07v-1.87h-1.32v-1.58h2.58c.18,0,.31.03.39.1.08.07.13.17.13.32v4.45c-.38.07-.85.14-1.4.2-.55.06-1.03.09-1.43.09-.93,0-1.63-.13-2.12-.39Z"/>
    <path class="st3" d="M202.12,98.5h1.92v3.31h2.63v-3.31h1.92v8.4h-1.92v-3.47h-2.63v3.47h-1.92v-8.4Z"/>
    <path class="st3" d="M211.19,106.63c-.48-.26-.82-.69-1-1.28s-.28-1.45-.28-2.57c0-1.21.13-2.13.4-2.76s.67-1.06,1.21-1.29c.54-.23,1.29-.34,2.23-.34.37,0,.73.02,1.07.06.35.04.64.09.87.14v1.66c-.2-.05-.46-.09-.78-.13-.32-.04-.65-.06-1-.06-.62,0-1.08.07-1.36.21-.28.14-.47.39-.56.74-.09.36-.14.92-.14,1.7s.04,1.4.13,1.78c.09.38.23.62.44.74.2.12.51.17.92.17.27,0,.61-.02,1.01-.07v-1.87h-1.32v-1.58h2.58c.18,0,.31.03.39.1.08.07.13.17.13.32v4.45c-.38.07-.85.14-1.4.2-.55.06-1.03.09-1.43.09-.93,0-1.63-.13-2.12-.39Z"/>
  </g>
</svg>