<?xml version="1.0" encoding="UTF-8"?>
<svg id="Layer_1" xmlns="http://www.w3.org/2000/svg" xmlns:xlink="http://www.w3.org/1999/xlink" version="1.1" viewBox="0 0 300 168">
  <!-- Generator: Adobe Illustrator 29.2.1, SVG Export Plug-In . SVG Version: 2.1.0 Build 116)  -->
  <defs>
    <style>
      .st0, .st1, .st2, .st3, .st4, .st5 {
        fill: none;
      }

      .st6 {
        fill: #d7d7d7;
        stroke: #d7d7d7;
      }

      .st6, .st7, .st2, .st8, .st9, .st4 {
        stroke-miterlimit: 10;
      }

      .st7 {
        fill: #ededed;
        stroke: #ededed;
        stroke-width: .21px;
      }

      .st10 {
        fill: #f3744d;
      }

      .st11, .st12 {
        fill: #545454;
      }

      .st13 {
        fill: #893d37;
      }

      .st1 {
        stroke-width: 3.15px;
      }

      .st1, .st12, .st4 {
        stroke: #545454;
      }

      .st14 {
        stroke: #adb9c1;
        stroke-width: 1.13px;
      }

      .st14, .st3, .st15, .st5 {
        stroke-linejoin: round;
      }

      .st14, .st16 {
        fill: #adb9c1;
      }

      .st2 {
        stroke: #00243d;
        stroke-linecap: round;
        stroke-width: .42px;
      }

      .st17 {
        fill: #a5a5a5;
      }

      .st18 {
        fill: #dfc3b2;
      }

      .st3 {
        stroke: #b7b7b7;
        stroke-width: 1.14px;
      }

      .st19 {
        fill: #d0d0cf;
      }

      .st20 {
        fill: #00786b;
      }

      .st8 {
        stroke-width: 1.1px;
      }

      .st8, .st9 {
        stroke: #be6d4d;
      }

      .st8, .st9, .st21 {
        fill: #be6d4d;
      }

      .st9 {
        stroke-width: 1.46px;
      }

      .st22 {
        fill: #b7b7b7;
      }

      .st23 {
        fill: #ffb67f;
      }

      .st24 {
        fill: #02243c;
      }

      .st25 {
        fill: #7d7d7d;
      }

      .st26 {
        fill: #00243d;
      }

      .st27 {
        fill: #fff;
      }

      .st12 {
        stroke-width: 1.58px;
      }

      .st4 {
        stroke-width: .37px;
      }

      .st28 {
        fill: #878787;
      }

      .st29 {
        fill: #00a8da;
      }

      .st30 {
        fill: #a66e69;
      }

      .st31 {
        fill: #fa6a55;
      }

      .st32 {
        fill: #ababab;
      }

      .st15 {
        fill: #f7f7f7;
        stroke: #f7f7f7;
        stroke-width: 1.12px;
      }

      .st33 {
        fill: #fcfcfc;
      }

      .st34 {
        fill: #fb806e;
      }

      .st35 {
        clip-path: url(#clippath);
      }

      .st5 {
        stroke: #cfcfcf;
        stroke-width: 2.09px;
      }

      .st36 {
        fill: #171617;
      }

      .st37 {
        fill: #750000;
      }

      .st38 {
        fill: #cfcfcf;
      }
    </style>
    <clipPath id="clippath">
      <rect class="st0" width="300" height="168"/>
    </clipPath>
  </defs>
  <g class="st35">
    <g>
      <rect class="st0" x="23" width="252" height="168"/>
      <g>
        <path class="st18" d="M300,0H0v140.36h300V0Z"/>
        <path class="st28" d="M300,132.05H0v35.95h300v-35.95Z"/>
        <path class="st33" d="M161.82,14.98h-33.53c-3.32,0-6.01,2.69-6.01,6.01v33.52c0,3.32,2.69,6.01,6.01,6.01h33.53c3.32,0,6.01-2.69,6.01-6.01V20.99c0-3.32-2.69-6.01-6.01-6.01Z"/>
        <path class="st33" d="M133.25,70.04l-1.68-12.17h13.49l-8.39,12.19c-.39.94-1.49,1.39-2.43.99-.45-.19-.81-.56-1-1.01h0Z"/>
        <path class="st34" d="M150.97,27.28l-5.5,3.42s-.05.05-.06.08l-.33,1.27c-.02.07.03.15.1.16l1.32.33s.08,0,.11-.01l5.49-3.41-1.14-1.82h.01ZM146.99,30.96c-.06-.09-.03-.22.07-.27.09-.06.22-.03.27.07.06.09.03.22-.07.27-.1.06-.22.03-.27-.06ZM147.95,30.37c-.06-.09-.03-.22.06-.27.1-.06.22-.03.27.06.06.09.03.22-.07.27-.09.06-.21.03-.27-.07ZM149,29.72c-.06-.09-.03-.22.07-.27.09-.05.21-.03.27.07.06.09.03.22-.06.27-.09.06-.22.03-.27-.07ZM149.96,29.12c-.06-.09-.03-.22.07-.27.09-.06.21-.03.27.07.06.09.03.22-.06.27-.09.05-.22.03-.27-.07Z"/>
        <path class="st34" d="M164.24,21.51l.29-1.33c.01-.08-.03-.15-.1-.16l-1.28-.27s-.07,0-.1.02l-5.38,3.34c-.07.04-.08.12-.04.18l.99,1.6c.04.06.12.08.18.05l5.38-3.34s.05-.05.06-.09h0Z"/>
        <path class="st31" d="M160.65,20.95l1.41,2.27s.01.08-.02.1l-1.09.67s-.09.01-.1-.02l-1.41-2.27s-.01-.08.02-.1l1.09-.67s.09-.01.11.02Z"/>
        <path class="st31" d="M154.73,29.05c1.26.08,2.42-.65,2.9-1.81.03-.08.06-.16.09-.24.17-.44.57-1.39,1.07-1.84.1-.09.12-.24.05-.35l-.46-.73-.12-.2-.45-.73c-.08-.11-.22-.16-.34-.1-.63.25-1.65.19-2.12.15-.08-.01-.17-.02-.25-.02-1.26-.08-2.42.65-2.9,1.81-.03.08-.06.16-.08.24-.17.44-.57,1.39-1.07,1.84-.1.09-.13.24-.06.35l.46.73.12.2.46.73c.07.11.21.16.34.1.63-.25,1.67-.19,2.13-.15.08.01.15.02.24.02h.01,0Z"/>
        <path class="st28" d="M154.92,28.51c1.33,0,2.4-1.08,2.4-2.41s-1.08-2.4-2.4-2.4-2.4,1.08-2.4,2.4,1.08,2.41,2.4,2.41Z"/>
        <path class="st27" d="M157.05,26.61c.28-1.17-.44-2.35-1.62-2.63-1.17-.28-2.35.44-2.63,1.61-.28,1.17.44,2.35,1.62,2.63,1.17.28,2.35-.44,2.63-1.61Z"/>
        <path class="st11" d="M156.73,24.9l-.46.28.06.09.46-.29-.06-.09Z"/>
        <path class="st11" d="M153.48,26.93l-.46.29.06.09.46-.29-.06-.09Z"/>
        <path class="st11" d="M153.81,24.21l-.09.06.29.46.09-.06-.28-.46Z"/>
        <path class="st11" d="M155.83,27.47l-.09.06.29.46.09-.06-.29-.46Z"/>
        <path class="st31" d="M155.05,26.32c-.12.08-.28.04-.36-.08s-.04-.28.09-.36c.12-.07.28-.04.35.09.07.12.04.28-.08.35Z"/>
        <path class="st11" d="M155,26.23c-.07.04-.16.02-.2-.05-.04-.07-.02-.16.04-.2.07-.04.16-.02.2.05.04.07.02.16-.04.2Z"/>
        <path class="st11" d="M150.92,27.31l-.24.15,1.15,1.85.24-.15-1.15-1.85Z"/>
        <path class="st11" d="M158,22.9l-.24.15,1.13,1.82.24-.15-1.13-1.82Z"/>
        <path class="st4" d="M155.18,24.32l-.26,1.78,1.16.42"/>
        <path class="st17" d="M150.28,26.26c.05.16-.98.91-2.23,1.31l-14.82,4.69c-.28-.41-.47-.89-.54-1.39-.01-.05-.02-.1-.03-.15,3.62-.9,10.28-2.88,13.62-4.16,2.05-.78,2.89-1.32,3.24-1.65.06.03.11.06.15.1.43.35.55,1.1.6,1.24h0Z"/>
        <path class="st26" d="M137.88,23.94s.01.01.01.02c0,0,0,.01-.01.01-.4.2-.72.55-.88.97-.03.08-.07.16-.11.24-.13-.41-.14-.86-.04-1.28,0-.02.03-.05.06-.05.33,0,.65.03.97.09h0Z"/>
        <path class="st38" d="M149.53,24.92c-.35.33-1.19.88-3.24,1.65-3.35,1.28-10,3.26-13.62,4.16,0-.03-.01-.06-.02-.09-.01-.02-.02-.04-.03-.06-.95-1.78-.76-3.68-.64-3.92,0,0,.6.26,2.26.3,1.52.04,2.23-.96,2.63-1.81.15-.38.39-.71.71-.98.2-.19.45-.33.73-.39.04,0,.08-.01.11-.02.54-.02,6.72,1.28,8.51.92,1.71-.35,2.08-.12,2.48.16.02.02.04.03.06.05.02.01.04.02.06.03h0Z"/>
        <path class="st7" d="M140.17,24.67c.12-.03.24.03.27.14.03.11-.03.23-.14.27-.12.04-.24-.02-.27-.14-.03-.11.03-.24.14-.27Z"/>
        <path class="st7" d="M141.07,24.84c.11-.03.24.02.27.14.03.11-.03.24-.14.27-.12.03-.24-.02-.27-.14-.03-.11.03-.24.14-.27Z"/>
        <path class="st7" d="M141.91,25c.12-.03.24.03.27.14.03.11-.03.23-.14.27-.12.03-.24-.03-.27-.14-.03-.11.03-.23.14-.27Z"/>
        <path class="st7" d="M142.75,25.1c.11-.03.24.02.27.14.03.11-.03.24-.14.27-.12.03-.24-.02-.27-.14-.03-.11.03-.24.14-.27Z"/>
        <path class="st7" d="M143.56,25.16c.11-.03.24.02.27.14.04.11-.03.24-.14.27s-.24-.02-.27-.14c-.04-.11.03-.23.14-.27Z"/>
        <path class="st2" d="M143.64,25.3l.15-1.86"/>
        <path class="st2" d="M142.82,25.26l.2-1.47"/>
        <path class="st2" d="M141.97,25.19l.22-1.35"/>
        <path class="st2" d="M141.14,25.01l.33-1.53"/>
        <path class="st2" d="M140.24,24.84l.33-1.38"/>
        <path class="st26" d="M149.68,25.02c-.69.61-2.57,1.61-7.65,3.22-1.88.6-4.19,1.28-7.06,2.05-.22.06-.41.11-.53.14-.73.2-1.31.35-1.75.45-.01-.06-.02-.1-.03-.15,0-.03-.01-.07-.02-.1,0-.02-.02-.04-.03-.06.43-.1,1.01-.25,1.74-.45.13-.03.31-.08.54-.14,10.1-2.74,13.5-4.29,14.51-5.14.02.01.04.03.06.05.03.01.05.02.07.03.06.03.11.07.15.11h0Z"/>
        <path class="st37" d="M131.97,26.66c-.02.06-.04.11-.05.17l.05-.17Z"/>
        <path class="st26" d="M138.65,23.78c-.71.17-1.29.67-1.58,1.34-.34.78-.79,1.51-1.86,1.85-.73.23-1.78.22-3.24-.11-.02,0-.03-.02-.05-.03,0-.06.03-.12.05-.17h.05c.89.24,1.81.31,2.71.2.01,0,.03,0,.04,0,.19-.03.37-.08.54-.15,0,0,.01,0,.01,0,.85-.32,1.24-.96,1.54-1.66.16-.38.41-.71.73-.97.23-.19.51-.29.8-.31.08,0,.16,0,.24.02h0Z"/>
        <path class="st38" d="M130.74,35.56h26.7c.83,0,1.4.83,1.1,1.6l-3.33,8.7c-.35.92-1.23,1.52-2.21,1.52h-19.77l-2.5-11.83h0Z"/>
        <path class="st12" d="M131.88,39.11l-.65-3.15h26.22c.55,0,.93.56.74,1.07l-.79,2.08h-25.5Z"/>
        <path class="st1" d="M123.68,31.62h5.28c.56,0,1.04.39,1.15.94l3.76,17.84c.11.54.6.94,1.15.94h19.4"/>
        <path class="st11" d="M137.47,56.06c1.52,0,2.76-1.24,2.76-2.76s-1.24-2.76-2.76-2.76-2.76,1.24-2.76,2.76,1.24,2.76,2.76,2.76Z"/>
        <path class="st28" d="M137.47,54.49c.65,0,1.18-.53,1.18-1.19s-.53-1.19-1.18-1.19-1.18.53-1.18,1.19.53,1.19,1.18,1.19Z"/>
        <path class="st11" d="M150.08,56.06c1.52,0,2.76-1.24,2.76-2.76s-1.24-2.76-2.76-2.76-2.76,1.24-2.76,2.76,1.24,2.76,2.76,2.76Z"/>
        <path class="st28" d="M150.09,54.49c.65,0,1.18-.53,1.18-1.19s-.53-1.19-1.18-1.19-1.19.53-1.19,1.19.53,1.19,1.19,1.19Z"/>
        <path class="st14" d="M256.72,132.65h-54.72c-.83.01-1.51-.66-1.52-1.49V30.06c0-.83.69-1.5,1.52-1.49h54.72c.83-.01,1.51.66,1.52,1.49v101.09c0,.83-.69,1.5-1.52,1.49h0Z"/>
        <path class="st15" d="M255.33,31.4h-51.93v101.25h51.93V31.4Z"/>
        <path class="st16" d="M248.99,82.54c1.35,0,2.43-1.09,2.43-2.43s-1.09-2.43-2.43-2.43-2.43,1.09-2.43,2.43,1.09,2.43,2.43,2.43Z"/>
        <path class="st16" d="M247.48,79.31h-4.49c-.44,0-.8.36-.8.8h0c0,.45.36.81.8.81h4.49c.44,0,.8-.36.8-.8h0c0-.45-.36-.81-.8-.81Z"/>
        <path class="st5" d="M226.96,39.74h-14.56v35.3h14.56v-35.3Z"/>
        <path class="st5" d="M246.32,39.74h-14.56v35.3h14.56v-35.3Z"/>
        <path class="st5" d="M226.96,86.36h-14.56v35.29h14.56v-35.29Z"/>
        <path class="st5" d="M246.32,86.36h-14.56v35.29h14.56v-35.29Z"/>
        <path class="st6" d="M272.87,131.79h-87.01c-.28,0-.5.22-.5.5v6.38c0,.28.22.5.5.5h87.01c.28,0,.5-.22.5-.5v-6.38c0-.28-.22-.5-.5-.5Z"/>
        <path class="st3" d="M198.02,131.52v7.91"/>
        <path class="st3" d="M218.91,131.52v7.91"/>
        <path class="st3" d="M239.81,131.52v7.91"/>
        <path class="st3" d="M260.71,131.52v7.91"/>
        <path class="st23" d="M235.54,131.52h-29.65l.03-20.08h29.64l-.03,20.08Z"/>
        <path class="st9" d="M223.96,111.8h-6.31v5.93h6.31v-5.93Z"/>
        <path class="st21" d="M232.87,126.81h-7.92v1.22h7.92v-1.22Z"/>
        <path class="st21" d="M232.87,124.33h-6.66v1.22h6.66v-1.22Z"/>
        <path class="st23" d="M235.54,110.51h-16.21v-20.08h16.24l-.03,20.08Z"/>
        <path class="st8" d="M229.26,90.79h-3.61v5.93h3.61v-5.93Z"/>
        <path class="st21" d="M233.12,105.82h-3.96v1.22h3.96v-1.22Z"/>
        <path class="st21" d="M233.11,103.34h-2.71v1.22h2.71v-1.22Z"/>
        <path class="st23" d="M266.18,131.52h-29.64v-29.85h29.67l-.03,29.85Z"/>
        <path class="st9" d="M254.6,102.04h-6.43v10.15h6.43v-10.15Z"/>
        <path class="st21" d="M263.45,126.81h-8.93v1.22h8.93v-1.22Z"/>
        <path class="st21" d="M263.34,124.33h-7.46c-.06,0-.11.05-.11.11v1.01c0,.06.05.11.11.11h7.46c.06,0,.11-.05.11-.11v-1.01c0-.06-.05-.11-.11-.11Z"/>
        <path class="st25" d="M210.39,117.75H73.07v22.56h137.31v-22.56Z"/>
        <path class="st32" d="M209.21,134.59c1.05,3.03,1.58,6.97,1.65,12.07h8.66c4.43,0,8.01-3.59,8.01-8.01v-4.05h-18.33Z"/>
        <path class="st32" d="M78.85,134.59h-13.71v6.14c0,3.28,2.66,5.93,5.93,5.93h6.12c.07-5.11.6-9.06,1.65-12.07h0Z"/>
        <path class="st32" d="M111.62,134.59c1.06,3.03,1.58,6.97,1.65,12.07h61.49c.07-5.1.61-9.05,1.65-12.07h-64.8Z"/>
        <path class="st27" d="M222.9,118.18l-14.55-8.85-25.08-24.38c-5.01-4.87-11.73-7.6-18.72-7.6h-91.28c-4.49,0-8.13,3.64-8.13,8.12v49.1h13.71c2.44-6.98,7.64-9.02,16.31-9.02s14.03,2.07,16.46,9.02h64.81c2.43-6.98,7.64-9.02,16.31-9.02s14.03,2.07,16.46,9.02h18.33v-8.15c0-3.37-1.76-6.5-4.64-8.25h0Z"/>
        <path class="st24" d="M179.27,143.45c0,7.78,6.3,14.09,14.08,14.09s14.08-6.31,14.08-14.09-6.3-14.08-14.08-14.08-14.08,6.3-14.08,14.08Z"/>
        <path class="st19" d="M185.93,143.38c0,4.38,3.56,7.94,7.94,7.94s7.94-3.56,7.94-7.94-3.55-7.94-7.94-7.94-7.94,3.55-7.94,7.94Z"/>
        <path class="st24" d="M81.16,143.9c0,7.77,6.31,14.09,14.08,14.09s14.08-6.31,14.08-14.09-6.31-14.08-14.08-14.08-14.08,6.3-14.08,14.08"/>
        <path class="st19" d="M87.3,143.9c0,4.38,3.56,7.94,7.94,7.94s7.94-3.56,7.94-7.94-3.56-7.94-7.94-7.94-7.94,3.56-7.94,7.94Z"/>
        <path class="st22" d="M182.34,89.39h-14.7c-1.29,0-2.32,1.04-2.32,2.33v15.76c0,1.28,1.04,2.32,2.32,2.32h28.35c2.56,0,3.84-3.11,2.02-4.91l-15.67-15.5h0Z"/>
        <path class="st10" d="M70.54,116.21h-5.38v13.62h5.38v-13.62Z"/>
        <path class="st29" d="M97.07,110.62c0,.94-.76,1.71-1.71,1.71h-10.81c-.94,0-1.72-.76-1.72-1.71v-11.6c0-.94.77-1.71,1.72-1.71h10.81c.94,0,1.71.76,1.71,1.71v11.6Z"/>
        <path class="st36" d="M103.4,108.14v-6.61h1.76l2.23,4.94,2.2-4.94h1.69v6.61h-1.45v-3.85l-1.67,3.85h-1.55l-1.69-3.83v3.83h-1.5Z"/>
        <path class="st36" d="M113.63,108.14h-1.7l2.93-6.62h2.1l2.96,6.62h-1.68l-.58-1.32h-3.46l-.56,1.32h0ZM117.12,105.58l-1.22-2.81-1.18,2.81h2.4Z"/>
        <path class="st36" d="M120.59,108.14v-6.61h6.32v1.32h-4.79v1.32h4.11v1.29h-4.11v1.37h4.81v1.32h-6.33Z"/>
        <path class="st36" d="M128.15,108.14v-6.62h5.29c.7,0,1.11.41,1.11,1.11v2.23c0,.51-.45.97-1.33.97h-.15l1.54,2.31h-1.7l-1.46-2.26h-1.75v2.26h-1.55,0ZM129.7,104.56h3.32v-1.71h-3.32v1.71Z"/>
        <path class="st36" d="M137.34,108.14h-.53c-.68,0-1.01-.39-1.01-.97v-.87h1.54v.51h3.26v-1.36h-3.75c-.6,0-1.02-.4-1.02-.95v-1.97c0-.6.46-1.01,1.03-1.01h4.28c.58,0,.98.43.98,1.06v.79h-1.53v-.52h-3.26v1.3h3.74c.55,0,1.06.36,1.06,1.06v1.89c0,.64-.36,1.03-1.03,1.03h-3.76Z"/>
        <path class="st36" d="M143.61,108.14v-6.61h1.57v2.65l2.99-2.65h2.12l-3.57,3.07,3.69,3.54h-2.2l-3.04-3.01v3.01h-1.57Z"/>
        <path class="st27" d="M92.22,104.44l2.81-3.52h-.01s-4.06,1.94-4.06,1.94l-1-4.39h-.01l-1,4.39-4.06-1.96h0s2.81,3.54,2.81,3.54l-4.05,1.95v.02h4.51l-1,4.39h0s2.81-3.51,2.81-3.51l2.81,3.52h.01s-1-4.39-1-4.39h4.5v-.02s-4.06-1.95-4.06-1.95Z"/>
        <path class="st30" d="M39.88,125.01h-12.24v42.99h12.24v-42.99Z"/>
        <path class="st13" d="M39.88,125.01h-12.24v15.24l12.24,27.49v-42.74Z"/>
        <path class="st20" d="M62.13,127.75v-12c5.5-.75,9.75-5,9.75-9.74v-17c0-5.5-5.25-10-11.75-10h-10v-5c0-5.5-5.25-9.99-11.75-9.99h-12c-6.5,0-11.74,4.5-11.74,9.99v1.75h-.5c-11,0-19.99,7-19.99,15.5v18.75c0,7.49,6.25,13.49,13.49,13.24,0,10.75,7.5,16.75,13.24,16.75h26.49c8.24,0,14.74-5.5,14.74-12.25h0Z"/>
      </g>
    </g>
  </g>
</svg>