<?xml version="1.0" encoding="UTF-8"?>
<svg id="Layer_1" data-name="Layer 1" xmlns="http://www.w3.org/2000/svg" xmlns:xlink="http://www.w3.org/1999/xlink" viewBox="0 0 300 168">
  <defs>
    <style>
      .cls-1 {
        fill: none;
      }

      .cls-2 {
        fill: #00b2d9;
      }

      .cls-3 {
        fill: #545454;
      }

      .cls-4 {
        fill: #4c6677;
      }

      .cls-5 {
        fill: #e5f4fb;
      }

      .cls-6 {
        fill: #e2e2e2;
      }

      .cls-7 {
        fill: #60bddc;
      }

      .cls-8 {
        fill: #d9dee2;
      }

      .cls-9 {
        fill: #664b40;
      }

      .cls-10 {
        fill: #ccedfb;
      }

      .cls-11 {
        fill: #00243d;
      }

      .cls-12 {
        fill: #fff;
      }

      .cls-13 {
        fill: #42b0d5;
      }

      .cls-14 {
        fill: #959595;
      }

      .cls-15 {
        fill: #f7f7f7;
      }

      .cls-16 {
        fill: rgba(181, 224, 245, .3);
      }

      .cls-17 {
        fill: #b5e0f5;
      }

      .cls-18 {
        fill: #313131;
      }

      .cls-19 {
        fill: #ededed;
      }

      .cls-20 {
        fill: #335064;
      }

      .cls-21 {
        fill: #dcdcdc;
      }

      .cls-22 {
        clip-path: url(#clippath);
      }

      .cls-23 {
        fill: #cfcfcf;
      }
    </style>
    <clipPath id="clippath">
      <rect class="cls-1" width="300" height="168"/>
    </clipPath>
  </defs>
  <g class="cls-22">
    <g>
      <rect class="cls-15" x="58.48" width="168" height="168"/>
      <path class="cls-12" d="M58.48,0h168v164.64c0,1.86-1.5,3.36-3.36,3.36H61.84c-1.86,0-3.36-1.5-3.36-3.36V0Z"/>
      <path class="cls-16" d="M-10.8-2.64h315.61v169.81c0,1.91-2.83,3.47-6.31,3.47H-4.49c-3.49,0-6.31-1.55-6.31-3.47V-2.64Z"/>
      <path class="cls-19" d="M0,120.4h300v47.6H0v-47.6Z"/>
      <path class="cls-12" d="M0,82.32h226.48v38.08H0v-38.08Z"/>
      <path class="cls-3" d="M198.11,114.64h167.8v10.85h-167.8v-10.85Z"/>
      <path class="cls-2" d="M150.67,99.34l9.09-19.41c.25-.53.64-.97,1.14-1.29s1.07-.48,1.66-.48h32.44c.82,0,1.6.33,2.18.9.58.57.9,1.35.91,2.16v47.93h-16.12c-.27-10.95-3.9-13.74-12.48-13.74s-12.05,2.75-12.34,13.74h-3.74c-.82,0-1.6-.33-2.18-.9-.58-.58-.9-1.35-.9-2.16v-25.46c.02-.45.14-.89.35-1.29Z"/>
      <path class="cls-15" d="M203.81,114.64v-40.25c0-.61.12-1.21.35-1.77.23-.56.58-1.07,1.01-1.5.43-.43.95-.77,1.51-1,.57-.23,1.17-.35,1.78-.35h148.34c.61,0,1.22.12,1.79.35.57.23,1.08.57,1.52,1,.43.43.78.94,1.01,1.5.23.56.35,1.16.35,1.77v40.25h-157.66Z"/>
      <path class="cls-6" d="M226.98,76.55h2.17c.32,0,.59.26.59.58v30.13c0,.32-.26.58-.59.58h-2.17c-.32,0-.59-.26-.59-.58v-30.13c0-.32.26-.58.59-.58Z"/>
      <path class="cls-6" d="M219.19,76.55h2.17c.32,0,.59.26.59.58v30.13c0,.32-.26.58-.59.58h-2.17c-.32,0-.59-.26-.59-.58v-30.13c0-.32.26-.58.59-.58Z"/>
      <path class="cls-6" d="M211.39,76.55h2.17c.32,0,.59.26.59.58v30.13c0,.32-.26.58-.59.58h-2.17c-.32,0-.59-.26-.59-.58v-30.13c0-.32.26-.58.59-.58Z"/>
      <path class="cls-6" d="M249.98,76.55h2.17c.32,0,.59.26.59.58v30.13c0,.32-.26.58-.59.58h-2.17c-.32,0-.59-.26-.59-.58v-30.13c0-.32.26-.58.59-.58Z"/>
      <path class="cls-6" d="M242.19,76.55h2.17c.32,0,.59.26.59.58v30.13c0,.32-.26.58-.59.58h-2.17c-.32,0-.59-.26-.59-.58v-30.13c0-.32.26-.58.59-.58Z"/>
      <path class="cls-6" d="M234.39,76.55h2.17c.32,0,.59.26.59.58v30.13c0,.32-.26.58-.59.58h-2.17c-.32,0-.59-.26-.59-.58v-30.13c0-.32.26-.58.59-.58Z"/>
      <path class="cls-6" d="M271.98,76.55h2.17c.32,0,.59.26.59.58v30.13c0,.32-.26.58-.59.58h-2.17c-.32,0-.59-.26-.59-.58v-30.13c0-.32.26-.58.59-.58Z"/>
      <path class="cls-6" d="M264.19,76.55h2.17c.32,0,.59.26.59.58v30.13c0,.32-.26.58-.59.58h-2.17c-.32,0-.59-.26-.59-.58v-30.13c0-.32.26-.58.59-.58Z"/>
      <path class="cls-6" d="M285.98,76.55h2.17c.32,0,.59.26.59.58v30.13c0,.32-.26.58-.59.58h-2.17c-.32,0-.59-.26-.59-.58v-30.13c0-.32.26-.58.59-.58Z"/>
      <path class="cls-6" d="M278.19,76.55h2.17c.32,0,.59.26.59.58v30.13c0,.32-.26.58-.59.58h-2.17c-.32,0-.59-.26-.59-.58v-30.13c0-.32.26-.58.59-.58Z"/>
      <path class="cls-6" d="M256.39,76.55h2.17c.32,0,.59.26.59.58v30.13c0,.32-.26.58-.59.58h-2.17c-.32,0-.59-.26-.59-.58v-30.13c0-.32.26-.58.59-.58Z"/>
      <path class="cls-10" d="M180.88,83.11h6.21c.54,0,.99.44.99.98v6.61c0,.54-.44.98-.99.98h-6.21c-.54,0-.99-.44-.99-.98v-6.61c0-.54.44-.98.99-.98Z"/>
      <path class="cls-18" d="M206.45,127.76c0,1.92.57,3.79,1.64,5.39,1.07,1.6,2.6,2.84,4.39,3.58,1.79.74,3.75.93,5.65.56,1.9-.37,3.64-1.3,5.01-2.65,1.37-1.36,2.3-3.08,2.68-4.97.38-1.88.19-3.83-.55-5.6-.74-1.77-1.99-3.29-3.6-4.35-1.61-1.07-3.5-1.64-5.44-1.64-2.59,0-5.08,1.02-6.91,2.84s-2.87,4.28-2.87,6.85Z"/>
      <path class="cls-19" d="M210.71,127.76c0,1.08.32,2.14.93,3.04.61.9,1.47,1.6,2.48,2.01,1.01.41,2.12.52,3.19.31s2.05-.73,2.82-1.5c.77-.76,1.3-1.74,1.51-2.8.21-1.06.1-2.16-.31-3.16-.42-1-1.12-1.85-2.03-2.45-.91-.6-1.97-.92-3.06-.92-.72,0-1.44.14-2.11.41-.67.27-1.28.68-1.79,1.18-.51.51-.92,1.11-1.2,1.78-.28.66-.42,1.38-.42,2.09Z"/>
      <path class="cls-18" d="M159.8,127.76c0,1.92.57,3.79,1.65,5.38,1.07,1.59,2.6,2.83,4.38,3.57,1.78.73,3.75.93,5.64.55,1.9-.37,3.64-1.3,5-2.65,1.37-1.35,2.3-3.08,2.67-4.96.38-1.88.18-3.83-.56-5.6-.74-1.77-1.99-3.28-3.6-4.35-1.61-1.06-3.49-1.63-5.43-1.63-2.59,0-5.07,1.02-6.9,2.84-1.83,1.82-2.86,4.28-2.86,6.84Z"/>
      <path class="cls-19" d="M164.05,127.76c0,1.08.32,2.14.93,3.04.61.9,1.47,1.6,2.48,2.01,1.01.41,2.12.52,3.19.31s2.05-.73,2.82-1.5c.77-.76,1.3-1.74,1.51-2.8.21-1.06.1-2.16-.31-3.16-.42-1-1.12-1.85-2.03-2.45-.91-.6-1.97-.92-3.06-.92-.72,0-1.44.14-2.11.41-.67.27-1.28.68-1.79,1.18-.51.51-.92,1.11-1.2,1.78s-.42,1.38-.42,2.09Z"/>
      <path class="cls-10" d="M156.63,104.29h17.87c.31,0,.61-.12.83-.34.22-.22.34-.51.34-.82v-18.85c0-.31-.12-.6-.34-.82-.22-.22-.52-.34-.83-.34h-10.55c-.22,0-.44.06-.63.18-.19.12-.34.29-.43.49l-7.24,15.23c-.07.15-.11.32-.11.48v3.69c.01.29.13.56.33.77s.48.33.76.35Z"/>
      <path class="cls-8" d="M189.99,125.52v2.79c0,.25.1.49.27.67.17.18.41.28.66.28h6.76c.25,0,.48-.1.66-.28.18-.18.27-.42.27-.67v-60.88c0-.54-.57-.87-1.03-.6l-3.31,1.98c-.21.13-.34.35-.34.6v55.15h-3.02c-.25,0-.48.1-.66.28-.17.18-.27.42-.27.67Z"/>
      <path class="cls-12" d="M210.24,31.36h-56c0-2.7,1.36-5.21,5.45-5.21h1.99c0-2.7,2.86-5.98,10.13-5.98h7.54c0-3.57,1.81-6.17,9.38-6.17,10.39,0,10.68,4.99,10.68,10.42,10.98,0,10.83,6.94,10.83,6.94Z"/>
      <path class="cls-20" d="M154.66,15.2l7.9-8.09,18.35,17.92-7.9,8.09-18.35-17.92ZM174.6,31.5l4.77-4.88,11.07,10.81-4.77,4.88-11.07-10.81Z"/>
      <path class="cls-11" d="M156.39,15.19l6.21-6.36,3.51,3.43-6.21,6.36-3.51-3.43ZM160.72,19.42l6.21-6.36,3.51,3.43-6.21,6.36-3.51-3.43ZM165.04,23.64l6.21-6.36,3.51,3.42-6.21,6.36-3.51-3.42ZM169.37,27.87l6.21-6.36,3.51,3.42-6.21,6.36-3.5-3.42Z"/>
      <path class="cls-20" d="M182.77,42.56l7.9-8.09,18.35,17.92-7.9,8.09-18.35-17.92Z"/>
      <path class="cls-11" d="M184.5,42.55l6.21-6.36,3.51,3.43-6.21,6.36-3.51-3.43ZM188.83,46.78l6.21-6.36,3.51,3.43-6.21,6.36-3.51-3.43ZM193.15,51l6.21-6.36,3.51,3.42-6.21,6.36-3.51-3.42ZM197.49,55.23l6.21-6.36,3.51,3.42-6.21,6.36-3.51-3.42ZM171.79,43.56l-4.84,4.96c-.62.63.11,1.43.77.75l4.75-4.86-.67-.85Z"/>
      <path class="cls-17" d="M176.19,39.43c-6.34-6.15-15.75-4.94-15.75-4.94l20.69,20.42s2.27-8.47-4.94-15.48Z"/>
      <path class="cls-13" d="M189.24,30.17c.22.22.4.47.52.76.12.28.19.59.19.9,0,.31-.05.62-.17.9-.12.29-.29.55-.5.77l-7.8,7.97c-.22.22-.47.39-.76.51-.28.12-.59.18-.89.18s-.61-.06-.89-.18c-.28-.12-.54-.29-.76-.51l-3.97-3.89c-.22-.21-.4-.47-.52-.75-.12-.28-.19-.58-.19-.89,0-.31.05-.61.16-.9.11-.29.28-.54.5-.76l7.8-7.96c.22-.22.47-.4.76-.52.28-.12.59-.19.9-.19.31,0,.62.05.9.17.29.12.55.29.77.5l3.97,3.89Z"/>
      <path class="cls-23" d="M73.95,44.02h39.24v30.04h-39.24v-30.04Z"/>
      <path class="cls-19" d="M76.74,67.59v-13.75c0-.42-.17-.82-.46-1.12-.3-.3-.7-.46-1.12-.46h-12.15c-.21,0-.41.04-.61.12-.19.08-.37.2-.51.34-.15.15-.26.32-.34.51-.08.19-.12.4-.12.61v13.75h15.31ZM93.07,67.59v-13.75c0-.21-.04-.41-.12-.61-.08-.19-.2-.37-.34-.51-.15-.15-.32-.26-.51-.34-.19-.08-.4-.12-.6-.12h-12.17c-.21,0-.41.04-.61.12-.19.08-.37.2-.51.34-.15.15-.26.32-.34.51-.08.19-.12.4-.12.61v13.75h15.33ZM109.4,67.59v-13.75c0-.21-.04-.41-.12-.61-.08-.19-.2-.37-.34-.51-.15-.15-.32-.26-.51-.34-.19-.08-.4-.12-.6-.12h-12.17c-.21,0-.41.04-.61.12-.19.08-.37.2-.51.34-.15.15-.26.32-.34.51-.08.19-.12.4-.12.61v13.75h15.33ZM125.74,67.59v-13.75c0-.42-.17-.82-.46-1.12s-.7-.46-1.12-.46h-12.17c-.42,0-.82.17-1.12.46s-.46.7-.46,1.12v13.75h15.33Z"/>
      <path class="cls-7" d="M67.4,107.46h26.17v-47.25l-36.81,6.54c-.59.1-1.14.34-1.63.68-.49.34-.89.79-1.18,1.31-.29.52-.47,1.09-.51,1.69-.04.59.05,1.19.26,1.74l13.69,35.29Z"/>
      <path class="cls-13" d="M119.74,107.46h-26.17v-47.25l36.81,6.54c.59.1,1.14.34,1.63.68.48.34.89.79,1.18,1.31.29.52.46,1.09.51,1.69.04.59-.05,1.19-.26,1.74l-13.69,35.29Z"/>
      <path class="cls-11" d="M98.16,40.89h-9.18c-.18,0-.37-.04-.53-.11-.17-.07-.32-.18-.44-.32-.12-.14-.22-.3-.27-.47-.06-.18-.08-.36-.06-.54l1.43-13.62c.04-.32.19-.62.43-.84.24-.22.55-.34.88-.34h6.29c.33,0,.64.12.88.34.24.22.39.52.43.84l1.44,13.62c.02.18,0,.37-.06.54-.06.17-.15.33-.27.47-.12.14-.27.25-.44.32-.17.08-.35.12-.53.12Z"/>
      <path class="cls-21" d="M117.79,37.77h-48.43c-.6,0-1.09.49-1.09,1.09v4.07c0,.6.49,1.09,1.09,1.09h48.43c.6,0,1.09-.49,1.09-1.09v-4.07c0-.6-.49-1.09-1.09-1.09Z"/>
      <path class="cls-5" d="M98.99,107.46s.97-5.2,7.01-5.25c6.04-.06,18.59,4.75,24.95,5.28l-31.96-.03ZM88.15,107.46s-.97-5.2-7.01-5.25c-6.04-.06-18.59,4.75-24.95,5.28l31.96-.03Z"/>
      <path class="cls-14" d="M73.95,44.02l39.24,3.12v-3.12h-39.24Z"/>
      <path class="cls-12" d="M95.61,71.5l2.53-3.17h0s-3.66,1.75-3.66,1.75l-.9-3.96h-.01l-.9,3.96-3.66-1.76h0s2.53,3.18,2.53,3.18l-3.66,1.76h0s4.05.01,4.05.01l-.9,3.95h0s2.53-3.16,2.53-3.16l2.53,3.17h.01s-.9-3.96-.9-3.96h4.06s-3.66-1.77-3.66-1.77Z"/>
      <path d="M130.03,25.72c0-5.4,2.13-7.24,8.09-7.24s7.62,2.27,7.62,8.2c0,3.87-2.09,5.38-2.09,5.38-.02-.77-.21-4.63-.21-4.63l-10.86-2.27s-.12,6.63-.46,6.43c-1.06-.63-2.09-3.28-2.09-5.86"/>
      <path class="cls-9" d="M131.84,23.14l-.05,6.41h-.37c-.53,0-.96.42-.96,1.56,0,1.6.32,1.74,1.28,1.74v1.33c0,.64.12,1.27.39,1.85.27.58.66,1.09,1.15,1.5v1.92l1.05,5.51,7.15-.12,1.05-5.18v-1.97s1.47-1.28,1.47-3.14c0-.48-.04-.69-.04-1.28,1.07,0,1.17-.53,1.17-2.03s-.53-1.7-.85-1.7h-.32v-3.17l-12.13-3.25Z"/>
      <path d="M135.16,30.63h-.44c-.08,0-.16-.03-.22-.09-.06-.06-.09-.14-.09-.22v-.46c0-.08.03-.16.09-.22.06-.06.14-.09.22-.09h.46c.08,0,.16.03.22.09.06.06.09.14.09.22v.46c0,.08-.03.16-.09.22-.06.06-.14.09-.22.09M140.88,30.63h-.45c-.08,0-.16-.03-.22-.09-.06-.06-.09-.14-.09-.22v-.46c0-.08.03-.16.09-.22.06-.06.14-.09.22-.09h.45c.08,0,.16.03.22.09.06.06.09.14.09.22v.46c0,.08-.03.16-.09.22-.06.06-.14.09-.22.09ZM142.54,37.7v3.25s-1.84,2.68-1.97,2.68c-4.59-.13-7.3-6.1-7.3-6.1,3.64,3.2,5.68,3.66,9.27.16"/>
      <path class="cls-9" d="M153.02,96.98l3.74-10.68-5.23-1.79-3.74,10.68,5.23,1.79Z"/>
      <path class="cls-11" d="M137.22,153.72v3.76c0,.13-.03.26-.08.38-.05.12-.12.23-.22.33-.09.09-.2.17-.32.22-.12.05-.25.08-.38.08h-17.4v-1.11c0-.41.13-.8.36-1.14.23-.33.56-.59.94-.73l10.94-4.17,6.16,2.39ZM155,157.07v1.41h-12.04c-.13,0-.26-.03-.38-.08-.12-.05-.23-.12-.32-.22-.09-.09-.17-.2-.22-.32-.05-.12-.08-.25-.08-.38v-4.3l4.79-1.85,5.58,1.98c.78.28,1.45.79,1.93,1.46.48.67.73,1.48.73,2.31Z"/>
      <path class="cls-4" d="M125.22,82.67h25.9l2.51,12.56-.99,29.82c0,.16-.01.3-.03.47l-2.5,26.99-9.11,2.29.14-29.03-2.09-25.79-2.28,22.57,1.55,32.68-9.26-3.15-3.52-28.29c-.04-.31-.06-.62-.06-.93l-.26-36.73"/>
      <path class="cls-12" d="M139.8,35.49h-4c0,.93,4,.98,4,0Z"/>
      <path class="cls-11" d="M142.54,84.65c0,2.09,2.55,4.19,5.74,2.61l2.83-1.65,6.48,1.53,3.93-16.66c.34-1.46.27-2.98-.21-4.4l-5.86-17.37c-.34-1.01-.88-1.93-1.58-2.73-.7-.8-1.55-1.45-2.51-1.91l-7.32-3.55-1.39-.99.17,2.66-4.83,6.37-4.58-5.12-.37-3.78-1.17.77-9.03,3.99c-.92.41-1.72,1.04-2.33,1.85-.61.8-1,1.75-1.14,2.75l-1.46,10.43,8,1.53-.65,27.44,3.47.05c2.1,0,3.11-.94,3.11-3.11l.06-2.52h10.63M151.18,83.01v-22.15l2.94,7.88-2.94,14.27Z"/>
      <path class="cls-12" d="M134.93,82.83l7.61,1.81,1.49-44.12-1.49-1.25s-.5,4.78-4.59,4.78-4.68-5.04-4.68-5.04l-1.4,1.41,3.06,42.41Z"/>
      <path class="cls-12" d="M134.93,82.83l7.61,1.81,1.49-44.12-1.49-1.25s-.5,4.78-4.59,4.78-4.68-5.04-4.68-5.04l-1.4,1.41,3.06,42.41Z"/>
      <path class="cls-23" d="M140.56,77.35l-19.29,3.36c-.98.17-1.64,1.11-1.47,2.09l2.14,12.28c.17.98,1.11,1.64,2.09,1.47l19.29-3.36c.98-.17,1.64-1.11,1.47-2.09l-2.14-12.28c-.17-.98-1.11-1.64-2.09-1.47Z"/>
      <path class="cls-9" d="M127.46,92l2.38-2.59,8.29,3.42c.08.03.15.09.2.15.05.07.09.15.1.23l.05.3c.01.07.01.13,0,.2-.01.07-.04.13-.08.18-.04.06-.09.1-.15.14-.06.04-.12.06-.19.07l-2.44.43-.21,2.65c-.02.19-.09.37-.22.5-.13.14-.3.23-.48.26l-4.04.7c-.2.04-.41,0-.59-.11-.18-.11-.31-.27-.37-.47l-1.59-4.98-.67-1.1Z"/>
      <path class="cls-11" d="M117.92,59.43l-1.72,12.33c-.12.89.02,1.79.4,2.6l8.96,18.93,6.32-3.58-7.54-17.77,2.25-12.51h-8.67Z"/>
    </g>
  </g>
</svg>