<?xml version="1.0" encoding="UTF-8"?>
<svg id="Layer_1" xmlns="http://www.w3.org/2000/svg" version="1.1" viewBox="0 0 300 168">
  <!-- Generator: Adobe Illustrator 29.3.1, SVG Export Plug-In . SVG Version: 2.1.0 Build 151)  -->
  <defs>
    <style>
      .st0, .st1, .st2 {
        fill: none;
      }

      .st3 {
        fill: #00b2d9;
      }

      .st4, .st5, .st6 {
        fill-rule: evenodd;
      }

      .st4, .st7 {
        fill: #fff;
      }

      .st8 {
        fill: #4d6678;
      }

      .st9 {
        fill: #f6f6f6;
      }

      .st5 {
        fill: #e1e1e1;
      }

      .st10 {
        fill: #d8d8d8;
      }

      .st1 {
        stroke: #878787;
        stroke-width: .6px;
      }

      .st1, .st2 {
        stroke-miterlimit: 10;
      }

      .st11 {
        fill: #e7e7e7;
      }

      .st2 {
        stroke: #94a3ae;
        stroke-width: .6px;
      }

      .st12 {
        fill: #002d55;
      }

      .st13 {
        fill: #6b4a3e;
      }

      .st14 {
        fill: #9f9f9f;
      }

      .st15 {
        fill: #e6b9a3;
      }

      .st16 {
        fill: #42b0d5;
      }

      .st17 {
        fill: #42b0d5;
      }

      .st18 {
        fill: #f7f7f7;
      }

      .st19 {
        fill: #5e5e5e;
      }

      .st20 {
        fill: #e1f5fc;
      }

      .st21 {
        fill: #bfedea;
      }

      .st22 {
        fill: #8fd6ec;
      }

      .st23 {
        fill: #fbcdb8;
      }

      .st24 {
        fill: #32c1e1;
      }

      .st25 {
        fill: #e0e4e7;
      }

      .st26 {
        fill: #ccd3d8;
      }

      .st6 {
        fill: #f6f7f7;
      }

      .st27 {
        fill: #a8a8a8;
      }

      .st28 {
        fill: #888;
        isolation: isolate;
        opacity: .6;
      }

      .st29 {
        fill: #94a3ae;
      }

      .st30 {
        fill: #00243f;
      }

      .st31 {
        fill: #cfcfcf;
      }

      .st32 {
        fill: #68c0dd;
      }
    </style>
  </defs>
  <rect class="st20" width="300.6" height="127.1"/>
  <rect class="st11" y="89.4" width="319.6" height="94.2"/>
  <path class="st21" d="M314.9,68.1h-90.6c-2.7,0-4.9,2.2-4.9,4.9h0v18.2c0,2.7,2.2,4.9,4.9,4.9h95.5v-23.2c0-2.7-2.2-4.9-4.9-4.9Z"/>
  <rect class="st21" x="207.7" y="68.1" width="63.6" height="28.1" rx="7.1" ry="7.1"/>
  <path class="st21" d="M244.7,45.2h18.2c2.7,0,4.9,2.2,4.9,4.9h0v18.2c0,2.7-2.2,4.9-4.9,4.9h-18.2c-2.7,0-4.9-2.2-4.9-4.9h0v-18.2c0-2.7,2.2-4.9,4.9-4.9h0Z"/>
  <rect class="st21" x="273" y="51.4" width="34.6" height="34.6" rx="6.1" ry="6.1"/>
  <rect class="st21" x="230.3" y="56.1" width="34.6" height="34.6" rx="6.1" ry="6.1"/>
  <path class="st21" d="M264.6,59.3h22.6c3.4,0,6.1,2.7,6.1,6.1h0v22.6c0,3.4-2.7,6.1-6.1,6.1h-22.6c-3.4,0-6.1-2.7-6.1-6.1v-22.6c0-3.4,2.7-6.1,6.1-6.1Z"/>
  <path class="st21" d="M75.7,68.1H-14.9c-2.7,0-4.9,2.2-4.9,4.9h0v18.2c0,2.7,2.2,4.9,4.9,4.9h95.5v-23.2c0-2.7-2.2-4.9-4.9-4.9Z"/>
  <path class="st21" d="M5.5,45.2h18.2c2.7,0,4.9,2.2,4.9,4.9h0v18.2c0,2.7-2.2,4.9-4.9,4.9H5.5c-2.7,0-4.9-2.2-4.9-4.9h0v-18.2c0-2.7,2.2-4.9,4.9-4.9h0Z"/>
  <rect class="st21" x="33.9" y="51.4" width="34.6" height="34.6" rx="6.1" ry="6.1"/>
  <rect class="st21" x="-8.9" y="56.1" width="34.6" height="34.6" rx="6.1" ry="6.1"/>
  <path class="st21" d="M25.4,59.3h22.6c3.4,0,6.1,2.7,6.1,6.1h0v22.6c0,3.4-2.7,6.1-6.1,6.1h-22.6c-3.4,0-6.1-2.7-6.1-6.1v-22.6c0-3.4,2.7-6.1,6.1-6.1Z"/>
  <path class="st7" d="M101.5,31.7c3.5,0,4.4,1,4.4,3.6h4.9c5,0,6.2,1.5,6.2,5.1h-48.1c0-2.5.9-3.6,4.4-3.6,0-3.6,1.2-5.1,6.2-5.1h3.5c0-4.6,1.6-6.4,7.9-6.4s7.9,1.8,7.9,6.4h2.6Z"/>
  <path class="st7" d="M258,22.4h-18.6c0-2.4.8-3.3,4.1-3.3h2.9c0-3.4,1.2-4.7,5.8-4.7s4.5,1.1,4.5,3.7h0c4.3,0,5.4,1.2,5.4,4.4h-6.9"/>
  <polygon class="st26" points="206.6 115.2 267.4 115.2 267.4 88.3 206.6 88.3 206.6 115.2"/>
  <path class="st25" d="M206.6,88.3h61.9v-3.3c-15.2-8-28.6-8.1-45.5-.3-5.9-4.1-16.4-4.7-16.4-4.7v8.3Z"/>
  <path class="st25" d="M241.8,110.8v-12.2c0-2.2.9-2.5,2.3-2.5h15c1.9,0,2.3,1.6,2.3,2.5v12.2h-19.7Z"/>
  <rect class="st29" x="241.8" y="102.1" width="19.7" height="13.1"/>
  <path class="st25" d="M213.9,115.2v-16.4c0-2.2.9-2.5,2.3-2.5h15c1.9,0,2.3,1.6,2.3,2.5v16.4h-19.7Z"/>
  <line class="st2" x1="213.9" y1="99.1" x2="233.6" y2="99.1"/>
  <line class="st2" x1="213.9" y1="102.2" x2="233.6" y2="102.2"/>
  <line class="st2" x1="241.8" y1="99.1" x2="261.3" y2="99.1"/>
  <line class="st2" x1="213.9" y1="105.4" x2="233.6" y2="105.4"/>
  <line class="st2" x1="213.9" y1="108.5" x2="233.6" y2="108.5"/>
  <line class="st2" x1="213.9" y1="111.6" x2="233.6" y2="111.6"/>
  <path class="st9" d="M71.3,119.6v-46.1c0-2.8,2.1-5.2,5-6l66.8-19.2c1.5-.4,3-.4,4.5,0l66.8,19.2c3,.9,5,3.4,5,6v46.1H71.3Z"/>
  <rect class="st14" x="172.7" y="87.3" width="34.7" height="32.3"/>
  <rect class="st31" x="172.7" y="87.3" width="34.7" height="8.8"/>
  <rect class="st27" x="170.5" y="83.2" width="39.2" height="4.1"/>
  <rect class="st10" x="128.7" y="87.3" width="34.7" height="32.3"/>
  <rect class="st27" x="126.4" y="83.2" width="39.2" height="4.1"/>
  <rect class="st10" x="84.4" y="87.3" width="34.7" height="32.3"/>
  <rect class="st27" x="82.2" y="83.2" width="39.2" height="4.1"/>
  <path class="st31" d="M204.8,76.9h1.5c.4,0,.7-.2.7-.6v-3.9c0-.4-.4-.6-.7-.6h-1.5c-.3,0-.5.1-.6.4,0,0,0,0,0,.1v3.9c0,.3.1.5.4.6,0,0,0,0,.1,0"/>
  <path class="st31" d="M198.1,76.9h1.5c.3,0,.5-.1.6-.4,0,0,0,0,0-.1v-5.8c0-.3-.3-.5-.6-.6h-1.5c-.3,0-.5.1-.6.4,0,0,0,0,0,.1v5.8c0,.3.1.5.4.6,0,0,0,0,.1,0"/>
  <path class="st31" d="M191.4,76.9h1.5c.3,0,.5-.1.6-.4,0,0,0,0,0-.1v-7.8c0-.3-.3-.5-.6-.6h-1.5c-.3,0-.5.1-.6.4,0,0,0,0,0,.1v7.8c0,.3.3.5.6.6"/>
  <path class="st31" d="M184.9,76.9h1.5c.3,0,.5-.1.6-.4,0,0,0,0,0-.1v-9.7c0-.3-.3-.5-.6-.6h-1.5c-.3,0-.5.1-.6.4,0,0,0,0,0,.1v9.7c-.2.4.2.6.6.6"/>
  <path class="st31" d="M178.1,76.9h1.5c.3,0,.5-.1.6-.4,0,0,0,0,0-.1v-11.6c0-.3-.3-.5-.6-.6h-1.5c-.3,0-.5.1-.6.4,0,0,0,0,0,.1v11.6c-.2.4.2.6.6.6"/>
  <path class="st31" d="M171.4,76.9h1.5c.3,0,.5-.1.6-.4,0,0,0,0,0-.1v-13.4c0-.3-.3-.5-.6-.6h-1.5c-.3,0-.5.1-.6.4,0,0,0,0,0,.1v13.4c-.2.4.2.6.6.6"/>
  <path class="st31" d="M164.7,76.9h1.5c.3,0,.5-.1.6-.4,0,0,0,0,0-.1v-15.3c0-.3-.3-.5-.6-.6h-1.5c-.3,0-.5.1-.6.4,0,0,0,0,0,.1v15.3c-.2.4.2.6.6.6"/>
  <path class="st31" d="M158,76.9h1.5c.3,0,.5-.1.6-.4,0,0,0,0,0-.1v-17.2c0-.3-.3-.5-.6-.6h-1.5c-.3,0-.5.1-.6.4,0,0,0,0,0,.1v17.2c-.2.4.2.6.6.6"/>
  <path class="st31" d="M151.3,76.9h1.5c.3,0,.5-.1.6-.4,0,0,0,0,0-.1v-19.2c0-.3-.3-.5-.6-.6h-1.5c-.3,0-.5.1-.6.4,0,0,0,0,0,.1v19.2c0,.3.1.5.4.6,0,0,0,0,.1,0"/>
  <path class="st31" d="M144.5,76.9h1.5c.3,0,.5-.1.6-.4,0,0,0,0,0-.1v-21.1c0-.3-.3-.5-.6-.6h-1.5c-.3,0-.5.1-.6.4,0,0,0,0,0,.1v21.1c0,.3.1.5.4.6,0,0,0,0,.1,0"/>
  <path class="st31" d="M137.8,76.9h1.5c.3,0,.5-.1.6-.4,0,0,0,0,0-.1v-19.2c0-.3-.3-.5-.6-.6h-1.5c-.3,0-.5.1-.6.4,0,0,0,0,0,.1v19.2c0,.3.1.5.4.6,0,0,0,0,.1,0"/>
  <path class="st3" d="M131.1,76.9h1.5c.3,0,.5-.1.6-.4,0,0,0,0,0-.1v-17.2c0-.3-.3-.5-.6-.6h-1.5c-.3,0-.5.1-.6.4,0,0,0,0,0,.1v17.2c0,.3.1.5.4.6,0,0,0,0,.1,0"/>
  <path class="st3" d="M124.4,76.9h1.5c.3,0,.5-.1.6-.4,0,0,0,0,0-.1v-15.3c0-.3-.3-.5-.6-.6h-1.5c-.3,0-.5.1-.6.4,0,0,0,0,0,.1v15.3c0,.3.1.5.4.6,0,0,0,0,.1,0"/>
  <path class="st3" d="M117.6,76.9h1.5c.3,0,.5-.1.6-.4,0,0,0,0,0-.1v-13.4c0-.3-.3-.5-.6-.6h-1.5c-.3,0-.5.1-.6.4,0,0,0,0,0,.1v13.4c0,.3.3.5.6.6"/>
  <path class="st3" d="M111.1,76.9h1.5c.3,0,.5-.1.6-.4,0,0,0,0,0-.1v-11.6c0-.3-.3-.5-.6-.6h-1.5c-.3,0-.5.1-.6.4,0,0,0,0,0,.1v11.6c-.2.4.2.6.6.6"/>
  <path class="st3" d="M104.4,76.9h1.5c.3,0,.5-.1.6-.4,0,0,0,0,0-.1v-9.7c0-.3-.3-.5-.6-.6h-1.5c-.3,0-.5.1-.6.4,0,0,0,0,0,.1v9.7c-.2.4.2.6.6.6"/>
  <path class="st3" d="M97.7,76.9h1.5c.3,0,.5-.1.6-.4,0,0,0,0,0-.1v-7.8c0-.3-.3-.5-.6-.6h-1.5c-.3,0-.5.1-.6.4,0,0,0,0,0,.1v7.8c-.2.4.2.6.6.6"/>
  <path class="st3" d="M90.9,76.9h1.5c.3,0,.5-.1.6-.4,0,0,0,0,0-.1v-5.8c0-.3-.3-.5-.6-.6h-1.5c-.3,0-.5.1-.6.4,0,0,0,0,0,.1v5.8c-.2.4.2.6.6.6"/>
  <path class="st3" d="M84.2,76.9h1.5c.3,0,.5-.1.6-.4,0,0,0,0,0-.1v-3.9c0-.3-.3-.5-.6-.6h-1.5c-.3,0-.5.1-.6.4,0,0,0,0,0,.1v3.9c-.2.4.2.6.6.6"/>
  <line class="st1" x1="207.3" y1="91.8" x2="172.7" y2="91.8"/>
  <line class="st1" x1="163.4" y1="91.8" x2="128.8" y2="91.8"/>
  <line class="st1" x1="163.4" y1="96.7" x2="128.8" y2="96.7"/>
  <line class="st1" x1="163.4" y1="101.3" x2="128.8" y2="101.3"/>
  <line class="st1" x1="163.4" y1="106" x2="128.8" y2="106"/>
  <line class="st1" x1="163.4" y1="110.7" x2="128.8" y2="110.7"/>
  <line class="st1" x1="119.1" y1="91.8" x2="84.8" y2="91.8"/>
  <line class="st1" x1="119.1" y1="96.7" x2="84.8" y2="96.7"/>
  <line class="st1" x1="119.1" y1="101.3" x2="84.8" y2="101.3"/>
  <line class="st1" x1="119.1" y1="106" x2="84.8" y2="106"/>
  <line class="st1" x1="119.1" y1="110.7" x2="84.8" y2="110.7"/>
  <path class="st32" d="M189.1,119.6v-9.9c0-.6-.5-1.1-1.1-1.1h-8.8c-.6,0-1.1.5-1.1,1.1h0v9.9h11Z"/>
  <path class="st8" d="M201.9,119.6v-9.9c0-.6-.5-1.1-1.1-1.1h-8.8c-.6,0-1.1.5-1.1,1.1h0v9.9h11Z"/>
  <g id="cold_icon1">
    <path class="st7" d="M184.1,25.3h20.5c1.4,0,2.6,1.2,2.6,2.6v20.1c0,1.4-1.2,2.6-2.6,2.6h-7.1l-3.2,7.3-3-7.3h-7.2c-1.4,0-2.6-1.2-2.6-2.6v-20.1c0-1.4,1.2-2.6,2.6-2.6"/>
    <path class="st3" d="M194.9,44.2v1.3c0,.6,0,1.1,0,1.7,0,.3,0,.4-.2.5-.3.2-.6.2-.9,0-.1,0-.3-.2-.3-.6v-2.9s-.6.6-.7.7c0,0-.2.2-.3.3-.3.3-.5.5-.8.8-.3.2-.6.2-.9,0,0,0,0,0,0,0-.3-.3-.3-.7,0-1,0,0,.1,0,.2-.1.3-.3.6-.5.9-.8.5-.4.9-.8,1.4-1.1.1-.1.2-.3.2-.5,0-.9,0-1.8,0-2.7,0,0,0-.6,0-.7,0-.2-.2-.3-.4-.2-.2,0-.4.2-.4.2-.9.5-1.7,1-2.6,1.6-.1,0-.2.2-.2.4,0,.3,0,.5,0,.8v.3c0,.2,0,.4,0,.6,0,.4,0,.9-.1,1.4,0,.4-.3.7-.7.7,0,0,0,0,0,0-.5,0-.7-.3-.7-.8,0,0,0-.1,0-.2,0,0,0,0,0-.1l.2-1.9-.4.2c0,0-.1,0-.2.1l-.5.3c-.4.2-.7.5-1.1.7-.3.2-.5.2-.7,0-.3-.2-.4-.6-.3-.9,0,0,.1-.1.2-.2,0,0,.2-.2.3-.2.4-.3.8-.5,1.2-.8l.9-.6-1.1-.5c-.1,0-.2,0-.3-.2-.3,0-.5-.2-.7-.3-.4-.2-.5-.6-.3-.9,0,0,0,0,0,0,.2-.3.4-.4.9-.3,0,0,.2,0,.2,0l.6.3c.7.3,1.3.5,2,.8.2,0,.4,0,.6,0,.6-.3,1.2-.7,1.8-1l.7-.4c0,0,.1,0,.2-.1.1,0,.2-.3.1-.4,0,0,0,0,0,0-.2-.1-.5-.3-.5-.3-.7-.4-1.5-.9-2.2-1.3-.2,0-.4,0-.5,0-.4.2-.8.3-1.2.5-.5.2-1,.4-1.5.6-.2,0-.4.1-.5.1-.4,0-.6-.4-.6-.8,0-.3,0-.4.5-.6.4-.2.8-.3,1.2-.5l.9-.4-.4-.3c0,0-.1,0-.2-.1l-.8-.5-1.1-.7c-.2,0-.3-.2-.4-.4,0-.2,0-.5.2-.6.1-.2.3-.4.6-.4.2,0,.3,0,.5.2.3.2.7.5,1,.7l.7.5s0,0,.2,0l.4.2v-.5c0,0,0-.1,0-.2v-.5c0-.4,0-.8-.1-1.2,0-.2,0-.3.1-.4.2-.2.6-.3.9-.2.2,0,.4.3.4.6,0,1.1.2,2.1.3,3.2,0,.2.1.3.2.4.8.4,1.6.9,2.4,1.3,0,0,.4.2.6.3.2.1.3,0,.3-.3v-.5c0-.9,0-1.8,0-2.6,0-.2,0-.3-.2-.4-.3-.2-.5-.5-.8-.7-.2-.2-.4-.4-.7-.6l-.2-.2c-.2-.2-.5-.5-.7-.7-.2-.2-.3-.6,0-.8,0,0,0,0,.1-.1.2-.3.6-.3.9,0,0,0,0,0,0,0,.2.2.5.4.7.6l1.1,1v-1.2c0-.6,0-1.1,0-1.7,0-.5.2-.7.7-.7.3,0,.7.2.7.5,0,0,0,.1,0,.2,0,.5,0,.9,0,1.4v1.5s.7-.6.7-.6c.3-.3.5-.5.8-.7.1-.1.3-.3.5-.4.2-.2.6-.1.7.1,0,0,0,0,0,0,.2.4.1.9-.2,1.1,0,0,0,0,0,0-.8.6-1.6,1.3-2.3,1.8-.2.1-.3.3-.3.5,0,.6,0,1.2,0,1.9v1c0,.3.2.4.4.2.3-.1.7-.4.7-.4.7-.4,1.4-.7,2.1-1.1.2-.1.4-.3.4-.6,0-.7,0-1.3.1-2v-.8c0-.3.2-.5.4-.6.3-.2.7-.1,1,.1.2.2.2.5.2.7,0,.4,0,.8-.1,1.2v.9c0,0,.6-.4.6-.4.3-.2.6-.3.8-.4h.2c.3-.3.6-.4.9-.5,0,0,.2,0,.3,0,0,0,.4,0,.6.5.1.3,0,.5-.4.8-.4.2-.9.4-1.3.7l-.7.4c0,0-.1,0-.2,0l-.5.3,1,.4c.5.2.9.4,1.4.6.2,0,.4.2.4.4,0,.2,0,.4,0,.6-.1.3-.5.5-.8.4,0,0-.1,0-.2,0-.9-.4-1.9-.9-2.8-1.3-.2-.1-.4-.1-.6,0-.7.4-1.3.7-2,1.1l-.8.5c0,0,0,0-.2.1-.2.1-.2.3,0,.5,0,0,.6.3.6.3.8.5,1.7,1,2.5,1.4.2,0,.3,0,.5,0,.4-.2.8-.3,1.2-.5.5-.2,1-.4,1.5-.6.2,0,.4-.1.6-.1,0,0,0,0,0,0,.2,0,.5,0,.6.7,0,.4,0,.6-.4.7-.1,0-.2,0-.3.1l-1.9.6.5.3c0,0,.1,0,.2.1.2.1.4.2.5.3.4.2.8.5,1.1.7.2,0,.3.2.4.4,0,.2,0,.4-.1.5-.3.5-.6.5-1,.3-.3-.2-.7-.4-1-.7l-.7-.4s0,0-.2,0l-.4-.2v.5c0,0,0,.1,0,.2v.7c.1.4.2.7.2,1.1,0,.3-.1.6-.4.7,0,0,0,0-.1,0,0,0,0,0-.1,0-.2,0-.4,0-.5-.5,0,0,0-.2,0-.3v-.8c-.2-.7-.3-1.5-.5-2.2,0-.2-.2-.4-.3-.5-.7-.5-1.4-.9-2.1-1.4,0,0-.5-.3-.7-.4-.2,0-.4-.2-.4.2v.7c0,.9,0,1.9,0,2.8,0,.2.1.3.2.5.6.5,1.2,1,1.8,1.5l.6.5c.3.2.3.6.1.9,0,0,0,0,0,0-.2.3-.6.4-.9.2,0,0,0,0,0,0,0,0-.2-.1-.3-.2-.3-.3-.6-.5-1-.8l-.8-.7Z"/>
  </g>
  <g>
    <path class="st7" d="M47,60.2h18.8c1.3,0,2.4,1.1,2.4,2.4v18.4c0,1.3-1.1,2.4-2.4,2.4h-7l-5.6,6.7v-6.7h-6.2c-1.3,0-2.4-1.1-2.4-2.4v-18.4c0-1.3,1.1-2.4,2.4-2.4Z"/>
    <g>
      <path class="st17" d="M59.8,67.3h-7.4v-2.3c0-.4.3-.7.7-.7h6c.4,0,.7.3.7.7v2.3ZM52.9,66.8h6.4v-1.8c0-.1,0-.2-.2-.2h-6c-.1,0-.2,0-.2.2v1.8Z"/>
      <path class="st17" d="M59.9,78.5h-7.4c-.6,0-1.1-.5-1.1-1.1v-5.9c0-.5.1-1,.4-1.4l1.2-1.3c.1-.2.2-.4.2-.6v-1.2h.5v1.2c0,.3,0,.6-.3.9l-1.2,1.3c-.2.3-.3.7-.3,1.1v5.9c0,.3.3.6.6.6h7.4c.3,0,.5-.2.5-.5v-6c0-.4-.1-.8-.3-1.1l-1.2-1.3c-.2-.3-.3-.6-.3-.9v-1.2h.5v1.2c0,.2,0,.4.2.6l1.2,1.3c.3.4.4.9.4,1.4v6c0,.6-.5,1-1,1Z"/>
      <rect class="st17" x="53.7" y="65.9" width=".5" height="1.2"/>
      <rect class="st17" x="58" y="65.9" width=".5" height="1.2"/>
      <rect class="st17" x="55.9" y="65.9" width=".5" height="1.2"/>
      <rect class="st17" x="55.9" y="72.9" width=".5" height="2.3"/>
      <rect class="st17" x="55" y="73.9" width="2.3" height=".5"/>
      <rect class="st17" x="51.5" y="71.8" width="9.2" height=".5"/>
      <rect class="st17" x="51.5" y="75.9" width="9.2" height=".5"/>
    </g>
  </g>
  <g>
    <g>
      <path class="st13" d="M30.8,89.3c0-4.5,1.8-6.1,6.8-6.1s6.4,1.9,6.4,6.9-1.7,4.5-1.7,4.5c0-.6-.2-3.9-.2-3.9l-9.1-1.9s0,5.5-.4,5.4c-.9-.5-1.8-2.7-1.8-4.9"/>
      <path class="st23" d="M32.3,87.2v5.4h-.4c-.4,0-.8.3-.8,1.3s.3,1.5,1.1,1.5v1.1c0,1.9,1.3,2.8,1.3,2.8v1.6l3.9,5.3,3.9-5.1v-1.6s1.2-1.1,1.2-2.6,0-.6,0-1.1c.9,0,1-.4,1-1.7s-.4-1.4-.7-1.4h-.3v-2.6l-10.1-2.7Z"/>
      <path class="st12" d="M35.1,93.5h-.4c-.1,0-.3-.1-.3-.3v-.4c0-.1.1-.3.3-.3h.4c.1,0,.3.1.3.3v.4c0,.1-.1.3-.3.3"/>
      <path class="st12" d="M39.8,93.5h-.4c-.1,0-.3-.1-.3-.3v-.4c0-.1.1-.3.3-.3h.4c.1,0,.3.1.3.3v.4c0,.1-.1.3-.3.3"/>
      <path class="st15" d="M41.2,99.4v1.6s-2.4,3-2.4,3.1c-2.8,0-5.4-4.9-5.4-4.9,3,2.7,4.7,3.1,7.7.1"/>
    </g>
    <path class="st23" d="M22.3,144.3h7.8v.6c0,2.2-1.8,4-4,4h-3.8v-4.6h0Z" transform="translate(156.4 74.4) rotate(71.1)"/>
    <rect class="st23" x="45.2" y="142.2" width="7.8" height="4.6" transform="translate(-103.5 144.1) rotate(-71.1)"/>
    <polygon class="st22" points="22 144.2 21.9 141.6 26.8 141.4 26.8 144 22 144.2"/>
    <polygon class="st22" points="47.7 141 48.3 138 54.1 139.3 53.3 142.5 47.7 141"/>
    <path class="st12" d="M26.7,139.8h21.6l2.1,7.6-.8,24.9c0,.1,0,.3,0,.4l-2.1,22.6-7.6,1.9v-26.9c.1,0-1.5-23-1.5-23l-2,23,1.3,27.3-7.7-2.6-2.9-23.6c0-.3,0-.5,0-.8l-.2-30.7"/>
    <polyline class="st7" points="26.7 139.8 48.4 139.8 50.5 147.4 50.4 164.1 26.5 164.3 26.7 139.8"/>
    <path class="st7" d="M48.8,141.2l-5.1,2.8c-1.9,1-4.3,0-4.8-2.1l-.5-1.7-.7,3.1c-.4,1.6-1.8,2.7-3.5,2.6l-7.5-.4v-4s-4.9.2-4.9.2l-.7-17.2c0-.5,0-.9,0-1.4l2.4-14.3c.4-2.2,1.8-4.1,3.9-5l4.7-2.1,1.2-1,3.4,3.6.5,4.2.5-4.2,3.2-3.3,1.3.9,6.1,3c1.6.8,2.8,2.2,3.4,3.9l4.9,14.5c.4,1.2.5,2.5.2,3.7l-3,12.6-5.8-1.4,2.6-12.7-2.4-7.2.3,23.1Z"/>
    <polygon class="st22" points="37.4 116.4 42.5 101.7 41.2 100.7 37.4 104.7 33.5 100.5 32.3 101.6 37.4 116.4"/>
    <rect class="st18" x="40" y="114.7" width="6" height="2.3"/>
  </g>
  <g>
    <path class="st28" d="M290.3,147.9h-147c-.5,0-1-.4-1-1v-1.8c0-.5.4-1,1-1h147c.5,0,1,.4,1,1v1.8c0,.5-.4,1-1,1Z"/>
    <g>
      <rect class="st19" x="142.1" y="130.2" width="117.8" height="7.9"/>
      <path class="st24" d="M293.8,119.1l-6.5-14c-.4-.8-1.1-1.3-2-1.3h-23.3c-1.2,0-2.2,1-2.2,2.2v34.6h8.9c0-.3,0-.5,0-.8,0-4.6,3.7-8.3,8.3-8.3s8.3,3.7,8.3,8.3,0,.5,0,.8h6.7c1.2,0,2.2-1,2.2-2.2v-18.4c0-.3,0-.6-.2-.9Z"/>
      <path class="st4" d="M255.7,130.2v-29c0-1.8-1.5-3.2-3.2-3.2h-105.4c-2,0-3.5,1.5-3.5,3.2v29h112.1Z"/>
      <path class="st5" d="M149.8,125.5h0c-.6,0-1.2-.6-1.2-1.2v-20.2c0-.6.6-1.2,1.2-1.2s1.2.6,1.2,1.2v20.2c0,.6-.3,1.2-1.2,1.2Z"/>
      <path class="st5" d="M155.4,125.5h0c-.6,0-1.2-.6-1.2-1.2v-20.2c0-.6.6-1.2,1.2-1.2.9,0,1.5.6,1.5,1.2v20.2c0,.6-.6,1.2-1.5,1.2Z"/>
      <path class="st5" d="M160.9,125.5h0c-.6,0-1.2-.6-1.2-1.2v-20.2c0-.6.6-1.2,1.2-1.2.6-.3,1.2.3,1.2.9v20.5c0,.6-.3,1.2-1.2,1.2Z"/>
      <path class="st5" d="M166.5,125.5h0c-.6,0-1.2-.6-1.2-1.2v-20.2c0-.6.6-1.2,1.2-1.2.6-.3,1.2.3,1.5.9v20.5c0,.6-.6,1.2-1.2,1.2h-.3Z"/>
      <path class="st5" d="M172,125.5h0c-.6,0-1.2-.6-1.2-1.2v-20.2c0-.6.6-1.2,1.2-1.2.6-.3,1.2.3,1.2.9v20.5c0,.6-.3,1.2-1.2,1.2Z"/>
      <path class="st5" d="M177.6,125.5h0c-.6,0-1.2-.6-1.2-1.2v-20.2c0-.6.6-1.2,1.2-1.2s1.2.6,1.2,1.2v20.2c0,.6-.6,1.2-1.2,1.2Z"/>
      <path class="st5" d="M183.2,125.5h0c-.6,0-1.2-.6-1.2-1.2v-20.2c0-.6.6-1.2,1.2-1.2s1.2.6,1.2,1.2v20.2c0,.6-.6,1.2-1.2,1.2Z"/>
      <path class="st5" d="M188.7,125.5h0c-.6,0-1.2-.6-1.2-1.2v-20.2c0-.6.3-1.2,1.2-1.2.6-.3,1.2.3,1.2.9v20.5c0,.6-.6,1.2-1.2,1.2Z"/>
      <path class="st5" d="M194.3,125.5h0c-.6,0-1.2-.6-1.2-1.2v-20.2c0-.6.6-1.2,1.2-1.2s1.2.6,1.2,1.2v20.2c0,.6-.6,1.2-1.2,1.2Z"/>
      <path class="st5" d="M199.8,125.5h0c-.6,0-1.2-.6-1.2-1.2v-20.2c0-.6.3-1.2.9-1.2.9-.3,1.5.3,1.5.9v20.5c0,.6-.6,1.2-1.2,1.2Z"/>
      <path class="st5" d="M205.4,125.5h0c-.9,0-1.2-.6-1.2-1.2v-20.2c-.3-.6.3-1.2.9-1.2.9-.3,1.5.3,1.5.9v20.5c0,.6-.6,1.2-1.2,1.2Z"/>
      <path class="st5" d="M211,125.5h0c-.9,0-1.2-.6-1.2-1.2v-20.2c0-.6.3-1.2,1.2-1.2s1.2.6,1.2,1.2v20.2c0,.6-.6,1.2-1.2,1.2Z"/>
      <path class="st5" d="M216.5,125.5h0c-.9,0-1.2-.6-1.2-1.2v-20.2c-.3-.6.3-1.2.9-1.2.9-.3,1.5.3,1.5.9v20.5c0,.6-.6,1.2-1.2,1.2Z"/>
      <path class="st5" d="M221.8,125.5h0c-.6,0-1.2-.6-1.2-1.2v-20.2c0-.6.6-1.2,1.2-1.2.6-.3,1.2.3,1.5.9v20.5c0,.6-.6,1.2-1.2,1.2h-.3Z"/>
      <path class="st5" d="M227.6,125.5h0c-.9,0-1.2-.6-1.2-1.2v-20.2c0-.6.3-1.2,1.2-1.2s1.2.6,1.2,1.2v20.2c0,.6-.6,1.2-1.2,1.2Z"/>
      <path class="st5" d="M232.9,125.5h0c-.6,0-1.2-.6-1.2-1.2v-20.2c0-.6.6-1.2,1.2-1.2.6-.3,1.2.3,1.5.9v20.5c0,.6-.6,1.2-1.2,1.2h-.3Z"/>
      <path class="st5" d="M238.5,125.5h0c-.6,0-1.2-.6-1.2-1.2v-20.2c0-.6.6-1.2,1.2-1.2.6-.3,1.2.3,1.2.9q.3.3,0,.3v20.2c0,.6-.3,1.2-1.2,1.2Z"/>
      <path class="st5" d="M244,125.5h0c-.6,0-1.2-.6-1.2-1.2v-20.2c0-.6.6-1.2,1.2-1.2s1.2.6,1.2,1.2v20.2c0,.6-.6,1.2-1.2,1.2Z"/>
      <path class="st5" d="M249.6,125.5h0c-.6,0-1.2-.6-1.2-1.2v-20.2c0-.6.6-1.2,1.2-1.2s1.2.6,1.2,1.2v20.2c0,.6-.6,1.2-1.2,1.2Z"/>
      <path class="st6" d="M289.4,122.8h-12.6c-.6,0-.9-.3-.9-.9v-13.5c0-.3.3-.9.9-.9h7.3c.3,0,.6.3.9.6l5,10.8v2.9c0,.6-.3.9-.6.9Z"/>
      <path class="st30" d="M164.2,139.8c0,3.9-3.2,7.1-7.1,7.1s-7.1-3.2-7.1-7.1c0-3.9,3.2-7.1,7.1-7.1h0c3.9,0,7.1,3.2,7.1,7.1"/>
      <path class="st31" d="M161.1,139.8c0,2.2-1.8,4-4,4-2.2,0-4-1.8-4-4,0-2.2,1.8-4,4-4h0c2.2,0,4,1.8,4,4h0"/>
      <path class="st30" d="M180.5,139.8c0,3.9-3.2,7.1-7.1,7.1s-7.1-3.2-7.1-7.1c0-3.9,3.2-7.1,7.1-7.1h0c3.9,0,7.1,3.2,7.1,7.1"/>
      <path class="st31" d="M177.4,139.8c0,2.2-1.8,4-4,4-2.2,0-4-1.8-4-4,0-2.2,1.8-4,4-4h0c2.2,0,4,1.8,4,4h0"/>
      <path class="st30" d="M236.2,139.8c0,3.9-3.2,7.1-7.1,7.1s-7.1-3.2-7.1-7.1,3.2-7.1,7.1-7.1h0c3.9,0,7.1,3.2,7.1,7.1"/>
      <path class="st31" d="M233.1,139.8c0,2.2-1.8,4-4,4-2.2,0-4-1.8-4-4,0-2.2,1.8-4,4-4h0c2.2,0,4,1.8,4,4h0"/>
      <path class="st30" d="M284,139.8c0,3.9-3.2,7.1-7.1,7.1s-7.1-3.2-7.1-7.1c0-3.9,3.2-7.1,7.1-7.1h0c3.9,0,7.1,3.2,7.1,7.1"/>
      <path class="st31" d="M280.9,139.8c0,2.2-1.8,4-4,4-2.2,0-4-1.8-4-4,0-2.2,1.8-4,4-4h0c2.2,0,4,1.8,4,4h0"/>
      <path class="st30" d="M252.5,139.8c0,3.9-3.2,7.1-7.1,7.1s-7.1-3.2-7.1-7.1,3.2-7.1,7.1-7.1h0c3.9,0,7.1,3.2,7.1,7.1"/>
      <path class="st31" d="M249.4,139.8c0,2.2-1.8,4-4,4-2.2,0-4-1.8-4-4,0-2.2,1.8-4,4-4h0c2.2,0,4,1.8,4,4h0"/>
      <polygon points="186.3 117.2 186.3 110.4 188.1 110.4 190.4 115.5 192.6 110.4 194.4 110.4 194.4 117.2 192.9 117.2 192.9 113.3 191.2 117.2 189.6 117.2 187.9 113.3 187.9 117.2 186.3 117.2"/>
      <path d="M196.8,117.2h-1.7l3-6.8h2.1l3,6.8h-1.7l-.6-1.3h-3.5l-.6,1.3ZM200.3,114.6l-1.2-2.9-1.2,2.9h2.5Z"/>
      <polygon points="203.9 117.2 203.9 110.4 210.4 110.4 210.4 111.8 205.5 111.8 205.5 113.1 209.7 113.1 209.7 114.5 205.5 114.5 205.5 115.9 210.4 115.9 210.4 117.2 203.9 117.2"/>
      <path d="M211.6,117.2v-6.8h5.4c.6,0,1.1.4,1.1.9,0,0,0,.1,0,.2v2.3c0,.5-.5,1-1.4,1h-.2l1.6,2.4h-1.7l-1.5-2.3h-1.8v2.3h-1.6ZM213.2,113.5h3.4v-1.8h-3.4v1.8Z"/>
      <path d="M221,117.2h-.5c-.5,0-1-.3-1-.8,0,0,0-.1,0-.2v-.9h1.6v.5h3.3v-1.4h-3.8c-.5,0-1-.4-1-.9,0,0,0,0,0,0v-2c0-.6.5-1,1-1,0,0,0,0,0,0h4.4c.5,0,1,.4,1,1,0,0,0,0,0,0v.8h-1.6v-.5h-3.3v1.3h3.8c.6,0,1.1.4,1.1,1,0,0,0,0,0,.1v1.9c0,.5-.3,1-.8,1.1,0,0-.1,0-.2,0h-3.8Z"/>
      <polygon points="227.4 117.2 227.4 110.4 229 110.4 229 113.2 232.1 110.4 234.2 110.4 230.6 113.6 234.4 117.2 232.1 117.2 229 114.1 229 117.2 227.4 117.2"/>
      <path class="st16" d="M167.1,106.1h11c1,0,1.8.8,1.8,1.8v11.8c0,1-.8,1.8-1.8,1.8h-11c-1,0-1.7-.8-1.7-1.7h0v-11.8c0-1,.8-1.7,1.7-1.7h0Z"/>
      <polygon class="st7" points="174.9 113.4 177.8 109.8 177.8 109.8 173.6 111.8 172.6 107.3 172.6 107.3 171.6 111.8 167.4 109.8 167.4 109.8 170.3 113.4 166.1 115.4 166.1 115.4 170.7 115.4 169.7 119.9 169.7 119.9 172.6 116.3 175.5 119.9 175.5 119.9 174.4 115.4 179 115.4 179 115.4 174.9 113.4"/>
    </g>
  </g>
  <rect class="st0" x="39.8" y="-19.1" width="208.3" height="208.3"/>
</svg>