<?xml version="1.0" encoding="UTF-8"?>
<svg id="Layer_1" xmlns="http://www.w3.org/2000/svg" xmlns:xlink="http://www.w3.org/1999/xlink" version="1.1" viewBox="0 0 300 168">
  <!-- Generator: Adobe Illustrator 29.3.1, SVG Export Plug-In . SVG Version: 2.1.0 Build 151)  -->
  <defs>
    <style>
      .st0 {
        fill: none;
      }

      .st1 {
        fill: #ff6319;
      }

      .st2 {
        fill: #545454;
      }

      .st3 {
        fill: #c3e4f3;
      }

      .st4 {
        fill: #e2e2e2;
      }

      .st5 {
        fill: #d4d4d4;
      }

      .st6 {
        clip-path: url(#clippath-1);
      }

      .st7 {
        fill: #7c9d00;
      }

      .st8 {
        fill: #fff;
      }

      .st9 {
        fill: #dbad93;
      }

      .st10 {
        fill: #f27463;
      }

      .st11 {
        fill: #f3cebb;
      }

      .st12 {
        fill: #42b0d5;
      }

      .st13 {
        fill: #8a8a8a;
      }

      .st14 {
        fill: #eeaf30;
      }

      .st15 {
        clip-path: url(#clippath);
      }
    </style>
    <clipPath id="clippath">
      <rect class="st0" y=".5" width="300" height="167.5"/>
    </clipPath>
    <clipPath id="clippath-1">
      <rect class="st0" x="16.8" y="10.5" width="123" height="157.5"/>
    </clipPath>
  </defs>
  <rect class="st4" width="300" height="168"/>
  <g>
    <rect class="st3" y=".5" width="300" height="167.5"/>
    <rect class="st4" y="128.9" width="300" height="39.1"/>
    <g class="st15">
      <g>
        <g>
          <g>
            <path class="st12" d="M217.3,122.2v-19.9c0-1.3,1-2.3,2.3-2.3h72.8c1.3,0,2.3,1,2.3,2.3v19.9h-77.4Z"/>
            <g>
              <polygon class="st8" points="246.9 113.5 246.9 108.8 248.1 108.8 249.6 112.3 251.2 108.8 252.4 108.8 252.4 113.5 251.4 113.5 251.4 110.7 250.2 113.5 249.1 113.5 247.9 110.7 247.9 113.5 246.9 113.5"/>
              <path class="st8" d="M254,113.5h-1.2l2-4.7h1.5l2.1,4.7h-1.2l-.4-.9h-2.4l-.4.9h0ZM256.5,111.7l-.9-2-.8,2h1.7Z"/>
              <polygon class="st8" points="258.9 113.5 258.9 108.8 263.4 108.8 263.4 109.7 260 109.7 260 110.6 262.9 110.6 262.9 111.6 260 111.6 260 112.5 263.4 112.5 263.4 113.5 258.9 113.5"/>
              <path class="st8" d="M264.3,113.5v-4.7h3.7c.4,0,.7.3.8.7h0v1.7c0,.4-.3.7-.9.7h-.1l1.1,1.6h-1.2l-1-1.6h-1.2v1.6h-1.1ZM265.3,111h2.3v-1.2h-2.3v1.2h0Z"/>
              <path class="st8" d="M270.7,113.5h-.4c-.5,0-.7-.3-.7-.7v-.6h1.1v.4h2.3v-1h-2.6c-.4,0-.7-.3-.7-.6h0v-1.4c0-.4.3-.7.7-.7h3c.4,0,.7.3.7.7h0v.6h-1.1v-.4h-2.3v.9h2.6c.4,0,.7.3.8.7h0v1.4c0,.4-.2.7-.6.7h-2.8,0Z"/>
              <polygon class="st8" points="275.1 113.5 275.1 108.8 276.2 108.8 276.2 110.7 278.3 108.8 279.8 108.8 277.3 111 279.9 113.5 278.3 113.5 276.2 111.4 276.2 113.5 275.1 113.5"/>
              <path class="st8" d="M241.2,105.9c.7,0,1.2.6,1.2,1.2v8.1c0,.7-.6,1.2-1.2,1.2h-7.6c-.7,0-1.2-.6-1.2-1.2v-8.1c0-.7.6-1.2,1.2-1.2h7.6M241.2,105.6h-7.6c-.8,0-1.5.7-1.5,1.5v8.1c0,.8.7,1.5,1.5,1.5h7.6c.8,0,1.5-.7,1.5-1.5v-8.1c0-.8-.7-1.5-1.5-1.5Z"/>
              <polygon class="st8" points="239 110.8 241 108.4 241 108.4 238.1 109.8 237.4 106.7 237.4 106.7 236.7 109.8 233.8 108.4 233.8 108.4 235.8 110.8 233 112.2 233 112.2 236.1 112.2 235.4 115.3 235.4 115.3 237.4 112.8 239.4 115.3 239.4 115.3 238.7 112.2 241.9 112.2 241.9 112.2 239 110.8"/>
            </g>
          </g>
          <g>
            <path class="st12" d="M217.3,147.9v-19.9c0-1.3,1-2.3,2.3-2.3h72.8c1.3,0,2.3,1,2.3,2.3v19.9h-77.4Z"/>
            <g>
              <polygon class="st8" points="246.9 139.1 246.9 134.4 248.1 134.4 249.6 137.9 251.2 134.4 252.4 134.4 252.4 139.1 251.4 139.1 251.4 136.4 250.2 139.1 249.1 139.1 247.9 136.4 247.9 139.1 246.9 139.1"/>
              <path class="st8" d="M254,139.1h-1.2l2-4.7h1.5l2.1,4.7h-1.2l-.4-.9h-2.4l-.4.9h0ZM256.5,137.3l-.9-2-.8,2h1.7Z"/>
              <polygon class="st8" points="258.9 139.1 258.9 134.4 263.4 134.4 263.4 135.3 260 135.3 260 136.3 262.9 136.3 262.9 137.2 260 137.2 260 138.1 263.4 138.1 263.4 139.1 258.9 139.1"/>
              <path class="st8" d="M264.3,139.1v-4.7h3.7c.4,0,.7.3.8.7h0v1.7c0,.4-.3.7-.9.7h-.1l1.1,1.6h-1.2l-1-1.6h-1.2v1.6h-1.1ZM265.3,136.6h2.3v-1.2h-2.3v1.2h0Z"/>
              <path class="st8" d="M270.7,139.1h-.4c-.5,0-.7-.3-.7-.7v-.6h1.1v.4h2.3v-1h-2.6c-.4,0-.7-.3-.7-.6h0v-1.4c0-.4.3-.7.7-.7h3c.4,0,.7.3.7.7h0v.6h-1.1v-.4h-2.3v.9h2.6c.4,0,.7.3.8.7h0v1.4c0,.4-.2.7-.6.7h-2.8,0Z"/>
              <polygon class="st8" points="275.1 139.1 275.1 134.4 276.2 134.4 276.2 136.3 278.3 134.4 279.8 134.4 277.3 136.6 279.9 139.1 278.3 139.1 276.2 137 276.2 139.1 275.1 139.1"/>
              <path class="st8" d="M241.2,131.5c.7,0,1.2.6,1.2,1.2v8.1c0,.7-.6,1.2-1.2,1.2h-7.6c-.7,0-1.2-.6-1.2-1.2v-8.1c0-.7.6-1.2,1.2-1.2h7.6M241.2,131.2h-7.6c-.8,0-1.5.7-1.5,1.5v8.1c0,.8.7,1.5,1.5,1.5h7.6c.8,0,1.5-.7,1.5-1.5v-8.1c0-.8-.7-1.5-1.5-1.5Z"/>
              <polygon class="st8" points="239 136.5 241 134 241 134 238.1 135.3 237.4 132.3 237.4 132.3 236.7 135.3 233.8 134 233.8 134 235.8 136.5 233 137.8 233 137.8 236.1 137.8 235.4 140.9 235.4 140.9 237.4 138.5 239.4 140.9 239.4 140.9 238.7 137.8 241.9 137.8 241.9 137.8 239 136.5"/>
            </g>
          </g>
        </g>
        <g>
          <path d="M205.3,61.9h0c-.3.1-.5.3-.6.5-.2.5-.6.9-1.1.9-.5,0-.9-.5-.9-1v-.2c.2-.8,1.2-.7,1.4-1.6v-.8c0,0-1,0-1,0v.3c0,.3.1.4-.2.5-.9.3-1.4,1.2-1.3,2.1.1.8.7,1.4,1.5,1.6.8.2,1.6-.2,1.9-1,.2-.5,0-1.2.3-1.4h0c0,0,0,0,0,0Z"/>
          <path d="M203.1,60h-.4c-.1,0-.2,0-.3-.1l-.4-.3c-.1,0-.2-.2-.2-.3l-.2-.8,1.4,1.4h0Z"/>
          <path d="M264,61.7h0c.3.1.5.3.6.5.2.5.6.9,1.1.9.5,0,.9-.5.9-1v-.2c-.2-.8-1.2-.7-1.4-1.6v-.7c0,0,1,0,1,0v.3c0,.3-.1.4.2.5.9.3,1.4,1.2,1.3,2.1-.1.8-.7,1.4-1.5,1.6-.8.2-1.6-.2-1.9-1-.2-.5,0-1.2-.3-1.3h0c0,0,0-.2,0-.2Z"/>
          <path d="M266.2,59.8h.3c.1,0,.2,0,.3-.1l.4-.3c.1,0,.2-.2.2-.3l.2-.8-1.4,1.4h0Z"/>
          <g>
            <path class="st14" d="M206.1,54.5l-.2.9-.3,1-.3,1-.2.7c0,.1,0,.2-.2.3h0l-.4.3c-.1,0-.2.1-.3.1h-1.6c-.1,0-.2,0-.3-.1l-.4-.3c-.1,0-.2-.2-.2-.3l-.2-.8-.4-1.6-.3-1.2v-.4h0l.4-.8.2-.3c.1-.2.3-.3.5-.3h3.1c.2,0,.4.1.5.3l.6,1.1h0v.3h0Z"/>
            <path d="M206.1,54.5l-.2.9-2.6-2.6h1.3l1.5,1.5v.2Z"/>
            <path d="M205.6,56.4l-.3,1-4-4,.2-.3c.1-.2.3-.3.5-.3h.2l3.5,3.5h0Z"/>
            <path d="M205.1,58.3h0l-.4.3c-.1,0-.2.1-.3.1h-.1l-3-3-.3-1.2v-.4h0l4.1,4.1h.1Z"/>
            <path class="st14" d="M263.1,54.4l.2.9.3.9.3,1,.2.7c0,.1,0,.2.2.3h0l.4.3c.1,0,.2.1.3.1h1.6c.1,0,.2,0,.3-.1l.4-.3c.1,0,.2-.2.2-.3l.2-.8.4-1.6.3-1.2v-.4h0l-.4-.8-.2-.3c-.1-.2-.3-.3-.5-.3h-3.1c-.2,0-.4.1-.5.3l-.6,1.1h0v.5Z"/>
            <path d="M263.1,54.4l.2.9,2.6-2.6h-1.3l-1.5,1.5v.2Z"/>
            <path d="M263.5,56.2l.3,1,4-4-.2-.3c-.1-.2-.3-.3-.5-.3h-.2l-3.5,3.5h0Z"/>
            <path d="M264.1,58.1h0l.4.3c.1,0,.2.1.3.1h.1l3-3,.3-1.2v-.4h0l-4.1,4h-.1Z"/>
            <rect x="204.7" y="32" width=".4" height="21.6"/>
            <rect x="202" y="32" width=".4" height="21.6"/>
            <rect x="264.2" y="32" width=".4" height="21.5"/>
            <rect x="266.7" y="32" width=".4" height="21.5"/>
            <rect x="161.3" y="26.8" width="156.9" height="15.7"/>
            <rect class="st13" x="155" y="21.6" width="169.3" height="15.7"/>
            <rect class="st13" x="169.8" y="4.5" width="9.8" height="122.9"/>
            <g>
              <rect class="st1" x="166" y="129.8" width="3.8" height="7.3"/>
              <rect class="st1" x="179.6" y="129.8" width="3.8" height="7.3"/>
              <rect class="st12" x="163.3" y="125.5" width="22.7" height="5"/>
              <polygon class="st12" points="178.4 135.9 171.1 135.9 170.4 128.5 179.1 128.5 178.4 135.9"/>
            </g>
            <polygon class="st10" points="291 27.8 291 57.2 301.7 57.2 301.7 27.8 291 27.8"/>
          </g>
          <path class="st12" d="M277.7,84.8v-21.5c0-1.4-1.1-2.5-2.5-2.5h-78.4c-1.4,0-2.5,1.1-2.5,2.5h0v21.5h83.3,0Z"/>
        </g>
        <g>
          <path class="st12" d="M137.2,147.8v-19.9c0-1.3,1-2.3,2.3-2.3h72.8c1.3,0,2.3,1,2.3,2.3v19.9h-77.4Z"/>
          <g>
            <polygon class="st8" points="166.8 139 166.8 134.4 168 134.4 169.6 137.8 171.1 134.4 172.3 134.4 172.3 139 171.3 139 171.3 136.3 170.1 139 169 139 167.8 136.4 167.8 139 166.8 139"/>
            <path class="st8" d="M173.9,139h-1.2l2-4.7h1.5l2.1,4.7h-1.2l-.4-.9h-2.4l-.4.9h0ZM176.4,137.2l-.9-2-.8,2h1.7Z"/>
            <polygon class="st8" points="178.8 139 178.8 134.4 183.3 134.4 183.3 135.3 179.9 135.3 179.9 136.3 182.8 136.3 182.8 137.1 179.9 137.1 179.9 138.1 183.3 138.1 183.3 139 178.8 139"/>
            <path class="st8" d="M184.2,139v-4.7h3.7c.4,0,.7.3.8.7h0v1.7c0,.4-.3.7-.9.7h-.1l1.1,1.6h-1.2l-1-1.6h-1.2v1.6h-1.1ZM185.2,136.5h2.3v-1.2h-2.3v1.2h0Z"/>
            <path class="st8" d="M190.6,139h-.4c-.5,0-.7-.3-.7-.7v-.6h1.1v.4h2.3v-1h-2.6c-.4,0-.7-.3-.7-.6h0v-1.4c0-.4.3-.7.7-.7h3c.4,0,.7.3.7.7h0v.6h-1.1v-.4h-2.3v.9h2.6c.4,0,.7.3.8.7h0v1.4c0,.4-.2.7-.6.7h-2.8,0Z"/>
            <polygon class="st8" points="195 139 195 134.4 196.1 134.4 196.1 136.3 198.2 134.4 199.7 134.4 197.2 136.6 199.8 139 198.2 139 196.1 136.9 196.1 139 195 139"/>
            <path class="st8" d="M161.1,131.5c.7,0,1.2.6,1.2,1.2v8.1c0,.7-.6,1.2-1.2,1.2h-7.6c-.7,0-1.2-.6-1.2-1.2v-8.1c0-.7.6-1.2,1.2-1.2h7.6M161.1,131.1h-7.6c-.8,0-1.5.7-1.5,1.5v8.1c0,.8.7,1.5,1.5,1.5h7.6c.8,0,1.5-.7,1.5-1.5v-8.1c0-.8-.7-1.5-1.5-1.5Z"/>
            <polygon class="st8" points="158.9 136.4 160.9 134 160.9 134 158 135.3 157.3 132.2 157.3 132.2 156.6 135.3 153.8 134 153.7 134 155.7 136.4 152.9 137.8 152.9 137.8 156 137.8 155.3 140.9 155.4 140.9 157.3 138.5 159.3 140.9 159.3 140.9 158.6 137.8 161.8 137.8 161.8 137.8 158.9 136.4"/>
          </g>
        </g>
        <g>
          <polygon class="st8" points="225.6 75.1 225.6 70.5 226.8 70.5 228.4 73.9 229.9 70.5 231.1 70.5 231.1 75.1 230.1 75.1 230.1 72.4 228.9 75.1 227.8 75.1 226.6 72.4 226.6 75.1 225.6 75.1"/>
          <path class="st8" d="M232.8,75.1h-1.2l2-4.7h1.5l2.1,4.7h-1.2l-.4-.9h-2.4l-.4.9h0ZM235.2,73.3l-.9-2-.8,2h1.7Z"/>
          <polygon class="st8" points="237.6 75.1 237.6 70.5 242.1 70.5 242.1 71.4 238.7 71.4 238.7 72.3 241.6 72.3 241.6 73.2 238.7 73.2 238.7 74.2 242.1 74.2 242.1 75.1 237.6 75.1"/>
          <path class="st8" d="M242.9,75.1v-4.7h3.7c.4,0,.7.3.8.7h0v1.7c0,.4-.3.7-.9.7h-.1l1.1,1.6h-1.2l-1-1.6h-1.2v1.6h-1.1ZM244.1,72.6h2.3v-1.2h-2.3v1.2h0Z"/>
          <path class="st8" d="M249.4,75.1h-.4c-.5,0-.7-.3-.7-.7v-.6h1.1v.4h2.3v-1h-2.6c-.4,0-.7-.3-.7-.6h0v-1.4c0-.4.3-.7.7-.7h3c.4,0,.7.3.7.7h0v.6h-1.1v-.4h-2.3v.9h2.6c.4,0,.7.3.8.7h0v1.4c0,.4-.2.7-.6.7h-2.8,0Z"/>
          <polygon class="st8" points="253.8 75.1 253.8 70.5 254.9 70.5 254.9 72.3 257 70.5 258.5 70.5 256 72.6 258.6 75.1 257.1 75.1 254.9 73 254.9 75.1 253.8 75.1"/>
          <path class="st8" d="M219.9,67.5c.7,0,1.2.6,1.2,1.2v8.1c0,.7-.6,1.2-1.2,1.2h-7.6c-.7,0-1.2-.6-1.2-1.2v-8.1c0-.7.6-1.2,1.2-1.2h7.6M219.9,67.2h-7.6c-.8,0-1.5.7-1.5,1.5v8.1c0,.8.7,1.5,1.5,1.5h7.6c.8,0,1.5-.7,1.5-1.5v-8.1c0-.8-.7-1.5-1.5-1.5Z"/>
          <polygon class="st8" points="217.7 72.5 219.7 70.1 219.7 70 216.8 71.4 216.2 68.3 216.2 68.3 215.4 71.4 212.6 70 212.6 70.1 214.5 72.5 211.7 73.9 211.7 73.9 214.9 73.9 214.2 77 214.2 77 216.2 74.5 218.1 77 218.1 77 217.4 73.9 220.6 73.9 220.6 73.9 217.7 72.5"/>
        </g>
      </g>
    </g>
    <g class="st6">
      <g>
        <g>
          <g>
            <path class="st2" d="M20.3,170.5l11.7-75.5c0-4.8,3.4-8.7,7.7-8.7h63.2c4.3,0,7.7,3.9,7.7,8.7l11.7,75.5"/>
            <path class="st12" d="M83.6,83.2l21,10.4c5.7,2.8,9.7,8.1,10.9,14.3l8.8,44.8c.6,2.9-.3,5.9-2.4,8.1l-14,14.5-5.8-5.5-54.1,1.4-.5,2.6-21.5-4c-4-.8-6.6-4.6-6-8.6l8.3-53.4c.8-5.5,4.3-10.2,9.4-12.7l24.6-12h21.4-.1Z"/>
            <g>
              <g>
                <path d="M101.2,47.7c.3-8-.7-13.8-4.2-17.8-3.9-4.3-10.7-6.4-22.3-6.8-18.6-.6-25.6,4.1-27.6,15.9-.4,2.1-.6,4.4-.6,6.9-.2,6.2.4,11.2,2.3,14.9.6,1.1,1.3,2.1,2.2,3.1h0c3.9,4.1,10.7,6.1,21.9,6.5,22.2.7,27.7-6.1,28.3-22.7h0Z"/>
                <path d="M53.4,64.3c0-.9,0-1.5-.5-2-.4-.5-1.2-.7-2.4-.7-2.1,0-2.8.5-3,1.7,0,.2,0,.5,0,.7,0,.7,0,1.2.3,1.6,0,.1.2.2.3.3h0c.4.4,1.2.6,2.4.7,2.4,0,3-.7,3.1-2.5h0Z"/>
                <path d="M50.5,60c0-.9,0-1.5-.5-2-.4-.5-1.2-.7-2.4-.7-2.1,0-2.8.5-3,1.7,0,.2,0,.5,0,.7,0,.7,0,1.2.3,1.6,0,.1.2.2.3.3h0c.4.4,1.2.6,2.4.7,2.4,0,3-.7,3.1-2.5h0Z"/>
                <path d="M59,67.9c-.5-.7-1.1-1.1-1.6-1.1-.6,0-1.3.3-2.3,1.2-1.5,1.4-1.8,2.3-1.1,3.4.1.2.3.4.4.6.4.5.8.9,1.2,1,.1,0,.3,0,.4,0h0c.6,0,1.3-.3,2.2-1.2,1.9-1.6,1.8-2.6.7-4h0Z"/>
                <path d="M56.2,65.9c-.4-.7-.8-1.2-1.4-1.4-.6-.2-1.4.1-2.4.8-1.7,1.1-2.1,2-1.6,3.2.1.2.2.4.3.7.3.6.7,1,1.1,1.2.1,0,.3.1.4.2h0c.6.1,1.3-.1,2.4-.8,2.1-1.3,2.2-2.3,1.3-3.9Z"/>
                <path d="M48.9,55.7c0-.9,0-1.5-.5-2-.4-.5-1.2-.7-2.4-.7-2.1,0-2.8.5-3,1.7,0,.2,0,.5,0,.7,0,.7,0,1.2.3,1.6,0,.1.2.2.3.3h0c.4.4,1.2.6,2.4.7,2.4,0,3-.7,3.1-2.5h0Z"/>
                <path d="M48.6,50.9c0-.9,0-1.5-.5-2-.4-.5-1.2-.7-2.4-.7-2.1,0-2.8.5-3,1.7,0,.2,0,.5,0,.7,0,.7,0,1.2.3,1.6,0,.1.2.2.3.3h0c.4.4,1.2.6,2.4.7,2.4,0,3-.7,3.1-2.5h0Z"/>
                <path d="M49,46.3c0-.9,0-1.5-.5-2-.4-.5-1.2-.7-2.4-.7-2.1,0-2.8.5-3,1.7,0,.2,0,.5,0,.7,0,.7,0,1.2.3,1.6,0,.1.2.2.3.3h0c.4.4,1.2.6,2.4.7,2.4,0,3-.7,3.1-2.5h0Z"/>
                <path d="M50.2,41.9c.2-.8.2-1.5,0-2-.3-.6-1-1-2.2-1.3-2-.5-2.8-.2-3.3,1.1-.1.2-.2.5-.2.7-.2.7-.2,1.2,0,1.6,0,.2.1.3.2.4h0c.3.5,1,.9,2.2,1.2,2.3.6,3.1,0,3.5-1.8h0Z"/>
                <path d="M52,37.2c.3-.8.4-1.5.3-2-.2-.6-.8-1.1-2-1.6-1.9-.8-2.8-.6-3.4.6-.1.2-.2.4-.3.7-.3.6-.4,1.2-.3,1.6,0,.2,0,.3.1.4h0c.3.6.8,1.1,2,1.5,2.2,1,3,.5,3.7-1.3Z"/>
                <path d="M54.4,33.2c.4-.8.6-1.4.5-2-.2-.6-.7-1.2-1.8-1.9-1.7-1-2.6-.9-3.4.2-.2.2-.3.4-.4.6-.3.6-.5,1.1-.5,1.6s0,.3,0,.4h0c.2.6.7,1.2,1.7,1.8,2.1,1.2,2.9.8,3.8-.8h0Z"/>
                <path d="M57.1,30.2c.6-.6,1-1.2,1-1.8,0-.7-.3-1.4-1.2-2.3-1.3-1.5-2.2-1.7-3.2-.9-.2.2-.4.3-.6.5-.5.5-.8,1-1,1.4,0,.2,0,.3,0,.4h0c0,.6.4,1.4,1.2,2.3,1.6,1.8,2.5,1.7,3.8.4h0Z"/>
                <path d="M60.5,28.2c.8-.4,1.3-.8,1.5-1.4.3-.6.1-1.4-.4-2.6-.8-1.9-1.5-2.4-2.8-2-.2,0-.4.2-.7.3-.6.3-1.1.6-1.3,1.1-.1.1-.2.3-.2.4h0c-.2.6-.1,1.4.4,2.6.9,2.3,1.8,2.5,3.4,1.6h.1Z"/>
                <path d="M63.2,26.6c.8.1,1.5,0,2-.3.5-.4.9-1.2,1.2-2.4.4-2.1.1-2.9-1.1-3.3-.2,0-.4-.1-.7-.2-.6-.1-1.2,0-1.6.1-.1,0-.3.1-.4.2h0c-.5.4-.8,1.2-1.1,2.4-.5,2.5,0,3.2,1.8,3.4h0Z"/>
                <path d="M67.8,25.7c.8.1,1.5,0,2-.3.5-.4.9-1.2,1.2-2.4.4-2.1.1-2.9-1.1-3.3-.2,0-.4-.1-.7-.2-.6-.1-1.2,0-1.6.1-.1,0-.3.1-.4.2h0c-.5.4-.8,1.2-1.1,2.4-.5,2.5,0,3.2,1.8,3.4h0Z"/>
                <path d="M72.3,24.3c.8.1,1.5,0,2-.3.5-.4.9-1.2,1.2-2.4.4-2.1.1-2.9-1.1-3.3-.2,0-.4-.1-.7-.2-.6-.1-1.2,0-1.6.1-.1,0-.3.1-.4.2h0c-.5.4-.8,1.2-1.1,2.4-.5,2.5,0,3.2,1.8,3.4h0Z"/>
                <path d="M76.8,24.5c.8.1,1.5,0,2-.3.5-.4.9-1.2,1.2-2.4.4-2.1.1-2.9-1.1-3.3-.2,0-.4-.1-.7-.2-.6-.1-1.2,0-1.6.1-.1,0-.3.1-.4.2h0c-.5.4-.8,1.2-1.1,2.4-.5,2.5,0,3.2,1.8,3.4h0Z"/>
                <path d="M81.2,25.3c.8.1,1.5,0,2-.3.5-.4.9-1.2,1.2-2.4.4-2.1.1-2.9-1.1-3.3-.2,0-.4-.1-.7-.2-.6-.1-1.2,0-1.6.1-.1,0-.3.1-.4.2h0c-.5.4-.8,1.2-1.1,2.4-.5,2.5,0,3.2,1.8,3.4h0Z"/>
                <path d="M85.2,26.8c.8.3,1.4.4,2,.1.6-.3,1.1-1,1.6-2.2.8-2,.7-2.9-.4-3.4-.2-.1-.4-.2-.7-.3-.6-.2-1.1-.3-1.6-.2-.2,0-.3,0-.4.2h0c-.6.3-1.1,1-1.5,2.2-1,2.4-.5,3.2,1.1,3.8h0Z"/>
                <path d="M89.4,29.1c.7.4,1.3.6,1.9.4.6-.2,1.2-.8,1.9-1.9,1.1-1.9,1.1-2.8.1-3.5-.2-.2-.4-.3-.6-.4-.6-.3-1.1-.5-1.5-.5s-.3,0-.4.1h0c-.6.2-1.2.8-1.9,1.9-1.3,2.2-1,3.1.5,3.9h0Z"/>
                <path d="M92.8,31.8c.7.5,1.2.7,1.8.6.6-.1,1.3-.6,2.1-1.7,1.3-1.7,1.4-2.6.5-3.5-.2-.2-.3-.3-.5-.5-.5-.4-1-.6-1.4-.6h-.4c-.6.1-1.3.6-2.1,1.7-1.6,2-1.4,2.9,0,4h0Z"/>
                <path d="M95.1,34.9c.5.7,1,1.1,1.5,1.2.6.1,1.4-.2,2.4-1,1.7-1.3,2-2.1,1.5-3.3-.1-.2-.2-.4-.4-.6-.4-.5-.7-.9-1.2-1.1-.1,0-.3-.1-.4-.1h0c-.6,0-1.4.3-2.4,1-2.1,1.5-2.1,2.4-1.1,3.9h0Z"/>
                <path d="M96.5,38.4c.3.8.5,1.4,1.1,1.6.6.3,1.4.3,2.6-.2,2-.6,2.5-1.4,2.4-2.6,0-.2-.1-.5-.2-.7-.2-.6-.4-1.1-.7-1.4-.1-.1-.2-.2-.3-.2h0c-.5-.3-1.3-.2-2.5.2-2.4.7-2.7,1.6-2.2,3.4h0Z"/>
                <path d="M97,42.8c.3.8.6,1.4,1.1,1.6.6.3,1.4.2,2.6-.3,2-.7,2.5-1.5,2.3-2.8,0-.2-.1-.5-.2-.7-.2-.6-.5-1.1-.8-1.4-.1-.1-.2-.2-.4-.2h0c-.6-.3-1.4-.2-2.5.3-2.3.8-2.6,1.7-2.1,3.4h0Z"/>
                <path d="M97.4,47.3c.1.8.3,1.5.8,1.8.5.4,1.3.5,2.5.3,2.1-.3,2.7-1,2.8-2.2v-.7c-.1-.7-.2-1.2-.5-1.5-.1-.1-.2-.2-.3-.3h0c-.5-.4-1.3-.4-2.5-.3-2.4.4-2.9,1.2-2.7,3h0Z"/>
                <path d="M97.4,52.2c0,.9.1,1.5.5,2,.4.5,1.2.7,2.4.7,2.1,0,2.8-.5,3-1.8,0-.2,0-.5,0-.7,0-.7,0-1.2-.3-1.6,0-.1-.2-.2-.3-.3h0c-.4-.4-1.2-.6-2.4-.6-2.4,0-3,.7-3.1,2.5h0Z"/>
                <path d="M96.5,56.8c-.1.9-.1,1.5.3,2,.4.5,1.1.8,2.3,1,2,.3,2.8-.2,3.2-1.4,0-.2.1-.5.2-.7.1-.7.1-1.2-.1-1.6,0-.1-.1-.3-.2-.4h0c-.4-.5-1.1-.8-2.3-1-2.4-.3-3.1.3-3.3,2.2h0Z"/>
                <path d="M95,60.5c-.4.8-.5,1.5-.3,2,.2.6.8,1.1,1.9,1.7,1.8.9,2.7.7,3.4-.4.1-.2.3-.4.4-.7.3-.6.4-1.2.4-1.6,0-.2,0-.3-.1-.4h0c-.2-.6-.8-1.1-1.9-1.6-2.2-1.1-3-.6-3.8,1.1h0Z"/>
                <path d="M92.5,63.6c-.6.7-.9,1.2-1,1.9,0,.7.4,1.4,1.3,2.3,1.4,1.5,2.3,1.6,3.3.7.2-.2.4-.3.5-.5.5-.5.7-1,.8-1.4v-.4h0c0-.6-.4-1.3-1.3-2.2-1.7-1.7-2.6-1.6-3.8-.2h.1Z"/>
                <path d="M89.4,66.4c-.7.5-1.1,1-1.2,1.6-.1.6.2,1.4.9,2.4,1.2,1.7,2.1,2,3.2,1.3.2-.1.4-.3.6-.4.5-.4.9-.8,1.1-1.2,0-.2.1-.3.1-.4h0c0-.6-.2-1.4-1-2.4-1.4-2-2.3-2-3.8-.9h0Z"/>
                <path d="M85.8,68c-.8.3-1.4.6-1.6,1.2-.3.6-.3,1.4,0,2.6.6,2,1.3,2.5,2.5,2.3.2,0,.5-.1.7-.2.6-.2,1.1-.5,1.4-.8.1-.1.2-.2.2-.4h0c.3-.6.3-1.4-.1-2.5-.7-2.4-1.5-2.6-3.3-2.1h0Z"/>
              </g>
              <g>
                <path d="M51.2,50.2c0-16.6,6-21.1,22.7-21.1s21.3,6.4,21.3,21.5-6.6,22-19.3,22h-6.7c-11.2,0-18-2.9-18-22.4h0Z"/>
                <path class="st11" d="M90.2,43.1v11.2c-.1,0,1.4,0,1.4,0,1,.1,1.8.9,1.7,1.9-.1,4.1,1,8.5-2.9,8.4v3.7c0,6.1-5.2,10.2-5.2,10.2v6.5l-11.5,35-11.6-36.6v-4.1s-5-4.8-5-9.9.1-1.9.1-3.5c-2.5,0-3.2-1.9-3.2-4.3v-3.8c0-2.3,1.2-2.4,1.9-2.4h1.3v-6.6h0c5.8,3.9,12.7,2.9,17.3-.8,3-2.4,7.1-4.8,15.8-4.8h0Z"/>
                <g>
                  <path d="M66.9,60.7h-1.2c-.5,0-.8-.4-.8-.8v-1.2c0-.5.4-.8.8-.8h1.2c.5,0,.8.4.8.8v1.2c0,.5-.4.8-.8.8"/>
                  <path d="M81.5,60.7h-1.2c-.5,0-.8-.4-.8-.8v-1.2c0-.5.4-.8.8-.8h1.2c.5,0,.8.4.8.8v1.2c0,.5-.4.8-.8.8"/>
                </g>
                <path class="st8" d="M77.8,72.6h-8.1c0,1.9,8.1,2,8.1,0h0Z"/>
                <path class="st9" d="M85.3,78.5v5.6l-2.9,9.6c-15.2,0-20.3-14.5-20.3-14.5,7.5,6.6,13.7,7.8,23.2-.7"/>
              </g>
              <path class="st12" d="M85.3,84l1.1,16.1c.4,5.9-2.2,11.7-6.9,15.4l-5.7,4.4-5.6-4.7c-4.2-3.5-6.6-8.8-6.4-14.3l.4-17.7,11.6,36.6,11.6-36h0Z"/>
            </g>
          </g>
          <path class="st5" d="M109.2,161.3c0,2.8-2.7,5-6.5,5h-57.4c-3.8,0-6.5-2.2-6.5-5v-40.9c0-2.8,2.7-5,6.5-5h57.4c3.8,0,6.5,2.2,6.5,5v40.9Z"/>
        </g>
        <g>
          <path class="st7" d="M107.1,67.2h0c-1.5,0-3,1.3-3,3v22.6h0c0,1.6,1.3,3,3,3h4.7v8l6.9-8h11.3c1.6,0,3-1.3,3-3v-22.6h0c0-1.6-1.3-3-3-3h-22.9"/>
          <path class="st8" d="M118.1,88h-1.9c-.6,0-1.2-.3-1.5-.8l-4.1-5.5,1.7-1.2,4.1,5.5h1.6l6.8-10.7,1.8,1-6.7,10.9c-.5.6-1.1,1-1.7,1h0ZM117.5,85.7s0,0,0,0h0Z"/>
        </g>
      </g>
    </g>
  </g>
</svg>