<?xml version="1.0" encoding="UTF-8"?>
<svg id="Layer_1" xmlns="http://www.w3.org/2000/svg" xmlns:xlink="http://www.w3.org/1999/xlink" version="1.1" viewBox="0 0 300 168">
  <!-- Generator: Adobe Illustrator 29.3.1, SVG Export Plug-In . SVG Version: 2.1.0 Build 151)  -->
  <defs>
    <style>
      .st0 {
        fill: none;
      }

      .st1 {
        mask: url(#mask);
      }

      .st2 {
        fill: #90d7ec;
      }

      .st3 {
        fill: #171717;
      }

      .st4 {
        fill: #cecece;
      }

      .st5 {
        fill: #7bc8e2;
      }

      .st6, .st7 {
        fill: #e1e1e1;
      }

      .st6, .st8 {
        fill-rule: evenodd;
      }

      .st9 {
        mask: url(#mask-1);
      }

      .st10 {
        fill: #41afd4;
      }

      .st11 {
        fill: #cccaca;
      }

      .st12 {
        fill: #424b52;
      }

      .st13 {
        fill: #e7e7e7;
      }

      .st14 {
        fill: #05253b;
      }

      .st15 {
        fill: #02243c;
      }

      .st16 {
        fill: #fff;
      }

      .st17 {
        fill: #7c8083;
      }

      .st18 {
        fill: #677d8a;
      }

      .st19 {
        fill: #002d55;
      }

      .st20 {
        fill: #42b0d5;
      }

      .st21 {
        fill: #5e5e5e;
      }

      .st22 {
        fill: #e1f5fc;
      }

      .st23, .st8 {
        fill: #f6f7f7;
      }

      .st24 {
        fill: #2fbedf;
      }

      .st25 {
        fill: #32c1e1;
      }

      .st26 {
        fill: #bee6f1;
      }

      .st27 {
        fill: #565755;
      }

      .st28 {
        fill: #888;
        isolation: isolate;
        opacity: .6;
      }

      .st29 {
        fill: #daeffa;
      }

      .st30 {
        clip-path: url(#clippath);
      }

      .st31 {
        fill: #00243f;
      }

      .st32 {
        fill: #cfcfcf;
      }
    </style>
    <clipPath id="clippath">
      <rect class="st0" width="300" height="168"/>
    </clipPath>
    <mask id="mask" x="52.5" y="66" width="22.5" height="6.5" maskUnits="userSpaceOnUse">
      <g id="mask0_77_12566">
        <path class="st16" d="M52.5,72.5h22.5s0-6.5,0-6.5h-22.5s0,6.5,0,6.5Z"/>
      </g>
    </mask>
    <mask id="mask-1" x="75.7" y="66" width="22.5" height="6.5" maskUnits="userSpaceOnUse">
      <g id="mask0_77_125661" data-name="mask0_77_12566">
        <path class="st16" d="M75.7,72.5h22.5s0-6.5,0-6.5h-22.5s0,6.5,0,6.5Z"/>
      </g>
    </mask>
  </defs>
  <rect class="st13" y="106.9" width="300" height="61.1"/>
  <g class="st30">
    <rect class="st22" y="-54" width="300" height="156.2"/>
    <rect class="st2" y="79.5" width="300" height="28.3"/>
    <g>
      <path class="st7" d="M98.3,79.7v-5.8c0-.4-.3-.7-.7-.7h-21.2c-.4,0-.7.3-.7.7v5.8s22.6,0,22.6,0Z"/>
      <path class="st7" d="M34.5,72.8l2.1-7.6h3.2v7.6h-5.2Z"/>
      <path class="st10" d="M36.1,66.8h3.6v4.1h-4.7s1.1-4.1,1.1-4.1Z"/>
      <path class="st16" d="M36.3,69.2h1l-.2,1,.6-.8.7.8-.3-1h1s-.9-.5-.9-.5l.6-.8-.9.5-.3-1-.2,1-1-.5.7.8-1,.5Z"/>
      <path class="st7" d="M74.8,79.7v-5.8c0-.4-.3-.7-.7-.7h-21.2c-.4,0-.7.3-.7.7v5.8s22.6,0,22.6,0Z"/>
      <path class="st10" d="M110.5,86.1c-1-.7-1.3-1.8-1.2-3.1l7-7.6h-12.2c-.6,0-1.2.2-1.7.5l-6,3.7h-44.6s-2.6-2.7-2.6-2.7c-.5-.5-1.3-.8-2-.8h-19.1s3.6,7.5,3.6,7.5c.7,1.5,2.2,2.4,3.8,2.4h75.1"/>
      <path class="st7" d="M41,72.8h4.1s0-3.5,0-3.5h-4.1s0,3.5,0,3.5Z"/>
      <path class="st11" d="M45.9,76.2v-3.3c0-.3-.3-.5-.5-.5h-13.1c-.3,0-.5.3-.5.5v3.3"/>
      <path class="st7" d="M41,68.3v1s4.7,0,4.7,0c.2,0,.3-.3.3-.3v-.6s-5,0-5,0h0Z"/>
      <g class="st1">
        <path class="st7" d="M52.5,72.5v-5.8c0-.4.3-.7.7-.7h21.2c.4,0,.7.3.7.7v5.8h-22.5Z"/>
      </g>
      <g>
        <polygon class="st15" points="60.9 77.1 60.9 75.8 61.3 75.8 61.7 76.8 62.2 75.8 62.5 75.8 62.5 77.1 62.2 77.1 62.2 76.3 61.9 77.1 61.6 77.1 61.2 76.3 61.2 77.1 60.9 77.1"/>
        <path class="st15" d="M63.7,76.6l-.2-.6-.2.6h.5ZM63,77.1h-.3l.6-1.4h.4l.6,1.4h-.3v-.3h-.8v.3Z"/>
        <polygon class="st15" points="64.4 77.1 64.4 75.8 65.7 75.8 65.7 76 64.7 76 64.7 76.3 65.6 76.3 65.6 76.6 64.7 76.6 64.7 76.9 65.7 76.9 65.7 77.1 64.4 77.1"/>
        <path class="st15" d="M66.3,76.4h.7v-.3h-.7v.3ZM66,77.1v-1.3h1.1c.1,0,.2,0,.2.2v.5c0,.1,0,.2-.3.2h0l.3.5h-.3l-.3-.5h-.4v.5h-.3Z"/>
        <path class="st15" d="M67.8,77.1h-.1c-.1,0-.2,0-.2-.2v-.2h.3c0,.1.7.1.7.1v-.3h-.8c-.1,0-.2,0-.2-.2v-.4c0-.1,0-.2.2-.2h.9c.1,0,.2,0,.2.2v.2h-.3c0-.1-.7-.1-.7-.1v.3h.8c.1,0,.2,0,.2.2v.4c0,.1,0,.2-.2.2h-.8Z"/>
        <polygon class="st15" points="69.1 77.1 69.1 75.8 69.4 75.8 69.4 76.3 70.1 75.8 70.5 75.8 69.8 76.4 70.5 77.1 70.1 77.1 69.4 76.5 69.4 77.1 69.1 77.1"/>
        <path class="st10" d="M57.1,74.9h2.2c.2,0,.3.2.3.3v2.4c0,.2-.2.3-.3.3h-2.2c-.2,0-.3-.2-.3-.3v-2.4c0-.2.2-.3.3-.3Z"/>
        <polygon class="st16" points="58.6 76.4 59.2 75.7 59.2 75.7 58.4 76 58.2 75.2 58.2 75.2 58 76 57.1 75.7 57.1 75.7 57.7 76.4 56.9 76.8 56.9 76.8 57.8 76.8 57.6 77.7 57.6 77.7 58.2 77 58.7 77.7 58.7 77.7 58.5 76.8 59.5 76.8 59.5 76.8 58.6 76.4"/>
      </g>
      <g>
        <polygon class="st15" points="60.9 69.9 60.9 68.5 61.3 68.5 61.7 69.5 62.2 68.5 62.5 68.5 62.5 69.9 62.2 69.9 62.2 69.1 61.9 69.9 61.6 69.9 61.2 69.1 61.2 69.9 60.9 69.9"/>
        <path class="st15" d="M63.7,69.4l-.2-.6-.2.6h.5ZM63,69.9h-.3l.6-1.4h.4l.6,1.4h-.3v-.3h-.8v.3Z"/>
        <polygon class="st15" points="64.4 69.9 64.4 68.5 65.7 68.5 65.7 68.8 64.7 68.8 64.7 69.1 65.6 69.1 65.6 69.3 64.7 69.3 64.7 69.6 65.7 69.6 65.7 69.9 64.4 69.9"/>
        <path class="st15" d="M66.3,69.1h.7v-.3h-.7v.3ZM66,69.9v-1.3h1.1c.1,0,.2,0,.2.2v.5c0,.1,0,.2-.3.2h0l.3.5h-.3l-.3-.5h-.4v.5h-.3Z"/>
        <path class="st15" d="M67.8,69.9h-.1c-.1,0-.2,0-.2-.2v-.2h.3c0,.1.7.1.7.1v-.3h-.8c-.1,0-.2,0-.2-.2v-.4c0-.1,0-.2.2-.2h.9c.1,0,.2,0,.2.2v.2h-.3c0-.1-.7-.1-.7-.1v.3h.8c.1,0,.2,0,.2.2v.4c0,.1,0,.2-.2.2h-.8Z"/>
        <polygon class="st15" points="69.1 69.9 69.1 68.5 69.4 68.5 69.4 69.1 70.1 68.5 70.5 68.5 69.8 69.2 70.5 69.9 70.1 69.9 69.4 69.3 69.4 69.9 69.1 69.9"/>
        <path class="st10" d="M57.1,67.7h2.2c.2,0,.3.2.3.3v2.4c0,.2-.2.3-.3.3h-2.2c-.2,0-.3-.2-.3-.3v-2.4c0-.2.2-.3.3-.3Z"/>
        <polygon class="st16" points="58.6 69.1 59.2 68.4 59.2 68.4 58.4 68.8 58.2 67.9 58.2 67.9 58 68.8 57.1 68.4 57.1 68.4 57.7 69.1 56.9 69.5 56.9 69.5 57.8 69.5 57.6 70.4 57.6 70.4 58.2 69.7 58.7 70.4 58.7 70.4 58.5 69.5 59.5 69.5 59.5 69.5 58.6 69.1"/>
      </g>
      <g class="st9">
        <path class="st7" d="M75.7,72.5v-5.8c0-.4.3-.7.7-.7h21.2c.4,0,.7.3.7.7v5.8h-22.5Z"/>
      </g>
      <g>
        <polygon class="st15" points="84.2 69.9 84.2 68.5 84.6 68.5 85.1 69.5 85.5 68.5 85.9 68.5 85.9 69.9 85.6 69.9 85.6 69.1 85.2 69.9 84.9 69.9 84.6 69.1 84.6 69.9 84.2 69.9"/>
        <path class="st15" d="M87,69.4l-.2-.6-.2.6h.5ZM86.3,69.9h-.3l.6-1.4h.4l.6,1.4h-.3v-.3h-.8v.3Z"/>
        <polygon class="st15" points="87.8 69.9 87.8 68.5 89 68.5 89 68.8 88.1 68.8 88.1 69.1 88.9 69.1 88.9 69.3 88.1 69.3 88.1 69.6 89 69.6 89 69.9 87.8 69.9"/>
        <path class="st15" d="M89.6,69.1h.7v-.3h-.7v.3ZM89.3,69.9v-1.3h1.1c.1,0,.2,0,.2.2v.5c0,.1,0,.2-.3.2h0l.3.5h-.3l-.3-.5h-.4v.5h-.3Z"/>
        <path class="st15" d="M91.2,69.9h-.1c-.1,0-.2,0-.2-.2v-.2h.3c0,.1.7.1.7.1v-.3h-.8c-.1,0-.2,0-.2-.2v-.4c0-.1,0-.2.2-.2h.9c.1,0,.2,0,.2.2v.2h-.3c0-.1-.7-.1-.7-.1v.3h.8c.1,0,.2,0,.2.2v.4c0,.1,0,.2-.2.2h-.8Z"/>
        <polygon class="st15" points="92.4 69.9 92.4 68.5 92.8 68.5 92.8 69.1 93.4 68.5 93.8 68.5 93.1 69.2 93.8 69.9 93.4 69.9 92.8 69.3 92.8 69.9 92.4 69.9"/>
        <path class="st10" d="M80.4,67.7h2.2c.2,0,.3.2.3.3v2.4c0,.2-.2.3-.3.3h-2.2c-.2,0-.3-.2-.3-.3v-2.4c0-.2.2-.3.3-.3Z"/>
        <polygon class="st16" points="82 69.1 82.5 68.4 82.5 68.4 81.7 68.8 81.5 67.9 81.5 67.9 81.3 68.8 80.5 68.4 80.5 68.4 81 69.1 80.2 69.5 80.2 69.5 81.1 69.5 80.9 70.4 80.9 70.4 81.5 69.7 82.1 70.4 82.1 70.4 81.9 69.5 82.8 69.5 82.8 69.5 82 69.1"/>
      </g>
      <g>
        <polygon class="st15" points="84.2 77.1 84.2 75.8 84.6 75.8 85.1 76.8 85.5 75.8 85.9 75.8 85.9 77.1 85.6 77.1 85.6 76.3 85.2 77.1 84.9 77.1 84.6 76.3 84.6 77.1 84.2 77.1"/>
        <path class="st15" d="M87,76.6l-.2-.6-.2.6h.5ZM86.3,77.1h-.3l.6-1.4h.4l.6,1.4h-.3v-.3h-.8v.3Z"/>
        <polygon class="st15" points="87.8 77.1 87.8 75.8 89 75.8 89 76 88.1 76 88.1 76.3 88.9 76.3 88.9 76.6 88.1 76.6 88.1 76.9 89 76.9 89 77.1 87.8 77.1"/>
        <path class="st15" d="M89.6,76.4h.7v-.3h-.7v.3ZM89.3,77.1v-1.3h1.1c.1,0,.2,0,.2.2v.5c0,.1,0,.2-.3.2h0l.3.5h-.3l-.3-.5h-.4v.5h-.3Z"/>
        <path class="st15" d="M91.2,77.1h-.1c-.1,0-.2,0-.2-.2v-.2h.3c0,.1.7.1.7.1v-.3h-.8c-.1,0-.2,0-.2-.2v-.4c0-.1,0-.2.2-.2h.9c.1,0,.2,0,.2.2v.2h-.3c0-.1-.7-.1-.7-.1v.3h.8c.1,0,.2,0,.2.2v.4c0,.1,0,.2-.2.2h-.8Z"/>
        <polygon class="st15" points="92.4 77.1 92.4 75.8 92.8 75.8 92.8 76.3 93.4 75.8 93.8 75.8 93.1 76.4 93.8 77.1 93.4 77.1 92.8 76.5 92.8 77.1 92.4 77.1"/>
        <path class="st10" d="M80.4,74.9h2.2c.2,0,.3.2.3.3v2.4c0,.2-.2.3-.3.3h-2.2c-.2,0-.3-.2-.3-.3v-2.4c0-.2.2-.3.3-.3Z"/>
        <polygon class="st16" points="82 76.4 82.5 75.7 82.5 75.7 81.7 76 81.5 75.2 81.5 75.2 81.3 76 80.5 75.7 80.5 75.7 81 76.4 80.2 76.8 80.2 76.8 81.1 76.8 80.9 77.7 80.9 77.7 81.5 77 82.1 77.7 82.1 77.7 81.9 76.8 82.8 76.8 82.8 76.8 82 76.4"/>
      </g>
    </g>
    <g>
      <path class="st28" d="M148,122h-76.6c-.3,0-.5-.2-.5-.5v-1c0-.3.2-.5.5-.5h76.6c.3,0,.5.2.5.5v1c0,.3-.2.5-.5.5Z"/>
      <g>
        <rect class="st21" x="70.9" y="112.8" width="61.3" height="4.1"/>
        <path class="st25" d="M149.9,107.1l-3.4-7.3c-.2-.4-.6-.7-1-.7h-12.1c-.6,0-1.2.5-1.2,1.2v18h4.6c0-.1,0-.3,0-.4,0-2.4,1.9-4.3,4.3-4.3s4.3,1.9,4.3,4.3,0,.3,0,.4h3.5c.6,0,1.2-.5,1.2-1.2v-9.6c0-.2,0-.3-.1-.5Z"/>
        <path class="st8" d="M130.1,112.8v-15.1c0-.9-.8-1.7-1.7-1.7h-54.8c-1.1,0-1.8.8-1.8,1.7v15.1h58.4Z"/>
        <path class="st6" d="M74.9,110.3h0c-.3,0-.6-.3-.6-.6v-10.5c0-.3.3-.6.6-.6s.6.3.6.6v10.5c0,.3-.2.6-.6.6Z"/>
        <path class="st6" d="M77.8,110.3h0c-.3,0-.6-.3-.6-.6v-10.5c0-.3.3-.6.6-.6.5,0,.8.3.8.6v10.5c0,.3-.3.6-.8.6Z"/>
        <path class="st6" d="M80.7,110.3h0c-.3,0-.6-.3-.6-.6v-10.5c0-.3.3-.6.6-.6.3-.2.6.2.6.5v10.7c0,.3-.2.6-.6.6Z"/>
        <path class="st6" d="M83.6,110.3h0c-.3,0-.6-.3-.6-.6v-10.5c0-.3.3-.6.6-.6.3-.2.6.2.8.5v10.7c0,.3-.3.6-.6.6h-.2Z"/>
        <path class="st6" d="M86.5,110.3h0c-.3,0-.6-.3-.6-.6v-10.5c0-.3.3-.6.6-.6.3-.2.6.2.6.5v10.7c0,.3-.2.6-.6.6Z"/>
        <path class="st6" d="M89.4,110.3h0c-.3,0-.6-.3-.6-.6v-10.5c0-.3.3-.6.6-.6s.6.3.6.6v10.5c0,.3-.3.6-.6.6Z"/>
        <path class="st6" d="M92.3,110.3h0c-.3,0-.6-.3-.6-.6v-10.5c0-.3.3-.6.6-.6s.6.3.6.6v10.5c0,.3-.3.6-.6.6Z"/>
        <path class="st6" d="M95.2,110.3h0c-.3,0-.6-.3-.6-.6v-10.5c0-.3.2-.6.6-.6.3-.2.6.2.6.5v10.7c0,.3-.3.6-.6.6Z"/>
        <path class="st6" d="M98.1,110.3h0c-.3,0-.6-.3-.6-.6v-10.5c0-.3.3-.6.6-.6s.6.3.6.6v10.5c0,.3-.3.6-.6.6Z"/>
        <path class="st6" d="M101,110.3h0c-.3,0-.6-.3-.6-.6v-10.5c0-.3.2-.6.5-.6.5-.2.8.2.8.5v10.7c0,.3-.3.6-.6.6Z"/>
        <path class="st6" d="M103.9,110.3h0c-.5,0-.6-.3-.6-.6v-10.5c-.2-.3.2-.6.5-.6.5-.2.8.2.8.5v10.7c0,.3-.3.6-.6.6Z"/>
        <path class="st6" d="M106.7,110.3h0c-.5,0-.6-.3-.6-.6v-10.5c0-.3.2-.6.6-.6s.6.3.6.6v10.5c0,.3-.3.6-.6.6Z"/>
        <path class="st6" d="M109.6,110.3h0c-.5,0-.6-.3-.6-.6v-10.5c-.2-.3.2-.6.5-.6.5-.2.8.2.8.5v10.7c0,.3-.3.6-.6.6Z"/>
        <path class="st6" d="M112.4,110.3h0c-.3,0-.6-.3-.6-.6v-10.5c0-.3.3-.6.6-.6.3-.2.6.2.8.5v10.7c0,.3-.3.6-.6.6h-.2Z"/>
        <path class="st6" d="M115.4,110.3h0c-.5,0-.6-.3-.6-.6v-10.5c0-.3.2-.6.6-.6s.6.3.6.6v10.5c0,.3-.3.6-.6.6Z"/>
        <path class="st6" d="M118.2,110.3h0c-.3,0-.6-.3-.6-.6v-10.5c0-.3.3-.6.6-.6.3-.2.6.2.8.5v10.7c0,.3-.3.6-.6.6h-.2Z"/>
        <path class="st6" d="M121.1,110.3h0c-.3,0-.6-.3-.6-.6v-10.5c0-.3.3-.6.6-.6.3-.2.6.2.6.5q.2.2,0,.2v10.5c0,.3-.1.6-.6.6Z"/>
        <path class="st6" d="M124,110.3h0c-.3,0-.6-.3-.6-.6v-10.5c0-.3.3-.6.6-.6s.6.3.6.6v10.5c0,.3-.3.6-.6.6Z"/>
        <path class="st6" d="M126.9,110.3h0c-.3,0-.6-.3-.6-.6v-10.5c0-.3.3-.6.6-.6s.6.3.6.6v10.5c0,.3-.3.6-.6.6Z"/>
        <path class="st8" d="M147.6,109h-6.6c-.3,0-.5-.2-.5-.5v-7c0-.2.2-.5.5-.5h3.8c.2,0,.3.2.5.3l2.6,5.6v1.5c0,.3-.2.5-.3.5Z"/>
        <path class="st31" d="M82.4,117.8c0,2-1.6,3.7-3.7,3.7s-3.7-1.6-3.7-3.7,1.6-3.7,3.7-3.7h0c2,0,3.7,1.6,3.7,3.7"/>
        <path class="st32" d="M80.8,117.8c0,1.1-.9,2.1-2.1,2.1-1.1,0-2.1-.9-2.1-2.1,0-1.1.9-2.1,2.1-2.1h0c1.1,0,2.1.9,2.1,2.1h0"/>
        <path class="st31" d="M90.9,117.8c0,2-1.6,3.7-3.7,3.7s-3.7-1.6-3.7-3.7,1.6-3.7,3.7-3.7h0c2,0,3.7,1.6,3.7,3.7"/>
        <path class="st32" d="M89.3,117.8c0,1.1-.9,2.1-2.1,2.1-1.1,0-2.1-.9-2.1-2.1,0-1.1.9-2.1,2.1-2.1h0c1.1,0,2.1.9,2.1,2.1h0"/>
        <path class="st31" d="M119.9,117.8c0,2-1.6,3.7-3.7,3.7s-3.7-1.6-3.7-3.7,1.6-3.7,3.7-3.7h0c2,0,3.7,1.6,3.7,3.7"/>
        <path class="st32" d="M118.3,117.8c0,1.1-.9,2.1-2.1,2.1-1.1,0-2.1-.9-2.1-2.1,0-1.1.9-2.1,2.1-2.1h0c1.1,0,2.1.9,2.1,2.1h0"/>
        <path class="st31" d="M144.8,117.8c0,2-1.6,3.7-3.7,3.7s-3.7-1.6-3.7-3.7,1.6-3.7,3.7-3.7h0c2,0,3.7,1.6,3.7,3.7"/>
        <path class="st32" d="M143.2,117.8c0,1.1-.9,2.1-2.1,2.1-1.1,0-2.1-.9-2.1-2.1,0-1.1.9-2.1,2.1-2.1h0c1.1,0,2.1.9,2.1,2.1h0"/>
        <path class="st31" d="M128.4,117.8c0,2-1.6,3.7-3.7,3.7s-3.7-1.6-3.7-3.7,1.6-3.7,3.7-3.7h0c2,0,3.7,1.6,3.7,3.7"/>
        <path class="st32" d="M126.8,117.8c0,1.1-.9,2.1-2.1,2.1-1.1,0-2.1-.9-2.1-2.1,0-1.1.9-2.1,2.1-2.1h0c1.1,0,2.1.9,2.1,2.1h0"/>
        <polygon points="93.9 106 93.9 102.5 94.9 102.5 96 105.2 97.2 102.5 98.1 102.5 98.1 106 97.3 106 97.3 104 96.4 106 95.6 106 94.7 104 94.7 106 93.9 106"/>
        <path d="M99.4,106h-.9l1.6-3.5h1.1l1.6,3.5h-.9l-.3-.7h-1.8l-.3.7ZM101.2,104.7l-.6-1.5-.6,1.5h1.3Z"/>
        <polygon points="103.1 106 103.1 102.5 106.4 102.5 106.4 103.2 103.9 103.2 103.9 103.9 106.1 103.9 106.1 104.6 103.9 104.6 103.9 105.3 106.4 105.3 106.4 106 103.1 106"/>
        <path d="M107.1,106v-3.5h2.8c.3,0,.6.2.6.5,0,0,0,0,0,.1v1.2c0,.3-.2.5-.7.5h0l.8,1.2h-.9l-.8-1.2h-.9v1.2h-.8ZM107.9,104.1h1.8v-.9h-1.8v.9Z"/>
        <path d="M112,106h-.3c-.3,0-.5-.2-.5-.4,0,0,0,0,0,0v-.5h.8v.3h1.7v-.7h-2c-.3,0-.5-.2-.5-.5,0,0,0,0,0,0v-1c0-.3.2-.5.5-.5,0,0,0,0,0,0h2.3c.3,0,.5.2.5.5,0,0,0,0,0,0v.4h-.8v-.3h-1.7v.7h2c.3,0,.5.2.6.5,0,0,0,0,0,0v1c0,.3-.2.5-.4.6,0,0,0,0-.1,0h-2Z"/>
        <polygon points="115.3 106 115.3 102.5 116.1 102.5 116.1 103.9 117.7 102.5 118.9 102.5 117 104.2 118.9 106 117.8 106 116.1 104.4 116.1 106 115.3 106"/>
        <path class="st20" d="M83.9,100.3h5.8c.5,0,.9.4.9.9v6.2c0,.5-.4.9-.9.9h-5.8c-.5,0-.9-.4-.9-.9h0v-6.2c0-.5.4-.9.9-.9h0Z"/>
        <polygon class="st16" points="88 104.1 89.5 102.2 89.5 102.2 87.3 103.2 86.8 100.9 86.8 100.9 86.2 103.2 84.1 102.2 84.1 102.2 85.6 104.1 83.4 105.1 83.4 105.1 85.8 105.1 85.3 107.5 85.3 107.5 86.8 105.6 88.3 107.5 88.3 107.5 87.7 105.1 90.1 105.1 90.1 105.1 88 104.1"/>
      </g>
    </g>
    <g>
      <path class="st16" d="M182.2,19.8h0s15.7-1.7,15.7-1.7c.7,0,1.5,0,2.2.3l1.9.8c.4.2.7.4,1,.8.3.3.4.7.5,1.2.2,1.4-1.7,2.4-7.8,3.1-4.8.5-10.3,1.2-12.4,1.4-3.9.4-21.6-.7-21.7-1.9-.2-2,9.4-2.7,20.7-3.9Z"/>
      <path class="st10" d="M198.1,19.4c0,.2.1.3.2.4.1.1.3.2.5.1l3.7-.4c-.2-.1-.4-.3-.6-.3l-1.6-.7-1.6.2c-.2,0-.3.1-.4.2-.1.1-.2.3-.1.5M161.4,23.7c.1,1.1,16.1,2.2,21,1.9.3,0,.8,0,1.1,0,2.3-.3,7.5-.9,12-1.4s2.7-.3,3.7-.5c.1,0,.3,0,.4,0,1.8-.4,2.8-.8,3.3-1.3-1.8.2-18,2.1-23.9,2.8-1.4.2-2.7-.2-3.8-1.1l-3.9-3-7.1-5.5-3.2.4,3.7,6.1c-2.1.5-3.3,1-3.2,1.7Z"/>
      <path class="st16" d="M166.6,17.9c0,0,.2,0,.2,0,0,0,.1.1.1.2l.2,2c0,0,0,.2,0,.2,0,0-.1.1-.2.1l-1.9.2c0,0-.2,0-.2,0,0,0-.1-.1-.1-.2l-.2-2c0,0,0-.2,0-.2,0,0,.1-.1.2-.1l1.9-.2ZM166.6,17.8l-1.9.2c-.1,0-.2,0-.3.1,0,0,0,.2,0,.3l.2,2c0,.2.2.4.4.3l1.9-.2c.2,0,.4-.2.3-.4l-.2-2c0,0,0-.2-.1-.3,0,0-.2,0-.3,0"/>
      <path class="st16" d="M166.2,19.2l.4-.7h0s-.7.4-.7.4l-.3-.8h0s0,.8,0,.8l-.8-.3h0s.6.6.6.6l-.7.4h0s.8,0,.8,0v.8c0,0,0,0,0,0l.4-.7.6.6h0s-.3-.8-.3-.8h.8c0,0,0,0,0,0l-.8-.3Z"/>
      <path class="st16" d="M169.4,23.4l-1.8.2c-.2,0-.4,0-.5.1l-3.3,1.4c0,0-.1.1-.1.2,0,0,0,.1.2,0l5.8-.7c.2,0,.3-.1.5-.3.1-.1.2-.3.2-.5,0-.4-.4-.7-.8-.6Z"/>
      <path class="st4" d="M186.3,26.2l.2,1.6c-.9.1-1.7,0-2.6,0v-1c.7-.3,1.6-.5,2.4-.6Z"/>
      <path class="st10" d="M186.2,28.2l2.8-.3c.5,0,.8-.3.7-.7v-.9c-.2-.4-.5-.6-1-.6l-2.8.3.3,2.2Z"/>
      <path class="st16" d="M187.3,24.3l-4.6.5c-.3,0-.6.1-.9.2l-5.4,2.2c-.1,0-.2.2-.1.3,0,0,.2.2.3.2l11-1.3c.1,0,.3,0,.4-.1.1,0,.2-.2.3-.3,0-.1.2-.2.2-.4s0-.3,0-.4c0-.6-.6-1.1-1.2-1Z"/>
      <path d="M184.5,21h.6c0,0,.6,1.2.6,1.2l.3-1.3h.6c0,0,.2,1.8.2,1.8h-.4s-.1-1.3-.1-1.3l-.3,1.3c0,0,0,0,0,0h-.2s0,0-.1,0l-.6-1.2v1.3c.1,0-.2,0-.2,0l-.2-1.8ZM188,22h-.6c0,0,0,.5,0,.5h-.4s.2-1.7.2-1.7c0,0,0-.1.1-.1h.6c0,0,.1,0,.1,0l.6,1.7h-.4s-.1-.4-.1-.4ZM187.9,21.7l-.2-.7h-.2s0,.7,0,.7h.4ZM189.1,20.8v.4s.6,0,.6,0v.4s-.5,0-.5,0v.4s.7,0,.7,0v.4s-1.1.1-1.1.1l-.2-1.8h1.1c0-.1,0,.2,0,.2h-.7ZM191.7,22.1h-.5c0,0-.4-.5-.4-.5h-.2s0,.6,0,.6h-.4s-.2-1.8-.2-1.8h.7c.3-.1.6,0,.6.4s0,.5-.3.6l.5.6ZM191,20.9c0-.2,0-.2-.3-.2h-.2s0,.6,0,.6h.2c.2,0,.3,0,.2-.3ZM191.9,22v-.4c0,0,.2,0,.4,0s.3,0,.2-.2,0-.2-.2-.2h-.2c-.3,0-.4-.1-.5-.5s0-.6.6-.6.3,0,.4,0v.4c-.1,0-.2,0-.4,0-.2,0-.2,0-.2.2s0,.2.2.2h.2c.3,0,.5.1.5.5s-.1.6-.6.7-.3,0-.5,0ZM194.3,21.8l-.7-.8v.9c0,0-.3,0-.3,0l-.2-1.8h.4s0,.8,0,.8l.5-.9h.5c0,0-.5.9-.5.9l.8.9h-.5Z"/>
    </g>
    <path class="st16" d="M46.5,25c2.2,0,2.8.6,2.8,2.2h3.1c3.1,0,3.9.9,3.9,3.2h-30.3c0-1.6.6-2.2,2.8-2.2,0-2.3.8-3.2,3.9-3.2h2.2c0-2.9,1-4.1,5-4.1s5,1.2,5,4.1h1.7Z"/>
    <path class="st16" d="M268.1,25.1c1.7,0,2.2.5,2.2,1.8h2.4c2.4,0,3.1.7,3.1,2.5h-23.6c0-1.3.4-1.8,2.2-1.8,0-1.8.6-2.5,3.1-2.5h1.7c0-2.3.8-3.2,3.9-3.2s3.9.9,3.9,3.2h1.3Z"/>
    <path class="st16" d="M182.1,53.8h-19.8c0-2.5.9-3.5,4.3-3.5h3.1c0-3.6,1.2-5,6.2-5s4.8,1.1,4.8,3.9h0c4.6,0,5.7,1.3,5.7,4.7h-7.4"/>
    <g>
      <path class="st17" d="M135.5,129.8h12.8c.7,0,1.2.5,1.2,1.2v8.2c0,.7-.5,1.2-1.2,1.2h-12.8c-.7,0-1.2-.5-1.2-1.2v-8.2c0-.7.5-1.2,1.2-1.2Z"/>
      <path class="st17" d="M173.7,129.8h12.8c.7,0,1.2.5,1.2,1.2v8.2c0,.7-.5,1.2-1.2,1.2h-12.8c-.7,0-1.2-.5-1.2-1.2v-8.2c0-.7.5-1.2,1.2-1.2Z"/>
      <path class="st12" d="M197.9,155.1c0,1.6-1.3,2.9-2.9,2.9-1.6,0-2.9-1.3-2.9-2.9,0-1.6,1.3-2.9,2.9-2.9,1.6,0,2.9,1.3,2.9,2.9"/>
      <path class="st12" d="M204.7,155.1c0-1.6-1.3-2.9-2.9-2.9-1.6,0-2.9,1.3-2.9,2.9,0,1.6,1.3,2.9,2.9,2.9,1.6,0,2.9-1.3,2.9-2.9"/>
      <path class="st19" d="M198.4,152h-4c-.5,0-.8.6-.5,1l1.4,1.9c.1.2.3.3.5.3h2.6s2.6,0,2.6,0c.2,0,.4,0,.5-.3l1.4-1.9c.3-.4,0-1-.5-1h-4Z"/>
      <path class="st27" d="M131.4,155.1c0,1.6-1.3,2.9-2.9,2.9-1.6,0-2.9-1.3-2.9-2.9,0-1.6,1.3-2.9,2.9-2.9,1.6,0,2.9,1.3,2.9,2.9"/>
      <path class="st27" d="M138.2,155.1c0-1.6-1.3-2.9-2.9-2.9-1.6,0-2.9,1.3-2.9,2.9,0,1.6,1.3,2.9,2.9,2.9,1.6,0,2.9-1.3,2.9-2.9"/>
      <path class="st14" d="M131.9,152h-4c-.5,0-.8.6-.5,1l1.4,1.9c.1.2.3.3.5.3h2.6s2.6,0,2.6,0c.2,0,.4,0,.5-.3l1.4-1.9c.3-.4,0-1-.5-1h-4Z"/>
      <path class="st27" d="M53.7,155.1c0,1.6-1.3,2.9-2.9,2.9-1.6,0-2.9-1.3-2.9-2.9,0-1.6,1.3-2.9,2.9-2.9,1.6,0,2.9,1.3,2.9,2.9"/>
      <path class="st27" d="M60.5,155.1c0-1.6-1.3-2.9-2.9-2.9-1.6,0-2.9,1.3-2.9,2.9,0,1.6,1.3,2.9,2.9,2.9,1.6,0,2.9-1.3,2.9-2.9"/>
      <path class="st14" d="M54.2,152h-4c-.5,0-.8.6-.5,1l1.4,1.9c.1.2.3.3.5.3h2.6s2.6,0,2.6,0c.2,0,.4,0,.5-.3l1.4-1.9c.3-.4,0-1-.5-1h-4Z"/>
      <path class="st27" d="M34.8,155.1c0,1.6-1.3,2.9-2.9,2.9-1.6,0-2.9-1.3-2.9-2.9,0-1.6,1.3-2.9,2.9-2.9,1.6,0,2.9,1.3,2.9,2.9"/>
      <path class="st27" d="M41.6,155.1c0-1.6-1.3-2.9-2.9-2.9-1.6,0-2.9,1.3-2.9,2.9,0,1.6,1.3,2.9,2.9,2.9,1.6,0,2.9-1.3,2.9-2.9"/>
      <path class="st14" d="M35.3,152h-4c-.5,0-.8.6-.5,1l1.4,1.9c.1.2.3.3.5.3h2.6s2.6,0,2.6,0c.2,0,.4,0,.5-.3l1.4-1.9c.3-.4,0-1-.5-1h-4Z"/>
      <path class="st27" d="M111.5,155.1c0,1.6-1.3,2.9-2.9,2.9-1.6,0-2.9-1.3-2.9-2.9,0-1.6,1.3-2.9,2.9-2.9,1.6,0,2.9,1.3,2.9,2.9"/>
      <path class="st27" d="M118.3,155.1c0-1.6-1.3-2.9-2.9-2.9-1.6,0-2.9,1.3-2.9,2.9,0,1.6,1.3,2.9,2.9,2.9,1.6,0,2.9-1.3,2.9-2.9"/>
      <rect class="st14" x="45.4" y="150.9" width="74.8" height="2.1"/>
      <path class="st23" d="M114,150.9v-16.1c0-1-.8-1.8-1.8-1.8h-58.7c-1,0-1.8.8-1.8,1.8v16.1h62.4Z"/>
      <path class="st7" d="M55.2,148.2h-.3c-.3,0-.5-.2-.5-.5v-11.5c0-.3.2-.5.5-.5h.3c.3,0,.5.2.5.5v11.5c0,.3-.2.5-.5.5"/>
      <path class="st7" d="M58.3,148.2h-.3c-.3,0-.5-.2-.5-.5v-11.5c0-.3.2-.5.5-.5h.3c.3,0,.5.2.5.5v11.5c0,.3-.2.5-.5.5"/>
      <path class="st7" d="M61.3,148.2h-.3c-.3,0-.5-.2-.5-.5v-11.5c0-.3.2-.5.5-.5h.3c.3,0,.5.2.5.5v11.5c0,.3-.2.5-.5.5"/>
      <path class="st7" d="M64.4,148.2h-.3c-.3,0-.5-.2-.5-.5v-11.5c0-.3.2-.5.5-.5h.3c.3,0,.5.2.5.5v11.5c0,.3-.2.5-.5.5"/>
      <path class="st7" d="M67.5,148.2h-.3c-.3,0-.5-.2-.5-.5v-11.5c0-.3.2-.5.5-.5h.3c.3,0,.5.2.5.5v11.5c0,.3-.2.5-.5.5"/>
      <path class="st7" d="M70.6,148.2h-.3c-.3,0-.5-.2-.5-.5v-11.5c0-.3.2-.5.5-.5h.3c.3,0,.5.2.5.5v11.5c0,.3-.2.5-.5.5"/>
      <path class="st7" d="M73.7,148.2h-.3c-.3,0-.5-.2-.5-.5v-11.5c0-.3.2-.5.5-.5h.3c.3,0,.5.2.5.5v11.5c0,.3-.2.5-.5.5"/>
      <path class="st7" d="M76.8,148.2h-.3c-.3,0-.5-.2-.5-.5v-11.5c0-.3.2-.5.5-.5h.3c.3,0,.5.2.5.5v11.5c0,.3-.2.5-.5.5"/>
      <path class="st7" d="M79.9,148.2h-.3c-.3,0-.5-.2-.5-.5v-11.5c0-.3.2-.5.5-.5h.3c.3,0,.5.2.5.5v11.5c0,.3-.2.5-.5.5"/>
      <path class="st7" d="M82.9,148.2h-.3c-.3,0-.5-.2-.5-.5v-11.5c0-.3.2-.5.5-.5h.3c.3,0,.5.2.5.5v11.5c0,.3-.2.5-.5.5"/>
      <path class="st7" d="M86,148.2h-.3c-.3,0-.5-.2-.5-.5v-11.5c0-.3.2-.5.5-.5h.3c.3,0,.5.2.5.5v11.5c0,.3-.2.5-.5.5"/>
      <path class="st7" d="M89.1,148.2h-.3c-.3,0-.5-.2-.5-.5v-11.5c0-.3.2-.5.5-.5h.3c.3,0,.5.2.5.5v11.5c0,.3-.2.5-.5.5"/>
      <path class="st7" d="M92.2,148.2h-.3c-.3,0-.5-.2-.5-.5v-11.5c0-.3.2-.5.5-.5h.3c.3,0,.5.2.5.5v11.5c0,.3-.2.5-.5.5"/>
      <path class="st7" d="M95.3,148.2h-.3c-.3,0-.5-.2-.5-.5v-11.5c0-.3.2-.5.5-.5h.3c.3,0,.5.2.5.5v11.5c0,.3-.2.5-.5.5"/>
      <path class="st7" d="M98.4,148.2h-.3c-.3,0-.5-.2-.5-.5v-11.5c0-.3.2-.5.5-.5h.3c.3,0,.5.2.5.5v11.5c0,.3-.2.5-.5.5"/>
      <path class="st7" d="M101.5,148.2h-.3c-.3,0-.5-.2-.5-.5v-11.5c0-.3.2-.5.5-.5h.3c.3,0,.5.2.5.5v11.5c0,.3-.2.5-.5.5"/>
      <path class="st7" d="M104.6,148.2h-.3c-.3,0-.5-.2-.5-.5v-11.5c0-.3.2-.5.5-.5h.3c.3,0,.5.2.5.5v11.5c0,.3-.2.5-.5.5"/>
      <path class="st7" d="M107.6,148.2h-.3c-.3,0-.5-.2-.5-.5v-11.5c0-.3.2-.5.5-.5h.3c.3,0,.5.2.5.5v11.5c0,.3-.2.5-.5.5"/>
      <path class="st7" d="M110.7,148.2h-.3c-.3,0-.5-.2-.5-.5v-11.5c0-.3.2-.5.5-.5h.3c.3,0,.5.2.5.5v11.5c0,.3-.2.5-.5.5"/>
      <polygon class="st3" points="75.2 143.8 75.2 140 76.2 140 77.5 142.9 78.8 140 79.7 140 79.7 143.8 78.9 143.8 78.9 141.6 77.9 143.8 77.1 143.8 76.1 141.6 76.1 143.8 75.2 143.8"/>
      <path class="st3" d="M81.4,143.1h2s.3.8.3.8h1s-1.7-3.8-1.7-3.8h-1.2s-1.7,3.8-1.7,3.8h1s.3-.8.3-.8ZM81.7,142.4l.7-1.6.7,1.6h-1.4Z"/>
      <polygon class="st3" points="85.1 143.8 85.1 140 88.7 140 88.7 140.8 86 140.8 86 141.5 88.3 141.5 88.3 142.3 86 142.3 86 143.1 88.7 143.1 88.7 143.8 85.1 143.8"/>
      <path class="st3" d="M90.3,143.8v-1.3s1,0,1,0l.8,1.3h1s-.9-1.3-.9-1.3h0c.5,0,.8-.3.8-.6v-1.3c0-.4-.2-.6-.6-.6h-3v3.8h.9ZM90.3,140.8h1.9s0,1,0,1h-1.9s0-1,0-1Z"/>
      <path class="st3" d="M94.7,143.8h-.3c-.4,0-.6-.2-.6-.6v-.5s.9,0,.9,0v.3h1.9v-.8h-2.2c-.3,0-.6-.2-.6-.6v-1.1c0-.3.3-.6.6-.6h2.5c.3,0,.6.2.6.6v.5s-.9,0-.9,0v-.3h-1.9v.7h2.1c.3,0,.6.2.6.6v1.1c0,.4-.2.6-.6.6h-2.2Z"/>
      <polygon class="st3" points="98.3 143.8 98.3 140 99.2 140 99.2 141.6 100.9 140 102.1 140 100.1 141.8 102.2 143.8 100.9 143.8 99.2 142.1 99.2 143.8 98.3 143.8"/>
      <path class="st24" d="M64.4,137.6h6.2c.5,0,1,.4,1,1v6.7c0,.5-.4,1-1,1h-6.2c-.5,0-1-.4-1-1v-6.7c0-.5.4-1,1-1Z"/>
      <polygon class="st16" points="68.8 141.7 70.4 139.7 70.4 139.7 68.1 140.8 67.5 138.3 67.5 138.3 66.9 140.8 64.6 139.7 64.6 139.7 66.2 141.7 63.9 142.8 63.9 142.8 66.5 142.8 65.9 145.4 65.9 145.4 67.5 143.3 69.1 145.4 69.1 145.4 68.5 142.8 71.1 142.8 71.1 142.8 68.8 141.7"/>
      <path class="st23" d="M37.8,150.9v-16.1c0-1-.8-1.8-1.8-1.8H-22.8c-1,0-1.8.8-1.8,1.8v16.1h62.4Z"/>
      <path class="st7" d="M.5,148.2H.2c-.3,0-.5-.2-.5-.5v-11.5c0-.3.2-.5.5-.5h.3c.3,0,.5.2.5.5v11.5c0,.3-.2.5-.5.5"/>
      <path class="st7" d="M3.6,148.2h-.3c-.3,0-.5-.2-.5-.5v-11.5c0-.3.2-.5.5-.5h.3c.3,0,.5.2.5.5v11.5c0,.3-.2.5-.5.5"/>
      <path class="st7" d="M6.7,148.2h-.3c-.3,0-.5-.2-.5-.5v-11.5c0-.3.2-.5.5-.5h.3c.3,0,.5.2.5.5v11.5c0,.3-.2.5-.5.5"/>
      <path class="st7" d="M9.8,148.2h-.3c-.3,0-.5-.2-.5-.5v-11.5c0-.3.2-.5.5-.5h.3c.3,0,.5.2.5.5v11.5c0,.3-.2.5-.5.5"/>
      <path class="st7" d="M12.9,148.2h-.3c-.3,0-.5-.2-.5-.5v-11.5c0-.3.2-.5.5-.5h.3c.3,0,.5.2.5.5v11.5c0,.3-.2.5-.5.5"/>
      <path class="st7" d="M15.9,148.2h-.3c-.3,0-.5-.2-.5-.5v-11.5c0-.3.2-.5.5-.5h.3c.3,0,.5.2.5.5v11.5c0,.3-.2.5-.5.5"/>
      <path class="st7" d="M19,148.2h-.3c-.3,0-.5-.2-.5-.5v-11.5c0-.3.2-.5.5-.5h.3c.3,0,.5.2.5.5v11.5c0,.3-.2.5-.5.5"/>
      <path class="st7" d="M22.1,148.2h-.3c-.3,0-.5-.2-.5-.5v-11.5c0-.3.2-.5.5-.5h.3c.3,0,.5.2.5.5v11.5c0,.3-.2.5-.5.5"/>
      <path class="st7" d="M25.2,148.2h-.3c-.3,0-.5-.2-.5-.5v-11.5c0-.3.2-.5.5-.5h.3c.3,0,.5.2.5.5v11.5c0,.3-.2.5-.5.5"/>
      <path class="st7" d="M28.3,148.2h-.3c-.3,0-.5-.2-.5-.5v-11.5c0-.3.2-.5.5-.5h.3c.3,0,.5.2.5.5v11.5c0,.3-.2.5-.5.5"/>
      <path class="st7" d="M31.4,148.2h-.3c-.3,0-.5-.2-.5-.5v-11.5c0-.3.2-.5.5-.5h.3c.3,0,.5.2.5.5v11.5c0,.3-.2.5-.5.5"/>
      <path class="st7" d="M34.5,148.2h-.3c-.3,0-.5-.2-.5-.5v-11.5c0-.3.2-.5.5-.5h.3c.3,0,.5.2.5.5v11.5c0,.3-.2.5-.5.5"/>
      <polygon class="st3" points="-1 143.8 -1 140 0 140 1.2 142.9 2.5 140 3.5 140 3.5 143.8 2.6 143.8 2.6 141.6 1.7 143.8 .8 143.8 -.2 141.6 -.2 143.8 -1 143.8"/>
      <path class="st3" d="M5.2,143.1h2s.3.8.3.8h1s-1.7-3.8-1.7-3.8h-1.2s-1.7,3.8-1.7,3.8h1s.3-.8.3-.8ZM5.5,142.4l.7-1.6.7,1.6h-1.4Z"/>
      <polygon class="st3" points="8.8 143.8 8.8 140 12.5 140 12.5 140.8 9.7 140.8 9.7 141.5 12.1 141.5 12.1 142.3 9.7 142.3 9.7 143.1 12.5 143.1 12.5 143.8 8.8 143.8"/>
      <path class="st3" d="M14.1,143.8v-1.3s1,0,1,0l.8,1.3h1s-.9-1.3-.9-1.3h0c.5,0,.8-.3.8-.6v-1.3c0-.4-.2-.6-.6-.6h-3v3.8h.9ZM14.1,140.8h1.9s0,1,0,1h-1.9s0-1,0-1Z"/>
      <path class="st3" d="M18.4,143.8h-.3c-.4,0-.6-.2-.6-.6v-.5s.9,0,.9,0v.3h1.9v-.8h-2.2c-.3,0-.6-.2-.6-.6v-1.1c0-.3.3-.6.6-.6h2.5c.3,0,.6.2.6.6v.5s-.9,0-.9,0v-.3h-1.9v.7h2.1c.3,0,.6.2.6.6v1.1c0,.4-.2.6-.6.6h-2.2Z"/>
      <polygon class="st3" points="22 143.8 22 140 22.9 140 22.9 141.6 24.6 140 25.9 140 23.8 141.8 25.9 143.8 24.7 143.8 22.9 142.1 22.9 143.8 22 143.8"/>
      <rect class="st14" x="-30.9" y="150.9" width="74.8" height="2.1"/>
      <path class="st19" d="M121.7,131.4v19.5h86.7v-7.1c0-.8-.3-1.6-.8-2.3l-7.1-8.7c-.8-.9-1.9-1.4-3.1-1.4h-75.7Z"/>
      <polygon class="st14" points="64.1 152 68.1 155.9 84.3 155.9 84.3 152 64.1 152"/>
      <polygon class="st14" points="101.5 152 97.5 155.9 81.3 155.9 81.3 152 101.5 152"/>
      <rect class="st19" x="121.7" y="150.9" width="86.7" height="2.1"/>
      <polygon class="st19" points="172.4 152 157.6 152 140.4 152 144.4 155.9 157.6 155.9 172.4 155.9 185.7 155.9 189.6 152 172.4 152"/>
      <path class="st14" d="M111.9,152h-4c-.5,0-.8.6-.5,1l1.4,1.9c.1.2.3.3.5.3h2.6s2.6,0,2.6,0c.2,0,.4,0,.5-.3l1.4-1.9c.3-.4,0-1-.5-1h-4Z"/>
      <polygon class="st14" points="-12.1 152 -8.2 155.9 8 155.9 8 152 -12.1 152"/>
      <polygon class="st14" points="25.2 152 21.3 155.9 5.1 155.9 5.1 152 25.2 152"/>
      <path class="st26" d="M194.7,133.5h2.8c.2,0,.4.2.4.4v3c0,.2-.2.4-.4.4h-2.8c-.2,0-.4-.2-.4-.4v-3c0-.2.2-.4.4-.4Z"/>
      <path class="st26" d="M190.1,133.5h2.8c.2,0,.4.2.4.4v3c0,.2-.2.4-.4.4h-2.8c-.2,0-.4-.2-.4-.4v-3c0-.2.2-.4.4-.4Z"/>
      <path class="st26" d="M158.3,133.5h2.8c.2,0,.4.2.4.4v3c0,.2-.2.4-.4.4h-2.8c-.2,0-.4-.2-.4-.4v-3c0-.2.2-.4.4-.4Z"/>
      <rect class="st26" x="153.3" y="133.5" width="3.7" height="3.9" rx=".4" ry=".4"/>
      <path class="st17" d="M178.9,133.8h0c0-.2,0-.3.2-.3h4.2c.1,0,.2,0,.2.2h0c0,.2,0,.3-.2.3h-4.2c-.1,0-.2,0-.2-.2"/>
      <path class="st17" d="M178.9,134.9h0c0-.2,0-.3.2-.3h4.2c.1,0,.2,0,.2.2h0c0,.2,0,.3-.2.3h-4.2c-.1,0-.2,0-.2-.2"/>
      <path class="st17" d="M178.9,136.1h0c0-.2,0-.3.2-.3h4.2c.1,0,.2,0,.2.2h0c0,.2,0,.3-.2.3h-4.2c-.1,0-.2,0-.2-.2"/>
      <path class="st17" d="M178.9,137.2h0c0-.2,0-.3.2-.3h4.2c.1,0,.2,0,.2.2h0c0,.2,0,.3-.2.3h-4.2c-.1,0-.2,0-.2-.2"/>
      <path class="st17" d="M173.4,133.8h0c0-.2,0-.3.2-.3h4.2c.1,0,.2,0,.2.2h0c0,.2,0,.3-.2.3h-4.2c-.1,0-.2,0-.2-.2"/>
      <path class="st17" d="M173.4,134.9h0c0-.2,0-.3.2-.3h4.2c.1,0,.2,0,.2.2h0c0,.2,0,.3-.2.3h-4.2c-.1,0-.2,0-.2-.2"/>
      <path class="st17" d="M173.4,136.1h0c0-.2,0-.3.2-.3h4.2c.1,0,.2,0,.2.2h0c0,.2,0,.3-.2.3h-4.2c-.1,0-.2,0-.2-.2"/>
      <path class="st17" d="M173.4,137.2h0c0-.2,0-.3.2-.3h4.2c.1,0,.2,0,.2.2h0c0,.2,0,.3-.2.3h-4.2c-.1,0-.2,0-.2-.2"/>
      <path class="st17" d="M136.8,133.8h0c0-.2,0-.3.2-.3h4.2c.1,0,.2,0,.2.2h0c0,.2,0,.3-.2.3h-4.2c-.1,0-.2,0-.2-.2"/>
      <path class="st17" d="M136.8,134.9h0c0-.2,0-.3.2-.3h4.2c.1,0,.2,0,.2.2h0c0,.2,0,.3-.2.3h-4.2c-.1,0-.2,0-.2-.2"/>
      <path class="st17" d="M136.8,136.1h0c0-.2,0-.3.2-.3h4.2c.1,0,.2,0,.2.2h0c0,.2,0,.3-.2.3h-4.2c-.1,0-.2,0-.2-.2"/>
      <path class="st17" d="M136.8,137.2h0c0-.2,0-.3.2-.3h4.2c.1,0,.2,0,.2.2h0c0,.2,0,.3-.2.3h-4.2c-.1,0-.2,0-.2-.2"/>
      <path class="st17" d="M131.4,133.8h0c0-.2,0-.3.2-.3h4.2c.1,0,.2,0,.2.2h0c0,.2,0,.3-.2.3h-4.2c-.1,0-.2,0-.2-.2"/>
      <path class="st17" d="M131.4,134.9h0c0-.2,0-.3.2-.3h4.2c.1,0,.2,0,.2.2h0c0,.2,0,.3-.2.3h-4.2c-.1,0-.2,0-.2-.2"/>
      <path class="st17" d="M131.4,136.1h0c0-.2,0-.3.2-.3h4.2c.1,0,.2,0,.2.2h0c0,.2,0,.3-.2.3h-4.2c-.1,0-.2,0-.2-.2"/>
      <path class="st17" d="M131.4,137.2h0c0-.2,0-.3.2-.3h4.2c.1,0,.2,0,.2.2h0c0,.2,0,.3-.2.3h-4.2c-.1,0-.2,0-.2-.2"/>
      <rect class="st17" x="183.7" y="139.6" width=".6" height="11.3"/>
      <rect class="st17" x="188.8" y="139.6" width=".5" height="11.3"/>
      <rect class="st18" x="124.8" y="139.6" width=".6" height="11.3"/>
      <rect class="st18" x="129.9" y="139.6" width=".5" height="11.3"/>
    </g>
    <path class="st12" d="M-7.4,159.7h307.4c.1,0,0-.4,0-.8s.1-.8,0-.8H-7.4c-.1,0-.2.4-.2.8s0,.8.2.8Z"/>
    <g>
      <path class="st5" d="M107,84.2c-.7,0-1.3.1-1.8.4h0s0,0,0,0c-1.2.6-1.9,1.1-3.7,1.4h9.2c-.8-1.1-2.1-1.9-3.5-1.9"/>
      <path class="st5" d="M39.7,83.5c-.9,0-1.8.2-2.5.6h0s0,0,0,0c-1.7.9-2.6,1.6-5.1,2h12.7c-1-1.6-2.9-2.6-4.9-2.6"/>
      <path class="st29" d="M43.8,84.1c-.7,0-1.4.2-2,.4h0s0,0,0,0c-1.3.7-2,1.2-4,1.6h9.9c-.8-1.2-2.2-2.1-3.8-2.1"/>
      <path class="st29" d="M114.7,86.1h-9.8c1.9-.3,2.6-.9,3.9-1.5h0s0,0,0,0h0c.6-.3,1.2-.4,1.9-.4,1.6,0,3,.8,3.8,2h0Z"/>
    </g>
    <path class="st29" d="M32.1,84.9c-.4,0-.8,0-1.1.2h0s0,0,0,0c-.7.4-1.1.7-2.2.9h5.6c-.5-.7-1.3-1.2-2.2-1.2"/>
  </g>
</svg>