<?xml version="1.0" encoding="UTF-8"?>
<svg id="Layer_1" xmlns="http://www.w3.org/2000/svg" xmlns:xlink="http://www.w3.org/1999/xlink" version="1.1" viewBox="0 0 300 168">
  <!-- Generator: Adobe Illustrator 29.2.1, SVG Export Plug-In . SVG Version: 2.1.0 Build 116)  -->
  <defs>
    <style>
      .st0 {
        fill: none;
      }

      .st1 {
        fill: #151515;
      }

      .st2 {
        fill-rule: evenodd;
      }

      .st2, .st3 {
        fill: #fff;
      }

      .st4 {
        fill: #e5f4fb;
      }

      .st5 {
        fill: #43aed3;
      }

      .st6 {
        fill: #868686;
      }

      .st7 {
        fill: #cecece;
      }

      .st8 {
        fill: #345164;
      }

      .st9 {
        fill: #02243c;
      }

      .st10 {
        fill: #f16a56;
      }

      .st11 {
        fill: #f48778;
      }

      .st12 {
        fill: #667c8a;
      }

      .st13 {
        fill: #42b0d5;
      }

      .st14 {
        fill: #b5e0f5;
      }

      .st15 {
        fill: #e1e1e1;
      }

      .st16 {
        fill: #bddbe9;
      }

      .st17 {
        clip-path: url(#clippath);
      }

      .st18 {
        fill: #cfcfcf;
      }

      .st19 {
        fill: #ececec;
      }
    </style>
    <clipPath id="clippath">
      <rect class="st0" width="300" height="168"/>
    </clipPath>
  </defs>
  <g class="st17">
    <g>
      <path class="st14" d="M305.92,127.89H-2.93v73.08h308.84v-73.08Z"/>
      <path class="st4" d="M305.92-5.04H-2.93v133.92h308.84V-5.04Z"/>
      <path class="st16" d="M304.42,125.22h-1.01v-6.24s-.06-.25.19-.25h1.2l-2.58-3.66c-.19-.25-.5-.44-.82-.44h-2.46v-1.45h-1.45v1.45h-3.34c-.31,0-.57.19-.76.44l-2.65,3.66h1.07s.25,0,.25.25v3.47l-1.32,1.26v2.77c0,.25-.12.5-.63.5h-.63v-4.86s0-.25.19-.25h1.07l-3.03-3.66c-.25-.25-.57-.38-.94-.38h-1.64v-1.7h-1.45v1.7h-3.4c-.31,0-.57.12-.76.38l-2.96,4.03h.76c.12,0,.25.12.25.25v4.04c0,.25-.12.5-.44.5h-8.7c-.25,0-.44-.25-.44-.5v-4.09c0-1.51-1.64-1.51-1.64-1.51h-.82v-21.75h-8.57v26.03l-2.08-1.58v-18.34h-9.27v20.99c0,.31-.25.63-.63.63h-1.26c0-.76-.63-1.45-1.39-1.45h-.12c0-1.89-1.58-1.95-1.58-1.95h-.38v-3.09c0-1.01-1.07-1.01-1.07-1.01h-7.06v-2.52c0-.57-.06-1.07-.19-1.64l-1.89-7.82-2.08,7.82c-.12.63-.25,1.2-.25,1.83v6.81c-.7.06-1.2.63-1.13,1.26v2.65h-32.02c-2.33,0-2.4,1.89-2.4,1.89l113.52-.06v-3.28c-.06-.63-.63-1.13-1.26-1.13"/>
      <path class="st16" d="M184.92,126.73h-1.26v1.13h1.26v-1.13Z"/>
      <path class="st16" d="M184.92,125.34h-1.26v1.13h1.26v-1.13Z"/>
      <path class="st16" d="M186.43,126.73h-1.26v1.13h1.26v-1.13Z"/>
      <path class="st16" d="M186.43,125.34h-1.26v1.13h1.26v-1.13Z"/>
      <path class="st16" d="M187.94,126.73h-1.26v1.13h1.26v-1.13Z"/>
      <path class="st16" d="M187.94,125.34h-1.26v1.13h1.26v-1.13Z"/>
      <path class="st16" d="M190.46,127.99v-5.61c0-.88,1.2-2.65,7.31-2.65s7.56,1.76,7.56,2.65v5.49"/>
      <path class="st16" d="M195.82,123.2h-4.09v4.6h4.09v-4.6Z"/>
      <path class="st16" d="M200.86,123.2h-4.09v4.6h4.09v-4.6Z"/>
      <path class="st16" d="M201.49,126.54h-1.26v1.26h1.26v-1.26Z"/>
      <path class="st16" d="M199.92,126.54h-1.32v1.26h1.32v-1.26Z"/>
      <path class="st16" d="M180.25,125.34h-1.32v1.2h1.32v-1.2Z"/>
      <path class="st16" d="M179.62,123.64h-.12v1.7h.12v-1.7Z"/>
      <path class="st16" d="M252.61,123.64h-.94v4.6h.94v-4.6Z"/>
      <path class="st16" d="M251.6,121.69h1.13c.63,0,1.2.5,1.2,1.2v1.45c0,.63-.5,1.2-1.2,1.2h-1.13c-.63,0-1.2-.5-1.2-1.2v-1.45c0-.63.5-1.2,1.2-1.2Z"/>
      <path class="st16" d="M256.65,124.08h-.88v4.16h.88v-4.16Z"/>
      <path class="st16" d="M255.7,122.38h1.01c.57,0,1.07.5,1.07,1.07v1.26c0,.57-.5,1.07-1.07,1.07h-1.01c-.57,0-1.07-.5-1.07-1.07v-1.26c0-.63.44-1.07,1.07-1.07Z"/>
      <path class="st16" d="M181.83,127.99c0,.19-.19.38-.38.38h-3.59c-.19,0-.38-.19-.38-.38v-4.16c0-.19.19-.38.38-.38h3.59c.19,0,.38.19.38.38v4.16ZM181.08,124.15h-2.96v4.29h2.96v-4.29Z"/>
      <path class="st16" d="M177.54,127.3h.5c.19,0,.38.19.38.38v.57c0,.19-.19.38-.38.38h-.5c-.19,0-.38-.19-.38-.38v-.57c0-.19.19-.38.38-.38Z"/>
      <path class="st16" d="M181.2,127.3h.5c.19,0,.38.19.38.38v.57c0,.19-.19.38-.38.38h-.5c-.19,0-.38-.19-.38-.38v-.57c0-.19.19-.38.38-.38Z"/>
      <path class="st3" d="M84.99,66.67h11.09c0-4.94-1.7-6.97-8.51-6.97,0-4.18-1.43-5.87-7.19-5.87-7.41,0-9.22,2.14-9.22,7.52h-4.61c-5.22,0-6.48,1.54-6.48,5.27h29.59"/>
      <path class="st3" d="M108.38,37.48c-6.26,0-7.85,1.81-7.85,6.37h50.67c0-3.51-1.21-4.89-5.98-4.89h-12.46c0-2.47-.82-3.46-4.22-3.46h-2.53c0-4.39-1.54-6.2-7.58-6.2-8.07.06-10.05,2.36-10.05,8.18h0Z"/>
      <path class="st9" d="M235.88,106.76v-21.03h8.9l5.65,21.03h-14.55Z"/>
      <path class="st15" d="M136.07,107.36v-16.09c0-1.04-.82-1.86-1.86-1.86h-58.74c-1.04,0-1.86.82-1.86,1.86v16.09h62.48,0Z"/>
      <path class="st19" d="M77,104.62c-.39,0-.66-.28-.66-.66v-11.2c0-.39.28-.66.66-.66s.66.28.66.66v11.2c.06.39-.28.66-.66.66Z"/>
      <path class="st19" d="M80.13,104.62c-.39,0-.66-.28-.66-.66v-11.2c0-.39.28-.66.66-.66s.66.28.66.66v11.2c0,.39-.33.66-.66.66Z"/>
      <path class="st19" d="M83.2,104.62c-.39,0-.66-.28-.66-.66v-11.2c0-.39.28-.66.66-.66s.66.28.66.66v11.2c0,.39-.28.66-.66.66Z"/>
      <path class="st19" d="M86.28,104.62c-.39,0-.66-.28-.66-.66v-11.2c0-.39.28-.66.66-.66s.66.28.66.66v11.2c0,.39-.28.66-.66.66Z"/>
      <path class="st19" d="M89.41,104.62c-.39,0-.66-.28-.66-.66v-11.2c0-.39.28-.66.66-.66s.66.28.66.66v11.2c0,.39-.33.66-.66.66Z"/>
      <path class="st19" d="M92.48,104.62c-.39,0-.66-.28-.66-.66v-11.2c0-.39.28-.66.66-.66s.66.28.66.66v11.2c0,.39-.28.66-.66.66Z"/>
      <path class="st19" d="M95.56,104.62c-.39,0-.66-.28-.66-.66v-11.2c0-.39.28-.66.66-.66s.66.28.66.66v11.2c0,.39-.28.66-.66.66Z"/>
      <path class="st19" d="M98.69,104.62c-.39,0-.66-.28-.66-.66v-11.2c0-.39.28-.66.66-.66s.66.28.66.66v11.2c0,.39-.33.66-.66.66Z"/>
      <path class="st19" d="M101.76,104.62c-.39,0-.66-.28-.66-.66v-11.2c0-.39.28-.66.66-.66s.66.28.66.66v11.2c0,.39-.28.66-.66.66Z"/>
      <path class="st19" d="M104.83,104.62c-.39,0-.66-.28-.66-.66v-11.2c0-.39.28-.66.66-.66s.66.28.66.66v11.2c0,.39-.28.66-.66.66Z"/>
      <path class="st19" d="M107.91,104.62c-.39,0-.66-.28-.66-.66v-11.2c0-.39.28-.66.66-.66s.66.28.66.66v11.2c.06.39-.28.66-.66.66Z"/>
      <path class="st19" d="M111.04,104.62c-.39,0-.66-.28-.66-.66v-11.2c0-.39.28-.66.66-.66s.66.28.66.66v11.2c0,.39-.33.66-.66.66Z"/>
      <path class="st19" d="M114.11,104.62c-.39,0-.66-.28-.66-.66v-11.2c0-.39.28-.66.66-.66s.66.28.66.66v11.2c0,.39-.28.66-.66.66Z"/>
      <path class="st19" d="M117.19,104.62c-.39,0-.66-.28-.66-.66v-11.2c0-.39.28-.66.66-.66s.66.28.66.66v11.2c0,.39-.28.66-.66.66Z"/>
      <path class="st19" d="M120.32,104.62c-.39,0-.66-.28-.66-.66v-11.2c0-.39.28-.66.66-.66s.66.28.66.66v11.2c0,.39-.33.66-.66.66Z"/>
      <path class="st19" d="M123.39,104.62c-.39,0-.66-.28-.66-.66v-11.2c0-.39.28-.66.66-.66s.66.28.66.66v11.2c0,.39-.28.66-.66.66Z"/>
      <path class="st19" d="M126.46,104.62c-.39,0-.66-.28-.66-.66v-11.2c0-.39.28-.66.66-.66s.66.28.66.66v11.2c0,.39-.28.66-.66.66Z"/>
      <path class="st19" d="M129.59,104.62c-.39,0-.66-.28-.66-.66v-11.2c0-.39.28-.66.66-.66s.66.28.66.66v11.2c0,.39-.33.66-.66.66Z"/>
      <path class="st19" d="M132.67,104.62c-.39,0-.66-.28-.66-.66v-11.2c0-.39.28-.66.66-.66s.66.28.66.66v11.2c0,.39-.33.66-.66.66Z"/>
      <path class="st5" d="M93.58,101.7c0,.55-.44.99-.99.99h-6.2c-.55,0-.99-.44-.99-.99v-6.64c0-.55.44-.99.99-.99h6.2c.55,0,.99.44.99.99v6.64Z"/>
      <path class="st1" d="M97.26,100.28v-3.79h.99l1.26,2.86,1.26-2.86h.99v3.79h-.82v-2.19l-.99,2.19h-.88l-.99-2.19v2.19h-.82Z"/>
      <path class="st1" d="M103.13,100.28h-.99l1.7-3.79h1.21l1.7,3.79h-.99l-.33-.77h-1.97l-.33.77h0ZM105.11,98.79l-.71-1.59-.66,1.59h1.37,0Z"/>
      <path class="st1" d="M107.14,100.28v-3.79h3.62v.77h-2.74v.71h2.36v.77h-2.36v.77h2.74v.77h-3.62Z"/>
      <path class="st1" d="M111.48,100.28v-3.79h3.02c.39,0,.66.22.66.66v1.26c0,.28-.28.55-.77.55h-.11l.88,1.32h-.99l-.82-1.32h-.99v1.32h-.88ZM112.35,98.25h1.92v-.99h-1.92v.99Z"/>
      <path class="st1" d="M116.75,100.28h-.28c-.39,0-.6-.22-.6-.55v-.5h.88v.28h1.86v-.77h-2.14c-.33,0-.6-.22-.6-.55v-1.15c0-.33.28-.6.6-.6h2.47c.33,0,.55.28.55.6v.44h-.88v-.28h-1.86v.77h2.14c.33,0,.6.22.6.6v1.1c0,.39-.22.6-.6.6h-2.15Z"/>
      <path class="st1" d="M120.37,100.28v-3.79h.88v1.54l1.7-1.54h1.26l-2.08,1.76,2.14,2.03h-1.26l-1.75-1.7v1.7h-.88Z"/>
      <path class="st3" d="M90.83,98.14l1.59-2.03-2.31,1.15-.61-2.53-.6,2.53-2.31-1.15,1.59,2.03-2.31,1.15h2.58l-.6,2.53h.05l1.59-2.03,1.59,2.03-.55-2.53h2.58l-2.31-1.15Z"/>
      <path class="st19" d="M201.18,125.92v-16.09c0-1.04-.82-1.86-1.86-1.86h-58.8c-1.04,0-1.86.82-1.86,1.86v16.09h62.53,0Z"/>
      <path class="st15" d="M142.11,123.22c-.39,0-.66-.28-.66-.66v-11.2c0-.39.28-.66.66-.66s.66.28.66.66v11.2c0,.33-.33.66-.66.66Z"/>
      <path class="st15" d="M145.19,123.22c-.39,0-.66-.28-.66-.66v-11.2c0-.39.28-.66.66-.66s.66.28.66.66v11.2c0,.33-.28.66-.66.66Z"/>
      <path class="st15" d="M148.26,123.22c-.39,0-.66-.28-.66-.66v-11.2c0-.39.28-.66.66-.66s.66.28.66.66v11.2c0,.33-.28.66-.66.66Z"/>
      <path class="st15" d="M151.39,123.22c-.39,0-.66-.28-.66-.66v-11.2c0-.39.28-.66.66-.66s.66.28.66.66v11.2c0,.33-.33.66-.66.66Z"/>
      <path class="st15" d="M154.46,123.22c-.39,0-.66-.28-.66-.66v-11.2c0-.39.28-.66.66-.66s.66.28.66.66v11.2c0,.33-.33.66-.66.66Z"/>
      <path class="st15" d="M157.54,123.22c-.39,0-.66-.28-.66-.66v-11.2c0-.39.28-.66.66-.66s.66.28.66.66v11.2c0,.33-.28.66-.66.66Z"/>
      <path class="st15" d="M160.61,123.22c-.39,0-.66-.28-.66-.66v-11.2c0-.39.28-.66.66-.66s.66.28.66.66v11.2c0,.33-.28.66-.66.66Z"/>
      <path class="st15" d="M163.74,123.22c-.39,0-.66-.28-.66-.66v-11.2c0-.39.28-.66.66-.66s.66.28.66.66v11.2c0,.33-.33.66-.66.66Z"/>
      <path class="st15" d="M166.82,123.22c-.39,0-.66-.28-.66-.66v-11.2c0-.39.28-.66.66-.66s.66.28.66.66v11.2c0,.33-.28.66-.66.66Z"/>
      <path class="st15" d="M169.89,123.22c-.39,0-.66-.28-.66-.66v-11.2c0-.39.28-.66.66-.66s.66.28.66.66v11.2c0,.33-.28.66-.66.66Z"/>
      <path class="st15" d="M173.02,123.22c-.39,0-.66-.28-.66-.66v-11.2c0-.39.28-.66.66-.66s.66.28.66.66v11.2c0,.33-.33.66-.66.66Z"/>
      <path class="st15" d="M176.09,123.22c-.39,0-.66-.28-.66-.66v-11.2c0-.39.28-.66.66-.66s.66.28.66.66v11.2c0,.33-.28.66-.66.66Z"/>
      <path class="st15" d="M179.17,123.22c-.39,0-.66-.28-.66-.66v-11.2c0-.39.28-.66.66-.66s.66.28.66.66v11.2c0,.33-.28.66-.66.66Z"/>
      <path class="st15" d="M182.24,123.22c-.39,0-.66-.28-.66-.66v-11.2c0-.39.28-.66.66-.66s.66.28.66.66v11.2c.06.33-.28.66-.66.66Z"/>
      <path class="st15" d="M185.37,123.22c-.39,0-.66-.28-.66-.66v-11.2c0-.39.28-.66.66-.66s.66.28.66.66v11.2c0,.33-.33.66-.66.66Z"/>
      <path class="st15" d="M188.45,123.22c-.39,0-.66-.28-.66-.66v-11.2c0-.39.28-.66.66-.66s.66.28.66.66v11.2c0,.33-.28.66-.66.66Z"/>
      <path class="st15" d="M191.52,123.22c-.39,0-.66-.28-.66-.66v-11.2c0-.39.28-.66.66-.66s.66.28.66.66v11.2c0,.33-.28.66-.66.66Z"/>
      <path class="st15" d="M194.65,123.22c-.39,0-.66-.28-.66-.66v-11.2c0-.39.28-.66.66-.66s.66.28.66.66v11.2c0,.33-.33.66-.66.66Z"/>
      <path class="st15" d="M197.72,123.22c-.39,0-.66-.28-.66-.66v-11.2c0-.39.28-.66.66-.66s.66.28.66.66v11.2c0,.33-.28.66-.66.66Z"/>
      <path class="st1" d="M162.32,118.83v-3.79h.99l1.32,2.86,1.26-2.86h.93v3.79h-.82v-2.19l-.94,2.19h-.93l-.93-2.19v2.19h-.88Z"/>
      <path class="st1" d="M168.19,118.83h-.99l1.7-3.79h1.21l1.7,3.79h-.99l-.33-.77h-1.97l-.33.77h0ZM170.16,117.41l-.71-1.59-.66,1.59h1.37,0Z"/>
      <path class="st1" d="M172.19,118.83v-3.79h3.62v.77h-2.74v.77h2.36v.71h-2.36v.82h2.74v.72h-3.62Z"/>
      <path class="st1" d="M176.53,118.83v-3.79h3.02c.39,0,.66.22.66.66v1.26c0,.28-.28.55-.77.55h-.11l.88,1.32h-.99l-.82-1.32h-.99v1.32h-.88ZM177.41,116.8h1.92v-.99h-1.92v.99Z"/>
      <path class="st1" d="M181.8,118.83h-.28c-.39,0-.6-.22-.6-.55v-.5h.88v.28h1.86v-.77h-2.14c-.33,0-.6-.22-.6-.55v-1.15c0-.33.28-.6.6-.6h2.47c.33,0,.55.28.55.6v.44h-.88v-.28h-1.86v.77h2.14c.33,0,.6.22.6.6v1.1c0,.39-.22.6-.6.6h-2.15Z"/>
      <path class="st1" d="M185.42,118.83v-3.79h.88v1.54l1.7-1.54h1.26l-2.08,1.76,2.14,2.03h-1.26l-1.75-1.7v1.7h-.88Z"/>
      <path class="st5" d="M158.69,120.32c0,.55-.44.99-.99.99h-6.2c-.55,0-.99-.44-.99-.99v-6.64c0-.55.44-.99.99-.99h6.2c.55,0,.99.44.99.99v6.64Z"/>
      <path class="st3" d="M155.89,116.75l1.59-2.04-2.31,1.1-.61-2.52-.6,2.52-2.31-1.1,1.59,2.04-2.31,1.1h2.58l-.55,2.53,1.59-1.98,1.59,1.98h.06l-.61-2.53h2.58l-2.31-1.1Z"/>
      <path class="st10" d="M201.18,107.36v-16.09c0-1.04-.82-1.86-1.86-1.86h-58.8c-1.04,0-1.86.82-1.86,1.86v16.09h62.53,0Z"/>
      <path class="st11" d="M142.11,104.62c-.39,0-.66-.28-.66-.66v-11.2c0-.39.28-.66.66-.66s.66.28.66.66v11.2c0,.39-.33.66-.66.66Z"/>
      <path class="st11" d="M145.19,104.62c-.39,0-.66-.28-.66-.66v-11.2c0-.39.28-.66.66-.66s.66.28.66.66v11.2c0,.39-.28.66-.66.66Z"/>
      <path class="st11" d="M148.26,104.62c-.39,0-.66-.28-.66-.66v-11.2c0-.39.28-.66.66-.66s.66.28.66.66v11.2c0,.39-.28.66-.66.66Z"/>
      <path class="st11" d="M151.39,104.62c-.39,0-.66-.28-.66-.66v-11.2c0-.39.28-.66.66-.66s.66.28.66.66v11.2c0,.39-.33.66-.66.66Z"/>
      <path class="st11" d="M154.46,104.62c-.39,0-.66-.28-.66-.66v-11.2c0-.39.28-.66.66-.66s.66.28.66.66v11.2c0,.39-.33.66-.66.66Z"/>
      <path class="st11" d="M157.54,104.62c-.39,0-.66-.28-.66-.66v-11.2c0-.39.28-.66.66-.66s.66.28.66.66v11.2c0,.39-.28.66-.66.66Z"/>
      <path class="st11" d="M160.61,104.62c-.39,0-.66-.28-.66-.66v-11.2c0-.39.28-.66.66-.66s.66.28.66.66v11.2c0,.39-.28.66-.66.66Z"/>
      <path class="st11" d="M163.74,104.62c-.39,0-.66-.28-.66-.66v-11.2c0-.39.28-.66.66-.66s.66.28.66.66v11.2c0,.39-.33.66-.66.66Z"/>
      <path class="st11" d="M166.82,104.62c-.39,0-.66-.28-.66-.66v-11.2c0-.39.28-.66.66-.66s.66.28.66.66v11.2c0,.39-.28.66-.66.66Z"/>
      <path class="st11" d="M169.89,104.62c-.39,0-.66-.28-.66-.66v-11.2c0-.39.28-.66.66-.66s.66.28.66.66v11.2c0,.39-.28.66-.66.66Z"/>
      <path class="st11" d="M173.02,104.62c-.39,0-.66-.28-.66-.66v-11.2c0-.39.28-.66.66-.66s.66.28.66.66v11.2c0,.39-.33.66-.66.66Z"/>
      <path class="st11" d="M176.09,104.62c-.39,0-.66-.28-.66-.66v-11.2c0-.39.28-.66.66-.66s.66.28.66.66v11.2c0,.39-.28.66-.66.66Z"/>
      <path class="st11" d="M179.17,104.62c-.39,0-.66-.28-.66-.66v-11.2c0-.39.28-.66.66-.66s.66.28.66.66v11.2c0,.39-.28.66-.66.66Z"/>
      <path class="st11" d="M182.24,104.62c-.39,0-.66-.28-.66-.66v-11.2c0-.39.28-.66.66-.66s.66.28.66.66v11.2c.06.39-.28.66-.66.66Z"/>
      <path class="st11" d="M185.37,104.62c-.39,0-.66-.28-.66-.66v-11.2c0-.39.28-.66.66-.66s.66.28.66.66v11.2c0,.39-.33.66-.66.66Z"/>
      <path class="st11" d="M188.45,104.62c-.39,0-.66-.28-.66-.66v-11.2c0-.39.28-.66.66-.66s.66.28.66.66v11.2c0,.39-.28.66-.66.66Z"/>
      <path class="st11" d="M191.52,104.62c-.39,0-.66-.28-.66-.66v-11.2c0-.39.28-.66.66-.66s.66.28.66.66v11.2c0,.39-.28.66-.66.66Z"/>
      <path class="st11" d="M194.65,104.62c-.39,0-.66-.28-.66-.66v-11.2c0-.39.28-.66.66-.66s.66.28.66.66v11.2c0,.39-.33.66-.66.66Z"/>
      <path class="st11" d="M197.72,104.62c-.39,0-.66-.28-.66-.66v-11.2c0-.39.28-.66.66-.66s.66.28.66.66v11.2c0,.39-.28.66-.66.66Z"/>
      <path class="st8" d="M136.07,125.92v-16.09c0-1.04-.82-1.86-1.86-1.86h-58.74c-1.04,0-1.86.82-1.86,1.86v16.09h62.48,0Z"/>
      <path class="st12" d="M77,123.22c-.39,0-.66-.28-.66-.66v-11.2c0-.39.28-.66.66-.66s.66.28.66.66v11.2c.06.33-.28.66-.66.66Z"/>
      <path class="st12" d="M80.13,123.22c-.39,0-.66-.28-.66-.66v-11.2c0-.39.28-.66.66-.66s.66.28.66.66v11.2c0,.33-.33.66-.66.66Z"/>
      <path class="st12" d="M83.2,123.22c-.39,0-.66-.28-.66-.66v-11.2c0-.39.28-.66.66-.66s.66.28.66.66v11.2c0,.33-.28.66-.66.66Z"/>
      <path class="st12" d="M86.28,123.22c-.39,0-.66-.28-.66-.66v-11.2c0-.39.28-.66.66-.66s.66.28.66.66v11.2c0,.33-.28.66-.66.66Z"/>
      <path class="st12" d="M89.41,123.22c-.39,0-.66-.28-.66-.66v-11.2c0-.39.28-.66.66-.66s.66.28.66.66v11.2c0,.33-.33.66-.66.66Z"/>
      <path class="st12" d="M92.48,123.22c-.39,0-.66-.28-.66-.66v-11.2c0-.39.28-.66.66-.66s.66.28.66.66v11.2c0,.33-.28.66-.66.66Z"/>
      <path class="st12" d="M95.56,123.22c-.39,0-.66-.28-.66-.66v-11.2c0-.39.28-.66.66-.66s.66.28.66.66v11.2c0,.33-.28.66-.66.66Z"/>
      <path class="st12" d="M98.69,123.22c-.39,0-.66-.28-.66-.66v-11.2c0-.39.28-.66.66-.66s.66.28.66.66v11.2c0,.33-.33.66-.66.66Z"/>
      <path class="st12" d="M101.76,123.22c-.39,0-.66-.28-.66-.66v-11.2c0-.39.28-.66.66-.66s.66.28.66.66v11.2c0,.33-.28.66-.66.66Z"/>
      <path class="st12" d="M104.83,123.22c-.39,0-.66-.28-.66-.66v-11.2c0-.39.28-.66.66-.66s.66.28.66.66v11.2c0,.33-.28.66-.66.66Z"/>
      <path class="st12" d="M107.91,123.22c-.39,0-.66-.28-.66-.66v-11.2c0-.39.28-.66.66-.66s.66.28.66.66v11.2c.06.33-.28.66-.66.66Z"/>
      <path class="st12" d="M111.04,123.22c-.39,0-.66-.28-.66-.66v-11.2c0-.39.28-.66.66-.66s.66.28.66.66v11.2c0,.33-.33.66-.66.66Z"/>
      <path class="st12" d="M114.11,123.22c-.39,0-.66-.28-.66-.66v-11.2c0-.39.28-.66.66-.66s.66.28.66.66v11.2c0,.33-.28.66-.66.66Z"/>
      <path class="st12" d="M117.19,123.22c-.39,0-.66-.28-.66-.66v-11.2c0-.39.28-.66.66-.66s.66.28.66.66v11.2c0,.33-.28.66-.66.66Z"/>
      <path class="st12" d="M120.32,123.22c-.39,0-.66-.28-.66-.66v-11.2c0-.39.28-.66.66-.66s.66.28.66.66v11.2c0,.33-.33.66-.66.66Z"/>
      <path class="st12" d="M123.39,123.22c-.39,0-.66-.28-.66-.66v-11.2c0-.39.28-.66.66-.66s.66.28.66.66v11.2c0,.33-.28.66-.66.66Z"/>
      <path class="st12" d="M126.46,123.22c-.39,0-.66-.28-.66-.66v-11.2c0-.39.28-.66.66-.66s.66.28.66.66v11.2c0,.33-.28.66-.66.66Z"/>
      <path class="st12" d="M129.59,123.22c-.39,0-.66-.28-.66-.66v-11.2c0-.39.28-.66.66-.66s.66.28.66.66v11.2c0,.33-.33.66-.66.66Z"/>
      <path class="st12" d="M132.67,123.22c-.39,0-.66-.28-.66-.66v-11.2c0-.39.28-.66.66-.66s.66.28.66.66v11.2c0,.33-.33.66-.66.66Z"/>
      <path class="st5" d="M40.05,143.59h208.12c4.5,0,8.62-2.58,10.54-6.64l9.94-20.81h-52.81c-2.08,0-4.12.88-5.6,2.36l-7.19,7.41h-123.69l-16.69-10.37c-1.43-.88-3.07-1.37-4.78-1.37H23.97l19.38,21.02c.22,3.62-.66,6.54-3.29,8.4"/>
      <path class="st6" d="M232.58,97.09h-11.42v9.66h11.42v-9.66Z"/>
      <path class="st7" d="M257.95,116.09v-9.01c0-.82-.66-1.48-1.48-1.48h-36.23c-.82,0-1.48.66-1.48,1.48v9.01"/>
      <path class="st7" d="M232.64,94.51h-13.89c0,1.43,1.15,2.64,2.64,2.64h11.26v-2.64h0Z"/>
      <path class="st5" d="M248.94,101.32h-13.07v-11.36h10.05l3.02,11.36Z"/>
      <path class="st3" d="M242.8,95.33l1.81-2.25-2.64,1.26-.66-2.85-.66,2.85-2.58-1.26,1.81,2.25-2.64,1.26h2.91l-.66,2.86,1.81-2.25,1.81,2.25-.6-2.86h2.85l-2.58-1.26Z"/>
      <path class="st18" d="M173.62,69.34v-24.74h3.11c6.61,0,12.81-3.19,16.66-8.57l2.41-3.37h8.53l2.41,3.37c3.84,5.38,10.05,8.57,16.66,8.57h3.11v26.44c0,20.47-26.44,29.86-26.44,29.86,0,0-26.44-9.38-26.44-31.56h0Z"/>
      <path class="st13" d="M217.12,67.63c0,9.42-7.64,17.06-17.06,17.06s-17.06-7.64-17.06-17.06,7.64-17.06,17.06-17.06,17.06,7.64,17.06,17.06h0Z"/>
      <path class="st2" d="M210.85,61.77l-9.13,13.28c-.48.69-1.27,1.11-2.11,1.11h-5.06c-.86,0-1.66-.43-2.13-1.14l-3.16-4.74,2.84-1.89,2.91,4.36h4.16l8.88-12.91,2.81,1.93h-.01Z"/>
    </g>
  </g>
</svg>