<?xml version="1.0" encoding="UTF-8"?>
<svg id="Layer_1" xmlns="http://www.w3.org/2000/svg" xmlns:xlink="http://www.w3.org/1999/xlink" version="1.1" viewBox="0 0 301 169">
  <!-- Generator: Adobe Illustrator 29.3.1, SVG Export Plug-In . SVG Version: 2.1.0 Build 151)  -->
  <defs>
    <style>
      .st0 {
        fill: none;
      }

      .st1 {
        fill: #a1d1e8;
      }

      .st2 {
        fill: #00b2d9;
      }

      .st3 {
        fill: #c3e4f3;
      }

      .st4 {
        fill: #c38c6b;
      }

      .st5 {
        fill: #d4d4d4;
      }

      .st6 {
        fill: #0074b0;
      }

      .st7 {
        fill: #aae1f8;
      }

      .st8 {
        fill: #e7e7e7;
      }

      .st9 {
        stroke: #000;
        stroke-miterlimit: 10;
      }

      .st9, .st10, .st11 {
        fill: #fff;
      }

      .st12 {
        fill: #dbad93;
      }

      .st13 {
        fill: #33c1e1;
      }

      .st14 {
        fill: #42b0d5;
      }

      .st15 {
        fill: #f7f7f7;
      }

      .st16 {
        fill: #8a8a8a;
      }

      .st17 {
        fill: #ededed;
      }

      .st18 {
        clip-path: url(#clippath);
      }

      .st19 {
        fill: #cfcfcf;
      }

      .st11 {
        isolation: isolate;
      }
    </style>
    <clipPath id="clippath">
      <rect class="st0" width="253.1" height="168.7"/>
    </clipPath>
  </defs>
  <rect class="st9" x=".5" y=".5" width="300" height="168"/>
  <g>
    <rect class="st3" width="301" height="168.7"/>
    <rect class="st1" y="138.4" width="301" height="30.3"/>
    <g>
      <path class="st15" d="M207.6,43.8h0l-36.9-7c-1.7-.4-3.5-.2-5.2.4l-4.6,1.6c-2,.7-3.4,2.3-3.8,4.4-.9,3.3,3.5,6,17.9,8.7,11.2,2.2,24.2,4.7,29,5.6,9.1,1.8,51.2,2.3,51.8-.5.9-4.8-21.7-8.1-48.3-13.2h0Z"/>
      <path class="st2" d="M170,39.9c-.1.4-.3.8-.7,1-.3.2-.7.3-1.1.3l-8.6-1.7c.4-.3.9-.6,1.4-.7l4-1.4,3.8.7c.8.2,1.4,1,1.2,1.8h0Z"/>
      <path class="st2" d="M255.9,57c-.5,2.6-38.4,2.2-50.1.7-.8-.1-1.8-.3-2.5-.4-5.3-1.1-17.5-3.5-28.2-5.5-3.4-.7-6.3-1.3-8.6-2-.4-.1-.7-.2-1-.3-4.1-1.3-6.5-2.5-7.6-3.8,4.2.8,42.2,8.4,56,11.2,3.2.7,6.5,0,9.2-1.8l9.9-6.5,17.9-11.8,7.6,1.5-9.8,14h0c4.8,1.5,7.5,3,7.2,4.7h0Z"/>
      <path class="st10" d="M244.8,42.3l4.5.9c.4,0,.7.5.6.9l-.9,4.8c0,.4-.5.7-.9.6l-4.5-.9c-.4,0-.7-.5-.6-.9l.9-4.8c0-.4.5-.7.9-.6M243.8,42.8l-.9,4.8c-.1.5.3,1,.7,1.1l4.5.9c.5.1,1-.3,1.1-.7l.9-4.8c.1-.5-.3-1-.7-1.1l-4.5-.9c-.5-.1-1,.3-1.1.7Z"/>
      <polygon class="st10" points="245.6 45.5 244.7 43.8 244.7 43.8 246.2 44.9 247 43.2 247 43.2 247.1 45.1 249 44.6 249 44.6 247.5 45.8 249 47 249 47 247.1 46.7 247.2 48.6 247.2 48.6 246.3 46.9 244.9 48.1 244.9 48.1 245.6 46.3 243.7 46 243.7 46 245.6 45.5"/>
      <path class="st8" d="M237.2,54.9l4.3.9c.5,0,.9.3,1.3.5l7.5,3.9c.2.2.3.4.2.5-.2.2-.3.3-.4.2l-13.5-2.7c-.9-.2-1.4-1-1.3-1.9.2-.9,1.1-1.5,2-1.3h0Z"/>
      <path class="st19" d="M196.6,58.4l-.8,3.9c2,.5,4,.6,6.1.3l.5-2.3c-1.9-.8-3.8-1.5-5.8-1.9h0Z"/>
      <path class="st13" d="M196.5,63.2l-6.5-1.3c-1.2-.3-1.8-.9-1.6-1.9l.5-2.2c.3-1.1.9-1.4,2.2-1.2l6.5,1.3-1.1,5.2h0Z"/>
      <path class="st8" d="M194.7,53.7l10.9,2.2c.7.2,1.4.4,2.1.7l12.3,6.3c.4.2.4.6.3.8s-.5.4-.7.4l-25.9-5.1c-1.4-.3-2.4-1.7-2-3.1.3-1.4,1.8-2.4,3.1-2.1h0Z"/>
      <path d="M178.3,41.8l1.4.3.4,3.2,1.6-2.8,1.4.3-.9,4.4-1-.2.6-3.2-1.6,2.8c0,.1-.2.2-.3.1h-.5c-.1-.1-.2-.2-.2-.3l-.5-3.2-.6,3.2-.9-.2.9-4.4h0Z"/>
      <path d="M185.4,46.5l-1.4-.3-.4,1-1-.2,1.6-4c0-.2.2-.2.3-.2l1.5.3c.2,0,.3.2.3.3v4.3c.1,0-.9-.2-.9-.2v-1.1h0ZM185.4,45.7v-1.7h-.5c0-.1-.6,1.5-.6,1.5l1.1.2Z"/>
      <path d="M188.7,44.6l-.2.9,1.4.3-.2.9-1.4-.3-.2,1,1.7.3-.2.9-2.7-.5.9-4.4,2.7.5-.2.9-1.7-.3h0Z"/>
      <path d="M193.8,49.3l-1.1-.2-.6-1.7h-.4c0-.1-.3,1.4-.3,1.4l-1-.2.9-4.4,1.8.4c.7.2,1.4.5,1.1,1.7-.2.8-.4,1.1-1,1.2l.7,1.8h0ZM193.1,46c.1-.5,0-.6-.5-.7h-.5c0-.1-.3,1.2-.3,1.2h.5c.5.2.7.1.8-.5h0Z"/>
      <path d="M194.1,49.2l.2-.9c.3.1.6.3,1.1.4.5.1.7,0,.7-.4,0-.3,0-.4-.3-.6l-.4-.2c-.7-.3-1-.6-.8-1.5.2-.9.6-1.2,1.8-1,.4,0,.8.2,1,.3l-.2.9c-.3-.1-.6-.3-1-.3-.5-.1-.6,0-.7.3,0,.3,0,.4.4.6l.4.2c.7.3,1,.6.8,1.5-.2,1.1-.7,1.3-1.9,1.1-.6-.1-1-.3-1.2-.4h0Z"/>
      <path d="M199.8,50.4l-1-2.4-.4,2.2-1-.2.9-4.4,1,.2-.4,2,1.7-1.8,1.1.2-1.8,1.8,1.1,2.6-1.2-.2h0Z"/>
    </g>
    <g>
      <polygon class="st16" points="152.5 107.2 152.5 93.5 146.7 93.5 143 107.2 152.5 107.2"/>
      <path class="st17" d="M241.9,126.1v-8.5c0-.6-.5-1-1-1h-31.1c-.6,0-1,.5-1,1v8.5h33,0Z"/>
      <g>
        <polygon points="221.4 122.4 221.4 120.4 221.9 120.4 222.6 121.9 223.2 120.4 223.8 120.4 223.8 122.4 223.3 122.4 223.3 121.2 222.8 122.4 222.3 122.4 221.8 121.2 221.8 122.4 221.4 122.4"/>
        <path d="M224.5,122.4h-.5l.9-2h.7l.9,2h-.5l-.2-.4h-1.1l-.2.4h0ZM225.5,121.6l-.4-.9-.4.9h.8,0Z"/>
        <polygon points="226.6 122.4 226.6 120.4 228.5 120.4 228.5 120.8 227 120.8 227 121.2 228.3 121.2 228.3 121.6 227 121.6 227 122 228.5 122 228.5 122.4 226.6 122.4"/>
        <path d="M228.9,122.4v-2h1.6c.2,0,.4.1.4.4v.7c0,.2-.2.3-.4.3h0l.5.7h-.5l-.5-.7h-.6v.7h-.5ZM229.3,121.3h1v-.5h-1v.5Z"/>
        <path d="M231.7,122.4h-.2c-.2,0-.3-.1-.3-.3v-.3h.5v.2h1v-.4h-1.2c-.2,0-.3-.1-.3-.3v-.6c0-.2.2-.3.3-.3h1.3c.2,0,.3.2.3.3v.3h-.5v-.2h-1v.4h1.2c.2,0,.3.1.3.3v.6c0,.2-.1.3-.3.3h-1.2Z"/>
        <polygon points="233.6 122.4 233.6 120.4 234.1 120.4 234.1 121.2 235 120.4 235.6 120.4 234.5 121.3 235.6 122.4 235 122.4 234.1 121.5 234.1 122.4 233.6 122.4"/>
        <path class="st14" d="M219.5,123.1c0,.3-.3.5-.5.5h-3.3c-.3,0-.5-.3-.5-.5v-3.5c0-.3.3-.5.5-.5h3.3c.3,0,.5.3.5.5v3.5Z"/>
        <polygon class="st10" points="217.9 121.2 218.8 120.2 218.8 120.2 217.6 120.8 217.3 119.4 217.3 119.4 217 120.8 215.7 120.2 215.7 120.2 216.6 121.2 215.3 121.8 215.4 121.8 216.7 121.8 216.4 123.2 216.4 123.2 217.3 122.1 218.1 123.2 218.1 123.2 217.8 121.8 219.2 121.8 219.2 121.8 217.9 121.2"/>
      </g>
      <path class="st17" d="M207.8,126.1v-8.5c0-.6-.5-1-1-1h-31.1c-.6,0-1,.5-1,1v8.5h33,0Z"/>
      <g>
        <polygon points="187.3 122.4 187.3 120.4 187.8 120.4 188.5 121.9 189.2 120.4 189.7 120.4 189.7 122.4 189.2 122.4 189.2 121.2 188.7 122.4 188.3 122.4 187.7 121.2 187.7 122.4 187.3 122.4"/>
        <path d="M190.4,122.4h-.5l.9-2h.7l.9,2h-.5l-.2-.4h-1.1l-.2.4h0ZM191.4,121.6l-.4-.9-.4.9h.8,0Z"/>
        <polygon points="192.5 122.4 192.5 120.4 194.4 120.4 194.4 120.8 192.9 120.8 192.9 121.2 194.2 121.2 194.2 121.6 192.9 121.6 192.9 122 194.4 122 194.4 122.4 192.5 122.4"/>
        <path d="M194.8,122.4v-2h1.6c.2,0,.4.1.4.4v.7c0,.2-.2.3-.4.3h0l.5.7h-.5l-.5-.7h-.6v.7h-.5ZM195.2,121.3h1v-.5h-1v.5Z"/>
        <path d="M197.6,122.4h-.2c-.2,0-.3-.1-.3-.3v-.3h.5v.2h1v-.4h-1.2c-.2,0-.3-.1-.3-.3v-.6c0-.2.2-.3.3-.3h1.3c.2,0,.3.2.3.3v.3h-.5v-.2h-1v.4h1.2c.2,0,.3.1.3.3v.6c0,.2-.1.3-.3.3h-1.2Z"/>
        <polygon points="199.5 122.4 199.5 120.4 200 120.4 200 121.2 200.9 120.4 201.5 120.4 200.4 121.3 201.6 122.4 200.9 122.4 200 121.5 200 122.4 199.5 122.4"/>
        <path class="st14" d="M185.4,123.1c0,.3-.3.5-.5.5h-3.3c-.3,0-.5-.3-.5-.5v-3.5c0-.3.3-.5.5-.5h3.3c.3,0,.5.3.5.5v3.5Z"/>
        <polygon class="st10" points="183.9 121.2 184.8 120.2 184.8 120.2 183.5 120.8 183.2 119.4 183.2 119.4 182.9 120.8 181.6 120.2 181.6 120.2 182.5 121.2 181.3 121.8 181.3 121.8 182.6 121.8 182.3 123.2 182.3 123.2 183.2 122.1 184 123.2 184 123.2 183.7 121.8 185.1 121.8 185.1 121.8 183.9 121.2"/>
      </g>
      <g>
        <path class="st17" d="M241.9,115.6v-8.5c0-.6-.5-1-1-1h-31.1c-.6,0-1,.5-1,1v8.5h33,0Z"/>
        <g>
          <polygon points="221.4 111.9 221.4 109.9 221.9 109.9 222.6 111.4 223.2 109.9 223.8 109.9 223.8 111.9 223.3 111.9 223.3 110.7 222.8 111.9 222.3 111.9 221.8 110.7 221.8 111.9 221.4 111.9"/>
          <path d="M224.5,111.9h-.5l.9-2h.7l.9,2h-.5l-.2-.4h-1.1l-.2.4h0ZM225.5,111.1l-.4-.9-.4.9h.8,0Z"/>
          <polygon points="226.6 111.9 226.6 109.9 228.5 109.9 228.5 110.3 227 110.3 227 110.7 228.3 110.7 228.3 111.1 227 111.1 227 111.5 228.5 111.5 228.5 111.9 226.6 111.9"/>
          <path d="M228.9,111.9v-2h1.6c.2,0,.4.1.4.4v.7c0,.2-.2.3-.4.3h0l.5.7h-.5l-.5-.7h-.6v.7h-.5ZM229.3,110.8h1v-.5h-1v.5Z"/>
          <path d="M231.7,111.9h-.2c-.2,0-.3-.1-.3-.3v-.3h.5v.2h1v-.4h-1.2c-.2,0-.3-.1-.3-.3v-.6c0-.2.2-.3.3-.3h1.3c.2,0,.3.2.3.3v.3h-.5v-.2h-1v.4h1.2c.2,0,.3.1.3.3v.6c0,.2-.1.3-.3.3h-1.2Z"/>
          <polygon points="233.6 111.9 233.6 109.9 234.1 109.9 234.1 110.7 235 109.9 235.6 109.9 234.5 110.8 235.6 111.9 235 111.9 234.1 111 234.1 111.9 233.6 111.9"/>
          <path class="st14" d="M219.5,112.7c0,.3-.3.5-.5.5h-3.3c-.3,0-.5-.3-.5-.5v-3.5c0-.3.3-.5.5-.5h3.3c.3,0,.5.3.5.5v3.5Z"/>
          <polygon class="st10" points="217.9 110.8 218.8 109.7 218.8 109.7 217.6 110.3 217.3 109 217.3 109 217 110.3 215.7 109.7 215.7 109.7 216.6 110.8 215.3 111.4 215.4 111.4 216.7 111.4 216.4 112.7 216.4 112.7 217.3 111.6 218.1 112.7 218.1 112.7 217.8 111.4 219.2 111.4 219.2 111.4 217.9 110.8"/>
        </g>
      </g>
      <path class="st17" d="M207.8,115.6v-8.5c0-.6-.5-1-1-1h-31.1c-.6,0-1,.5-1,1v8.5h33,0Z"/>
      <g>
        <polygon points="187.3 111.9 187.3 109.9 187.8 109.9 188.5 111.4 189.2 109.9 189.7 109.9 189.7 111.9 189.2 111.9 189.2 110.7 188.7 111.9 188.3 111.9 187.7 110.7 187.7 111.9 187.3 111.9"/>
        <path d="M190.4,111.9h-.5l.9-2h.7l.9,2h-.5l-.2-.4h-1.1l-.2.4h0ZM191.4,111.1l-.4-.9-.4.9h.8,0Z"/>
        <polygon points="192.5 111.9 192.5 109.9 194.4 109.9 194.4 110.3 192.9 110.3 192.9 110.7 194.2 110.7 194.2 111.1 192.9 111.1 192.9 111.5 194.4 111.5 194.4 111.9 192.5 111.9"/>
        <path d="M194.8,111.9v-2h1.6c.2,0,.4.1.4.4v.7c0,.2-.2.3-.4.3h0l.5.7h-.5l-.5-.7h-.6v.7h-.5ZM195.2,110.8h1v-.5h-1v.5Z"/>
        <path d="M197.6,111.9h-.2c-.2,0-.3-.1-.3-.3v-.3h.5v.2h1v-.4h-1.2c-.2,0-.3-.1-.3-.3v-.6c0-.2.2-.3.3-.3h1.3c.2,0,.3.2.3.3v.3h-.5v-.2h-1v.4h1.2c.2,0,.3.1.3.3v.6c0,.2-.1.3-.3.3h-1.2Z"/>
        <polygon points="199.5 111.9 199.5 109.9 200 109.9 200 110.7 200.9 109.9 201.5 109.9 200.4 110.8 201.6 111.9 200.9 111.9 200 111 200 111.9 199.5 111.9"/>
        <path class="st14" d="M185.4,112.7c0,.3-.3.5-.5.5h-3.3c-.3,0-.5-.3-.5-.5v-3.5c0-.3.3-.5.5-.5h3.3c.3,0,.5.3.5.5v3.5Z"/>
        <polygon class="st10" points="183.9 110.8 184.8 109.7 184.8 109.7 183.5 110.3 183.2 109 183.2 109 182.9 110.3 181.6 109.7 181.6 109.7 182.5 110.8 181.3 111.4 181.3 111.4 182.6 111.4 182.3 112.7 182.3 112.7 183.2 111.6 184 112.7 184 112.7 183.7 111.4 185.1 111.4 185.1 111.4 183.9 110.8"/>
      </g>
      <path class="st14" d="M262.5,138.4h-118.1c-3,0-5.6-1.7-6.9-4.4l-6.5-13.6h34.5c1.4,0,2.7.6,3.7,1.6l4.7,4.9h62.9l10.9-6.8c1-.6,2-.9,3.1-.9h22.1l-12.7,13.8c-.2,2.4.5,4.3,2.2,5.5"/>
      <rect class="st16" x="154.6" y="100.9" width="7.5" height="6.3"/>
      <path class="st16" d="M138.1,120.4v-13c0-.6.5-1,1-1h23.7c.6,0,1,.5,1,1v13h-25.6,0Z"/>
      <path class="st16" d="M154.6,99.2h9.1v1.1c0,.4-.3.7-.7.7h-8.4v-1.7h0Z"/>
      <polygon class="st14" points="143.9 103.6 152.5 103.6 152.5 96.2 145.9 96.2 143.9 103.6"/>
      <polygon class="st10" points="147.9 99.7 146.8 98.3 146.8 98.3 148.5 99.1 148.9 97.2 148.9 97.2 149.4 99.1 151.1 98.3 151.1 98.3 149.9 99.7 151.6 100.5 151.6 100.6 149.7 100.6 150.1 102.4 150.1 102.4 148.9 100.9 147.7 102.4 147.7 102.4 148.1 100.6 146.2 100.6 146.2 100.5 147.9 99.7"/>
    </g>
    <g class="st18">
      <g>
        <path class="st6" d="M90.9,80.8l23.4,11.8c6.3,3.2,10.8,9,12.2,16l9.9,50.1c.7,3.3-.4,6.6-2.7,9.1l-28.4,14.2-55,.4-24.1-4.5c-4.5-.9-7.4-5.2-6.7-9.6l9.4-59.8c.9-6.2,4.9-11.5,10.4-14.2l27.5-13.5h24.1Z"/>
        <path class="st5" d="M46.4,122.4h62.3c2.9,0,5.2,2.4,5.2,5.2v43c0,2.9-2.4,5.2-5.2,5.2h-62.3c-2.9,0-5.2-2.4-5.2-5.2v-43c0-2.8,2.3-5.2,5.2-5.2Z"/>
        <path d="M110,76.3c0-18.5-7.9-13.5-7.9-32s-5-25.1-21.8-25.1-23.7,4.6-23.7,26.5,6.7,33.7,24.5,33.7l10,1.1c0,2.1.1,10,.1,15.5h4.8c9.4,0,14-9.8,14-19.6h0Z"/>
        <path class="st12" d="M96.2,37l-.2,15.2,4,.2c0,4.8-.9,7-3.6,7v3.8c0,6.3-5.4,10.6-5.4,10.6v6.6l-12.1,36.8-12.1-36.4v-6.5s-5.3-5-5.3-10.2.2-2,.2-3.6c-2.7,0-3.3-2-3.3-4.5v-3.6l3.3-.2v-8.4c0,.2,20.5,3.3,34.4-6.9"/>
        <path d="M71.9,53h-1.3c-.6,0-.9-.4-.9-.9h0v-1.3c0-.6.4-.9.9-.9h1.3c.6,0,.9.4.9.9v1.3c0,.6-.4.9-.9.9h0"/>
        <path d="M87.1,53h-1.3c-.6,0-.9-.4-.9-.9h0v-1.3c0-.6.4-.9.9-.9h1.3c.6,0,.9.4.9.9v1.3c0,.6-.4.9-.9.9h0"/>
        <path class="st4" d="M91.5,73.4c-.2,2.3-.3,4.7-.5,7l-3.1,9.2c-15.9,0-21-15.3-21-15.3.6.8,4.5,5.4,11.1,5.7,7.8.4,12.6-5.7,13-6.2.2-.1.3-.3.5-.4h0Z"/>
        <polygon class="st7" points="91.1 80.4 92.9 106.6 79 117.2 66.2 106.6 67 80.9 79 117.2 91.1 80.4"/>
        <path class="st10" d="M83.7,67.8h-9.5c0,2.7,9.5,2.7,9.5,0"/>
      </g>
    </g>
    <path class="st14" d="M42.1,80.2h-23.7c-1.7,0-3,1.3-3,3h0v23.2c0,1.7,1.3,3,3,3h11.6l7.1,8.3v-8.3h4.9c1.7,0,3-1.3,3-3h0v-23.2c0-1.7-1.5-3-3-3h0"/>
    <path class="st11" d="M261.7,76.8c2.8,0,3.5.8,3.5,2.8h2.2c2.1,0,2.7,1.2,2.7,4h-33.9c0-2,.7-2.8,3.5-2.8,0-2.9,1-4,4.9-4h2.8c0-3.6,1.3-5.1,6.2-5.1s6.2,1.5,6.2,5.1h2.1Z"/>
    <path class="st11" d="M159.4,25.4h-17.8c0-2.3.8-3.2,3.9-3.2h2.8c0-3.2,1.1-4.5,5.6-4.5s4.3,1,4.3,3.5h0c4.1,0,5.1,1.2,5.1,4.2h-6.6"/>
    <g>
      <path class="st10" d="M31.5,106.1h-2.4c-.3,0-.5-.2-.6-.5l-1.1-2.4h5.8l-1.1,2.4c-.1.3-.4.5-.7.5ZM29.3,105.2h2.1l.5-1.2h-3.1l.5,1.2h0Z"/>
      <rect class="st10" x="35.2" y="93.1" width="4.6" height=".9"/>
      <rect class="st10" x="37.1" y="91.2" width=".9" height="4.6"/>
      <path class="st10" d="M29.1,87l-.8-.3.4-1.1c.2-.6.8-1,1.4-1h.7c.6,0,1.2.4,1.4,1l.4,1-.8.3-.4-1c-.1-.3-.3-.4-.6-.4h-.7c-.3,0-.5.2-.6.4,0,0-.4,1.1-.4,1.1Z"/>
      <path class="st10" d="M38,104h-15.3c-1,0-1.8-.8-1.8-1.8v-1.1c0-.4.2-.8.4-1.1l1.3-1.6c.7-.9,1.1-1.9,1.3-3l.5-4.4c.3-2.7,2.5-4.7,5.2-4.7h1.9c1.6,0,3.1.7,4.1,2,.5.6.9,1.4,1.1,2.2l-.9.2c-.2-.7-.5-1.3-.9-1.9-.8-1.1-2.1-1.6-3.4-1.6h-1.9c-2.2,0-4.1,1.7-4.3,3.9l-.5,4.4c-.2,1.3-.6,2.5-1.4,3.5l-1.3,1.6c-.2.2-.2.4-.2.6v1.1c0,.5.4.9.9.9h15.3c.5,0,.9-.4.9-.9v-1.1c0-.2,0-.4-.2-.6l-1.3-1.7c-.4-.5-.7-1-.9-1.6l.8-.3c.2.5.5.9.8,1.4l1.3,1.7c.3.3.4.7.4,1.1v1.1c0,1-.8,1.8-1.8,1.8h0Z"/>
    </g>
  </g>
</svg>