<svg width="135" height="40" viewBox="0 0 135 40" fill="none" xmlns="http://www.w3.org/2000/svg">
<g id="Google Play">
<g clip-path="url(#clip0_22579_4383)">
<rect width="135" height="40" rx="4" fill="black"/>
<path id="Path" d="M130 40H5C2.25 40 0 37.75 0 35V5C0 2.25 2.25 0 5 0H130C132.75 0 135 2.25 135 5V35C135 37.75 132.75 40 130 40Z" fill="black"/>
<g id="Group">
<path id="Path_2" d="M47.4196 10.24C47.4196 11.08 47.1696 11.75 46.6696 12.24C46.1096 12.83 45.3696 13.13 44.4696 13.13C43.5996 13.13 42.8696 12.83 42.2596 12.23C41.6496 11.63 41.3496 10.88 41.3496 10C41.3496 9.11 41.6496 8.37 42.2596 7.77C42.8696 7.17 43.5996 6.87 44.4696 6.87C44.8996 6.87 45.3096 6.95 45.6996 7.12C46.0896 7.29 46.3996 7.51 46.6396 7.79L46.1096 8.32C45.7096 7.85 45.1696 7.61 44.4696 7.61C43.8396 7.61 43.2896 7.83 42.8296 8.28C42.3696 8.72 42.1396 9.3 42.1396 10.01C42.1396 10.72 42.3696 11.3 42.8296 11.74C43.2896 12.18 43.8396 12.41 44.4696 12.41C45.1396 12.41 45.6996 12.19 46.1496 11.74C46.4396 11.45 46.6096 11.04 46.6496 10.52H44.4696V9.79999H47.3796C47.3996 9.95 47.4196 10.1 47.4196 10.24Z" fill="white" stroke="white" stroke-width="0.2"/>
<path id="Path_3" d="M52.0293 7.74H49.2993V9.64H51.7593V10.36H49.2993V12.26H52.0293V13H48.5293V7H52.0293V7.74Z" fill="white" stroke="white" stroke-width="0.2"/>
<path id="Path_4" d="M55.2801 13H54.5101V7.74H52.8301V7H56.9501V7.74H55.2701V13H55.2801Z" fill="white" stroke="white" stroke-width="0.2"/>
<path id="Path_5" d="M59.9395 13V7H60.7095V13H59.9395Z" fill="white" stroke="white" stroke-width="0.2"/>
<path id="Path_6" d="M64.1297 13H63.3597V7.74H61.6797V7H65.7997V7.74H64.1197V13H64.1297Z" fill="white" stroke="white" stroke-width="0.2"/>
<path id="Shape" d="M73.6101 12.22C73.0201 12.83 72.2901 13.13 71.4101 13.13C70.5301 13.13 69.8001 12.83 69.2101 12.22C68.6201 11.61 68.3301 10.87 68.3301 10C68.3301 9.13 68.6201 8.38 69.2101 7.78C69.8001 7.17 70.5301 6.87 71.4101 6.87C72.2801 6.87 73.0101 7.17 73.6101 7.78C74.2001 8.39 74.5001 9.13 74.5001 10C74.4901 10.88 74.2001 11.62 73.6101 12.22ZM69.7801 11.72C70.2201 12.17 70.7701 12.39 71.4101 12.39C72.0501 12.39 72.6001 12.17 73.0401 11.72C73.4801 11.27 73.7101 10.7 73.7101 10C73.7101 9.3 73.4901 8.73 73.0401 8.28C72.6001 7.83 72.0501 7.61 71.4101 7.61C70.7701 7.61 70.2201 7.83 69.7801 8.28C69.3401 8.73 69.1101 9.3 69.1101 10C69.1101 10.7 69.3401 11.27 69.7801 11.72Z" fill="white" stroke="white" stroke-width="0.2"/>
<path id="Path_7" d="M75.5801 13V7H76.5201L79.4401 11.67H79.4701L79.4401 10.51V7H80.2101V13H79.4101L76.3601 8.11H76.3301L76.3601 9.27V13H75.5801Z" fill="white" stroke="white" stroke-width="0.2"/>
</g>
<path id="Shape_2" d="M68.14 21.75C65.79 21.75 63.87 23.54 63.87 26C63.87 28.45 65.79 30.25 68.14 30.25C70.49 30.25 72.41 28.45 72.41 26C72.41 23.54 70.49 21.75 68.14 21.75ZM68.14 28.5801C66.85 28.5801 65.74 27.5201 65.74 26C65.74 24.47 66.85 23.42 68.14 23.42C69.43 23.42 70.54 24.47 70.54 26C70.54 27.5201 69.42 28.5801 68.14 28.5801ZM58.82 21.75C56.47 21.75 54.55 23.54 54.55 26C54.55 28.45 56.47 30.25 58.82 30.25C61.17 30.25 63.09 28.45 63.09 26C63.09 23.54 61.17 21.75 58.82 21.75ZM58.82 28.5801C57.53 28.5801 56.42 27.5201 56.42 26C56.42 24.47 57.53 23.42 58.82 23.42C60.11 23.42 61.22 24.47 61.22 26C61.22 27.5201 60.11 28.5801 58.82 28.5801ZM47.74 23.0601V24.8601H52.06C51.93 25.8701 51.59 26.6201 51.08 27.1301C50.45 27.7601 49.47 28.4501 47.75 28.4501C45.09 28.4501 43.01 26.3101 43.01 23.6501C43.01 20.9901 45.09 18.85 47.75 18.85C49.18 18.85 50.23 19.41 51 20.14L52.27 18.8701C51.19 17.8401 49.76 17.05 47.74 17.05C44.1 17.05 41.04 20.01 41.04 23.66C41.04 27.3 44.1 30.2701 47.74 30.2701C49.71 30.2701 51.19 29.63 52.35 28.42C53.54 27.23 53.91 25.5501 53.91 24.2001C53.91 23.7801 53.88 23.39 53.81 23.07H47.74V23.0601ZM93.05 24.46C92.7 23.51 91.62 21.75 89.41 21.75C87.22 21.75 85.4 23.47 85.4 26C85.4 28.38 87.2 30.25 89.62 30.25C91.57 30.25 92.7 29.06 93.16 28.37L91.71 27.4001C91.23 28.1101 90.57 28.5801 89.62 28.5801C88.67 28.5801 87.99 28.1401 87.56 27.2901L93.25 24.94L93.05 24.46ZM87.25 25.8801C87.2 24.2401 88.52 23.4001 89.47 23.4001C90.21 23.4001 90.84 23.77 91.05 24.3L87.25 25.8801ZM82.63 30H84.5V17.5H82.63V30ZM79.57 22.7001H79.5C79.08 22.2001 78.28 21.75 77.26 21.75C75.13 21.75 73.18 23.62 73.18 26.0201C73.18 28.4001 75.13 30.26 77.26 30.26C78.27 30.26 79.08 29.8101 79.5 29.2901H79.56V29.9001C79.56 31.5301 78.69 32.4001 77.29 32.4001C76.15 32.4001 75.44 31.58 75.15 30.89L73.52 31.57C73.99 32.7 75.23 34.0801 77.29 34.0801C79.48 34.0801 81.33 32.7901 81.33 29.6501V22.01H79.56V22.7001H79.57ZM77.42 28.5801C76.13 28.5801 75.05 27.5 75.05 26.0201C75.05 24.5201 76.13 23.43 77.42 23.43C78.69 23.43 79.69 24.5301 79.69 26.0201C79.7 27.5 78.7 28.5801 77.42 28.5801ZM101.81 17.5H97.34V30H99.21V25.26H101.82C103.89 25.26 105.92 23.76 105.92 21.38C105.92 19 103.87 17.5 101.81 17.5ZM101.85 23.5201H99.2V19.23H101.85C103.25 19.23 104.04 20.3901 104.04 21.3701C104.04 22.3501 103.25 23.5201 101.85 23.5201ZM113.39 21.73C112.04 21.73 110.64 22.33 110.06 23.64L111.72 24.3301C112.07 23.6401 112.73 23.41 113.42 23.41C114.38 23.41 115.37 23.9901 115.38 25.0201V25.1501C115.04 24.9601 114.32 24.67 113.43 24.67C111.64 24.67 109.83 25.65 109.83 27.48C109.83 29.15 111.29 30.23 112.93 30.23C114.18 30.23 114.88 29.67 115.31 29.01H115.37V29.98H117.17V25.19C117.18 22.97 115.52 21.73 113.39 21.73ZM113.16 28.5801C112.55 28.5801 111.7 28.2701 111.7 27.5201C111.7 26.5601 112.76 26.19 113.68 26.19C114.5 26.19 114.89 26.3701 115.38 26.6101C115.24 27.76 114.24 28.5801 113.16 28.5801ZM123.74 22L121.6 27.42H121.54L119.32 22H117.31L120.64 29.5801L118.74 33.7901H120.69L125.82 22H123.74ZM106.94 30H108.81V17.5H106.94V30Z" fill="white"/>
<g id="Logo">
<path id="Path_8" d="M10.4395 7.53997C10.1495 7.84997 9.97949 8.32997 9.97949 8.93997V31.06C9.97949 31.68 10.1495 32.16 10.4395 32.46L10.5095 32.53L22.8995 20.15V20V19.85L10.5095 7.46997L10.4395 7.53997Z" fill="url(#paint0_linear_22579_4383)"/>
<path id="Path_9" d="M27.0294 24.28L22.8994 20.15V20V19.85L27.0294 15.72L27.1194 15.77L32.0094 18.55C33.4094 19.34 33.4094 20.64 32.0094 21.44L27.1194 24.22L27.0294 24.28Z" fill="url(#paint1_linear_22579_4383)"/>
<path id="Path_10" d="M27.1195 24.22L22.8995 20L10.4395 32.46C10.8995 32.95 11.6595 33.01 12.5195 32.52L27.1195 24.22Z" fill="url(#paint2_linear_22579_4383)"/>
<path id="Path_11" d="M27.1197 15.78L12.5097 7.47999C11.6497 6.98999 10.8897 7.04999 10.4297 7.53999L22.8997 20L27.1197 15.78Z" fill="url(#paint3_linear_22579_4383)"/>
<g id="Path_12">
<path id="Vector" opacity="0.2" d="M27.0295 24.13L12.5095 32.38C11.6995 32.84 10.9695 32.81 10.5095 32.39L10.4395 32.46L10.5095 32.53C10.9795 32.95 11.6995 32.98 12.5095 32.52L27.1195 24.22L27.0295 24.13Z" fill="black"/>
<path id="Vector_2" opacity="0.12" d="M10.4395 32.32C10.1495 32.01 9.97949 31.53 9.97949 30.92V31.07C9.97949 31.69 10.1495 32.17 10.4395 32.47L10.5095 32.4L10.4395 32.32Z" fill="black"/>
</g>
<path id="Path_13" opacity="0.12" d="M32.0095 21.3L27.0195 24.13L27.1095 24.22L31.9995 21.44C32.6995 21.04 33.0495 20.52 33.0495 20C32.9995 20.47 32.6495 20.94 32.0095 21.3Z" fill="black"/>
<path id="Path_14" opacity="0.25" d="M12.5097 7.61994L32.0097 18.6999C32.6397 19.0599 32.9997 19.5199 33.0597 19.9999C33.0597 19.4799 32.7097 18.9499 32.0097 18.5599L12.5097 7.47994C11.1097 6.68994 9.96973 7.34994 9.96973 8.94994V9.09994C9.96973 7.48994 11.1197 6.82994 12.5097 7.61994Z" fill="white"/>
</g>
</g>
</g>
<defs>
<linearGradient id="paint0_linear_22579_4383" x1="17.8641" y1="8.70967" x2="7.2425" y2="19.3313" gradientUnits="userSpaceOnUse">
<stop stop-color="#00A0FF"/>
<stop offset="0.00657445" stop-color="#00A1FF"/>
<stop offset="0.2601" stop-color="#00BEFF"/>
<stop offset="0.5122" stop-color="#00D2FF"/>
<stop offset="0.7604" stop-color="#00DFFF"/>
<stop offset="1" stop-color="#00E3FF"/>
</linearGradient>
<linearGradient id="paint1_linear_22579_4383" x1="33.8338" y1="20.0014" x2="9.63691" y2="20.0014" gradientUnits="userSpaceOnUse">
<stop stop-color="#FFE000"/>
<stop offset="0.4087" stop-color="#FFBD00"/>
<stop offset="0.7754" stop-color="#FFA500"/>
<stop offset="1" stop-color="#FF9C00"/>
</linearGradient>
<linearGradient id="paint2_linear_22579_4383" x1="24.8265" y1="23.9729" x2="6.68455" y2="42.1149" gradientUnits="userSpaceOnUse">
<stop stop-color="#FF3A44"/>
<stop offset="1" stop-color="#C31162"/>
</linearGradient>
<linearGradient id="paint3_linear_22579_4383" x1="7.29699" y1="5.61967" x2="15.3946" y2="13.7172" gradientUnits="userSpaceOnUse">
<stop stop-color="#32A071"/>
<stop offset="0.0685" stop-color="#2DA771"/>
<stop offset="0.4762" stop-color="#15CF74"/>
<stop offset="0.8009" stop-color="#06E775"/>
<stop offset="1" stop-color="#00F076"/>
</linearGradient>
<clipPath id="clip0_22579_4383">
<rect width="135" height="40" rx="4" fill="white"/>
</clipPath>
</defs>
</svg>
