<svg width="135" height="40" viewBox="0 0 135 40" fill="none" xmlns="http://www.w3.org/2000/svg">
<g id="App Store">
<g clip-path="url(#clip0_22579_4353)">
<rect width="135" height="40" rx="4" fill="black"/>
<path id="Vector" d="M130 40H5C2.25 40 0 37.75 0 35V5C0 2.25 2.25 0 5 0H130C132.75 0 135 2.25 135 5V35C135 37.75 132.75 40 130 40Z" fill="black"/>
<g id="Logo">
<g id="_Group_3">
<path id="_Path_" d="M32.769 20.3006C32.7908 18.6041 33.6802 17.0371 35.1256 16.1485C34.2096 14.8404 32.7305 14.0408 31.1344 13.9908C29.4552 13.8146 27.8272 14.9957 26.9715 14.9957C26.0992 14.9957 24.7817 14.0083 23.363 14.0375C21.4963 14.0978 19.7982 15.1334 18.8901 16.7654C16.9561 20.1138 18.3987 25.0349 20.2513 27.7415C21.1782 29.0668 22.2615 30.5473 23.6789 30.4948C25.066 30.4372 25.584 29.6103 27.2583 29.6103C28.9171 29.6103 29.4031 30.4948 30.8493 30.4614C32.3377 30.4372 33.2754 29.1302 34.1698 27.7923C34.8358 26.8479 35.3483 25.8042 35.6882 24.6997C33.9205 23.9521 32.7711 22.2199 32.769 20.3006Z" fill="white"/>
<path id="_Path_2" d="M30.0376 12.2108C30.8491 11.2366 31.2489 9.98445 31.1521 8.72021C29.9123 8.85044 28.767 9.44299 27.9445 10.3798C27.1323 11.3041 26.7209 12.5134 26.8008 13.7412C28.0573 13.7542 29.2502 13.1901 30.0376 12.2108Z" fill="white"/>
</g>
</g>
<g id="Group">
<path id="Shape" d="M50.3027 27.1397H45.5693L44.4326 30.4961H42.4277L46.9111 18.0781H48.9941L53.4775 30.4961H51.4385L50.3027 27.1397ZM46.0596 25.5908H49.8116L47.962 20.1436H47.9102L46.0596 25.5908Z" fill="white"/>
<path id="Shape_2" d="M63.1602 25.9698C63.1602 28.7833 61.6543 30.5909 59.3819 30.5909C58.2073 30.6524 57.1008 30.0371 56.5332 29.0069H56.4902V33.4913H54.6318V21.4425H56.4307V22.9483H56.4649C57.0577 21.9246 58.1653 21.3096 59.3477 21.3477C61.6455 21.3478 63.1602 23.1642 63.1602 25.9698ZM61.25 25.9698C61.25 24.1368 60.3028 22.9317 58.8574 22.9317C57.4375 22.9317 56.4824 24.1622 56.4824 25.9698C56.4824 27.794 57.4375 29.0157 58.8574 29.0157C60.3028 29.0157 61.25 27.8194 61.25 25.9698Z" fill="white"/>
<path id="Shape_3" d="M73.125 25.9698C73.125 28.7833 71.6192 30.5909 69.3467 30.5909C68.1721 30.6524 67.0657 30.0371 66.4981 29.0069H66.4551V33.4913H64.5967V21.4425H66.3955V22.9483H66.4297C67.0225 21.9246 68.1301 21.3096 69.3125 21.3477C71.6104 21.3477 73.125 23.1641 73.125 25.9698ZM71.2149 25.9698C71.2149 24.1368 70.2676 22.9317 68.8223 22.9317C67.4024 22.9317 66.4473 24.1622 66.4473 25.9698C66.4473 27.794 67.4024 29.0157 68.8223 29.0157C70.2676 29.0157 71.2149 27.8194 71.2149 25.9698Z" fill="white"/>
<path id="Path" d="M79.711 27.0362C79.8487 28.2676 81.045 29.0762 82.6797 29.0762C84.2461 29.0762 85.3731 28.2676 85.3731 27.1572C85.3731 26.1934 84.6934 25.6162 83.084 25.2207L81.4746 24.833C79.1944 24.2822 78.1358 23.2158 78.1358 21.4854C78.1358 19.3428 80.003 17.8711 82.6543 17.8711C85.2783 17.8711 87.0772 19.3428 87.1377 21.4854H85.2617C85.1494 20.2461 84.125 19.4981 82.6279 19.4981C81.1309 19.4981 80.1065 20.2549 80.1065 21.3565C80.1065 22.2344 80.7608 22.751 82.3613 23.1465L83.7295 23.4824C86.2773 24.0849 87.3359 25.1084 87.3359 26.9248C87.3359 29.248 85.4854 30.7031 82.542 30.7031C79.7881 30.7031 77.9287 29.2822 77.8086 27.0361L79.711 27.0362Z" fill="white"/>
<path id="Path_2" d="M91.3467 19.2998V21.4424H93.0684V22.9141H91.3467V27.9053C91.3467 28.6807 91.6914 29.042 92.4482 29.042C92.6526 29.0384 92.8567 29.0241 93.0596 28.999V30.4619C92.7193 30.5255 92.3734 30.5543 92.0273 30.5478C90.1943 30.5478 89.4795 29.8593 89.4795 28.1035V22.9141H88.1631V21.4424H89.4795V19.2998H91.3467Z" fill="white"/>
<path id="Shape_4" d="M94.0654 25.9697C94.0654 23.1211 95.7432 21.3311 98.3594 21.3311C100.984 21.3311 102.654 23.1211 102.654 25.9697C102.654 28.8262 100.993 30.6084 98.3594 30.6084C95.7265 30.6084 94.0654 28.8262 94.0654 25.9697ZM100.761 25.9697C100.761 24.0156 99.8652 22.8623 98.3594 22.8623C96.8535 22.8623 95.959 24.0244 95.959 25.9697C95.959 27.9316 96.8535 29.0762 98.3594 29.0762C99.8652 29.0762 100.761 27.9316 100.761 25.9697Z" fill="white"/>
<path id="Path_3" d="M104.187 21.4424H105.959V22.9834H106.002C106.249 21.9914 107.158 21.3087 108.18 21.3477C108.394 21.3469 108.607 21.3702 108.816 21.417V23.1553C108.546 23.0727 108.264 23.0347 107.981 23.043C107.435 23.0208 106.906 23.2386 106.534 23.639C106.162 24.0395 105.983 24.5827 106.045 25.126V30.4961H104.187V21.4424Z" fill="white"/>
<path id="Shape_5" d="M117.385 27.8369C117.135 29.4805 115.534 30.6084 113.486 30.6084C110.853 30.6084 109.218 28.8437 109.218 26.0127C109.218 23.1729 110.861 21.3311 113.408 21.3311C115.913 21.3311 117.488 23.0518 117.488 25.7969V26.4336H111.094V26.5459C111.034 27.2199 111.267 27.8871 111.733 28.3778C112.199 28.8684 112.853 29.1352 113.529 29.1103C114.431 29.1948 115.281 28.677 115.62 27.8369L117.385 27.8369ZM111.103 25.1348H115.629C115.663 24.5291 115.442 23.9368 115.021 23.5006C114.599 23.0644 114.015 22.8239 113.408 22.8369C112.797 22.8333 112.21 23.0739 111.777 23.5054C111.344 23.9369 111.101 24.5235 111.103 25.1348Z" fill="white"/>
</g>
<g id="Group_2">
<path id="Shape_6" d="M45.8262 8.73102C46.6151 8.67441 47.3879 8.97457 47.9317 9.5489C48.4756 10.1232 48.7333 10.9112 48.6338 11.6959C48.6338 13.6021 47.6035 14.6979 45.8262 14.6979H43.6709V8.73102H45.8262ZM44.5976 13.854H45.7226C46.2865 13.8877 46.8355 13.6656 47.2172 13.2493C47.5989 12.833 47.7728 12.2668 47.6904 11.708C47.7668 11.1515 47.5904 10.5901 47.2096 10.1772C46.8289 9.76424 46.2835 9.54311 45.7226 9.57423H44.5976V13.854Z" fill="white"/>
<path id="Shape_7" d="M49.681 12.4444C49.6038 11.6373 49.9908 10.8562 50.6797 10.4287C51.3686 10.0012 52.2404 10.0012 52.9293 10.4287C53.6182 10.8562 54.0053 11.6373 53.928 12.4444C54.0067 13.2524 53.6201 14.035 52.9305 14.4635C52.241 14.8919 51.368 14.8919 50.6785 14.4635C49.989 14.035 49.6023 13.2524 49.681 12.4444ZM53.014 12.4444C53.014 11.4683 52.5755 10.8975 51.806 10.8975C51.0335 10.8975 50.599 11.4683 50.599 12.4444C50.599 13.4283 51.0335 13.9947 51.806 13.9947C52.5755 13.9947 53.014 13.4244 53.014 12.4444Z" fill="white"/>
<path id="Path_4" d="M59.5732 14.6978H58.6514L57.7207 11.3813H57.6504L56.7236 14.6978H55.8105L54.5693 10.1948H55.4707L56.2773 13.6308H56.3438L57.2695 10.1948H58.1221L59.0479 13.6308H59.1182L59.9209 10.1948H60.8096L59.5732 14.6978Z" fill="white"/>
<path id="Path_5" d="M61.8535 10.1948H62.709V10.9101H62.7754C63.0063 10.3834 63.546 10.0613 64.1191 10.1079C64.563 10.0745 64.9979 10.2447 65.3011 10.5706C65.6043 10.8964 65.7429 11.3424 65.6777 11.7827V14.6977H64.7891V12.0058C64.7891 11.2822 64.4746 10.9223 63.8174 10.9223C63.5164 10.9083 63.2242 11.0264 63.0175 11.2458C62.8109 11.4651 62.7103 11.7638 62.7422 12.0634V14.6977H61.8535V10.1948Z" fill="white"/>
<path id="Path_6" d="M67.0938 8.43701H67.9824V14.6978H67.0938V8.43701Z" fill="white"/>
<path id="Shape_8" d="M69.2181 12.4444C69.1409 11.6372 69.528 10.8561 70.217 10.4286C70.906 10.001 71.7777 10.001 72.4667 10.4286C73.1557 10.8561 73.5428 11.6372 73.4656 12.4444C73.5442 13.2524 73.1575 14.035 72.4679 14.4634C71.7783 14.8918 70.9054 14.8918 70.2158 14.4634C69.5262 14.035 69.1395 13.2524 69.2181 12.4444ZM72.5511 12.4444C72.5511 11.4683 72.1126 10.8975 71.3431 10.8975C70.5706 10.8975 70.1361 11.4683 70.1361 12.4444C70.1361 13.4283 70.5706 13.9947 71.3431 13.9947C72.1126 13.9947 72.5511 13.4244 72.5511 12.4444Z" fill="white"/>
<path id="Shape_9" d="M74.4004 13.4243C74.4004 12.6138 75.0039 12.1465 76.0752 12.0801L77.2949 12.0098V11.6211C77.2949 11.1455 76.9805 10.877 76.3731 10.877C75.877 10.877 75.5332 11.0591 75.4346 11.3774H74.5742C74.665 10.604 75.3926 10.1079 76.4141 10.1079C77.543 10.1079 78.1797 10.6699 78.1797 11.6211V14.6978H77.3242V14.0649H77.2539C76.9634 14.5271 76.4467 14.7972 75.9014 14.7719C75.5191 14.8117 75.1379 14.6879 74.8519 14.4311C74.5659 14.1744 74.4019 13.8086 74.4004 13.4243ZM77.2949 13.0395V12.6631L76.1953 12.7334C75.5752 12.7749 75.2939 12.9858 75.2939 13.3828C75.2939 13.7881 75.6455 14.0239 76.1289 14.0239C76.4151 14.0529 76.7008 13.9645 76.9206 13.7789C77.1404 13.5933 77.2755 13.3265 77.2949 13.0395Z" fill="white"/>
<path id="Shape_10" d="M79.3477 12.4444C79.3477 11.0215 80.0791 10.1201 81.2168 10.1201C81.7913 10.0937 82.3293 10.4015 82.5977 10.9101H82.6641V8.43701H83.5527V14.6978H82.7012V13.9863H82.6309C82.3423 14.4907 81.7976 14.7934 81.2168 14.772C80.0713 14.772 79.3477 13.8706 79.3477 12.4444ZM80.2657 12.4444C80.2657 13.3994 80.7159 13.9741 81.4688 13.9741C82.2178 13.9741 82.6807 13.3911 82.6807 12.4483C82.6807 11.5098 82.2129 10.9185 81.4688 10.9185C80.7207 10.9185 80.2656 11.4971 80.2656 12.4444H80.2657Z" fill="white"/>
<path id="Shape_11" d="M87.2298 12.4444C87.1526 11.6373 87.5396 10.8562 88.2285 10.4287C88.9175 10.0012 89.7892 10.0012 90.4781 10.4287C91.1671 10.8562 91.5541 11.6373 91.4769 12.4444C91.5556 13.2524 91.1689 14.035 90.4794 14.4635C89.7898 14.8919 88.9169 14.8919 88.2273 14.4635C87.5378 14.035 87.1511 13.2524 87.2298 12.4444ZM90.5628 12.4444C90.5628 11.4683 90.1243 10.8975 89.3548 10.8975C88.5823 10.8975 88.1478 11.4683 88.1478 12.4444C88.1478 13.4283 88.5824 13.9947 89.3548 13.9947C90.1243 13.9947 90.5628 13.4244 90.5628 12.4444Z" fill="white"/>
<path id="Path_7" d="M92.6689 10.1948H93.5244V10.9101H93.5908C93.8218 10.3834 94.3614 10.0613 94.9346 10.1079C95.3784 10.0745 95.8133 10.2447 96.1165 10.5706C96.4197 10.8964 96.5583 11.3424 96.4932 11.7827V14.6977H95.6045V12.0058C95.6045 11.2822 95.29 10.9223 94.6328 10.9223C94.3318 10.9083 94.0396 11.0264 93.833 11.2458C93.6263 11.4651 93.5257 11.7638 93.5576 12.0634V14.6977H92.6689V10.1948Z" fill="white"/>
<path id="Path_8" d="M101.516 9.07373V10.2153H102.491V10.9639H101.516V13.2793C101.516 13.751 101.71 13.9575 102.152 13.9575C102.266 13.9572 102.379 13.9503 102.491 13.937V14.6772C102.332 14.7058 102.17 14.721 102.008 14.7227C101.02 14.7227 100.626 14.375 100.626 13.5068V10.9638H99.9111V10.2153H100.626V9.07373H101.516Z" fill="white"/>
<path id="Path_9" d="M103.704 8.43701H104.585V10.9185H104.655C104.897 10.3872 105.446 10.0646 106.028 10.1118C106.47 10.0878 106.899 10.2618 107.198 10.5864C107.498 10.9111 107.638 11.3525 107.579 11.7905V14.6978H106.689V12.0098C106.689 11.2905 106.354 10.9263 105.727 10.9263C105.417 10.9009 105.113 11.0133 104.894 11.2334C104.676 11.4535 104.565 11.7589 104.593 12.0679V14.6978H103.704L103.704 8.43701Z" fill="white"/>
<path id="Shape_12" d="M112.761 13.4819C112.512 14.3313 111.69 14.8801 110.81 14.7846C110.21 14.8005 109.633 14.5516 109.232 14.104C108.832 13.6564 108.648 13.0554 108.73 12.4604C108.65 11.8637 108.833 11.2618 109.231 10.8104C109.63 10.359 110.204 10.1027 110.806 10.1079C112.059 10.1079 112.815 10.9639 112.815 12.3779V12.688H109.635V12.7378C109.607 13.0719 109.721 13.4024 109.95 13.648C110.178 13.8936 110.499 14.0315 110.835 14.0278C111.269 14.0799 111.693 13.8643 111.906 13.4819L112.761 13.4819ZM109.635 12.0307H111.91C111.932 11.7251 111.825 11.4242 111.614 11.202C111.403 10.9799 111.108 10.8572 110.801 10.8642C110.491 10.8603 110.192 10.982 109.972 11.2016C109.753 11.4212 109.631 11.7202 109.635 12.0307H109.635Z" fill="white"/>
</g>
</g>
</g>
<defs>
<clipPath id="clip0_22579_4353">
<rect width="135" height="40" rx="4" fill="white"/>
</clipPath>
</defs>
</svg>
