<svg width="33" height="32" viewBox="0 0 33 32" fill="none" xmlns="http://www.w3.org/2000/svg">
<g id="Social Media Icon (community-figma-only)">
<path id="Vector" d="M30.6393 8.59547C30.295 7.29661 29.2774 6.27388 27.9871 5.92615C25.6484 5.29547 16.2666 5.29547 16.2666 5.29547C16.2666 5.29547 6.88478 5.29547 4.54615 5.92615C3.25581 6.27388 2.23819 7.29661 1.89387 8.59547C1.2666 10.9512 1.2666 15.8637 1.2666 15.8637C1.2666 15.8637 1.2666 20.7762 1.89387 23.1318C2.23819 24.4307 3.25581 25.4534 4.54615 25.8012C6.88649 26.4318 16.2666 26.4318 16.2666 26.4318C16.2666 26.4318 25.6484 26.4318 27.9871 25.8012C29.2774 25.4534 30.295 24.4307 30.6393 23.1318C31.2666 20.7779 31.2666 15.8637 31.2666 15.8637C31.2666 15.8637 31.2666 10.9512 30.6393 8.59547Z" fill="#FF0000"/>
<path id="Vector_2" d="M13.1982 20.3244L21.0392 15.8636L13.1982 11.4028V20.3244Z" fill="white"/>
</g>
</svg>
